<svg xmlns="http://www.w3.org/2000/svg" width="50" height="49.69" viewBox="0 0 50 49.69"><title>icons</title><path d="M9.48,31.57v13a3.29,3.29,0,0,1-.05.54h0A3,3,0,0,1,6.5,47.57H3.71a3,3,0,0,1-3-3v-13a3,3,0,0,1,2.45-2.93,3.05,3.05,0,0,1,.52-.05H6.5A3,3,0,0,1,9.48,31.57Z" fill="#f96969"/><path d="M2.61,42.89a2.5,2.5,0,1,0,3.48-2.3.73.73,0,0,0-.58,1.35,1,1,0,1,1-1.38.64C4.45,41.58,2.61,40.91,2.61,42.89Z" fill="#333"/><path d="M49,18.05l-3.55-1.28a9,9,0,0,0,0-1.27L49,14.21a1.49,1.49,0,0,0,.89-1.91L48.71,9a1.51,1.51,0,0,0-1.92-.89L43.25,9.39a10.67,10.67,0,0,0-.81-1l1.88-3.26a1.5,1.5,0,0,0-.55-2.05l-3-1.75a1.49,1.49,0,0,0-2,.54L36.8,5.16C36.39,5.07,36,5,35.56,5L34.9,1.24A1.5,1.5,0,0,0,33.17,0L29.71.63a1.51,1.51,0,0,0-1.22,1.74l.66,3.71a12,12,0,0,0-1.1.63L25.17,4.29a1.49,1.49,0,0,0-2.11.18L20.8,7.16A1.5,1.5,0,0,0,21,9.27l2.89,2.42a10.59,10.59,0,0,0-.43,1.19H19.67a1.5,1.5,0,0,0-1.49,1.5v3.51a1.5,1.5,0,0,0,1.49,1.5h3.77a10.59,10.59,0,0,0,.43,1.19L21,23a1.49,1.49,0,0,0-.18,2.1l2.26,2.7a1.5,1.5,0,0,0,2.11.18l2.88-2.42a12,12,0,0,0,1.1.63l-.66,3.71a1.51,1.51,0,0,0,1.22,1.74l3.46.61A1.5,1.5,0,0,0,34.9,31l.66-3.71a10.38,10.38,0,0,0,1.24-.22l1.89,3.27a1.49,1.49,0,0,0,2,.54l3-1.75a1.5,1.5,0,0,0,.55-2.05l-1.88-3.26a10.67,10.67,0,0,0,.81-1l3.54,1.29a1.51,1.51,0,0,0,1.92-.89L49.91,20A1.51,1.51,0,0,0,49,18.05Z" fill="#f96969"/><path d="M40,11.35,31.7,19.61l-3.48-3.48a.75.75,0,0,0-1,0,.73.73,0,0,0,0,1l3.56,3.56a1.36,1.36,0,0,0,1.92,0L41,12.39a.73.73,0,0,0-1-1Z" fill="#333"/><path d="M31.7,21.49a1.71,1.71,0,0,1-1.21-.5l-3.56-3.57a1.06,1.06,0,0,1-.32-.77,1.07,1.07,0,0,1,.32-.77,1.09,1.09,0,0,1,1.54,0l3.23,3.23,8-8a1.1,1.1,0,0,1,1.55,1.55L32.91,21A1.73,1.73,0,0,1,31.7,21.49Zm-4-5.22a.38.38,0,0,0-.38.38.39.39,0,0,0,.11.27L31,20.48a1,1,0,0,0,1.41,0l8.34-8.34a.37.37,0,0,0-.53-.53L31.7,20.12,28,16.38A.4.4,0,0,0,27.7,16.27Z" fill="#333"/><path d="M44.82,40.28l.27-.14h0c.81-.4,2.19-1.08,2.59-1.32h0a1.43,1.43,0,0,0-.66-2.69c-.18,0,.82-.24-17.33,4.33A3.1,3.1,0,0,1,24.48,42l-4.86-4.86a.74.74,0,0,1,1-1L25.52,41a1.64,1.64,0,1,0,2.29-2.36l-5.39-5.39A2.1,2.1,0,0,0,21,32.63H10.21v9.18c5.92,1,4.76.7,13,4.71,1.41.68,2.38,1.71,4.61,1.71A6.1,6.1,0,0,0,31,47.28l13.48-6.84h0Z" fill="none"/><path d="M6.5,29.33H3.71a2.24,2.24,0,0,0-2.24,2.24v7.1h0V42.2h0v2.4a2.25,2.25,0,0,0,2.24,2.24H6.5A2.24,2.24,0,0,0,8.74,44.6c0-14,0-13.14,0-13.44A2.25,2.25,0,0,0,6.5,29.33Z" fill="none"/><path d="M50,37.55a2.9,2.9,0,0,0-3.37-2.86L29.65,39a3.11,3.11,0,0,0-.8-1.36l-5.4-5.39a3.52,3.52,0,0,0-2.5-1H10.19a3.72,3.72,0,0,0-3.69-3.3H3.71A3.72,3.72,0,0,0,0,31.57v7.1H0V42.2H0v2.4a3.72,3.72,0,0,0,3.71,3.71H6.5a3.72,3.72,0,0,0,3.71-3.71V43.3c5.41.93,4.25.59,12.31,4.54,1.31.64,2.57,1.85,5.25,1.85a7.49,7.49,0,0,0,4-1.16L45,41.86l-.05,0-.4-1.44L31,47.28a6.1,6.1,0,0,1-3.26.95c-2.23,0-3.2-1-4.61-1.71-8.19-4-7-3.69-12.95-4.71V32.63H21a2.1,2.1,0,0,1,1.47.61l5.39,5.39A1.64,1.64,0,1,1,25.52,41l-4.86-4.86a.74.74,0,0,0-1,1L24.48,42a3.1,3.1,0,0,0,5.24-1.58c18.15-4.57,17.15-4.33,17.33-4.33a1.43,1.43,0,0,1,.66,2.69h0l.08,0c.43-.27,1.34.79,1.34.79l-.07.09A2.92,2.92,0,0,0,50,37.55ZM8.74,44.6A2.24,2.24,0,0,1,6.5,46.84H3.71A2.25,2.25,0,0,1,1.47,44.6V42.2h0V38.67h0v-7.1a2.24,2.24,0,0,1,2.24-2.24H6.5a2.25,2.25,0,0,1,2.21,1.83C8.76,31.46,8.74,30.58,8.74,44.6Z" fill="#333"/><path d="M44.82,40.28l.29-.14h0Z" fill="#333"/><path d="M47.78,38.77l-.08,0c-.4.24-1.78.92-2.59,1.32l-.29.14-.31.15h0l.4,1.44.05,0c3.06-1.33,3.88-2,4.09-2.21l.07-.09S48.21,38.5,47.78,38.77Z" fill="#333"/></svg>