<svg xmlns="http://www.w3.org/2000/svg" width="50" height="51.79" viewBox="0 0 50 51.79"><title>icons</title><rect x="16.18" y="4.53" width="17.39" height="5.11" fill="#f96969"/><path d="M50,13V37.86a3.2,3.2,0,0,1-3.21,3.21H33v5L37,50h4.11v1.79H2.68V50H13.84L17,46.16V41.07H3.21A3.2,3.2,0,0,1,0,37.86V13A3.2,3.2,0,0,1,3.21,9.82h8.4V.89A.89.89,0,0,1,12.5,0h25a.89.89,0,0,1,.89.89V9.82h.9V.89A.89.89,0,0,1,40.18,0h3.57a.89.89,0,0,1,.89.89V9.82h2.15A3.2,3.2,0,0,1,50,13ZM48.21,37.86V33.93H1.79v3.93a1.41,1.41,0,0,0,1.42,1.43H46.79A1.41,1.41,0,0,0,48.21,37.86Zm0-5.72V13a1.4,1.4,0,0,0-1.42-1.43H44.64v.89h1.79a1,1,0,0,1,.89.89v17a1,1,0,0,1-.89.89H3.57a.9.9,0,0,1-.89-.89v-17a.9.9,0,0,1,.89-.89h8v-.89H3.21A1.4,1.4,0,0,0,1.79,13v19.1Zm-2.67-2.68V14.29h-.9v7.59a1.15,1.15,0,0,1-.35.71L42.5,23.93a.89.89,0,0,1-1.07,0l-1.79-1.34a.83.83,0,0,1-.35-.71V14.29h-.9V29.46Zm-2.68-8V5.36H41.07V21.43l.89.62Zm0-17.86V1.79H41.07V3.57ZM39.29,12.5v-.89h-.9v.89Zm-2.68,17V1.79H13.39V29.46ZM16.16,50h18.3l-2.67-2.68H28.57V45.54h2.68V41.07H18.75v4.47H25v1.78H18.3ZM11.61,29.46V14.29H4.46V29.46Z" fill="#333"/><rect x="40.89" y="50" width="5.36" height="1.79" fill="#333"/><path d="M45.54,14.29V29.46H38.39V14.29h.9v7.59a1.1,1.1,0,0,0,.35.71l1.79,1.34a.89.89,0,0,0,1.07,0l1.79-1.34a.83.83,0,0,0,.35-.71V14.29Z" fill="#fff8ef"/><polygon points="42.86 5.36 42.86 21.43 41.96 22.14 41.07 21.43 41.07 5.36 42.86 5.36" fill="#f96969"/><rect x="41.07" y="1.79" width="1.79" height="1.79" fill="#f96969"/><path d="M36.61,1.79V29.46H13.39V1.79Zm-1.79,8V4.46a.89.89,0,0,0-.89-.89H16.07a.9.9,0,0,0-.89.89V9.82a1,1,0,0,0,.89.89H33.93A1,1,0,0,0,34.82,9.82Zm-.89,14.29V22.32H16.07v1.79Zm0-4.47V17.86H22.32v1.78Zm0-4.46V13.39H30.36v1.79Zm-6.25,0V13.39H16.07v1.79Zm-.89,11.61A1.79,1.79,0,1,0,25,28.57,1.79,1.79,0,0,0,26.79,26.79Zm-7.15-7.15V17.86H16.07v1.78Z" fill="#f96969"/><path d="M34.82,4.46V9.82a1,1,0,0,1-.89.89H16.07a1,1,0,0,1-.89-.89V4.46a.9.9,0,0,1,.89-.89H33.93A.89.89,0,0,1,34.82,4.46ZM33,8.93V5.36H17V8.93Z" fill="#333"/><rect x="16.07" y="22.32" width="17.86" height="1.79" fill="#333"/><rect x="22.32" y="17.86" width="11.61" height="1.79" fill="#333"/><rect x="30.36" y="13.39" width="3.57" height="1.79" fill="#333"/><rect x="16.07" y="13.39" width="11.61" height="1.79" fill="#333"/><path d="M25,34.78a1.83,1.83,0,1,1,0,3.65,1.83,1.83,0,1,1,0-3.65Zm.61,1.83a.61.61,0,0,0-1.22,0,.61.61,0,0,0,1.22,0Z" fill="#333"/><circle cx="25" cy="26.79" r="1.79" fill="#333"/><rect x="16.07" y="17.86" width="3.57" height="1.79" fill="#333"/></svg>