<svg xmlns="http://www.w3.org/2000/svg" xmlns:xlink="http://www.w3.org/1999/xlink" width="550" height="318.61" viewBox="0 0 550 318.61"><defs><linearGradient id="a" x1="92.5" y1="239.55" x2="98.7" y2="239.55" gradientUnits="userSpaceOnUse"><stop offset="0" stop-color="#f96969"/><stop offset="0.15" stop-color="#eb5d5d"/><stop offset="0.42" stop-color="#d84c4c"/><stop offset="0.7" stop-color="#cd4242"/><stop offset="1" stop-color="#c93f3f"/></linearGradient><linearGradient id="b" x1="118.76" y1="248.51" x2="107.82" y2="285.95" gradientTransform="translate(-46.33 -32.25) rotate(-2.36)" xlink:href="#a"/><linearGradient id="c" x1="77.66" y1="269.72" x2="87.27" y2="269.72" xlink:href="#a"/><linearGradient id="d" x1="126.44" y1="250.76" x2="115.49" y2="288.19" gradientTransform="translate(-46.33 -32.25) rotate(-2.36)" xlink:href="#a"/><linearGradient id="e" x1="121.83" y1="233.53" x2="121.83" y2="196.23" gradientTransform="translate(-46.33 -32.25) rotate(-2.36)" gradientUnits="userSpaceOnUse"><stop offset="0" stop-color="#232a57"/><stop offset="0.98" stop-color="#8c9ef9"/></linearGradient><linearGradient id="f" x1="133.64" y1="233.53" x2="133.64" y2="196.23" xlink:href="#e"/><linearGradient id="g" x1="108.98" y1="233.53" x2="108.98" y2="196.23" xlink:href="#e"/><linearGradient id="h" x1="168.17" y1="106.42" x2="168.17" y2="72.92" xlink:href="#a"/><linearGradient id="i" x1="140.09" y1="106.42" x2="140.09" y2="72.92" xlink:href="#a"/><linearGradient id="j" x1="134.85" y1="119.2" x2="172.36" y2="119.2" gradientTransform="matrix(1, 0, 0, 1, 0, 0)" xlink:href="#e"/><linearGradient id="k" x1="163.09" y1="111.6" x2="162.9" y2="131.98" gradientTransform="matrix(1, 0, 0, 1, 0, 0)" xlink:href="#e"/><linearGradient id="l" x1="142.86" y1="111.44" x2="142.68" y2="131.64" gradientTransform="matrix(1, 0, 0, 1, 0, 0)" xlink:href="#e"/><linearGradient id="m" x1="152.94" y1="106.42" x2="152.94" y2="72.92" xlink:href="#a"/><linearGradient id="n" x1="153.68" y1="108.77" x2="153.68" y2="99.2" gradientUnits="userSpaceOnUse"><stop offset="0" stop-color="#ccc"/><stop offset="1" stop-color="#fff"/></linearGradient><linearGradient id="o" x1="248.79" y1="266.52" x2="243.18" y2="218.05" xlink:href="#a"/><linearGradient id="p" x1="325.66" y1="279.46" x2="342.51" y2="279.46" xlink:href="#a"/><linearGradient id="q" x1="288.38" y1="260.41" x2="333.75" y2="260.41" gradientTransform="matrix(1, 0, 0, 1, 0, 0)" xlink:href="#e"/><linearGradient id="r" x1="273.5" y1="263.66" x2="267.89" y2="215.19" xlink:href="#a"/><linearGradient id="s" x1="317.16" y1="297.63" x2="326.56" y2="297.63" xlink:href="#a"/><linearGradient id="t" x1="330.8" y1="281.6" x2="256" y2="270.38" gradientTransform="matrix(1, 0, 0, 1, 0, 0)" xlink:href="#e"/><linearGradient id="u" x1="321.66" y1="305" x2="310.52" y2="236.65" gradientTransform="matrix(1, 0, 0, 1, 0, 0)" xlink:href="#e"/><linearGradient id="v" x1="296.91" y1="260.95" x2="291.3" y2="212.48" xlink:href="#a"/><linearGradient id="w" x1="434.21" y1="196.92" x2="434.21" y2="174.03" xlink:href="#a"/><linearGradient id="x" x1="405.57" y1="196.92" x2="405.57" y2="174.03" xlink:href="#a"/><linearGradient id="y" x1="407.05" y1="212.79" x2="432.58" y2="212.79" gradientUnits="userSpaceOnUse"><stop offset="0" stop-color="#170c4a"/><stop offset="0.98" stop-color="#5255ee"/></linearGradient><linearGradient id="z" x1="418.72" y1="196.92" x2="418.72" y2="174.03" xlink:href="#a"/><linearGradient id="aa" x1="418.95" y1="211.65" x2="418.95" y2="185.79" xlink:href="#n"/><linearGradient id="ab" x1="429.53" y1="250.77" x2="410.82" y2="212.18" gradientTransform="matrix(1, 0, 0, 1, 0, 0)" xlink:href="#e"/><linearGradient id="ac" x1="428.36" y1="252.58" x2="437.46" y2="252.58" xlink:href="#a"/><linearGradient id="ad" x1="401.63" y1="248.14" x2="432.62" y2="210.14" gradientTransform="matrix(1, 0, 0, 1, 0, 0)" xlink:href="#e"/><linearGradient id="ae" x1="401.4" y1="252.59" x2="410.5" y2="252.59" xlink:href="#a"/><linearGradient id="af" x1="383.61" y1="115.05" x2="357.36" y2="122.99" xlink:href="#a"/><linearGradient id="ag" x1="370.95" y1="130.99" x2="344.7" y2="138.93" xlink:href="#a"/><linearGradient id="ah" x1="388.32" y1="169.76" x2="387.42" y2="150.87" gradientUnits="userSpaceOnUse"><stop offset="0" stop-color="#ee4921"/><stop offset="0.16" stop-color="#f05530"/><stop offset="0.43" stop-color="#f46443"/><stop offset="0.71" stop-color="#f56d4e"/><stop offset="1" stop-color="#f67052"/></linearGradient><linearGradient id="ai" x1="388.17" y1="114.3" x2="378.79" y2="97.95" gradientTransform="matrix(1, 0, 0, 1, 0, 0)" xlink:href="#e"/><linearGradient id="aj" x1="400.11" y1="117.81" x2="381.83" y2="104.03" gradientTransform="matrix(1, 0, 0, 1, 0, 0)" xlink:href="#e"/><linearGradient id="ak" x1="145.57" y1="42.69" x2="134.49" y2="11.7" xlink:href="#a"/><linearGradient id="al" x1="149.69" y1="7.97" x2="166.02" y2="37.02" xlink:href="#n"/><linearGradient id="am" x1="128.46" y1="30.67" x2="144.78" y2="59.72" gradientUnits="userSpaceOnUse"><stop offset="0" stop-color="#ccc"/><stop offset="0.72" stop-color="#f1f1f1"/><stop offset="1" stop-color="#fff"/></linearGradient><linearGradient id="an" x1="122.9" y1="23.03" x2="139.22" y2="52.08" xlink:href="#n"/><linearGradient id="ao" x1="123.69" y1="22.58" x2="140.01" y2="51.64" xlink:href="#n"/><linearGradient id="ap" x1="288.58" y1="75.74" x2="268.87" y2="20.63" gradientTransform="matrix(0.64, -0.77, 0.77, 0.64, 60.01, 293.83)" xlink:href="#a"/><linearGradient id="aq" x1="279.18" y1="136.69" x2="307.4" y2="98.79" xlink:href="#n"/><linearGradient id="ar" x1="277.68" y1="135.57" x2="305.9" y2="97.67" xlink:href="#n"/><linearGradient id="as" x1="278.15" y1="135.92" x2="306.37" y2="98.02" xlink:href="#n"/><linearGradient id="at" x1="254.71" y1="118.47" x2="282.93" y2="80.57" xlink:href="#n"/></defs><title>icons</title><g style="isolation:isolate"><ellipse cx="275.95" cy="274.9" rx="249.91" ry="11.6" fill="#e6e6e6" opacity="0.5" style="mix-blend-mode:multiply"/><path d="M542.55,213.9C541,198,529.63,184,516.4,174.69c-14.2-10-30.76-16.1-46-24.45-5.62-3.08-11.48-7-13.44-13.07-2.42-7.51,2-15.53,7.31-21.35s11.87-10.85,15.18-18c4-8.7,2.41-19.28-2.44-27.55s-12.54-14.52-20.72-19.53c-23.81-14.56-57.44-18.62-77.94.33C367.27,61.3,359.05,78.16,344,78.34c-14.86.18-23.51-16-34.4-26.09-16.31-15.13-43-15.77-61.29-4-9.86,6.33-15.8,17-25.21,23.75-4.79,3.45-10.42,5.88-16.42,5.53-15.66-.9-24-18.33-35.91-28.53-19.8-16.93-50.73-12.93-73.2.25-8.94,5.24-17.34,12-22.42,21S68.8,91,73.91,100c6.29,11.11,21.36,17.89,21.54,30.67.13,9.19-8,16.27-15.84,21-13.36,8-28.22,13.26-41.51,21.38S12.67,193.11,9.68,208.39c-4,20.46,10.15,41.21,28.73,50.67,18.87,9.6,41,9.79,62.13,9.77l355.25-.36c20.16,0,41.2-.24,59.11-9.48,15.61-8.05,28-24,27.84-41.57C542.73,216.23,542.67,215.06,542.55,213.9Z" fill="#f7a6a6"/><circle cx="287.79" cy="6.26" r="6.26" fill="#f7a6a6"/><circle cx="284.66" cy="23.26" r="3.13" fill="#f7a6a6"/><path d="M272.3,11.46a3.93,3.93,0,1,0,5.36,1.44A3.92,3.92,0,0,0,272.3,11.46Z" fill="#f7a6a6"/><circle cx="11.48" cy="260.91" r="4.11" fill="#f7a6a6"/><circle cx="9.42" cy="272.09" r="2.06" fill="#f7a6a6"/><path d="M1.29,264.34a2.58,2.58,0,1,0,3.53.94A2.57,2.57,0,0,0,1.29,264.34Z" fill="#f7a6a6"/><circle cx="21.66" cy="140.49" r="6.26" fill="#f7a6a6"/><circle cx="18.54" cy="157.49" r="3.13" fill="#f7a6a6"/><path d="M6.17,145.69a3.93,3.93,0,1,0,5.37,1.44A3.93,3.93,0,0,0,6.17,145.69Z" fill="#f7a6a6"/><circle cx="545.89" cy="252.7" r="4.11" fill="#f7a6a6"/><circle cx="543.83" cy="263.88" r="2.06" fill="#f7a6a6"/><path d="M535.7,256.13a2.58,2.58,0,1,0,3.53.94A2.57,2.57,0,0,0,535.7,256.13Z" fill="#f7a6a6"/><circle cx="514.3" cy="130.64" r="6.26" fill="#f7a6a6"/><circle cx="511.17" cy="147.64" r="3.13" fill="#f7a6a6"/><path d="M498.81,135.84a3.92,3.92,0,1,0,5.36,1.44A3.94,3.94,0,0,0,498.81,135.84Z" fill="#f7a6a6"/><circle cx="357.85" cy="42.4" r="8.52" transform="translate(-2.17 57.87) rotate(-9.22)" fill="#f7a6a6"/><path d="M349.34,65.54a4.26,4.26,0,1,0,4.26-4.26A4.26,4.26,0,0,0,349.34,65.54Z" fill="#f7a6a6"/><path d="M336.77,49.48a5.34,5.34,0,1,0,7.3,2A5.34,5.34,0,0,0,336.77,49.48Z" fill="#f7a6a6"/><circle cx="214.97" cy="26.38" r="8.52" transform="translate(107.8 214.6) rotate(-67.34)" fill="#f7a6a6"/><path d="M206.46,49.53a4.26,4.26,0,1,0,4.26-4.26A4.26,4.26,0,0,0,206.46,49.53Z" fill="#f7a6a6"/><path d="M193.89,33.47a5.34,5.34,0,1,0,7.3,2A5.34,5.34,0,0,0,193.89,33.47Z" fill="#f7a6a6"/><text transform="translate(81.83 271.64)" font-size="205.12" fill="#f96969" font-family="Raleway-Bold, Raleway" font-weight="700"><tspan letter-spacing="-0.08em">F</tspan><tspan x="101.74" y="0" letter-spacing="-0.03em">A</tspan><tspan x="234.25" y="0">Q</tspan></text><text transform="translate(73.98 271.64)" font-size="205.12" fill="#fff" font-family="Raleway-Bold, Raleway" font-weight="700"><tspan letter-spacing="-0.08em">F</tspan><tspan x="101.74" y="0" letter-spacing="-0.03em">A</tspan><tspan x="234.25" y="0">Q</tspan></text><path d="M97.75,244.89l.16-.21a4.29,4.29,0,0,0,.34-4.37,2.43,2.43,0,0,1-.06-2l.09-.21c.68-1.65-.53-2.21-2.3-2.51,0,0-2.27-1.47-2.38-1.66l-1.1,2.72a17.81,17.81,0,0,0,2.06.85l1.76,7.08A.82.82,0,0,0,97.75,244.89Z" fill="url(#a)"/><path d="M73,195.6l-9.21,20.75c-1.21,2.73-1.41,5.37-.53,7.38,2.34,5.41,30.61,13.39,30.61,13.39l.06-3L74.46,218.88l13-21.1Z" fill="url(#b)"/><path d="M85.92,271.32l-.23,0a2.43,2.43,0,0,0-1.88.68c-1.14,1.11-3.89.87-5.38.4l-.24-.08a.83.83,0,0,1-.14-1.47L83.78,267a1.06,1.06,0,0,0,0-.27l3.13.33.13.63C87.3,269.41,87.71,271.46,85.92,271.32Z" fill="url(#c)"/><path d="M95.74,199.73C89.37,218,86.78,240.79,87,267h0l-3.13-.33-.11,0a118.48,118.48,0,0,1-1.9-59.51l2.9-9.43Z" fill="url(#d)"/><path d="M71.87,198.09l23.87,2,0-1a30.84,30.84,0,0,0-1.32-9.2,18.91,18.91,0,0,1-.25-9.51l2.67-11.56a6.27,6.27,0,0,0-3.38-7.07l-3.07-1.48-2.32-1.12-.36-.18-6.16.19-.29.09-2.48.87-3.17,1.11a6.3,6.3,0,0,0-4.08,7.22l2.78,13.23a18.89,18.89,0,0,1-.83,10.6Z" fill="url(#e)"/><path d="M81.42,162.45a3.25,3.25,0,1,0,6.42-.18c0-.25.26-3.14.26-3.14l-.36-.18-6.16.19-.29.09S81.42,162.12,81.42,162.45Z" fill="#ea9049"/><rect x="81.21" y="187.99" width="6.29" height="9.05" rx="0.6" transform="translate(-5.53 2.52) rotate(-1.66)" fill="#e0e7ee"/><path d="M82.89,189.65a.43.43,0,1,1-.42-.43A.42.42,0,0,1,82.89,189.65Z" fill="#372e62"/><path d="M75.86,154.85a3.11,3.11,0,0,0,2.65,2.23,10.52,10.52,0,0,0,1.57,2.26c.16.18.31.35.48.51a6.06,6.06,0,0,0,3.2,1.92l.11,0,.22.05h.14l.13,0h.29l.28,0h.13a.58.58,0,0,0,.14,0l.22-.05.11,0a5.93,5.93,0,0,0,3.07-2.11,9.82,9.82,0,0,0,1.17-1.53,8.33,8.33,0,0,0,.73-1.34A3.14,3.14,0,0,0,93,154.36c.23-1.21-.14-2.79-1.14-2.84a1.68,1.68,0,0,0-1,.31,13,13,0,0,0-3-5.54,4.4,4.4,0,0,0-1.9-1.44,3.22,3.22,0,0,0-1.13-.3,6.6,6.6,0,0,0-.77,0c-.25,0-.5,0-.75.05a3.21,3.21,0,0,0-1.12.37,4.41,4.41,0,0,0-1.81,1.54,13.16,13.16,0,0,0-2.64,5.71,1.66,1.66,0,0,0-1-.26C75.84,152.07,75.56,153.66,75.86,154.85Z" fill="#ed9659"/><path d="M80.08,159.34c.16.18.31.35.48.51a6.06,6.06,0,0,0,3.2,1.92l.11,0,.22.05h.14l.13,0h.29l.28,0h.13a.58.58,0,0,0,.14,0l.22-.05.11,0a5.93,5.93,0,0,0,3.07-2.11,9.82,9.82,0,0,0,1.17-1.53,3,3,0,0,0-1.28-1.21,6.56,6.56,0,0,0-2-.51,10.53,10.53,0,0,0-2.86-.08c-1.29.16-3,1-3.39,2.17A3,3,0,0,0,80.08,159.34Z" fill="#ed9659"/><path d="M87.32,153.81a.62.62,0,0,1-.49.74.64.64,0,0,1-.69-.56.64.64,0,0,1,.5-.74A.62.62,0,0,1,87.32,153.81Z" fill="#170c4a"/><path d="M82,154a.53.53,0,1,1-.6-.49A.56.56,0,0,1,82,154Z" fill="#170c4a"/><path d="M87.87,152.38a.21.21,0,0,1-.21-.08,1.27,1.27,0,0,0-1.78-.4.21.21,0,0,1-.28-.06.22.22,0,0,1,.06-.29,1.67,1.67,0,0,1,2.33.51.19.19,0,0,1,0,.28Z" fill="#170c4a"/><path d="M84.69,158.31a.19.19,0,0,1,.16-.14,1.29,1.29,0,0,0,1.18-1.4.22.22,0,0,1,.18-.23.2.2,0,0,1,.22.19,1.68,1.68,0,0,1-1.51,1.84.2.2,0,0,1-.23-.17A.14.14,0,0,1,84.69,158.31Z" fill="#170c4a"/><path d="M82.18,152.44a.16.16,0,0,1-.17.05,1.09,1.09,0,0,0-1.42.59.16.16,0,0,1-.22.1.17.17,0,0,1-.09-.22,1.4,1.4,0,0,1,1.83-.8.18.18,0,0,1,.11.22Z" fill="#170c4a"/><path d="M83.64,157.34a.68.68,0,0,1-.39-.11c-.38-.23-.49-.78-.3-1.47l.42-2.3a.16.16,0,1,1,.32.06l-.42,2.31c-.18.66,0,1,.15,1.12s.48,0,.74-.2a.18.18,0,0,1,.24,0,.15.15,0,0,1,0,.22A1.18,1.18,0,0,1,83.64,157.34Z" fill="#170c4a"/><path d="M91.78,193.06l-.87.7a4.89,4.89,0,0,1-2.94,1.1l-2.74.08a1.42,1.42,0,0,1-1.37-1.81,1.36,1.36,0,0,1,1.29-1h.13l2.12.14s0-1,0-1.47L88.92,192l1.24-1.29Z" fill="#ed9659"/><path d="M101.55,185.14l-9.77,7.92-1.62-2.36,7-7.31a.3.3,0,0,0,.1-.17l-1-2.95-2.91-8.52-3.87-9.89a1.14,1.14,0,0,1,1.46-1.5,9.91,9.91,0,0,1,6.48,6.53l4,11.43,1.14,3.38h0A3.16,3.16,0,0,1,101.55,185.14Z" fill="url(#f)"/><path d="M67.31,200.79a10.92,10.92,0,0,1-.88,5.16c-.59,0-.62-1-.74-1.4,0-.09-.09-.24-.11-.34a3.84,3.84,0,0,0-1,1.69c-.23.6-.16,1.75-.55,2.16s-.45,1.06-1.29-.06c-1.44-1.91-.12-5.14,2.12-6.58-.22-1.25-.42-2.34-.59-3.32l2.74.14c0,.24,0,.46,0,.65C67.45,201.52,67.26,200,67.31,200.79Z" fill="#ed9659"/><path d="M79,160.85c-.06,2.23-.24,4.38-.48,6.59-3.65,5.38-6.92,10.52-8.87,16.78,0,.09-.05-.11,0,.15-1.94,3.24-2.79,10.7-2.61,13.87l-2.74-.14A27,27,0,0,1,64.18,187c1.06-6.43,4-16.07,7.6-21.95,1.9-3.07,3.58-4,6.78-4.29C78.88,160.78,78.76,160.87,79,160.85Z" fill="url(#g)"/><path d="M91.71,148.15a8.74,8.74,0,0,0-1.25-3.52,6.81,6.81,0,0,0-3.69-2.06,20.09,20.09,0,0,0-2.33-.11c-1.53-.06-3-.48-4.43-.67-.26.51.36,1.23.74,1.51-1.27.66-3.09.32-4.61-.08.79,2.51,2.41,2.55,2.89,3.09-1.16.73-3.28.47-4.85-.91.77,6.17,2.92,5.56,3.38,6.76a4.4,4.4,0,0,0,1.09,3.35c.6-.64.59-2.36.76-3.21a20.61,20.61,0,0,1,.84-2.59c-.14.75,1.39,1.1,1.93,1.13a7.61,7.61,0,0,0,2.19-.16,2.14,2.14,0,0,1-.68-1.86c.68,1.07,3.33,2.35,4.57,1.87a3.38,3.38,0,0,1-.7-1.45c.87.81,2.34,1.34,2.83,2.44a9.19,9.19,0,0,1,.54,3.82c.36-1.08.39-2.33.66-3.46A9.12,9.12,0,0,0,91.71,148.15Z" fill="#f96969"/><path d="M153.07,65.28c-.15-1.37-.33-3-1.55-3.53-2.72-1.17-6.8,8-6.74,9.82a3.6,3.6,0,0,0,.93,2.44c.64.85.92,1,.23,1.8-1.49,1.75-5.07,5-2.49,7.51-.83.93-2.26,1.29-3.21,2.18a6.76,6.76,0,0,0-2.08,3.8c1-.21,2.09-1,3.16-1.32,1.26-.35,2.6-.51,3.9-.77,2-.39,6-.77,7.14-3.19.58-1.25.5-3.43.57-4.87.14-2.78.6-5.54.55-8.34C153.45,69,153.26,67.08,153.07,65.28Z" fill="#f96969"/><path d="M155,65.28c.15-1.37.33-3,1.55-3.53,2.72-1.17,6.8,8,6.74,9.82a3.6,3.6,0,0,1-.93,2.44c-.64.85-.92,1-.23,1.8,1.49,1.75,5.07,5,2.49,7.51.83.93,2.26,1.29,3.21,2.18a6.76,6.76,0,0,1,2.08,3.8c-1-.21-2.09-1-3.16-1.32-1.26-.35-2.6-.51-3.9-.77-2-.39-6-.77-7.14-3.19-.58-1.25-.5-3.43-.57-4.87-.14-2.78-.6-5.54-.55-8.34C154.59,69,154.78,67.08,155,65.28Z" fill="#f96969"/><path d="M159.37,82.23s4.5-1.49,8.29,4.48a75.9,75.9,0,0,0,5.85,8.14l2.78,3.31a2.93,2.93,0,0,1-1.58,4.73h0L161.22,92.26Z" fill="url(#h)"/><path d="M148.9,82.45s-4.5-1.49-8.3,4.48a73.21,73.21,0,0,1-5.85,8.14L132,98.38a2.93,2.93,0,0,0,1.58,4.74h0l13.49-10.64Z" fill="url(#i)"/><polygon points="142.03 114.09 134.85 114.09 146.37 124.15 157.47 124.95 172.36 113.72 163.84 113.46 142.03 114.09" fill="url(#j)"/><path d="M157.92,81.81l3.15,6.69c-.78,2-13.12,2.81-14,.85l2.42-7.27.77-.09a1.82,1.82,0,0,0,1.65-1.57h0a3.58,3.58,0,0,0-.26-2.22l4.3-1,.16,1.75c.05.62.09,1.26.11,1.88h0a.89.89,0,0,0,.8.89Z" fill="#ea9049"/><path d="M177.27,119.94a5.1,5.1,0,0,1-3.91,3.85l-.51.08a136.22,136.22,0,0,1-21.32,3.88l-2.93-3.87c8.37-2.75,15.83-5.66,21.53-9.67a5.08,5.08,0,0,1,7.14,5.73Z" fill="url(#k)"/><path d="M151.53,127.75c-2.15.24-4.34.43-6.57.61l-3.77,3.5a.48.48,0,0,1-.11.09,2.38,2.38,0,0,1-3.78-2.33l.23-1.26v0a3.71,3.71,0,0,1,2.84-2.35l3.92-.72c1.46-.46,2.9-.92,4.31-1.39Z" fill="#ee4921"/><path d="M156.5,123.17c-.61,1.18-1.42,2.83-2,4.08-8.06-1-15.4-2.09-20.85-3.71l-.51-.08a5.09,5.09,0,1,1,3.23-9.58A90,90,0,0,0,156.5,123.17Z" fill="url(#l)"/><path d="M165.1,131.64a1.35,1.35,0,0,1-.11-.09L161.15,128c-2.26-.24-4.5-.48-6.69-.73.62-1.25,1.43-2.9,2-4.08,1.94.65,3.92,1.28,6,1.87v0l3.34.61a3.69,3.69,0,0,1,2.84,2.35v0l.22,1.26A2.38,2.38,0,0,1,165.1,131.64Z" fill="#ee4921"/><path d="M163.84,113.46c-6.14,6.73-13.5,6.43-21.81.64l5.41-8.75a6.54,6.54,0,0,0,.54-3,6.67,6.67,0,0,0-.49-2.12l-.21-.51-1.42-3.4a9.09,9.09,0,0,1-.68-3.44,9,9,0,0,1,.5-2.94,10.73,10.73,0,0,0,.54-4.53l-.29-2.94a13.59,13.59,0,0,1,3.52-.4l-2,5.91c.92,2,12.19,2,13,0l-2.51-6.18a8.69,8.69,0,0,1,3.08.25c.92,1.46.41,5.12,1.61,7.55s.37,5.77-.93,8.32l-1.36,2.66-1.12,2.19a4.52,4.52,0,0,0-.22,1.53c0,.26,0,.53,0,.8a3,3,0,0,0,.44,1.32Z" fill="url(#m)"/><path d="M161.5,69.26a1.65,1.65,0,0,0-.95.27,12.59,12.59,0,0,0-2.72-5.45,4.34,4.34,0,0,0-1.8-1.45,3,3,0,0,0-1.09-.33,13.7,13.7,0,0,0-1.48,0,3,3,0,0,0-1.09.33,4.34,4.34,0,0,0-1.8,1.45,12.59,12.59,0,0,0-2.72,5.45,1.65,1.65,0,0,0-.95-.27c-1,.08-1.28,1.62-1,2.79a3,3,0,0,0,2.49,2.24A11,11,0,0,0,150.3,77a5.85,5.85,0,0,0,3,2l.1,0,.21,0,.14,0h.8l.14,0,.21,0,.1,0a5.87,5.87,0,0,0,3.06-2A11,11,0,0,0,160,74.29a3,3,0,0,0,2.49-2.24C162.78,70.88,162.47,69.34,161.5,69.26Z" fill="#ed9659"/><path d="M153.35,113.39s-2.39-4.08-2.83-4.51l-.51-.48a2.08,2.08,0,0,0-2.11-.45l-2.71.93a1.06,1.06,0,0,1-1.18-.31l-.1-.11-1.35-1.56s-6.53-10.8-10.11-9a3.5,3.5,0,0,0,.21,5.69l7.67,5,2.06,1.36,1.35.89a1.82,1.82,0,0,0,.93.29l3.38.09C147.52,112.49,152.36,115,153.35,113.39Z" fill="#ed9659"/><path d="M154.71,112.87s2.39-4.08,2.83-4.5l.52-.49a2.09,2.09,0,0,1,2.11-.45l2.7.94a1.1,1.1,0,0,0,1.19-.32l.09-.11,1.36-1.56s6.53-10.8,10.1-9a3.49,3.49,0,0,1-.21,5.68l-7.66,5-2.06,1.36-1.36.9a1.91,1.91,0,0,1-.92.29l-3.39.09C160.54,112,155.71,114.47,154.71,112.87Z" fill="#ed9659"/><path d="M154.87,76.07a2.66,2.66,0,0,0,1.83-1.94.19.19,0,0,0-.13-.23.19.19,0,0,0-.23.13,2.56,2.56,0,0,1-2.87,1.82.17.17,0,0,0-.21.15.18.18,0,0,0,.15.21A3.66,3.66,0,0,0,154.87,76.07Z" fill="#170c4a"/><path d="M157.25,71.63a.63.63,0,1,1-.58-.67A.63.63,0,0,1,157.25,71.63Z" fill="#170c4a"/><path d="M152.18,71.63a.63.63,0,1,1-.58-.67A.63.63,0,0,1,152.18,71.63Z" fill="#170c4a"/><path d="M158,70.06h0a.19.19,0,0,0,.1-.24,1.53,1.53,0,0,0-2-.91.19.19,0,0,0,.13.35,1.16,1.16,0,0,1,1.5.7A.19.19,0,0,0,158,70.06Z" fill="#170c4a"/><path d="M152.44,69.34v0a.19.19,0,0,0-.08-.25,1.53,1.53,0,0,0-2.09.55.18.18,0,0,0,.07.25.17.17,0,0,0,.25-.06,1.18,1.18,0,0,1,1.61-.41A.17.17,0,0,0,152.44,69.34Z" fill="#170c4a"/><path d="M153.57,74.21a.18.18,0,0,0,0-.36s-.34,0-.43-.19-.08-.35.42-1a.18.18,0,0,0-.28-.22c-.47.58-.62,1-.46,1.35s.73.39.75.39Z" fill="#170c4a"/><path d="M165.79,102.38H141.57a1.27,1.27,0,0,0-1.26,1.46l1.87,12.55a1.06,1.06,0,0,0-.81,1h0a1.05,1.05,0,0,0,1.06,1h22.36a1,1,0,0,0,1.05-1h0a1.06,1.06,0,0,0-1-1.06l2.22-12.49A1.27,1.27,0,0,0,165.79,102.38Z" fill="url(#n)"/><path d="M155.2,109.25a1.52,1.52,0,1,1-2.15,0A1.52,1.52,0,0,1,155.2,109.25Z" fill="#fff"/><path d="M160.19,63.59A7.26,7.26,0,0,0,154,60.54c-1.83.1-4.63,1.29-5.72,2.92-2.77,4.17-.41,6.07-.41,6.07,1.31,1.15,3.65-1.85,3.59-3.08A1.88,1.88,0,0,0,154,64.88c-.1,1.21,1.36,2.73,2.55,1.88.53,1.74,3.18,4.54,4.74,2.5C162.24,68,161.24,65.08,160.19,63.59Z" fill="#f96969"/><path d="M245,278.16l-1,2.59H229.85s-1.73-4.55,10.23-4.55Z" fill="#ed9659"/><path d="M255.57,240.22l-10.32,37.3-.25.64-4.92-2c2.26-15.83,6.17-39.55,10.06-43.37Z" fill="url(#o)"/><path d="M340,283.62a4,4,0,0,0,.66-7.17l-1.28-.81a4.13,4.13,0,0,0-2.24-.63l-10.55.21-.9,5.23,11.72,3.3A4,4,0,0,0,340,283.62Z" fill="url(#p)"/><path d="M293.38,264.49s12.05-23.77,12.16-23.45,9.51,35,9.51,35-31.11,10.23-45.37-3.13Z" fill="url(#q)"/><path d="M282,224.77c-16.47-3.85-24-.38-31.85,8,4.13,19.16,10.07,32.5,21.47,40.09l21.77-8.42Z" fill="url(#r)"/><path d="M263.57,227c0,3.22,2.21,5.82,4.94,5.82s4.95-2.6,4.95-5.82a7.24,7.24,0,0,0-.16-1.49l-2.33-.74h-5.12l-2.2,1.14A7.77,7.77,0,0,0,263.57,227Z" fill="#ea9049"/><path d="M257.27,213.76a2.55,2.55,0,0,1,1.45.42,19.48,19.48,0,0,1,4.15-8.34,6.59,6.59,0,0,1,2.77-2.22,4.73,4.73,0,0,1,1.66-.5c.38,0,.76,0,1.13,0s.75,0,1.13,0a4.78,4.78,0,0,1,1.67.5,6.56,6.56,0,0,1,2.76,2.22,19.49,19.49,0,0,1,4.16,8.34,2.52,2.52,0,0,1,1.44-.42c1.49.13,2,2.48,1.56,4.27-.52,2.26-2.22,3-3.81,3.42a16.28,16.28,0,0,1-2.94,4.19,9,9,0,0,1-4.66,3l-.16,0-.32.07-.22,0-.18,0-.43,0-.42,0-.19,0-.22,0-.31-.07-.16,0a9,9,0,0,1-4.67-3,16.53,16.53,0,0,1-2.94-4.19c-1.58-.45-3.29-1.16-3.81-3.42C255.3,216.24,255.79,213.89,257.27,213.76Z" fill="#ed9659"/><path d="M264.68,217a.93.93,0,0,0,.76,1.08,1,1,0,0,0,.23-1.94A.93.93,0,0,0,264.68,217Z" fill="#170c4a"/><path d="M271.94,217a.94.94,0,0,0,.76,1.08,1,1,0,1,0-.76-1.08Z" fill="#170c4a"/><path d="M263.78,215.71a.3.3,0,0,0,.3-.12,1.89,1.89,0,0,1,2.62-.68.31.31,0,0,0,.42-.1.32.32,0,0,0-.1-.42,2.5,2.5,0,0,0-3.44.85.29.29,0,0,0,.08.42A.17.17,0,0,0,263.78,215.71Z" fill="#170c4a"/><path d="M268.21,223.54a.28.28,0,0,0-.25-.21,1.92,1.92,0,0,1-1.8-2,.29.29,0,0,0-.27-.32.3.3,0,0,0-.33.28,2.5,2.5,0,0,0,2.33,2.67.31.31,0,0,0,.34-.27A.25.25,0,0,0,268.21,223.54Z" fill="#170c4a"/><path d="M271.55,214.59a.26.26,0,0,0,.27.06,1.59,1.59,0,0,1,2.12.83.24.24,0,0,0,.33.13.25.25,0,0,0,.14-.33,2.1,2.1,0,0,0-2.76-1.11.26.26,0,0,0-.15.33A.41.41,0,0,0,271.55,214.59Z" fill="#170c4a"/><path d="M269.73,222a1.06,1.06,0,0,0,.58-.17c.55-.36.69-1.18.37-2.2l-.72-3.39a.25.25,0,0,0-.29-.19.24.24,0,0,0-.18.29l.72,3.41c.3,1,.11,1.49-.16,1.68a1,1,0,0,1-1.12-.27.25.25,0,0,0-.35,0,.24.24,0,0,0,0,.33A1.82,1.82,0,0,0,269.73,222Z" fill="#170c4a"/><path d="M326.37,302.44a4.11,4.11,0,0,1-2.86,2.55,4,4,0,0,1-4.2-1.15l-.89-1a3.23,3.23,0,0,1-.77-1.92l-.49-9.38,5.12-1.4,4.05,10A3.31,3.31,0,0,1,326.37,302.44Z" fill="url(#s)"/><path d="M314.73,280.44l10-.23.89.24.9-5.23-.94,0-51.25-8.81a3.68,3.68,0,0,0-.73-.07,13.18,13.18,0,0,0-3.08.24,5.29,5.29,0,0,0-2.35,9.28,21.55,21.55,0,0,0,9.05,4.25h0C287.33,282.57,301.32,281.23,314.73,280.44Z" fill="url(#t)"/><path d="M321.55,280.4l.43,8.94.3.76-5.12,1.4-.05-.84L305,246.18a3.6,3.6,0,0,1-.12-.64,11.31,11.31,0,0,1,.05-2.76c.57-4,5.91-5.86,9-3.14a17.47,17.47,0,0,1,4.81,7.55h0C321.85,255.84,321.44,268.41,321.55,280.4Z" fill="url(#u)"/><path d="M284.44,246.54l-3.69,4.25a.88.88,0,0,0,.08,1.24l7.56,6.6a.87.87,0,0,0,1.26-.12l3.23-4.12a.88.88,0,0,0-.08-1.18l-7.09-6.73A.87.87,0,0,0,284.44,246.54Z" fill="#170c4a"/><path d="M282.49,251.54a.7.7,0,1,0,.69-.7A.7.7,0,0,0,282.49,251.54Z" fill="#fff"/><path d="M307.25,237c-1.18,4-4.48,12.89-12,18.69l-2-6.64,4.66-7.05-14-5.58a5.89,5.89,0,0,1-3.36-7.47l1.5-4.15,23.88,9.15A2.59,2.59,0,0,1,307.25,237Z" fill="url(#v)"/><path d="M295.28,255.66a25.63,25.63,0,0,1-6.19,3.57,3.33,3.33,0,0,1-4-1.21,9.61,9.61,0,0,1-.93-1.7l-2.85.47s-2.65-.56,6.69-4.73l1.5-1.17-2.5-3.57s.74-1.25,5.74,2.48l.51-.78Z" fill="#ed9659"/><path d="M258.79,214.33s0,0,0,0l0,0Z" fill="#170c4a"/><path d="M278.36,208.43a22.6,22.6,0,0,1-3-4.66,5.69,5.69,0,0,0-4.67-2.73,12.42,12.42,0,0,0-6,1.13c-2.22,1-4,3-5.55,4.77s-3,4.89-1.19,7c.16.18,1.68,1.74,1.74,1.9s-.33,1-.36,1.25a6.6,6.6,0,0,0,0,1.09c.06.93.54,2,1.63,1.49s.92-1.52,1-2.4a6.07,6.07,0,0,0-.52-3.23,9.71,9.71,0,0,0,6.17-5.68,6.15,6.15,0,0,0,2.16,2.29,21.44,21.44,0,0,0,2.27,1.64,17.18,17.18,0,0,0,2.39,1.09c.37.13.81,0,1,.39a3.29,3.29,0,0,1,0,1,5.18,5.18,0,0,0,.52,2.54c.18.35.38.9.83.79s.71-.89.82-1.25c.21-.71.34-1.44.58-2.14a11.2,11.2,0,0,1,.9-1.92A4.24,4.24,0,0,0,278.36,208.43Z" fill="#232a57"/><path d="M435.3,184.28c-.08-.94-.17-1.88-.3-2.82a77.54,77.54,0,0,0-1.41-7.64,38.36,38.36,0,0,0-2.11-6.7c-1-2.12-1.83-4.34-2.63-6.63q-1.11-3.18-2-6.57l-14,.59A55.54,55.54,0,0,1,408,167.65a110.86,110.86,0,0,0-5.61,12.29,37.73,37.73,0,0,0-2.25,14.9c.82-5,3-9.2,5.79-11.12a17.94,17.94,0,0,0,.79,10.81,18.69,18.69,0,0,0,5.1,7.05,27.67,27.67,0,0,0,6.6,4.49,4.12,4.12,0,0,0,2.89.55,5.54,5.54,0,0,0,2.35-1.87c4.29-5.07,7.07-13.78,7.26-22.77a17,17,0,0,0,2.78,3,7,7,0,0,1,2,4.27C435.53,187.58,435.44,185.93,435.3,184.28Z" fill="#232a57"/><path d="M444.68,189.78l-3.08-3.67c-.14-.16-.27-.32-.4-.49a87.59,87.59,0,0,1-6.11-8.57,12.07,12.07,0,0,0-4.94-4.42c-2.29-1.09-4.75-.93-7.17-1.21a5.72,5.72,0,0,1,.31.84c.25.88,1.07,1.29,1.71,1.85,2,1.75,2.2,4.74,2.53,7.21a4,4,0,0,0,1.83,3c.94.73,1.87,1.48,2.81,2.22l3.91,3.08,6.85,5.4A3.26,3.26,0,0,0,444.68,189.78Z" fill="url(#w)"/><path d="M414.84,171.94c-4.35.09-7.86,1.32-10.27,5.11a84,84,0,0,1-6.2,8.68l-.3.38L395,189.78a3.26,3.26,0,0,0,1.75,5.27l6.29-5,8.72-6.87c.15-.79.29-1.59.44-2.38.26-1.42,4,.28,4.65-1s-1.78-5.28-1.2-6.5a14.58,14.58,0,0,0,.71-1.71C416.26,171.86,415.53,171.93,414.84,171.94Z" fill="url(#x)"/><path d="M425.07,174.17a8.34,8.34,0,0,1-1.6-1.92h0a4.92,4.92,0,0,1-.43-.82c-1-.1-.76-1.89-.77-2,0-.36,0-.73-.08-1.08l-.17-1.95-4.77,1.15a3.44,3.44,0,0,1,.33,1.84c0,.2,0,.41-.05.63h0s0,.07,0,.15a1.8,1.8,0,0,1-.85,1.25,1.68,1.68,0,0,1-.3.15,13.69,13.69,0,0,1-.72,1.71,11.34,11.34,0,0,1-1.47,2.4c.5,3.6,2.82,6.33,5.62,6.33,3.09,0,5.6-3.32,5.72-7.48C425.35,174.43,425.22,174.3,425.07,174.17Z" fill="#ea9049"/><path d="M430,206.8l-17.73.41a5.28,5.28,0,0,0-3.35,9.26l2.54,2.22,17.32.09S436.52,207.86,430,206.8Z" fill="url(#y)"/><path d="M428.24,157.64a1.76,1.76,0,0,0-1.05.31,14.26,14.26,0,0,0-3-6.07,4.79,4.79,0,0,0-2-1.61,3.23,3.23,0,0,0-1.21-.36,11.22,11.22,0,0,0-1.64,0,3.23,3.23,0,0,0-1.21.36,4.79,4.79,0,0,0-2,1.61,14.13,14.13,0,0,0-3,6.07,1.78,1.78,0,0,0-1.05-.31c-1.08.1-1.44,1.81-1.14,3.11a3.35,3.35,0,0,0,2.77,2.48,12.09,12.09,0,0,0,2.14,3.05,6.48,6.48,0,0,0,3.39,2.17l.12,0,.23.06h.16l.13,0h.62l.13,0h.16l.23-.06.12,0a6.54,6.54,0,0,0,3.4-2.17,12.05,12.05,0,0,0,2.13-3.05,3.34,3.34,0,0,0,2.77-2.48C429.67,159.45,429.32,157.74,428.24,157.64Z" fill="#ed9659"/><path d="M420.64,165a2.81,2.81,0,0,0,1.94-2.05.19.19,0,0,0-.14-.24.2.2,0,0,0-.24.13,2.71,2.71,0,0,1-3,1.92.2.2,0,0,0-.22.16.19.19,0,0,0,.17.22A3.6,3.6,0,0,0,420.64,165Z" fill="#170c4a"/><path d="M424,158.64h0a.19.19,0,0,0,.1-.26,1.61,1.61,0,0,0-2.07-1,.19.19,0,0,0-.11.25.18.18,0,0,0,.25.11,1.23,1.23,0,0,1,1.57.75A.2.2,0,0,0,424,158.64Z" fill="#170c4a"/><path d="M418.09,157.88v0a.19.19,0,0,0-.09-.26,1.6,1.6,0,0,0-2.2.58.19.19,0,0,0,.33.2,1.23,1.23,0,0,1,1.69-.43A.22.22,0,0,0,418.09,157.88Z" fill="#170c4a"/><path d="M419.25,163.19c-.83-.14-.95-.52-1-.6a.2.2,0,0,1,0-.15l1.12-1.66a.19.19,0,0,1,.27-.06.2.2,0,0,1,.05.27l-1.05,1.57c.08.08.33.26,1.05.29a.19.19,0,0,1,.19.2.2.2,0,0,1-.21.18A3.32,3.32,0,0,1,419.25,163.19Z" fill="#170c4a"/><path d="M416.83,160.32a.62.62,0,1,0,1.23-.09.62.62,0,1,0-1.23.09Z" fill="#170c4a"/><path d="M421.72,160.32a.62.62,0,1,0,1.23-.09.62.62,0,1,0-1.23.09Z" fill="#170c4a"/><path d="M430.84,206.81c-6.82,7.49-15,7.14-24.25.71l6-9.73a6.94,6.94,0,0,0,.52-1.79,6.5,6.5,0,0,0,.08-1.53,7.29,7.29,0,0,0-.54-2.37l-.23-.57-1.58-3.77a10,10,0,0,1-.76-3.84,9.78,9.78,0,0,1,.56-3.27h0a8.06,8.06,0,0,1,1.55-2.79l1-1.11h0l.4-.42a5.78,5.78,0,0,0,.52-.59c.5,3.6,2.82,6.33,5.62,6.33,3.09,0,5.6-3.32,5.72-7.48l.31.31h0a19.58,19.58,0,0,1,3.24,4.3,8.8,8.8,0,0,0,.42,1.09c1.37,2.77.43,6.42-1,9.26l-1.51,3-1.24,2.44a1.57,1.57,0,0,0-.11.35,5.73,5.73,0,0,0-.13,1.35c0,.29,0,.59,0,.89A3.4,3.4,0,0,0,426,199Z" fill="url(#z)"/><path d="M443.7,195.28l-8.52,5.61-2.3,1.51-1.31.87-.83-2.21a1,1,0,0,0,.34-.27l.11-.12,1.51-1.73s7.26-12,11.24-10A3.88,3.88,0,0,1,443.7,195.28Z" fill="#ed9659"/><path d="M431.57,203.27l-.19.13a2.11,2.11,0,0,1-1,.32l-3.76.1c.59,1.33-4.79,4.11-5.9,2.33,0,0,2.66-4.54,3.15-5l.57-.54a2.33,2.33,0,0,1,2.35-.5l3,1a1.24,1.24,0,0,0,1-.08Z" fill="#ed9659"/><path d="M396,195.28l8.53,5.61,2.29,1.51,1.31.87.84-2.21a1,1,0,0,1-.35-.27l-.1-.12L407,198.94s-7.26-12-11.24-10A3.88,3.88,0,0,0,396,195.28Z" fill="#ed9659"/><path d="M408.09,203.27l.2.13a2,2,0,0,0,1,.32l3.77.1c-.59,1.33,4.79,4.11,5.89,2.33,0,0-2.65-4.54-3.14-5l-.57-.54a2.34,2.34,0,0,0-2.36-.5l-3,1a1.21,1.21,0,0,1-1-.08Z" fill="#ed9659"/><path d="M432.42,194.48H405.49a1.42,1.42,0,0,0-1.41,1.62l2.08,14a1.17,1.17,0,0,0-.9,1.14h0a1.18,1.18,0,0,0,1.17,1.17H431.3a1.18,1.18,0,0,0,1.18-1.17h0a1.17,1.17,0,0,0-1.13-1.17l2.47-13.9A1.41,1.41,0,0,0,432.42,194.48Z" fill="url(#aa)"/><path d="M421.24,202.12a1.7,1.7,0,1,1-2.4,0A1.7,1.7,0,0,1,421.24,202.12Z" fill="#fff"/><path d="M431.44,246.7l-2.49,2a.1.1,0,0,1,0,0c-2.65-3.43-9.26-12.81-12-16.27-6.82-8.56-10.91-14.68-10.73-21.3a4.3,4.3,0,0,1,1.33-3,4.43,4.43,0,0,1,3-1.22,6.34,6.34,0,0,1,5.85,3.88l6.12,17.45Z" fill="url(#ab)"/><path d="M437.35,255.76c-1.05-3.85-2.38-5.57-5.76-8.45h0l-.7-.59,0,0v0l-2.49,2c.12.47.27.91.41,1.33a19.49,19.49,0,0,0,5,7.57C435.49,259.38,438,258.11,437.35,255.76Z" fill="url(#ac)"/><path d="M433.27,211.13c.18,6.62-3.91,12.74-10.73,21.3-2.78,3.46-9.38,12.84-12,16.27a.1.1,0,0,1,0,0l-2.54-2a0,0,0,0,0,0,0l0,0,8.93-18.46,6.12-17.45a6.34,6.34,0,0,1,5.85-3.88,4.43,4.43,0,0,1,3,1.22A4.3,4.3,0,0,1,433.27,211.13Z" fill="url(#ad)"/><path d="M408,246.73l-1.23,1c-3,2.62-4.22,4.36-5.22,8-.65,2.35,1.86,3.62,3.56,1.87-1.1,1.13,4.49-6.21,4.81-7,.22-.57.43-1.2.62-1.87Z" fill="url(#ae)"/><path d="M426.27,152a5.71,5.71,0,0,0-2.52-2.58,8.44,8.44,0,0,0-6-.27,7.24,7.24,0,0,0-4.52,3.88,8.6,8.6,0,0,0,0,6.68l.12.31a3.76,3.76,0,0,0,1.45,1.85,9.7,9.7,0,0,1,2-6.42c.27-.34.58-.66.85-1s.33-.59.62-.69a7.69,7.69,0,0,0-.34,2.61c.1,1,1,1.78,1.06,2.78a5.07,5.07,0,0,1,1-1.49,6.23,6.23,0,0,1,1.81-1.45c.41-.24.82-.48,1.21-.74a16.08,16.08,0,0,0,.66,1.75c.36.76.94,1.3,1.33,2a7.86,7.86,0,0,1,.77,1.6c.11.39.08.82.16,1.19a7.92,7.92,0,0,0,1.3-4.34A11.3,11.3,0,0,0,426.27,152Z" fill="#232a57"/><path d="M424.37,157.93c.17.26.37.5.55.76a2,2,0,0,1,.36,1.31,11.47,11.47,0,0,1-.24,3.74c-.24.88-.61,1.73-.81,2.63A24.46,24.46,0,0,1,423.1,170c-.91,2.43-2.19,5.18-1.27,7.78a8,8,0,0,0,1.28,2.37,5.59,5.59,0,0,0,1.27,1c-.59-.64-.07-2.13.16-2.79a9.67,9.67,0,0,1,.92-1.85,16.69,16.69,0,0,0,1.22-2.81,22.86,22.86,0,0,0,1.37-6c.06-.84.13-1.69.13-2.54a13.42,13.42,0,0,0-.5-3.2c-.28-1.19-.17-2-.4-5.81" fill="#232a57"/><path d="M415.43,156.67a21.73,21.73,0,0,0-.56,3.33,11.75,11.75,0,0,0,.24,3.74c.24.88.62,1.73.81,2.63a25.71,25.71,0,0,0,1.13,3.62c.91,2.43,2.19,5.18,1.28,7.78a8.27,8.27,0,0,1-1.29,2.37,5.59,5.59,0,0,1-1.27,1c.59-.64.07-2.13-.15-2.79a9.71,9.71,0,0,0-.93-1.85,17.55,17.55,0,0,1-1.22-2.81,22.84,22.84,0,0,1-1.36-6c-.06-.84-.14-1.69-.14-2.54a13.94,13.94,0,0,1,.5-3.2c.28-1.19.18-2,.4-5.81" fill="#232a57"/><path d="M387.48,124c-.61,1.46-2.18,2.17-4.56,2.22a11.42,11.42,0,0,1-1.85-.1,12.76,12.76,0,0,1-4.71-1.62l-9.77-5.6-1-.61a5.48,5.48,0,0,0-8.09,5.88l.66,3.19v.06l-6.63,8.44-1.76-.56,8.21-20.48A8.13,8.13,0,0,1,368,110l5.78,2.18h0l8.54,2.94a8,8,0,0,1,5.39,6.47A4.73,4.73,0,0,1,387.48,124Z" fill="url(#af)"/><path d="M381.08,126.12l-15.31-.29-1.28,23.26-1.77.45-4.61-22.19-.66-3.19a5.49,5.49,0,0,1,8.09-5.88l1,.61,14.48,7.22Z" fill="url(#ag)"/><path d="M387.48,124h0a4.83,4.83,0,0,0,.24-2.41,8,8,0,0,0-5.39-6.47l-4-1.4c3.9-4.88,5.46-9.71,3.08-19l3.24-1.84C395.65,106.54,394.52,116.24,387.48,124Z" fill="url(#ah)"/><path d="M387.48,124h0a4.83,4.83,0,0,0,.24-2.41,8,8,0,0,0-5.39-6.47l-4-1.4c3.9-4.88,5.46-9.71,3.08-19l3.24-1.84C395.65,106.54,394.52,116.24,387.48,124Z" fill="url(#ai)"/><path d="M370.16,108.79c.06-.13.61-2.09.61-2.09l17,2.5-4-7.72a10.05,10.05,0,0,1-1.28-4.59c0-2.07,1.14-3.69,3.46-2.88a8.3,8.3,0,0,1,4.76,4.47c4.84,10.69,4.48,16.91-3.28,17a12.89,12.89,0,0,1-6.36-1.62Z" fill="url(#aj)"/><path d="M370.77,106.7l-.61,2.09-5-2.05C365.94,104.76,368,104.76,370.77,106.7Z" fill="#f7b8b7"/><path d="M372.34,111.66h0l-11.88-4.61s-1.85-13.51-1.72-13.51h0a2.06,2.06,0,0,1,2,1.74l1.62,10.33,8.93,3.66A1.86,1.86,0,0,1,372.34,111.66Z" fill="#e0e7ee"/><path d="M384.62,92.85l-1.91-3-2.93,1.26a13.59,13.59,0,0,1,1.6,3.62Z" fill="#ea9049"/><path d="M382.89,85.61a8.3,8.3,0,0,0-2-2.57,3.2,3.2,0,0,0-4.44-.64,3.21,3.21,0,0,0-1.08,1.6,8,8,0,0,0-.24,3c0,.36.06.72.11,1.08a4.39,4.39,0,0,1,.08,1.2,4.35,4.35,0,0,0-.06.52.92.92,0,0,0,0,.37c.06.17.34.17.54.16l0,0a4.41,4.41,0,0,0,4,2.54,3.37,3.37,0,0,0,2.39-1.7A5.61,5.61,0,0,0,382.89,85.61Z" fill="#ed9659"/><path d="M377.53,90.36a1.55,1.55,0,0,0,.3-1.51.12.12,0,0,0-.14-.08.13.13,0,0,0-.07.14,1.47,1.47,0,0,1-.84,1.77.11.11,0,0,0-.06.14.11.11,0,0,0,.14.05A1.87,1.87,0,0,0,377.53,90.36Z" fill="#170c4a"/><path d="M376.68,88.32a.4.4,0,0,1-.27.49.4.4,0,1,1-.22-.76A.4.4,0,0,1,376.68,88.32Z" fill="#170c4a"/><path d="M376.92,87.12h0a.11.11,0,0,0,0-.15.87.87,0,0,0-1.24-.1.1.1,0,0,0,0,.15.11.11,0,0,0,.15,0,.68.68,0,0,1,.95.09A.11.11,0,0,0,376.92,87.12Z" fill="#170c4a"/><path d="M358.62,154.41c-.77.26-1.58-.35-.43-1.21l4.54-3.61v-.05l1.77-.45v.07C366.54,151.59,364.1,152.49,358.62,154.41Z" fill="#ee4921"/><path d="M351.4,135.94c.37,3.16-2.16,2.57-7.8,1.13-.78-.21-1.12-1.17.32-1.24l5.77-.5,0,0,1.76.56Z" fill="#ee4921"/><path d="M384.57,86.18A2.07,2.07,0,0,0,384,85a1.78,1.78,0,0,0,.07-1.65c-.15-.35-.63-.88-1.05-.84a2.81,2.81,0,0,0-1.15-1.65c-.21-.12-1-.44-1,.08-.45-.64-2.57-1.14-2.82-.21a2.71,2.71,0,0,0-1.63.23c-.25.09-.59.19-.72.45s.08.2-.18.32-.41.09-.59.17a2.07,2.07,0,0,0-.75.43,2.52,2.52,0,0,0-.62,1.51,1.07,1.07,0,0,0,.06,1.41c.27.32.24.64.59.92a1.49,1.49,0,0,0,1.45.22c.39-.18.42-.36.85-.36a3.34,3.34,0,0,0,1.25-.19c.34-.13.48-.37.78-.54.21.56.33,1,.91,1.26a1.48,1.48,0,0,0,0,1.22c.27.5.55.52,1,.64-.19-.12-.21-.5-.16-.7a.76.76,0,0,1,.74-.58c2.06.22,1.07,2.65,1.07,2.65.13.74,1.11.62,1.53.34a1.65,1.65,0,0,0,.45-2.09A2.32,2.32,0,0,0,384.57,86.18Z" fill="#f96969"/><path d="M152.7,19.91l5.5,10a29.51,29.51,0,0,1-11.93,12,45.35,45.35,0,0,1-14.19,4.83l-.16,0L125.29,34a.7.7,0,0,0,.06-.09,34.75,34.75,0,0,1,9.32-9.17A31,31,0,0,1,152.7,19.91Z" fill="url(#ak)"/><path d="M161.15,22.35a34.36,34.36,0,0,1-3,7.57l-5.5-10a42.5,42.5,0,0,1,4.57.32l2.84.43a1.3,1.3,0,0,1,.44.17l.2.14A1.39,1.39,0,0,1,161.15,22.35Z" fill="url(#al)"/><path d="M146.27,41.89c-5.47,5.12-10.93,9.38-16.38,11.8l2.18-7A45.32,45.32,0,0,0,146.27,41.89Z" fill="url(#am)"/><path d="M134.66,24.78A35,35,0,0,0,125.35,34l-8.62-2.7C121.57,28.31,127.78,26.31,134.66,24.78Z" fill="url(#an)"/><polygon points="122.25 43.71 125.59 38.05 142.13 31.73 129.03 43.63 122.25 43.71" fill="url(#ao)"/><path d="M145,26.66a4.51,4.51,0,1,0,5.65-2.95A4.51,4.51,0,0,0,145,26.66Z" fill="#e0e7ee"/><path d="M120.92,43.66a6.26,6.26,0,0,0-1.86.89" fill="none" stroke="#372e62" stroke-linecap="round" stroke-linejoin="round" stroke-width="1.66"/><path d="M115.45,46.94c-12,8.68-36.52,33.56-.9,62.79" fill="none" stroke="#372e62" stroke-linecap="round" stroke-linejoin="round" stroke-width="1.66" stroke-dasharray="4.34 4.34"/><path d="M116.25,111.09l1.65,1.26" fill="none" stroke="#372e62" stroke-linecap="round" stroke-linejoin="round" stroke-width="1.66"/><path d="M265.68,109.94a29.54,29.54,0,0,0,11.92,12,45.07,45.07,0,0,0,14.2,4.83l.16,0,6.63-12.7-.06-.1a35,35,0,0,0-9.32-9.17,31,31,0,0,0-18-4.87,45.23,45.23,0,0,0-7.41.76,1.34,1.34,0,0,0-1,1.68A34.17,34.17,0,0,0,265.68,109.94Z" fill="url(#ap)"/><path d="M277.6,121.91c5.48,5.13,10.94,9.38,16.39,11.8l-2.19-7A45.07,45.07,0,0,1,277.6,121.91Z" fill="url(#aq)"/><path d="M289.21,104.8a35,35,0,0,1,9.32,9.17l8.62-2.7C302.31,108.33,296.1,106.33,289.21,104.8Z" fill="url(#ar)"/><polygon points="301.63 123.73 298.29 118.08 281.75 111.75 294.85 123.66 301.63 123.73" fill="url(#as)"/><path d="M278.84,106.69a4.5,4.5,0,1,1-5.64-3A4.49,4.49,0,0,1,278.84,106.69Z" fill="#e0e7ee"/><path d="M265.68,109.94l5.5-10c-.37-.23-2.27-.05-7.41.76a1.33,1.33,0,0,0-1,1.68A34.17,34.17,0,0,0,265.68,109.94Z" fill="url(#at)"/><path d="M303,123.68a6.14,6.14,0,0,1,1.86.89" fill="none" stroke="#232a57" stroke-linecap="round" stroke-linejoin="round" stroke-width="1.66"/><path d="M308.43,127c11.95,8.69,36.52,33.56.9,62.79" fill="none" stroke="#232a57" stroke-linecap="round" stroke-linejoin="round" stroke-width="1.66" stroke-dasharray="4.34 4.34"/><path d="M307.62,191.11c-.53.42-1.08.84-1.64,1.26" fill="none" stroke="#232a57" stroke-linecap="round" stroke-linejoin="round" stroke-width="1.66"/></g></svg>