<svg xmlns="http://www.w3.org/2000/svg" width="50" height="41.99" viewBox="0 0 50 41.99"><title>icons</title><path d="M32.62,22.85H17.38a2.93,2.93,0,0,1-2.93-2.93h0A2.93,2.93,0,0,1,17.38,17H32.62a2.93,2.93,0,0,1,2.93,2.93h0A2.93,2.93,0,0,1,32.62,22.85Z" fill="#f96969"/><rect x="23.05" y="22.85" width="3.91" height="18.16" fill="#f96969"/><path d="M30.13,16H19.5c-.81,0-1.47-.09-1.47-.2v-1c0-.11.66-.2,1.47-.2H30.13c.82,0,1.48.09,1.48.2v1C31.61,15.86,31,16,30.13,16Z" fill="#f96969"/><path d="M35.74,33.14a1,1,0,0,0-.69.28,1,1,0,0,0-.28.69,1,1,0,0,0,.28.69,1,1,0,0,0,.69.29.94.94,0,0,0,.69-.29,1,1,0,0,0,.29-.69,1,1,0,0,0-.29-.69A1,1,0,0,0,35.74,33.14Z"/><path d="M5.44,42h0Z" fill="#333"/><path d="M4.75,40.33a.94.94,0,0,0-.29.69,1,1,0,0,0,.29.69,1,1,0,0,0,.63.27V40.05A1,1,0,0,0,4.75,40.33Z" fill="#333"/><path d="M46.85,7.78a4.11,4.11,0,0,0,1.2-2.9V4.1a4.11,4.11,0,0,0-8.21,0v.78A4.11,4.11,0,0,0,41,7.78,6.06,6.06,0,0,0,38,12.11H33.5A2.93,2.93,0,0,0,30.57,15a3.19,3.19,0,0,0,.16,1H19.27a3.19,3.19,0,0,0,.16-1,2.93,2.93,0,0,0-2.93-2.93H12A6.06,6.06,0,0,0,9,7.78a4.11,4.11,0,0,0,1.2-2.9V4.1A4.11,4.11,0,0,0,2,4.1v.78a4.11,4.11,0,0,0,1.2,2.9A6,6,0,0,0,0,13.09V24a5.56,5.56,0,0,0,5.55,5.55h7.73v9.33A3.23,3.23,0,0,0,13.49,40H9.59V42h35a1,1,0,1,0,0-2H36.51a3.23,3.23,0,0,0,.21-1.12V37.84H34.77v1.08a1.13,1.13,0,0,1-2.25,0V26.59a2.77,2.77,0,0,1,2.76-2.76H48.05V24a3.61,3.61,0,0,1-3.6,3.6H35.74a1,1,0,0,0-1,1v1.12h1.94v-.14h7.73A5.56,5.56,0,0,0,50,24V13.09A6,6,0,0,0,46.85,7.78ZM41.8,4.1a2.15,2.15,0,1,1,4.29,0v.78a2.15,2.15,0,1,1-4.29,0ZM3.91,4.1a2.15,2.15,0,1,1,4.29,0v.78a2.15,2.15,0,1,1-4.29,0Zm-2,9a4.11,4.11,0,1,1,8.21,0,1,1,0,0,0,1,1H16.5a1,1,0,0,1,0,2H10.82A4.19,4.19,0,0,1,7.11,13.8a1,1,0,0,0-1.72.92,6.16,6.16,0,0,0,4.82,3.22,1.13,1.13,0,0,0-.05.32v3.62H2ZM14,21.88H12.11V18.26a.93.93,0,0,0,0-.29H14a3.89,3.89,0,0,0-.52,2A4,4,0,0,0,14,21.88Zm3.48,17a1.13,1.13,0,0,1-2.25,0V28.61a1,1,0,0,0-1-1H5.55A3.61,3.61,0,0,1,2,24v-.21H14.72a2.77,2.77,0,0,1,2.76,2.76ZM22.07,40H19.22a3,3,0,0,0,.21-1.12V26.59a4.69,4.69,0,0,0-.89-2.76h3.53ZM26,40H24V23.83h2Zm4.8,0H27.93V23.83h3.53a4.69,4.69,0,0,0-.89,2.76V38.92A3,3,0,0,0,30.78,40Zm1.84-18.16H17.38a2,2,0,0,1,0-3.91H32.62a2,2,0,0,1,0,3.91Zm5.27-3.62v3.62H36a4,4,0,0,0,.52-2A3.89,3.89,0,0,0,36,18h1.94A.93.93,0,0,0,37.89,18.26Zm10.16,3.62H39.84V18.26a1.13,1.13,0,0,0-.05-.32,6.16,6.16,0,0,0,4.82-3.22,1,1,0,0,0-1.72-.92A4.19,4.19,0,0,1,39.18,16H33.5a1,1,0,0,1,0-2h5.37a1,1,0,0,0,1-1,4.11,4.11,0,1,1,8.21,0Z" fill="#333"/><polygon points="9.59 40.03 5.38 40.03 5.38 40.05 5.38 41.98 5.38 41.99 5.41 41.99 5.46 41.99 9.59 41.99 9.59 41.98 9.59 40.05 9.59 40.03" fill="#333"/><polygon points="34.77 29.73 34.76 29.73 34.76 37.84 34.77 37.84 36.71 37.84 36.71 37.77 36.71 30.2 36.71 29.73 34.77 29.73" fill="#333"/></svg>