<svg xmlns="http://www.w3.org/2000/svg" width="50" height="50" viewBox="0 0 50 50"><title>icons</title><path d="M48.83,36.43a4.62,4.62,0,0,1-2.06-3.85V27.42a8.06,8.06,0,1,0-16.12,0v5.16a4.63,4.63,0,0,1-2.07,3.85l-.81.54.69.7a7.33,7.33,0,0,0,3.27,1.6l4.56-1.37V36.44a4.85,4.85,0,0,1-2.14-2.57h-.28a2.42,2.42,0,1,1,0-4.84h1a5.5,5.5,0,0,0,3.89-1.61A5.5,5.5,0,0,0,42.6,29h.95a2.42,2.42,0,1,1,0,4.84h-.28a4.85,4.85,0,0,1-2.14,2.57V37.9l4.56,1.37A7.33,7.33,0,0,0,49,37.67l.69-.7Z" fill="#f96969"/><path d="M11.29,4H21v7.26H11.29Z" fill="#f96969"/><path d="M11.29,16.13a8.07,8.07,0,0,0-8.06,8.06v4H4a2.42,2.42,0,0,1,2.42-2.42h9.68a2.42,2.42,0,0,1,2.42,2.42h.8v-4A8.07,8.07,0,0,0,11.29,16.13Z" fill="#f96969"/><path d="M47.13,38.86,41.94,37.3v-.42a5.74,5.74,0,0,0,1.88-2.23,3.22,3.22,0,0,0-.27-6.42H42.6a4.67,4.67,0,0,1-3.32-1.38l-.57-.57-.57.57a4.67,4.67,0,0,1-3.32,1.38h-1a3.22,3.22,0,0,0-.27,6.42,5.74,5.74,0,0,0,1.88,2.23v.42l-5.19,1.56a4,4,0,0,0-2.87,3.86V50H50V42.72A4,4,0,0,0,47.13,38.86Zm-4.56.32L41.48,43l-1.71-1.28,1.73-2.87Zm-3.86,1.19L37.1,37.68h0a5.75,5.75,0,0,0,3.22,0h0Zm6.45-8.92a1.61,1.61,0,0,1-.84,1.41q0-.3,0-.6v-2.2A1.62,1.62,0,0,1,45.16,31.45Zm-12.9,0a1.61,1.61,0,0,1,.8-1.39v2.2c0,.2,0,.4,0,.6A1.61,1.61,0,0,1,32.26,31.45Zm2.42.81V29.84h.14a6.26,6.26,0,0,0,3.89-1.34,6.26,6.26,0,0,0,3.89,1.34h.14v2.42a4,4,0,0,1-8.06,0Zm1.24,6.6,1.72,2.87L35.94,43l-1.1-3.83ZM29,42.72a2.39,2.39,0,0,1,1.73-2.31l2.54-.77L35,45.7l2.87-2.15v4.84h-4V45.16H32.26v3.23H29Zm19.36,5.67H45.16V45.16H43.55v3.23h-4V43.55l2.87,2.15,1.73-6.06,2.54.77a2.4,2.4,0,0,1,1.73,2.31Z" fill="#333"/><path d="M19.71,35.63l-5.19-1.55v-.42a5.85,5.85,0,0,0,1.88-2.24A3.22,3.22,0,0,0,16.13,25H6.45a3.22,3.22,0,0,0-.27,6.42,5.85,5.85,0,0,0,1.88,2.24v.42L2.87,35.64A4,4,0,0,0,0,39.5v7.27H22.58V39.5A4,4,0,0,0,19.71,35.63ZM15.16,36l-1.1,3.83-1.7-1.28,1.72-2.87Zm-3.87,1.19L9.68,34.45h0a5.52,5.52,0,0,0,3.22,0h0Zm6.45-8.91a1.6,1.6,0,0,1-.84,1.4c0-.2,0-.4,0-.6V26.84A1.6,1.6,0,0,1,17.74,28.23Zm-12.9,0a1.61,1.61,0,0,1,.81-1.39V29a5.74,5.74,0,0,0,0,.6A1.6,1.6,0,0,1,4.84,28.23Zm2.42.8V26.61h8.06V29a4,4,0,0,1-8.06,0Zm1.24,6.6,1.73,2.87L8.52,39.78,7.43,36ZM21,45.16H17.74V41.94H16.13v3.22H6.45V41.94H4.84v3.22H1.61V39.5a2.41,2.41,0,0,1,1.73-2.32l2.54-.76,1.73,6.06,3.68-2.76L15,42.48l1.73-6.06,2.54.76A2.4,2.4,0,0,1,21,39.5Z" fill="#333"/><path d="M23.39,14.52H10.48A2.43,2.43,0,0,1,8.06,12.1V2.42A2.43,2.43,0,0,1,10.48,0H26.61A2.42,2.42,0,0,1,29,2.42V4H27.42V2.42a.81.81,0,0,0-.81-.81H10.48a.81.81,0,0,0-.8.81V12.1a.8.8,0,0,0,.8.8H23.39Z" fill="#333"/><path d="M11.29,9.68h6.45v1.61H11.29Z" fill="#333"/><path d="M19.35,9.68H21v1.61H19.35Z" fill="#333"/><path d="M11.29,3.23H21V4.84H11.29Z" fill="#333"/><path d="M11.29,6.45H21V8.06H11.29Z" fill="#333"/><path d="M41.13,17.74H25a2.42,2.42,0,0,1-2.42-2.42V5.65A2.42,2.42,0,0,1,25,3.23H41.13a2.42,2.42,0,0,1,2.42,2.42v9.67A2.42,2.42,0,0,1,41.13,17.74Z" fill="#f96969"/><path d="M25.81,12.9H37.1v1.62H25.81Z" fill="#333"/><path d="M38.71,12.9h1.61v1.62H38.71Z" fill="#333"/><path d="M25.81,6.45H40.32V8.06H25.81Z" fill="#333"/><path d="M25.81,9.68H40.32v1.61H25.81Z" fill="#333"/><path d="M45.16,6.45h1.61V8.06H45.16Z" fill="#333"/><path d="M45.16,9.68h1.61v1.61H45.16Z" fill="#333"/><path d="M45.16,12.9h1.61v1.62H45.16Z" fill="#333"/><path d="M4.84,3.23H6.45V4.84H4.84Z" fill="#333"/><path d="M4.84,6.45H6.45V8.06H4.84Z" fill="#333"/><path d="M4.84,9.68H6.45v1.61H4.84Z" fill="#333"/></svg>