<svg xmlns="http://www.w3.org/2000/svg" width="50" height="50" viewBox="0 0 50 50"><title>icons</title><path d="M12.1,40.27h6.45V49H12.1Z" fill="#f96969"/><path d="M33,27.83h5.83V49H33Z" fill="#f96969"/><path d="M22.57,34.67h6.14V49H22.57Z" fill="#f96969"/><path d="M42.68,21.36H49V49H42.68Z" fill="#f96969"/><path d="M14.1,6.15V17H24.9C24.9,12,20.4,7.75,14.1,6.15Z" fill="#f96969"/><path d="M49,20.39H42.77a1,1,0,0,0-1,1v4.93a1,1,0,1,0,2,0V22.34h4.3V48.05h-4.3V33.62a1,1,0,1,0-2,0V48.05h-2V27.83a1,1,0,0,0-1-1H32.62a1,1,0,0,0-1,1V48.05H29.69V34.67a1,1,0,0,0-1-1H22.46a1,1,0,0,0-1,1V48.05H19.53V40.27a1,1,0,0,0-1-1H12.3a1,1,0,0,0-1,1v7.78H2.93a1,1,0,0,1-1-1V2.93a1,1,0,0,1,1-1H28.12V8.4a2.94,2.94,0,0,0,2.93,2.93H37.5v12a1,1,0,1,0,2,0v-13a.94.94,0,0,0-.29-.69L29.79.29A.94.94,0,0,0,29.1,0H2.93A2.93,2.93,0,0,0,0,2.93V47.07A2.93,2.93,0,0,0,2.93,50H49a1,1,0,0,0,1-1V21.36A1,1,0,0,0,49,20.39ZM30.08,8.4V3.33l6,6.05H31.05A1,1,0,0,1,30.08,8.4ZM13.28,48.05v-6.8h4.3v6.8Zm10.16,0V35.64h4.29V48.05Zm10.15,0V28.81h4.3V48.05Z" fill="#333"/><path d="M42.77,30.75a1,1,0,0,0,1-1,1,1,0,0,0-1-1,1,1,0,0,0-.69.28,1,1,0,0,0-.28.69,1,1,0,0,0,.28.69A1,1,0,0,0,42.77,30.75Z" fill="#333"/><path d="M14.22,5.34a1,1,0,0,0-1,1V8.08A9,9,0,1,0,23.15,18H24.9a1,1,0,0,0,1-1A11.68,11.68,0,0,0,14.22,5.34Zm0,18.7a7,7,0,0,1-1-14v7a1,1,0,0,0,1,1h7A7,7,0,0,1,14.22,24Zm1-8V7.35A9.73,9.73,0,0,1,23.88,16Z" fill="#333"/><path d="M25.88,29.71a1,1,0,0,0-1-1H6.25a1,1,0,1,0,0,2H24.9A1,1,0,0,0,25.88,29.71Z" fill="#333"/><path d="M6.25,33.45a1,1,0,1,0,0,1.95H12.5a1,1,0,1,0,0-1.95Z" fill="#333"/><path d="M16.7,33.73a1,1,0,0,0-.29.69,1,1,0,0,0,.29.69,1,1,0,0,0,1.38,0,1,1,0,0,0,.29-.69,1,1,0,0,0-.29-.69,1,1,0,0,0-1.38,0Z" fill="#333"/></svg>