<svg xmlns="http://www.w3.org/2000/svg" width="50" height="50" viewBox="0 0 50 50"><title>icons</title><rect x="9.68" y="3.23" width="1.61" height="1.61" fill="#333"/><rect x="12.9" y="3.23" width="1.61" height="1.61" fill="#333"/><rect x="6.45" y="3.23" width="1.61" height="1.61" fill="#333"/><path d="M46.77,10.24V0H3.23V10.24A5.65,5.65,0,0,0,0,15.32v24.2a5.65,5.65,0,0,0,5.65,5.64h8.87v3.23H11.29V50H38.71V48.39H35.48V45.16h8.87A5.65,5.65,0,0,0,50,39.52V15.32A5.65,5.65,0,0,0,46.77,10.24ZM4.84,8.06h37.1V6.45H4.84V1.61H45.16V6.45H43.55V8.06h1.61V35.48H4.84Zm29,40.33H16.13V45.16H33.87Zm10.48-4.84H5.65a4.05,4.05,0,0,1-4-3.23H48.31A4.05,4.05,0,0,1,44.35,43.55Zm4-4.84H1.61V15.32A4,4,0,0,1,3.23,12.1v25H46.77v-25a4,4,0,0,1,1.62,3.22Z" fill="#333"/><rect x="33.87" y="23.39" width="1.61" height="6.45" fill="#333"/><rect x="26.61" y="30.65" width="6.45" height="1.61" fill="#333"/><rect x="16.94" y="30.65" width="6.45" height="1.61" fill="#333"/><rect x="14.52" y="23.39" width="1.61" height="6.45" fill="#333"/><rect x="14.52" y="13.71" width="1.61" height="6.45" fill="#333"/><rect x="16.94" y="11.29" width="6.45" height="1.61" fill="#333"/><rect x="26.61" y="11.29" width="6.45" height="1.61" fill="#333"/><rect x="33.87" y="13.71" width="1.61" height="6.45" fill="#333"/><path d="M37.1,33.87H32.26V29H37.1Zm-3.23-1.61h1.61V30.65H33.87Z" fill="#f96969"/><path d="M37.1,14.52H32.26V9.68H37.1ZM33.87,12.9h1.61V11.29H33.87Z" fill="#f96969"/><path d="M27.42,33.87H22.58V29h4.84Zm-3.23-1.61h1.62V30.65H24.19Z" fill="#f96969"/><path d="M27.42,14.52H22.58V9.68h4.84ZM24.19,12.9h1.62V11.29H24.19Z" fill="#f96969"/><path d="M37.1,24.19H32.26V19.35H37.1Zm-3.23-1.61h1.61V21H33.87Z" fill="#f96969"/><path d="M17.74,33.87H12.9V29h4.84Zm-3.22-1.61h1.61V30.65H14.52Z" fill="#f96969"/><path d="M17.74,14.52H12.9V9.68h4.84ZM14.52,12.9h1.61V11.29H14.52Z" fill="#f96969"/><path d="M17.74,24.19H12.9V19.35h4.84Zm-3.22-1.61h1.61V21H14.52Z" fill="#f96969"/><polygon points="19.36 15.32 19.36 27.42 31.45 27.42 19.36 15.32" fill="#f96969"/></svg>