<svg xmlns="http://www.w3.org/2000/svg" width="50" height="47.53" viewBox="0 0 50 47.53"><title>icons</title><path d="M16.63,23.47a4,4,0,1,1-4-4A4,4,0,0,1,16.63,23.47Z" fill="#f96969"/><path d="M42,23.83a4,4,0,1,1-4-4A4,4,0,0,1,42,23.83Z" fill="#f96969"/><path d="M28.39,4.77a4,4,0,1,1-4-4A4,4,0,0,1,28.39,4.77Z" fill="#f96969"/><path d="M24.16,42.77a4,4,0,1,1-4-4A4,4,0,0,1,24.16,42.77Z" fill="#f96969"/><path d="M9,42.65a4,4,0,1,1-4-4A4,4,0,0,1,9,42.65Z" fill="#f96969"/><path d="M33.45,42.41a4,4,0,1,1-4-4A4,4,0,0,1,33.45,42.41Z" fill="#f96969"/><path d="M49.45,43.12a4,4,0,1,1-4-4A4,4,0,0,1,49.45,43.12Z" fill="#f96969"/><path d="M45.68,38.21,39.44,28a4.66,4.66,0,0,0-2-8.89,4.48,4.48,0,0,0-1.85.41L27.83,7.39A4.65,4.65,0,0,0,24.05,0a4.68,4.68,0,0,0-3.51,7.76L13.22,19.2a4,4,0,0,0-.69-.06,4.66,4.66,0,0,0-1.91,8.92l-6,9.78a4.71,4.71,0,1,0,2.2.54L12.58,29l5.89,9.62A4.67,4.67,0,1,0,25,43.5a4.67,4.67,0,1,0,6.72-5.12L37.5,29l5.9,9.62a4.66,4.66,0,1,0,2.28-.41ZM29.6,45a2.52,2.52,0,1,1,2.51-2.52A2.51,2.51,0,0,1,29.6,45Zm-9.2.35a2.52,2.52,0,1,1,2.51-2.52A2.51,2.51,0,0,1,20.4,45.38ZM12.53,21.3A2.52,2.52,0,1,1,10,23.82,2.51,2.51,0,0,1,12.53,21.3ZM40,23.82a2.52,2.52,0,1,1-2.51-2.51A2.51,2.51,0,0,1,40,23.82ZM24.05,2.16a2.52,2.52,0,1,1-2.51,2.51A2.52,2.52,0,0,1,24.05,2.16ZM45.33,45.38a2.52,2.52,0,1,1,2.51-2.52A2.52,2.52,0,0,1,45.33,45.38ZM4.67,45a2.52,2.52,0,1,1,2.52-2.52A2.52,2.52,0,0,1,4.67,45ZM25,41.87a4.65,4.65,0,0,0-4.21-3.66L14.52,28a4.67,4.67,0,0,0,2.68-4.21,4.61,4.61,0,0,0-2-3.79L22.32,9a4.54,4.54,0,0,0,3.86-.17l7.7,12a4.6,4.6,0,0,0-1.09,3,4.65,4.65,0,0,0,2.76,4.24l-6,9.78A4.68,4.68,0,0,0,25,41.87Z" fill="#333"/></svg>