<svg xmlns="http://www.w3.org/2000/svg" width="50" height="48.39" viewBox="0 0 50 48.39"><title>icons</title><path d="M3.23,3.23H4.84V4.84H3.23Z" fill="#333"/><path d="M6.45,3.23H8.06V4.84H6.45Z" fill="#333"/><path d="M9.68,3.23h1.61V4.84H9.68Z" fill="#333"/><path d="M3.23,6.45H40.32V8.06H3.23Z" fill="#333"/><path d="M13.71,12.9H27.42v1.62H13.71Z" fill="#333"/><path d="M13.71,16.13h5.64v1.61H13.71Z" fill="#333"/><path d="M21,16.13H32.26v1.61H21Z" fill="#333"/><path d="M29,12.9H37.1v1.62H29Z" fill="#333"/><path d="M7.26,19.35a4,4,0,1,1,4-4A4,4,0,0,1,7.26,19.35Zm0-6.45a2.42,2.42,0,1,0,2.42,2.42A2.42,2.42,0,0,0,7.26,12.9Z" fill="#333"/><path d="M13.71,22.58H27.42v1.61H13.71Z" fill="#333"/><path d="M13.71,25.81h5.64v1.61H13.71Z" fill="#333"/><path d="M7.26,29a4,4,0,1,1,4-4A4,4,0,0,1,7.26,29Zm0-6.45A2.42,2.42,0,1,0,9.68,25,2.42,2.42,0,0,0,7.26,22.58Z" fill="#333"/><path d="M13.71,35.48h5.64V37.1H13.71Z" fill="#333"/><path d="M7.26,38.71a4,4,0,1,1,4-4A4,4,0,0,1,7.26,38.71Zm0-6.45a2.42,2.42,0,1,0,2.42,2.42A2.42,2.42,0,0,0,7.26,32.26Z" fill="#333"/><path d="M6.69,14.75l4.84-4.84,1.14,1.14L7.83,15.89Z" fill="#333"/><path d="M6.69,24.43l4.84-4.84,1.14,1.14L7.83,25.57Z" fill="#333"/><path d="M6.69,34.11l4.84-4.84,1.14,1.14L7.83,35.25Z" fill="#333"/><path d="M49.19,36.29A11.29,11.29,0,1,1,37.9,25,11.28,11.28,0,0,1,49.19,36.29Z" fill="#f96969"/><path d="M33.87,41.13h-.13a.8.8,0,0,1-.59-.44l-1.61-3.22L33,36.74,34.09,39,43,30.08l1.14,1.14-9.68,9.67A.82.82,0,0,1,33.87,41.13Z" fill="#333"/><path d="M4,43.55H25V41.94H4a2.43,2.43,0,0,1-2.42-2.42V4A2.43,2.43,0,0,1,4,1.61H39.52A2.43,2.43,0,0,1,41.94,4V22.58h1.61V4a4,4,0,0,0-4-4H4A4,4,0,0,0,0,4V39.52A4,4,0,0,0,4,43.55Z" fill="#333"/><path d="M3.23,3.23H4.84V4.84H3.23Z" fill="#333"/><path d="M6.45,3.23H8.06V4.84H6.45Z" fill="#333"/><path d="M9.68,3.23h1.61V4.84H9.68Z" fill="#333"/><path d="M3.23,6.45H40.32V8.06H3.23Z" fill="#333"/><path d="M11.53,9.91,9.48,12a4,4,0,1,0,1.14,1.14l2.05-2ZM7.26,17.74a2.42,2.42,0,0,1,0-4.84,2.3,2.3,0,0,1,1,.25l-1.6,1.6,1.14,1.14,1.61-1.6a2.4,2.4,0,0,1-2.18,3.45Z" fill="#333"/><path d="M13.71,12.9H27.42v1.62H13.71Z" fill="#333"/><path d="M13.71,16.13h5.64v1.61H13.71Z" fill="#333"/><path d="M21,16.13H32.26v1.61H21Z" fill="#333"/><path d="M29,12.9H37.1v1.62H29Z" fill="#333"/><path d="M11.53,19.59l-2,2.05a4,4,0,1,0,1.14,1.14l2.05-2.05ZM7.26,27.42a2.42,2.42,0,1,1,0-4.84,2.29,2.29,0,0,1,1,.24l-1.6,1.61,1.14,1.14L9.44,24a2.51,2.51,0,0,1,.24,1A2.42,2.42,0,0,1,7.26,27.42Z" fill="#333"/><path d="M13.71,22.58H27.42v1.61H13.71Z" fill="#333"/><path d="M13.71,25.81h5.64v1.61H13.71Z" fill="#333"/><path d="M21,25.81h6.45v1.61H21Z" fill="#333"/><path d="M29,22.58h3.23v1.61H29Z" fill="#333"/><path d="M11.53,29.27l-2,2.05a4,4,0,1,0,1.14,1.14l2.05-2.05ZM7.26,37.1a2.42,2.42,0,1,1,0-4.84,2.29,2.29,0,0,1,1,.24l-1.6,1.61,1.14,1.14,1.61-1.61a2.48,2.48,0,0,1,.24,1A2.43,2.43,0,0,1,7.26,37.1Z" fill="#333"/><path d="M13.71,32.26H24.19v1.61H13.71Z" fill="#333"/><path d="M13.71,35.48h5.64V37.1H13.71Z" fill="#333"/><path d="M21,35.48h3.22V37.1H21Z" fill="#333"/><path d="M37.9,48.39a12.1,12.1,0,1,0-12.09-12.1A12.1,12.1,0,0,0,37.9,48.39Zm0-22.58A10.48,10.48,0,1,1,27.42,36.29,10.49,10.49,0,0,1,37.9,25.81Z" fill="#333"/><path d="M33,36.74l-1.44.72,1.61,3.22a.8.8,0,0,0,.6.44h.12a.82.82,0,0,0,.57-.24l9.68-9.67L43,30.07,34.09,39Z" fill="#333"/></svg>