<svg xmlns="http://www.w3.org/2000/svg" width="50" height="49.57" viewBox="0 0 50 49.57"><title>icons</title><path d="M15.16,38.44a4,4,0,0,1,1.06.74L17.34,38a5.65,5.65,0,0,0-1.48-1l-1.44-.69a5.48,5.48,0,0,0-1.33-2.82L12,32.3a5.53,5.53,0,0,0-.15-3.12l-.52-1.5a5.51,5.51,0,0,0,1.05-2.93l.09-1.6a5.43,5.43,0,0,0,2.1-2.3l1.74-3.6-.72-.35a5.62,5.62,0,0,0-2-.54l.09-.07a5.07,5.07,0,0,0,1.74-3.54,5,5,0,0,0-1.32-3.69l-.53-.57-2.78,2.42A5,5,0,0,0,9,14.41a5.48,5.48,0,0,0-2-1.68l-.72-.35L4.52,16a5.58,5.58,0,0,0-.24,4.28c.06.17.13.34.2.5a5.6,5.6,0,0,0-2.21-.6l-.8,0-.23,4A5.59,5.59,0,0,0,3,28.54a5.67,5.67,0,0,0-2.29.29L0,29.1l1.32,3.77a5.55,5.55,0,0,0,2.85,3.2,4.4,4.4,0,0,0,.5.21,5.54,5.54,0,0,0-2,1.14l-.6.53,2.66,3A5.58,5.58,0,0,0,8.6,42.8h.55a5.48,5.48,0,0,0-1.41,1.82l-.35.72L11,47.08a5.67,5.67,0,0,0,4.53.15l-.6-1.49a4,4,0,0,1-3.24-.1l-2.08-1a4,4,0,0,1,4.92-1.17l.51.24.7-1.44L15.21,42a4,4,0,0,1-2.14-4.59Zm-2.9-3.18-.35.72a5.58,5.58,0,0,0-.54,2.78l-.79-.89a4,4,0,0,1-.22-5l1.54,1.73a4.16,4.16,0,0,1,.54.8ZM10.44,30.5l-.6.54a5.61,5.61,0,0,0-1.57,2.35l-.39-1.12a4,4,0,0,1,1.73-4.75l.77,2.19a4.44,4.44,0,0,1,.19.95Zm.13-5.09-.76.26a5.52,5.52,0,0,0-2.34,1.59l.06-1.19A4,4,0,0,1,11,22.34l-.13,2.31a4.2,4.2,0,0,1-.18,1Zm3.6-7.34-1,2.08a3.65,3.65,0,0,1-.53.81v-.2l-.8-.05a5.4,5.4,0,0,0-2.77.57l.52-1.08a4,4,0,0,1,1.27-1.5h0l.11-.1A4,4,0,0,1,14.17,18.07Zm-2.36-6,1.55-1.35a3.37,3.37,0,0,1,.44,1.89,3.44,3.44,0,0,1-1.19,2.42l-1.55,1.35a3.4,3.4,0,0,1-.44-1.9A3.44,3.44,0,0,1,11.81,12.12ZM6,16.68l1-2.09a4,4,0,0,1,1.35,1.86,4,4,0,0,1-.17,3.06l-1,2.08A4,4,0,0,1,6,16.68ZM2.84,24.2,3,21.88a4,4,0,0,1,2,1.21,4,4,0,0,1,1,2.89L5.8,28.29A4,4,0,0,1,2.84,24.2Zm0,8.14-.77-2.19A4,4,0,0,1,6.37,32.8L7.14,35a4,4,0,0,1-4.31-2.65ZM8.69,41.2a4,4,0,0,1-2.76-1.33L4.39,38.14a4,4,0,0,1,5,.8l1.54,1.73A4,4,0,0,1,8.69,41.2Z" fill="#333"/><path d="M28.38,14.41c-.74,0-1.48-.69-2.19-1.37a5.47,5.47,0,0,0-1.22-1,7.39,7.39,0,0,0-1.16,1C22.9,13.9,22,14.79,21,14.23s-.67-1.86-.39-3.11a5.45,5.45,0,0,0,.22-1.52,10,10,0,0,0-1.31-.46C18.34,8.78,17,8.36,17,7.2s1.33-1.57,2.51-1.93a5.55,5.55,0,0,0,1.35-.53,8.65,8.65,0,0,0-.26-1.45C20.33,2,20,.74,21,.18s1.9.33,2.81,1.19a5.47,5.47,0,0,0,1.22,1,7.39,7.39,0,0,0,1.16-1C27.1.51,28-.39,29,.18s.67,1.86.39,3.11a5.45,5.45,0,0,0-.22,1.52,10,10,0,0,0,1.31.46C31.66,5.63,33,6,33,7.2s-1.33,1.58-2.51,1.94a5.55,5.55,0,0,0-1.35.53,8.65,8.65,0,0,0,.26,1.45c.29,1.25.58,2.54-.38,3.11A1.26,1.26,0,0,1,28.38,14.41Z" fill="#f96969"/><path d="M48.68,32.87,50,29.09l-.75-.26a5.63,5.63,0,0,0-2.56-.26,5.6,5.6,0,0,0,1.84-4.47l-.23-4-.8.05a5.44,5.44,0,0,0-2.22.6,3.89,3.89,0,0,0,.21-.51A5.55,5.55,0,0,0,45.24,16l-1.74-3.6-.72.35a5.68,5.68,0,0,0-1.85,1.44,5,5,0,0,0-1.71-3.26L36.44,8.48l-.52.58a5,5,0,0,0,.42,7.22l.07.07a5.65,5.65,0,0,0-2.27.55l-.71.35,1.73,3.6a5.62,5.62,0,0,0,2.1,2.3l.09,1.59a5.52,5.52,0,0,0,1.22,3.16l-.45,1.28a5.55,5.55,0,0,0-.2,2.91l-1.25,1.4a5.48,5.48,0,0,0-1.33,2.81l-1.43.7a5.4,5.4,0,0,0-1.14.73l1,1.23a4,4,0,0,1,.81-.52l2.09-1A4,4,0,0,1,34.55,42l-.35.17.7,1.44.35-.17a4,4,0,0,1,3-.17,4,4,0,0,1,1.87,1.35l-2.09,1a4,4,0,0,1-3.13.15l-.55,1.5a5.68,5.68,0,0,0,1.94.35,5.61,5.61,0,0,0,2.43-.56l3.6-1.74L42,44.62a5.62,5.62,0,0,0-1.4-1.83l.22,0h.33A5.55,5.55,0,0,0,45,40.93l2.66-3-.59-.53a5.53,5.53,0,0,0-1.88-1.1c.21-.08.42-.16.62-.26A5.5,5.5,0,0,0,48.68,32.87Zm-.74-2.72-.77,2.19a4,4,0,0,1-2,2.29,4.06,4.06,0,0,1-2.27.36l.76-2.19A4,4,0,0,1,47.94,30.15Zm-8.5.45a3.45,3.45,0,0,1,.19-.89l.76-2.19a4,4,0,0,1,1.73,4.75l-.52,1.49A5.53,5.53,0,0,0,39.93,31Zm7.49-6.4a4,4,0,0,1-3,4.09L43.83,26a4,4,0,0,1,3-4.1Zm-5.49-7.75a4,4,0,0,1,1.35-1.86l1,2.09a4,4,0,0,1-1.17,4.91l-1-2.08A4,4,0,0,1,41.44,16.45ZM36.2,12.66a3.33,3.33,0,0,1,.44-1.88l1.53,1.34a3.45,3.45,0,0,1,1.2,2.41,3.52,3.52,0,0,1-.44,1.89l-1.54-1.34A3.44,3.44,0,0,1,36.2,12.66Zm1.72,8.05-.8.05V21a4.52,4.52,0,0,1-.53-.81l-1-2.08a4,4,0,0,1,4.58,2.13l.52,1.07A5.62,5.62,0,0,0,37.92,20.71Zm1,3.94-.13-2.31a4,4,0,0,1,3.41,3.73l.05.92a5.65,5.65,0,0,0-2.09-1.32l-.76-.26-.19.54A4,4,0,0,1,39,24.65Zm-1.09,9.9,1.55-1.73a4,4,0,0,1-.22,5l-.79.89A5.59,5.59,0,0,0,37.85,36l-.34-.72-.19.09A4.68,4.68,0,0,1,37.86,34.55Zm6,5.32a4,4,0,0,1-5,.8l1.54-1.73a4,4,0,0,1,5-.8Z" fill="#333"/><path d="M37.56,44.21a11.79,11.79,0,0,0-4.48-2.78,11.63,11.63,0,0,0,1.2-5.13v-.8h-.8a11.73,11.73,0,0,0-5.13,1.19,11.68,11.68,0,0,0-2.78-4.47L25,31.65l-.56.57a11.58,11.58,0,0,0-2.79,4.47,11.7,11.7,0,0,0-5.13-1.19h-.8v.8a11.63,11.63,0,0,0,1.2,5.13,11.79,11.79,0,0,0-4.48,2.78l-.56.57.56.56a11.67,11.67,0,0,0,8.29,3.43h8.54a11.67,11.67,0,0,0,8.29-3.43l.56-.56Z" fill="#f96969"/><path d="M25,49.57a4.8,4.8,0,1,1,4.8-4.79A4.81,4.81,0,0,1,25,49.57Zm0-8a3.2,3.2,0,1,0,3.2,3.2A3.2,3.2,0,0,0,25,41.58Z" fill="#333"/></svg>