<svg xmlns="http://www.w3.org/2000/svg" width="50" height="50" viewBox="0 0 50 50"><title>icons</title><circle cx="42.41" cy="35.36" r="6.15" fill="#f96969" stroke="#333" stroke-miterlimit="10"/><rect x="10.45" y="28.79" width="18.19" height="7.33" fill="#f96969"/><path d="M5,3.33v8.34H6.67V3.33A1.66,1.66,0,0,1,8.33,1.67H41.67a1.66,1.66,0,0,1,1.66,1.66H45A3.33,3.33,0,0,0,41.67,0H8.33A3.33,3.33,0,0,0,5,3.33Z" fill="#333"/><path d="M3.33,50H41.67A3.33,3.33,0,0,0,45,46.67V43.33H43.33v3.34a1.67,1.67,0,0,1-3.33,0v-2.5a.84.84,0,0,0-.83-.84H6.67V26.67H5V43.33H.83a.84.84,0,0,0-.83.84v2.5A3.33,3.33,0,0,0,3.33,50ZM1.67,45H38.33v1.67a3.33,3.33,0,0,0,.45,1.66H3.33a1.66,1.66,0,0,1-1.66-1.66Z" fill="#333"/><path d="M.83,25H17.5a.83.83,0,0,0,.83-.83v-10a.84.84,0,0,0-.83-.84H.83a.84.84,0,0,0-.83.84v10A.83.83,0,0,0,.83,25Zm.84-10h15v8.33h-15Z" fill="#333"/><path d="M5.24,16.91,3.58,18.58a.83.83,0,0,0,0,1.18l1.66,1.66,1.18-1.18L5.34,19.17l1.08-1.08Z" fill="#333"/><path d="M13.09,16.91l-1.18,1.18L13,19.17l-1.08,1.07,1.18,1.18,1.67-1.66a.85.85,0,0,0,0-1.18Z" fill="#333"/><path d="M7.54,21.4l1.67-5,1.58.53-1.67,5Z" fill="#333"/><path d="M8.33,27.5v10a.84.84,0,0,0,.84.83H30a.83.83,0,0,0,.83-.83v-10a.83.83,0,0,0-.83-.83H9.17A.84.84,0,0,0,8.33,27.5Zm1.67.83H29.17v8.34H10Z" fill="#333"/><path d="M11.67,30H15v1.67H11.67Z" fill="#333"/><path d="M16.67,30h7.5v1.67h-7.5Z" fill="#333"/><path d="M25.83,30H27.5v1.67H25.83Z" fill="#333"/><path d="M11.67,33.33h10V35h-10Z" fill="#333"/><path d="M23.33,33.33H27.5V35H23.33Z" fill="#333"/><path d="M8.33,3.33H10V5H8.33Z" fill="#333"/><path d="M11.67,3.33h1.66V5H11.67Z" fill="#333"/><path d="M15,3.33h1.67V5H15Z" fill="#333"/><path d="M8.33,6.67h10V8.33h-10Z" fill="#333"/><path d="M22,6.44H48a.78.78,0,0,1,.78.77V21.6a.78.78,0,0,1-.78.77H22a.78.78,0,0,1-.79-.77V7.21A.78.78,0,0,1,22,6.44Z" fill="#f96969"/><path d="M43.33,25H45v3.33H43.33Z" fill="#333"/><path d="M49.17,5H20.83a.83.83,0,0,0-.83.83V22.5a.83.83,0,0,0,.83.83H49.17A.83.83,0,0,0,50,22.5V5.83A.83.83,0,0,0,49.17,5Zm-.84,16.67H21.67v-2l7.48-4.49,7.3,4.72a.85.85,0,0,0,.83,0l6-3.13,5,2.87Zm0-3.94-4.58-2.62a.84.84,0,0,0-.8,0L37,18.2l-7.33-4.73a.82.82,0,0,0-.88,0l-7.07,4.24v-11H48.33Z" fill="#333"/><circle cx="39.61" cy="11.13" r="2.34" fill="#333"/><polygon points="38.62 37.3 40.38 35.89 40.73 37.88 38.62 37.3" fill="#fff"/><polygon points="45.54 34.7 42.77 37.26 42.98 38.76 44.09 38.27 46.56 35.76 45.54 34.7" fill="#fff"/><path d="M46.75,35.52l-1.2-1.2a.25.25,0,0,0-.36,0L42.4,37.11a.25.25,0,0,0-.08.18v1.2a.26.26,0,0,0,.26.26h1.19a.27.27,0,0,0,.19-.08l2.79-2.79a.29.29,0,0,0,.07-.18A.27.27,0,0,0,46.75,35.52Zm-3.08,2.71h-.83V37.4l2.53-2.53.83.83Z" fill="#333" stroke="#333" stroke-miterlimit="10" stroke-width="0.2"/><path d="M44.29,33.25a3.1,3.1,0,0,0-1.08-.92A3,3,0,0,0,41.79,32,3.08,3.08,0,0,0,39,36.3l-.89.9a.26.26,0,0,0,.13.44l2.49.49h.06a.26.26,0,0,0,.25-.26.13.13,0,0,0,0-.06l-.49-2.48a.26.26,0,0,0-.18-.2.27.27,0,0,0-.26.06l-.7.7a2.6,2.6,0,0,1-.14-.84A2.56,2.56,0,0,1,40,33.25a2.52,2.52,0,0,1,1.81-.75,2.56,2.56,0,0,1,2.08,1.06.25.25,0,0,0,.36,0A.27.27,0,0,0,44.29,33.25ZM40.1,35.91l.32,1.64-1.64-.33Z" fill="#333" stroke="#333" stroke-miterlimit="10" stroke-width="0.2"/></svg>