<svg xmlns="http://www.w3.org/2000/svg" width="50" height="50" viewBox="0 0 50 50"><title>icons</title><rect x="20.97" y="12.1" width="10.48" height="6.45" fill="#f96969"/><path d="M36.29,42.74V41.29h0a4.88,4.88,0,0,1-2.15-2.58h-.28a2.42,2.42,0,1,1,0-4.84H35a9.61,9.61,0,0,0,5.32-1.61l.48.47a3.89,3.89,0,0,0,2.75,1.14h.06A2.36,2.36,0,0,1,46,36.22v.06a2.42,2.42,0,0,1-2.42,2.43h-.28a4.88,4.88,0,0,1-2.15,2.58h0v1.45l5.64,1.7V32.26a8.06,8.06,0,1,0-16.12,0V44.44Z" fill="#f96969"/><path d="M11.29,24.19a8.07,8.07,0,0,0-8.06,8.07v4H4v-.06a2.36,2.36,0,0,1,2.36-2.35h.06A3.89,3.89,0,0,0,9.2,32.73l.48-.47A9.59,9.59,0,0,0,15,33.87h1.13a2.42,2.42,0,0,1,2.42,2.42h.8v-4A8.07,8.07,0,0,0,11.29,24.19Z" fill="#f96969"/><path d="M19.71,43.7l-5.19-1.56v-.42a5.74,5.74,0,0,0,1.88-2.23,3.22,3.22,0,0,0-.27-6.43H15a8.82,8.82,0,0,1-4.88-1.47l-.55-.37-.94.94a3.09,3.09,0,0,1-2.24.9h0a3.16,3.16,0,0,0-3.15,3.22,3.22,3.22,0,0,0,2.95,3.21,5.74,5.74,0,0,0,1.88,2.23v.42L2.87,43.7A4,4,0,0,0,0,47.56V50H22.58V47.56A4,4,0,0,0,19.71,43.7Zm-2-7.41a1.61,1.61,0,0,1-.84,1.41c0-.2,0-.4,0-.6V34.9A1.61,1.61,0,0,1,17.74,36.29Zm-12.9-.07a1.54,1.54,0,0,1,.45-1.09,1.5,1.5,0,0,1,.36-.26V37.1a5.68,5.68,0,0,0,0,.59A1.66,1.66,0,0,1,4.84,36.22Zm2.42.88V34.6a4.62,4.62,0,0,0,2.52-1.3l0,0a10.32,10.32,0,0,0,5.2,1.4h.32V37.1a4,4,0,0,1-8.06,0Zm5.61,5.41-1.58,2.11L9.71,42.51a5.54,5.54,0,0,0,3.16,0ZM21,48.39H1.61v-.83a2.41,2.41,0,0,1,1.73-2.32l5.22-1.56,2.73,3.63L14,43.68l5.22,1.57A2.38,2.38,0,0,1,21,47.56Z" fill="#333"/><path d="M47.13,43.7l-5.19-1.56v-.42a5.74,5.74,0,0,0,1.88-2.23,3.24,3.24,0,0,0,3-3.27A3.11,3.11,0,0,0,45.85,34a3.18,3.18,0,0,0-2.3-.93h0a3.05,3.05,0,0,1-2.18-.9l-.95-.94-.55.37A8.79,8.79,0,0,1,35,33.06H33.87a3.22,3.22,0,0,0-.27,6.43,5.74,5.74,0,0,0,1.88,2.23v.42L30.29,43.7a4,4,0,0,0-2.87,3.86V50H50V47.56A4,4,0,0,0,47.13,43.7Zm-2-7.42a1.63,1.63,0,0,1-.84,1.42q0-.3,0-.6V34.87a1.5,1.5,0,0,1,.36.26A1.58,1.58,0,0,1,45.16,36.28Zm-12.9,0a1.61,1.61,0,0,1,.8-1.39v2.2c0,.2,0,.4,0,.6A1.61,1.61,0,0,1,32.26,36.29Zm2.42.81V34.68H35a10.29,10.29,0,0,0,5.2-1.4l0,0a4.62,4.62,0,0,0,2.51,1.3v2.5a4,4,0,0,1-8.06,0Zm4,5.64a5.36,5.36,0,0,0,1.61-.24v.24a1.61,1.61,0,0,1-3.22,0V42.5A5.36,5.36,0,0,0,38.71,42.74ZM29,47.56a2.41,2.41,0,0,1,1.73-2.32l4.91-1.47a3.2,3.2,0,0,0,2.23,2.08v2.54H29Zm19.36.83H39.52V45.85a3.21,3.21,0,0,0,2.23-2.08l4.91,1.47a2.41,2.41,0,0,1,1.73,2.32Z" fill="#333"/><path d="M12.35,19.33l1.93,4.84,3.85-4.82h13L35.78,24l1.87-4.69A6.45,6.45,0,0,0,39.42,6.89,8,8,0,0,0,26.48,1.73,9.67,9.67,0,0,0,11.81,6.55a6.45,6.45,0,0,0,.54,12.78ZM12.9,8.06a4.84,4.84,0,0,1,4.84,4.84h1.61a6.45,6.45,0,0,0-5.78-6.41A8,8,0,0,1,25.29,2.87a8,8,0,0,0-1.9,5.19H25a6.45,6.45,0,0,1,12.88-.51l0,.56.53.15a4.84,4.84,0,0,1-1.35,9.48h-.55l-1.36,3.41-3.4-3.41H17.35L14.75,21l-1.3-3.26H12.9a4.84,4.84,0,0,1,0-9.68Z" fill="#333"/><rect x="17.74" y="14.52" width="1.61" height="1.61" fill="#333"/><rect x="20.97" y="14.52" width="10.48" height="1.61" fill="#333"/><rect x="20.97" y="11.29" width="10.48" height="1.61" fill="#333"/></svg>