<svg xmlns="http://www.w3.org/2000/svg" width="50" height="58" viewBox="0 0 50 58"><title>icons</title><path d="M1,1H5V5H1Z" fill="#f96969"/><path d="M45,1h4V5H45Z" fill="#f96969"/><path d="M45,4H5A1,1,0,0,1,5,2H45a1,1,0,0,1,0,2Z" fill="#b8eaee"/><path d="M18,39H32V57H18Z" fill="#f96969"/><path d="M29,24a4,4,0,1,1-4-4A4,4,0,0,1,29,24Z" fill="#f96969"/><path d="M25,40a1,1,0,0,1-1-1V28a1,1,0,0,1,2,0V39A1,1,0,0,1,25,40Z" fill="#a8a8a8"/><path d="M5,6H1A1,1,0,0,1,0,5V1A1,1,0,0,1,1,0H5A1,1,0,0,1,6,1V5A1,1,0,0,1,5,6ZM2,4H4V2H2Z" fill="#6fbbc6"/><path d="M49,6H45a1,1,0,0,1-1-1V1a1,1,0,0,1,1-1h4a1,1,0,0,1,1,1V5A1,1,0,0,1,49,6ZM46,4h2V2H46Z" fill="#6fbbc6"/><path d="M18,43H32a3,3,0,0,1,0,6H18a3,3,0,0,1,0-6Z" fill="#f96969"/><path d="M8.85,46.09a25.62,25.62,0,0,1-3.6-3.76l1.58-1.22a23,23,0,0,0,3.31,3.45Zm33.29-.89-1.37-1.46a23,23,0,0,0,3.13-3.62l1.64,1.14A24.55,24.55,0,0,1,42.14,45.2ZM2.51,37.92A24.35,24.35,0,0,1,.74,33l1.94-.48a22.54,22.54,0,0,0,1.63,4.49ZM48,36.71l-1.84-.78a22.84,22.84,0,0,0,1.39-4.58l2,.38A24.67,24.67,0,0,1,48,36.71ZM0,27.89c0-.3,0-.59,0-.89a24.93,24.93,0,0,1,.54-5.17l2,.41A23.81,23.81,0,0,0,2,27c0,.27,0,.55,0,.82Zm48-1.3a23,23,0,0,0-.58-4.75l1.95-.44A24.84,24.84,0,0,1,50,26.55ZM4,17.69l-1.82-.81a24.63,24.63,0,0,1,2.59-4.51l1.62,1.17A23.15,23.15,0,0,0,4,17.69Zm41.91-.37a22.35,22.35,0,0,0-2.45-4.1L45,12a24.84,24.84,0,0,1,2.67,4.46ZM9.53,10,8.18,8.5a25.24,25.24,0,0,1,4.19-3.08l1,1.73A22.18,22.18,0,0,0,9.53,10Zm30.64-.27a23.17,23.17,0,0,0-3.9-2.77l1-1.74a25.59,25.59,0,0,1,4.24,3ZM17.74,5.17l-.64-1.9a24.51,24.51,0,0,1,5.08-1.11l.22,2A23.09,23.09,0,0,0,17.74,5.17Zm14.14-.12a22.82,22.82,0,0,0-4.69-1l.19-2a25.33,25.33,0,0,1,5.1,1Z" fill="#c0f5f9"/><path d="M3,20a3,3,0,1,1,3-3A3,3,0,0,1,3,20Z" fill="#f96969"/><path d="M47,20a3,3,0,1,1,3-3A3,3,0,0,1,47,20Z" fill="#f96969"/><path d="M49.37,21.4l-1.95.44A23,23,0,0,1,48,26.59l2,0A24.85,24.85,0,0,0,49.37,21.4Z" fill="#333"/><path d="M45.54,41.26l-1.65-1.14a22.92,22.92,0,0,1-3.12,3.62l1.37,1.46A25.59,25.59,0,0,0,45.54,41.26Z" fill="#333"/><path d="M36.26,6.94a22.31,22.31,0,0,1,3.91,2.77l1.32-1.5a25.65,25.65,0,0,0-4.24-3Z" fill="#333"/><path d="M12.37,5.42A25.24,25.24,0,0,0,8.18,8.5L9.53,10a22.18,22.18,0,0,1,3.85-2.83Z" fill="#333"/><path d="M46.2,35.93l1.84.78a24.05,24.05,0,0,0,1.51-5l-2-.38A22.84,22.84,0,0,1,46.2,35.93Z" fill="#333"/><path d="M6.83,41.11,5.25,42.34a26.06,26.06,0,0,0,3.6,3.75l1.3-1.53A23.05,23.05,0,0,1,6.83,41.11Z" fill="#333"/><path d="M.73,33a25,25,0,0,0,1.78,4.88l1.8-.87a22.54,22.54,0,0,1-1.63-4.49Z" fill="#333"/><path d="M2,27.82c0-.27,0-.55,0-.82a23.81,23.81,0,0,1,.49-4.76L.54,21.83A24.93,24.93,0,0,0,0,27c0,.3,0,.6,0,.89Z" fill="#333"/><path d="M1,6H5A1,1,0,0,0,6,5V4H17.34l.39,1.17a22.64,22.64,0,0,1,4.67-1l0-.15h1.08L12.09,29.59a1,1,0,0,0,.46,1.3c2,1,4.45,5.13,4.45,7.58v3.67a4,4,0,0,0,0,7.72V57a1,1,0,0,0,1,1H32a1,1,0,0,0,1-1V49.86a4,4,0,0,0,0-7.72V38.47c0-2.45,2.41-6.56,4.45-7.58a1,1,0,0,0,.46-1.3L26.54,4h.66v.1a22.82,22.82,0,0,1,4.69,1l.32-1H44V5a1,1,0,0,0,1,1h4a1,1,0,0,0,1-1V1a1,1,0,0,0-1-1H45a1,1,0,0,0-1,1V2H6V1A1,1,0,0,0,5,0H1A1,1,0,0,0,0,1V5A1,1,0,0,0,1,6ZM25,27a3,3,0,1,1,3-3A3,3,0,0,1,25,27Zm6,13v2H19V40ZM19,56V50H31v6ZM34,46a2,2,0,0,1-2,2H18.24A.93.93,0,0,0,18,48l-.14,0A2,2,0,0,1,18,44H32A2,2,0,0,1,34,46Zm-3-8H26V28.9a5,5,0,1,0-2,0V38H19a13.5,13.5,0,0,0-4.71-8.39L25,5.46,35.73,29.61A13.5,13.5,0,0,0,31,38ZM46,2h2V4H46ZM2,2H4V4H2Z" fill="#333"/><path d="M3,20a3,3,0,0,0,3-3,2.93,2.93,0,0,0-.68-1.88c.32-.54.66-1.07,1-1.57L4.72,12.38c-.4.54-.76,1.11-1.11,1.68A3,3,0,1,0,3,20Zm0-4a1,1,0,1,1-1,1A1,1,0,0,1,3,16Z" fill="#333"/><path d="M47,14a2.56,2.56,0,0,0-.62.07C46,13.37,45.51,12.68,45,12l-1.6,1.2c.45.61.87,1.25,1.26,1.9A2.93,2.93,0,0,0,44,17a3,3,0,1,0,3-3Zm0,4a1,1,0,1,1,1-1A1,1,0,0,1,47,18Z" fill="#333"/></svg>