<svg xmlns="http://www.w3.org/2000/svg" width="50" height="50" viewBox="0 0 50 50"><title>icons</title><circle cx="31.45" cy="18.55" r="15.32" fill="#f96969"/><path d="M31.45,0A18.54,18.54,0,0,0,15.1,27.3l-1.39,1.4-1.85-1.85L10.72,28l1.85,1.85-1.28,1.28L9.44,29.27,8.3,30.41l1.85,1.85L1.57,40.84a5.37,5.37,0,0,0,7.59,7.59l8.58-8.58,1.85,1.85,1.14-1.14-1.85-1.85,1.28-1.28L22,39.28l1.14-1.14L21.3,36.29l1.4-1.39A18.55,18.55,0,1,0,31.45,0ZM8,47.29a3.72,3.72,0,0,1-2.65,1.1,3.77,3.77,0,0,1-3.76-3.76A3.72,3.72,0,0,1,2.71,42l8.58-8.58,5.31,5.31Zm9.72-9.72-5.31-5.31L13.71,31,19,36.29Zm2.42-2.42-5.31-5.31L16,28.73A18.65,18.65,0,0,0,21.27,34Zm11.29.33A17,17,0,0,1,14.71,21h5.87l3.6-5L31.44,26.4l8.05-11.27,2.82,4.22h2.85V17.74h-2l-3.63-5.45L31.46,23.6,24.2,13.11l-4.45,6.24H14.56c0-.26,0-.53,0-.8s0-.54,0-.81h1.57V16.13H14.71a16.91,16.91,0,0,1,33.64,1.61H46.77v1.61h1.58c0,.55-.08,1.09-.16,1.62h-3v1.61h2.72A16.94,16.94,0,0,1,31.45,35.48Z" fill="#333"/><path d="M36.29,4a3.21,3.21,0,0,0-2.7,5l-3.6,5L31.3,15l3.49-4.88a3.18,3.18,0,0,0,1.5.38,3.23,3.23,0,1,0,0-6.45Zm0,4.84A1.61,1.61,0,1,1,37.9,7.26,1.61,1.61,0,0,1,36.29,8.87Z" fill="#333"/><rect x="41.94" y="20.97" width="1.61" height="1.61" fill="#333"/><rect x="17.74" y="16.13" width="1.61" height="1.61" fill="#333"/></svg>