<svg xmlns="http://www.w3.org/2000/svg" width="50" height="50" viewBox="0 0 50 50"><title>icons</title><path d="M24.19,12.9A8.07,8.07,0,1,0,32.26,21,8.08,8.08,0,0,0,24.19,12.9Zm0,3.23a2.42,2.42,0,1,1-2.42,2.42A2.42,2.42,0,0,1,24.19,16.13Zm3.23,11.29H21V25a3.23,3.23,0,1,1,6.45,0Z" fill="#f96969"/><path d="M42.74,21.77a2.42,2.42,0,1,0,2.42,2.42A2.43,2.43,0,0,0,42.74,21.77Zm0,3.23a.81.81,0,1,1,.81-.81A.8.8,0,0,1,42.74,25Z" fill="#333"/><path d="M18.15,35.48h3.22a2,2,0,1,0,0-4H18.15a2,2,0,1,0,0,4Zm0-2.42h3.22a.41.41,0,0,1,.4.41.4.4,0,0,1-.4.4H18.15a.4.4,0,0,1-.41-.4A.41.41,0,0,1,18.15,33.06Z" fill="#333"/><path d="M25,33.47a2,2,0,0,0,2,2h3.22a2,2,0,1,0,0-4H27A2,2,0,0,0,25,33.47Zm5.65,0a.41.41,0,0,1-.41.4H27a.4.4,0,0,1-.41-.4.41.41,0,0,1,.41-.41h3.22A.42.42,0,0,1,30.65,33.47Z" fill="#333"/><path d="M21.77,25a2.42,2.42,0,1,1,4.84,0v2.42h1.62V25a4,4,0,0,0-2.41-3.68,3.23,3.23,0,1,0-3.25,0A4,4,0,0,0,20.16,25v2.42h1.61Zm2.42-8.06a1.61,1.61,0,1,1-1.61,1.61A1.62,1.62,0,0,1,24.19,16.94Z" fill="#333"/><path d="M50,7.66A7.67,7.67,0,0,0,42.34,0H36.69A7.67,7.67,0,0,0,29,7.66a7.58,7.58,0,0,0,.28,2H5.65A2.42,2.42,0,0,0,3.23,12.1v9.67H1.61V30A2.42,2.42,0,0,0,0,32.26v8.06a2.42,2.42,0,0,0,1.61,2.27V50H9.68V42.59a2.42,2.42,0,0,0,1.61-2.27V38.71h2.42v8.87A2.43,2.43,0,0,0,16.13,50H44.35a2.42,2.42,0,0,0,2.42-2.42v-4a3.23,3.23,0,0,0-3.22-3.23h-.81v6.45h.81a3.26,3.26,0,0,0,1.61-.44v1.25a.81.81,0,0,1-.81.81H40.17a2.47,2.47,0,0,0,.15-.81v-4a3.23,3.23,0,0,0-3.22-3.23h-.81v6.45h.81a3.26,3.26,0,0,0,1.61-.44v1.25a.81.81,0,0,1-.81.81H16.13a.81.81,0,0,1-.81-.81V38.71h29a2.42,2.42,0,0,0,2.42-2.42V13.9A7.66,7.66,0,0,0,50,7.66ZM44.35,44.94V42.15a1.6,1.6,0,0,1,.81,1.4A1.59,1.59,0,0,1,44.35,44.94Zm-6.45,0V42.15a1.6,1.6,0,0,1,.81,1.4A1.59,1.59,0,0,1,37.9,44.94ZM36.69,1.61h5.65a6.05,6.05,0,0,1,0,12.1H37.26l-2.58,1.72v-2l-.48-.21A6.05,6.05,0,0,1,36.69,1.61ZM4.84,12.1a.81.81,0,0,1,.81-.81H8.06V21.77H4.84ZM3.23,23.39H8.06v6.45H3.23Zm4.83,25H3.23V42.74H8.06Zm1.62-12.1v4a.81.81,0,0,1-.81.81H2.42a.81.81,0,0,1-.81-.81V32.26a.81.81,0,0,1,.81-.81H8.87a.81.81,0,0,1,.81.81Zm0-6.3V11.29H30a7.65,7.65,0,0,0,3.09,3.11v4l4.68-3.12h1V37.1H11.29V32.26A2.42,2.42,0,0,0,9.68,30Zm35.48-5.8v12.1a.81.81,0,0,1-.81.81h-4V15.32h2a7.73,7.73,0,0,0,2.82-.54Z" fill="#333"/><path d="M5.65,32.26a4,4,0,1,0,4,4A4,4,0,0,0,5.65,32.26Zm0,6.45a2.42,2.42,0,1,1,2.41-2.42A2.42,2.42,0,0,1,5.65,38.71Z" fill="#333"/><rect x="33.87" y="4.84" width="11.29" height="1.61" fill="#333"/><rect x="33.87" y="8.87" width="11.29" height="1.61" fill="#333"/></svg>