<svg xmlns="http://www.w3.org/2000/svg" width="50" height="47.5" viewBox="0 0 50 47.5"><title>icons</title><rect x="0.83" y="0.83" width="48.33" height="35" rx="3.33" fill="#f96969"/><path d="M4.17,4.17H42.5V32.5H4.17Z" fill="#fff"/><path d="M9.17,43.33,5.83,45l3.34,1.67H43.33V43.33Z" fill="#f96969"/><path d="M47.5,43.33H43.33v3.34H47.5a1.67,1.67,0,0,0,0-3.34Z" fill="#f96969"/><path d="M45.83,0H4.17A4.17,4.17,0,0,0,0,4.17V32.5a4.18,4.18,0,0,0,4.17,4.17h30V35h-30a2.5,2.5,0,0,1-2.5-2.5V4.17a2.5,2.5,0,0,1,2.5-2.5H45.83a2.5,2.5,0,0,1,2.5,2.5V32.5a2.5,2.5,0,0,1-2.5,2.5H39.17v1.67h6.66A4.18,4.18,0,0,0,50,32.5V4.17A4.17,4.17,0,0,0,45.83,0Z" fill="#333"/><path d="M43.33,32.5V4.17a.84.84,0,0,0-.83-.84H4.17a.85.85,0,0,0-.84.84V32.5a.84.84,0,0,0,.84.83h30V31.67H5V5H41.67V31.67h-2.5v1.66H42.5A.83.83,0,0,0,43.33,32.5Z" fill="#333"/><path d="M45,14.17h1.67V22.5H45Z" fill="#333"/><path d="M47.5,42.5H9.17a1,1,0,0,0-.38.08L5.46,44.25a.83.83,0,0,0,0,1.49l3.33,1.67a.85.85,0,0,0,.38.09H47.5a2.5,2.5,0,0,0,0-5ZM7.7,45l1.66-.83H42.5v1.66H9.36Zm39.8.83H44.17V44.17H47.5a.83.83,0,0,1,0,1.66Z" fill="#333"/><path d="M39.17,25.83V22.5a.84.84,0,0,0-.84-.83h-2.5v-2.5a.84.84,0,0,0-.83-.84H27.5V17.5a.83.83,0,0,0-.83-.83h-2.5v-2.5a.85.85,0,0,0-.84-.84h-5V11.67h3.34a.84.84,0,0,0,.83-.84V7.5a.83.83,0,0,0-.83-.83H13.33a.83.83,0,0,0-.83.83v3.33a.84.84,0,0,0,.83.84h3.34v1.66H10.83a.84.84,0,0,0-.83.84v2.5H7.5a.83.83,0,0,0-.83.83v3.33a.84.84,0,0,0,.83.84h6.67a.84.84,0,0,0,.83-.84V17.5a.83.83,0,0,0-.83-.83h-2.5V15H22.5v1.67H20a.83.83,0,0,0-.83.83v3.33a.84.84,0,0,0,.83.84h2.5v2.5H20a.83.83,0,0,0-.83.83v3.33a.84.84,0,0,0,.83.84h6.67a.84.84,0,0,0,.83-.84V25a.83.83,0,0,0-.83-.83h-2.5v-2.5h2.5a.84.84,0,0,0,.83-.84V20h6.67v1.67h-2.5a.84.84,0,0,0-.84.83v3.33a.85.85,0,0,0,.84.84h6.66A.85.85,0,0,0,39.17,25.83Zm-25-17.5h6.66V10H14.17ZM13.33,20h-5V18.33h5Zm12.5,7.5h-5V25.83h5Zm0-7.5h-5V18.33h5ZM37.5,25h-5V23.33h5Z" fill="#333"/><path d="M.83,45.83h.84V44.17H0V45A.83.83,0,0,0,.83,45.83Z" fill="#333"/><path d="M25.31,38.33h1.63V40H25.31Z" fill="#333"/><path d="M15.54,38.33h1.63V40H15.54Z" fill="#333"/><path d="M12.28,38.33h1.63V40H12.28Z" fill="#333"/><path d="M5.77,38.33H7.39V40H5.77Z" fill="#333"/><path d="M9,38.33h1.63V40H9Z" fill="#333"/><path d="M22.05,38.33h1.63V40H22.05Z" fill="#333"/><path d="M4.31,40.07,4,38.44a4.78,4.78,0,0,0-1.78.76l.93,1.38A3.31,3.31,0,0,1,4.31,40.07Z" fill="#333"/><path d="M35.83,30.82H37.5v1.63H35.83Z" fill="#333"/><path d="M34.44,37.71l1,1.36a5,5,0,0,0,1.33-1.42l-1.41-.88A3.32,3.32,0,0,1,34.44,37.71Z" fill="#333"/><path d="M28.57,38.33H30.2V40H28.57Z" fill="#333"/><path d="M.09,42.38l1.64.32a3.22,3.22,0,0,1,.48-1.2L.82,40.58A5,5,0,0,0,.09,42.38Z" fill="#333"/><path d="M37.5,35v-.92H35.83V35a3.43,3.43,0,0,1,0,.56l1.64.28A4.76,4.76,0,0,0,37.5,35Z" fill="#333"/><path d="M33.26,38.25a3.22,3.22,0,0,1-.76.08h-.67V40h.67a4.92,4.92,0,0,0,1.14-.13Z" fill="#333"/><path d="M18.8,38.33h1.63V40H18.8Z" fill="#333"/><path d="M35.83,27.5H37.5v1.67H35.83Z" fill="#333"/></svg>