<svg xmlns="http://www.w3.org/2000/svg" width="50" height="43.33" viewBox="0 0 50 43.33"><title>icons</title><path d="M2.5,17.5h15a1.67,1.67,0,0,1,1.67,1.67V40.83A1.67,1.67,0,0,1,17.5,42.5H2.5A1.67,1.67,0,0,1,.83,40.83V19.17A1.67,1.67,0,0,1,2.5,17.5Z" fill="#f96969"/><path d="M40.83,22.5H47.5a1.67,1.67,0,0,1,1.67,1.67V40.83A1.67,1.67,0,0,1,47.5,42.5H40.83a1.66,1.66,0,0,1-1.66-1.67V24.17A1.66,1.66,0,0,1,40.83,22.5Z" fill="#f96969"/><path d="M39.17,39.17h10v1.66A1.67,1.67,0,0,1,47.5,42.5H40.83a1.66,1.66,0,0,1-1.66-1.67V39.17Z" fill="#f96969"/><path d="M.83,39.17H19.17v1.66A1.67,1.67,0,0,1,17.5,42.5H2.5A1.67,1.67,0,0,1,.83,40.83V39.17Z" fill="#f96969"/><path d="M22.5,32.5h5v6.67h-5Z" fill="#f96969"/><path d="M5.83,31.77A.84.84,0,0,1,5,30.93a.87.87,0,0,1,.24-.59l3.54-3.53A.83.83,0,1,1,10,28l0,0L6.42,31.52A.82.82,0,0,1,5.83,31.77Z" fill="#f96969"/><path d="M10.83,31.77a.84.84,0,0,1-.83-.84.87.87,0,0,1,.24-.59l3.54-3.53A.83.83,0,0,1,15,28l-3.54,3.53A.82.82,0,0,1,10.83,31.77Z" fill="#f96969"/><path d="M19.17,18.25a.84.84,0,0,1-.84-.83.82.82,0,0,1,.25-.59l8.25-8.25A.83.83,0,0,1,28,9.76L19.76,18a.87.87,0,0,1-.59.24Z" fill="#fdbd40"/><path d="M24.25,18.25a.83.83,0,0,1-.83-.83.81.81,0,0,1,.24-.59l8.25-8.25a.83.83,0,0,1,1.18,1.18L24.84,18a.87.87,0,0,1-.59.24Z" fill="#fdbd40"/><path d="M43,32.85a.84.84,0,0,1-.83-.84.82.82,0,0,1,.24-.59l2.36-2.35a.82.82,0,0,1,1.17,0,.81.81,0,0,1,0,1.15L43.58,32.6A.83.83,0,0,1,43,32.85Z" fill="#fcf05a"/><path d="M25,30a.84.84,0,1,1,0-1.67h0a.84.84,0,0,1,.83.84A.83.83,0,0,1,25,30Z"/><path d="M26.67,5H23.33a.83.83,0,0,1-.83-.83.84.84,0,0,1,.83-.84h3.34a.84.84,0,0,1,.83.84A.83.83,0,0,1,26.67,5Z" fill="#fdbd40"/><path d="M47.5,21.67h-.83V4.17A4.18,4.18,0,0,0,42.5,0H7.5A4.18,4.18,0,0,0,3.33,4.17v12.5H2.5A2.5,2.5,0,0,0,0,19.17V40.83a2.5,2.5,0,0,0,2.5,2.5H34.17A.83.83,0,0,0,35,42.5a4.18,4.18,0,0,0-4.17-4.17h-2.5v-5h10v7.5a2.5,2.5,0,0,0,2.5,2.5H47.5a2.5,2.5,0,0,0,2.5-2.5h0V24.17A2.5,2.5,0,0,0,47.5,21.67ZM18.33,40.83a.84.84,0,0,1-.83.84H2.5a.84.84,0,0,1-.83-.84V40H18.33Zm0-2.5H1.67V19.17a.84.84,0,0,1,.83-.84h15a.84.84,0,0,1,.83.84ZM30.83,40a2.5,2.5,0,0,1,2.36,1.67H19.85a2.4,2.4,0,0,0,.15-.84V40ZM20,38.33v-5h1.67v5Zm3.33,0v-5h3.34v5Zm15-6.66H20v-5H38.33Zm0-7.5V25H20V19.17A2.49,2.49,0,0,0,19.72,18l0,0L28,9.75a.83.83,0,0,0-1.18-1.17l-8.25,8.25,0,.07a2.42,2.42,0,0,0-1-.23H5V4.17a2.5,2.5,0,0,1,2.5-2.5h35A2.5,2.5,0,0,1,45,4.17v17.5H40.83A2.5,2.5,0,0,0,38.33,24.17Zm10,16.66a.84.84,0,0,1-.83.84H40.83a.84.84,0,0,1-.83-.84V40h8.33Zm0-2.5H40V24.17a.84.84,0,0,1,.83-.84H47.5a.84.84,0,0,1,.83.84Z" fill="#333"/><path d="M10,26.81a.83.83,0,0,0-1.18,0L5.24,30.35a.82.82,0,0,0,0,1.17.84.84,0,0,0,1.18,0l0,0L10,28A.85.85,0,0,0,10,26.81Z" fill="#333"/><path d="M13.78,26.81l-3.54,3.54a.82.82,0,0,0,0,1.17.84.84,0,0,0,1.18,0l0,0L15,28a.83.83,0,0,0-1.18-1.18Z" fill="#333"/><path d="M31.91,8.58l-8.25,8.25A.83.83,0,0,0,24.82,18l0,0,8.25-8.25a.83.83,0,0,0-1.18-1.18Z" fill="#333"/><path d="M44.76,29.07,42.4,31.42a.83.83,0,1,0,1.16,1.2l0,0,2.35-2.36a.82.82,0,0,0,0-1.17A.81.81,0,0,0,44.76,29.07Z" fill="#333"/><path d="M25,30a.83.83,0,0,0,.83-.83.84.84,0,0,0-.83-.84h0A.84.84,0,1,0,25,30Z" fill="#333"/><path d="M26.67,3.33H23.33a.84.84,0,0,0-.83.84.83.83,0,0,0,.83.83h3.34a.83.83,0,0,0,.83-.83A.84.84,0,0,0,26.67,3.33Z" fill="#333"/></svg>