<svg xmlns="http://www.w3.org/2000/svg" width="50" height="50" viewBox="0 0 50 50"><title>icons</title><path d="M22.64,12.65a1.87,1.87,0,0,1-.87-1.58v-.31a1.89,1.89,0,0,1,1.89-1.89,1.92,1.92,0,0,1,1,.28l4.17,2.57,0-.53v-.11a10.64,10.64,0,0,0-.38-1.65l-.28-.92A12,12,0,0,0,16.6,0,10.24,10.24,0,0,0,7.2,6.18a9.78,9.78,0,0,0-.74,4.24v.08a9.88,9.88,0,0,0,3.4,7.44,8.65,8.65,0,0,1,3,6.51v4.88a6.15,6.15,0,0,0,11.81,2.4l2.17-5.57a31.6,31.6,0,0,0,1.83-7c.12-.81.19-1.65.25-2.51Z" fill="#f96969"/><path d="M21.8,30.13l-1.51-.59,2-5.14a27.09,27.09,0,0,0,1.54-5.88c.08-.54.14-1.08.18-1.63l1.61.13c-.05.58-.11,1.15-.19,1.73A28.7,28.7,0,0,1,23.8,25Z" fill="#333"/><path d="M19,32.26a2.74,2.74,0,0,1-.7-.09l.38-1.56a1.33,1.33,0,0,0,1.06-.19l.9,1.33a2.92,2.92,0,0,1-1.64.51Z" fill="#333"/><path d="M43.79,14.93a5.64,5.64,0,1,0-7.41-.41h-.33a4.07,4.07,0,0,1-2.12-.6L25.07,8.46a3.38,3.38,0,0,0-.51-.24,8.82,8.82,0,0,0-8-5,7,7,0,0,0-6.44,4.23,6.74,6.74,0,0,0-.48,2.87v.09a7,7,0,0,0,1,3.63A6.57,6.57,0,0,0,12,15.51a12,12,0,0,1,4,8.7l1.61,0a13.51,13.51,0,0,0-4.6-9.88,5.79,5.79,0,0,1-1-1.12,5.33,5.33,0,0,1-.77-2.8v-.09a5.33,5.33,0,0,1,.35-2.19,5.4,5.4,0,0,1,5-3.26,7.21,7.21,0,0,1,6.13,3.4A2.68,2.68,0,0,0,21,10.76v.31a2.68,2.68,0,0,0,1.23,2.26l10.64,6.89a4,4,0,0,1,1.84,3.38V46.77a3.21,3.21,0,0,0,5.64,2.12A3.22,3.22,0,0,0,46,46.77V33.87a4,4,0,0,0,4-4V23.39a8.87,8.87,0,0,0-6.21-8.46Zm-7.5-4.45a4,4,0,1,1,4,4A4,4,0,0,1,36.29,10.48Zm12.1,19.36A2.43,2.43,0,0,1,46,32.26V21.77H44.35v25a1.61,1.61,0,1,1-3.22,0V30.65H39.52V46.77a1.62,1.62,0,1,1-3.23,0V23.6a5.61,5.61,0,0,0-2.58-4.74L23.07,12a1.1,1.1,0,0,1-.49-.91v-.31a1.08,1.08,0,0,1,1.08-1.08,1,1,0,0,1,.56.16l8.87,5.45a5.62,5.62,0,0,0,3,.84h5.08a7.27,7.27,0,0,1,7.26,7.26Z" fill="#333"/><path d="M0,16.94H4.84v1.61H0Z" fill="#333"/><path d="M1.22,23.09l4.19-2.42.81,1.4L2,24.49Z" fill="#333"/><path d="M1.22,12.39,2,11l4.19,2.42-.8,1.4Z" fill="#333"/></svg>