<svg xmlns="http://www.w3.org/2000/svg" width="50" height="56.84" viewBox="0 0 50 56.84"><title>icons</title><path d="M13.32,0A8.25,8.25,0,0,0,8.74,15.11v3.23h9.17V15.11A8.25,8.25,0,0,0,13.32,0Zm0,10.09a1.84,1.84,0,1,1,1.83-1.84A1.83,1.83,0,0,1,13.32,10.09Z" fill="#f96969"/><path d="M50,0,44.67,4,39.31,16.51H35l-1.69-3.67h1.1a3.68,3.68,0,0,0,3.67-3.67V5.5h1.83V0h-5.5V5.5h1.84V9.17A1.84,1.84,0,0,1,34.41,11H32.46L30.11,5.92l2.81-1.4L23.73.58,21,10l2.84-1.43L25,11a3.66,3.66,0,0,0-3.43,3.64v1.84H14.24V10.84a2.75,2.75,0,1,0-1.84,0v5.67H6.51l-.14.74a20.59,20.59,0,0,0-.12,7.05L0,35.45,6.92,37V48.58h9.17v8.26h22V44.06A24.15,24.15,0,0,0,48.17,24.43V21.08a20.65,20.65,0,0,0-.35-3.82l-.14-.75h-1.8L50,6.6ZM36.25,1.83h1.83V3.67H36.25ZM13.32,7.34a.92.92,0,1,1-.92.91A.92.92,0,0,1,13.32,7.34ZM48.17,4.93l-1-.5,1-.76ZM33,16.51H29.5l-1.67-3.67h3.46Zm-9-10,1-3.41,3.64,1.56-.86.43L30.44,11H27L24.76,6.09Zm-.53,8.17a1.83,1.83,0,0,1,1.83-1.83h.58l1.67,3.67H23.41Zm22.92,6.41v3.35a22.33,22.33,0,0,1-9.67,18.4l-.4.27V55H17.92V46.75H8.75V35.56L2.8,34.21l5.36-9.57-.05-.32a19.06,19.06,0,0,1-.07-6H46.13A19.65,19.65,0,0,1,46.33,21.08Zm-5-4.57L45.87,5.84l2,1-4,9.65Z" fill="#333"/><path d="M15.15,25.68a4.6,4.6,0,0,0,4.59-4.59H17.91a2.76,2.76,0,0,1-5.51,0H10.57A4.59,4.59,0,0,0,15.15,25.68Z" fill="#333"/></svg>