<svg xmlns="http://www.w3.org/2000/svg" width="50" height="50.4" viewBox="0 0 50 50.4"><title>icons</title><path d="M25.78,31.84H3.13A2.39,2.39,0,0,1,.74,29.45V13.7a2.39,2.39,0,0,1,2.39-2.4H25.78a2.39,2.39,0,0,1,2.39,2.4V29.45A2.39,2.39,0,0,1,25.78,31.84Z" fill="#f96969"/><path d="M5.36,22,9,19.59a.36.36,0,0,1,.21-.05.72.72,0,0,1,.66.69.46.46,0,0,1-.21.4l-2.9,1.91,2.9,1.9a.45.45,0,0,1,.21.4.71.71,0,0,1-.66.68A.36.36,0,0,1,9,25.47L5.36,23.09a.71.71,0,0,1-.3-.55A.74.74,0,0,1,5.36,22Z" fill="#333"/><path d="M17.55,16.25a.42.42,0,0,1-.05.22L12.42,26.59a.5.5,0,0,1-.45.26.53.53,0,0,1-.54-.51.52.52,0,0,1,0-.21L16.56,16a.4.4,0,0,1,.41-.24A.56.56,0,0,1,17.55,16.25Z" fill="#333"/><path d="M23.6,23.09,20,25.47a.34.34,0,0,1-.19.05.71.71,0,0,1-.67-.68.47.47,0,0,1,.2-.4l2.91-1.9-2.91-1.91a.48.48,0,0,1-.2-.4.72.72,0,0,1,.67-.69.34.34,0,0,1,.19.05L23.6,22a.72.72,0,0,1,.31.57A.66.66,0,0,1,23.6,23.09Z" fill="#333"/><path d="M39.17,49.66a1.32,1.32,0,0,1-1.32-1.32v-.42a.45.45,0,0,0-.33-.44A8.21,8.21,0,0,1,36,46.84a.39.39,0,0,0-.21-.06.47.47,0,0,0-.33.14l-.29.29a1.32,1.32,0,0,1-1.87,0l-.72-.72a1.33,1.33,0,0,1,0-1.86l.3-.3a.45.45,0,0,0,.08-.54,7.31,7.31,0,0,1-.64-1.56.47.47,0,0,0-.44-.33h-.42a1.32,1.32,0,0,1-1.32-1.32v-1a1.33,1.33,0,0,1,1.32-1.33h.45a.47.47,0,0,0,.45-.32A7.69,7.69,0,0,1,33,36.41a.47.47,0,0,0-.07-.55l-.35-.34a1.34,1.34,0,0,1,0-1.87l.72-.72a1.34,1.34,0,0,1,1.87,0l.38.38a.45.45,0,0,0,.33.14A.54.54,0,0,0,36,33.4a7.65,7.65,0,0,1,1.48-.6.46.46,0,0,0,.33-.44v-.55a1.33,1.33,0,0,1,1.32-1.33h1a1.33,1.33,0,0,1,1.32,1.33v.59a.46.46,0,0,0,.32.44,7.55,7.55,0,0,1,1.44.6.42.42,0,0,0,.22.05.44.44,0,0,0,.32-.13l.43-.43a1.3,1.3,0,0,1,.93-.38,1.28,1.28,0,0,1,.93.38l.72.72a1.32,1.32,0,0,1,0,1.87l-.42.42a.46.46,0,0,0-.08.55,7.46,7.46,0,0,1,.6,1.43.46.46,0,0,0,.44.32h.59a1.33,1.33,0,0,1,1.32,1.33v1a1.32,1.32,0,0,1-1.32,1.32h-.55a.45.45,0,0,0-.44.33,7.91,7.91,0,0,1-.6,1.48.47.47,0,0,0,.08.54l.38.38a1.3,1.3,0,0,1,0,1.86l-.72.72a1.29,1.29,0,0,1-.93.39,1.31,1.31,0,0,1-.93-.39l-.34-.34a.46.46,0,0,0-.33-.13.54.54,0,0,0-.22,0,7.56,7.56,0,0,1-1.52.65.46.46,0,0,0-.32.44v.46a1.32,1.32,0,0,1-1.32,1.32ZM39.67,37a3.11,3.11,0,1,0,3.11,3.1A3.1,3.1,0,0,0,39.67,37Z" fill="#f96969"/><path d="M28.91,29.45V13.7a3.14,3.14,0,0,0-3.13-3.14H3.13A3.14,3.14,0,0,0,0,13.7V29.45a3.13,3.13,0,0,0,3.13,3.13H25.78A3.13,3.13,0,0,0,28.91,29.45Zm-27.43,0V13.7A1.65,1.65,0,0,1,3.13,12H25.78a1.65,1.65,0,0,1,1.65,1.66V29.45a1.65,1.65,0,0,1-1.65,1.65H3.13A1.65,1.65,0,0,1,1.48,29.45Z" fill="#333"/><path d="M47.94,37.51h-.39a7.31,7.31,0,0,0-.5-1.19l.28-.28a2,2,0,0,0,.61-1.45,2.06,2.06,0,0,0-.61-1.46l-.71-.72a2,2,0,0,0-1.46-.6,2.1,2.1,0,0,0-1.17.36v-29A3.15,3.15,0,0,0,40.84,0H15.5a3.16,3.16,0,0,0-3.15,3.15v5.2a.74.74,0,0,0,1.48,0V6.57H42.51V32.29l-.27-.1v-.38a2.06,2.06,0,0,0-2.06-2.06h-1a2.06,2.06,0,0,0-2.06,2.06v.34a7.73,7.73,0,0,0-1.23.5l-.24-.24a2,2,0,0,0-1.45-.6,2,2,0,0,0-1.46.6l-.72.72a2,2,0,0,0-.6,1.46A2,2,0,0,0,32,36l.2.19a8.51,8.51,0,0,0-.55,1.28h-.25a2.06,2.06,0,0,0-2.06,2.06H13.83V34.8a.74.74,0,0,0-1.48,0v8.12a3.16,3.16,0,0,0,3.15,3.15h16A2.16,2.16,0,0,0,32,47l.72.71a2.06,2.06,0,0,0,1.46.61,2,2,0,0,0,1.45-.61l.15-.14a8.46,8.46,0,0,0,1.32.53v.22a2.06,2.06,0,0,0,2.06,2.06h1a2.06,2.06,0,0,0,2.06-2.06v-.26a7.45,7.45,0,0,0,1.27-.54l.19.19a2.05,2.05,0,0,0,2.92,0l.71-.71a2.05,2.05,0,0,0,0-2.92l-.23-.23a8.08,8.08,0,0,0,.49-1.23h.35A2.06,2.06,0,0,0,50,40.58v-1A2.06,2.06,0,0,0,47.94,37.51ZM13.83,5.1V3.15A1.67,1.67,0,0,1,15.5,1.48H40.84a1.67,1.67,0,0,1,1.67,1.67V5.1Zm0,37.82V41.05H29.4a2.06,2.06,0,0,0,2,1.59h.21A8.32,8.32,0,0,0,32.16,44L32,44.1a2.47,2.47,0,0,0-.36.49H15.5A1.67,1.67,0,0,1,13.83,42.92Zm34.69-2.34a.58.58,0,0,1-.58.58h-.55a1.19,1.19,0,0,0-1.15.87,8.16,8.16,0,0,1-.54,1.34,1.19,1.19,0,0,0,.21,1.4l.38.38a.58.58,0,0,1,0,.82l-.72.72a.58.58,0,0,1-.82,0l-.34-.34a1.2,1.2,0,0,0-1.43-.2,7.13,7.13,0,0,1-1.37.58,1.21,1.21,0,0,0-.85,1.15v.46a.58.58,0,0,1-.58.58h-1a.58.58,0,0,1-.59-.58v-.42a1.18,1.18,0,0,0-.86-1.15,7,7,0,0,1-1.41-.58,1.16,1.16,0,0,0-.57-.15,1.2,1.2,0,0,0-.85.36l-.29.29a.58.58,0,0,1-.41.17.61.61,0,0,1-.42-.17L33.06,46a.53.53,0,0,1-.17-.41v-.07s0,0,0-.06a.53.53,0,0,1,.16-.28l.29-.3a1.2,1.2,0,0,0,.21-1.41A6.65,6.65,0,0,1,33,42a1.21,1.21,0,0,0-1.15-.87h-.42a.58.58,0,0,1-.59-.58v-1a.58.58,0,0,1,.59-.59h.45A1.19,1.19,0,0,0,33,38.14a6.67,6.67,0,0,1,.59-1.37,1.2,1.2,0,0,0-.2-1.43L33.06,35a.54.54,0,0,1-.17-.41.61.61,0,0,1,.17-.42l.71-.71a.57.57,0,0,1,.42-.17.54.54,0,0,1,.41.17l.38.38a1.21,1.21,0,0,0,.85.35,1.18,1.18,0,0,0,.55-.14,6.71,6.71,0,0,1,1.34-.54,1.19,1.19,0,0,0,.86-1.15v-.55a.58.58,0,0,1,.59-.59h1a.58.58,0,0,1,.58.59v.59a1.2,1.2,0,0,0,.85,1.14,7.13,7.13,0,0,1,1.27.54l0,0a1.18,1.18,0,0,0,.56.13,1.15,1.15,0,0,0,.84-.35l.43-.42a.58.58,0,0,1,.82,0l.72.71a.59.59,0,0,1,.17.42.58.58,0,0,1-.17.41l-.43.42a1.21,1.21,0,0,0-.2,1.42,6.73,6.73,0,0,1,.54,1.3,1.19,1.19,0,0,0,1.15.84h.59a.58.58,0,0,1,.58.59v1Z" fill="#333"/><path d="M39.67,36.23a3.84,3.84,0,0,0-3.84,3.84v.24a1.1,1.1,0,0,0,0,.18,3.85,3.85,0,1,0,3.82-4.26Zm2.16,4.82,0,.05a3,3,0,0,1-.28.44l-.1.12A2.16,2.16,0,0,1,41,42a.39.39,0,0,1-.11.06,2.22,2.22,0,0,1-.41.2l-.21.06a2.32,2.32,0,0,1-.46.07l-.13,0-.13,0a2.13,2.13,0,0,1-.44-.07l-.23-.07a1.76,1.76,0,0,1-.37-.17,1,1,0,0,1-.17-.1,2.05,2.05,0,0,1-.38-.34l-.14-.16a1.65,1.65,0,0,1-.22-.36s-.06-.06-.07-.1h0a2.31,2.31,0,0,1-.22-1,2.73,2.73,0,0,1,0-.5h0a2.64,2.64,0,0,1,.12-.4,1.28,1.28,0,0,1,.11-.2l.09-.16a1.77,1.77,0,0,1,.16-.22l.09-.11a1.34,1.34,0,0,1,.21-.2l.08-.07.26-.18.07,0,.31-.14h0a2.21,2.21,0,0,1,.78-.14,2.35,2.35,0,0,1,1.15.31h0a2.11,2.11,0,0,1,.31.21l0,0a2.2,2.2,0,0,1,.27.26v0A2.31,2.31,0,0,1,42,40.07a2.46,2.46,0,0,1-.21,1Z" fill="#333"/></svg>