<svg xmlns="http://www.w3.org/2000/svg" width="50" height="48.12" viewBox="0 0 50 48.12"><title>icons</title><path d="M9.46,4.1l.76,1.55a.36.36,0,0,0,.26.19l1.71.25a.71.71,0,0,1,.39,1.21L11.35,8.51a.34.34,0,0,0-.1.3l.29,1.7a.71.71,0,0,1-1,.75L9,10.46a.36.36,0,0,0-.32,0l-1.53.8a.71.71,0,0,1-1-.75l.29-1.7a.34.34,0,0,0-.1-.3L5.06,7.3a.71.71,0,0,1,.39-1.21l1.71-.25a.36.36,0,0,0,.26-.19L8.18,4.1A.71.71,0,0,1,9.46,4.1Z" fill="#f96969"/><path d="M20.25,4.1,21,5.65a.36.36,0,0,0,.26.19L23,6.09a.71.71,0,0,1,.39,1.21L22.13,8.51a.33.33,0,0,0-.09.3l.29,1.7a.71.71,0,0,1-1,.75l-1.52-.8a.36.36,0,0,0-.32,0l-1.53.8a.71.71,0,0,1-1-.75l.29-1.7a.34.34,0,0,0-.1-.3L15.84,7.3a.71.71,0,0,1,.4-1.21l1.7-.25a.35.35,0,0,0,.26-.19L19,4.1a.71.71,0,0,1,1.28,0Z" fill="#f96969"/><path d="M31,4.1l.77,1.55a.35.35,0,0,0,.26.19l1.7.25a.71.71,0,0,1,.4,1.21L32.92,8.51a.34.34,0,0,0-.1.3l.29,1.7a.71.71,0,0,1-1,.75l-1.53-.8a.36.36,0,0,0-.32,0l-1.52.8a.71.71,0,0,1-1-.75L28,8.81a.33.33,0,0,0-.09-.3L26.63,7.3A.71.71,0,0,1,27,6.09l1.71-.25A.36.36,0,0,0,29,5.65l.76-1.55A.71.71,0,0,1,31,4.1Z" fill="#f96969"/><path d="M41.82,4.1l.76,1.55a.36.36,0,0,0,.26.19l1.71.25a.71.71,0,0,1,.39,1.21L43.71,8.51a.34.34,0,0,0-.1.3l.29,1.7a.71.71,0,0,1-1,.75l-1.53-.8a.36.36,0,0,0-.32,0l-1.53.8a.71.71,0,0,1-1-.75l.29-1.7a.34.34,0,0,0-.1-.3L37.42,7.3a.71.71,0,0,1,.39-1.21l1.71-.25a.36.36,0,0,0,.26-.19l.76-1.55a.71.71,0,0,1,1.28,0Z" fill="#f96969"/><path d="M48.58,0H1.42A1.43,1.43,0,0,0,0,1.42V13.81a1.42,1.42,0,0,0,1.42,1.42H3.86a.74.74,0,0,0,0-1.47H1.47V1.47H48.53V13.76H28.65a1.41,1.41,0,0,0-1.1.52L25,17.39l-2.55-3.11a1.41,1.41,0,0,0-1.1-.52H7.24a.74.74,0,0,0,0,1.47H21.33l2.58,3.14a1.42,1.42,0,0,0,2.18,0l2.58-3.14H48.58A1.42,1.42,0,0,0,50,13.81V1.42A1.43,1.43,0,0,0,48.58,0Z" fill="#333"/><path d="M7.47,11.91l1.35-.71,1.35.71a1.44,1.44,0,0,0,2.09-1.52L12,8.89l1.08-1.06a1.45,1.45,0,0,0-.8-2.47l-1.5-.22-.67-1.36a1.45,1.45,0,0,0-2.6,0L6.85,5.14l-1.51.22a1.45,1.45,0,0,0-.8,2.47L5.63,8.89l-.25,1.5A1.41,1.41,0,0,0,6,11.8a1.4,1.4,0,0,0,.85.28A1.45,1.45,0,0,0,7.47,11.91ZM5.6,6.81l1.66-.25A1.06,1.06,0,0,0,8.07,6l.75-1.5L9.56,6a1.08,1.08,0,0,0,.82.59L12,6.81,10.84,8a1.06,1.06,0,0,0-.31.95l.28,1.66L9.32,9.81a1.1,1.1,0,0,0-1,0l-1.49.78.28-1.66A1.06,1.06,0,0,0,6.8,8Z" fill="#333"/><path d="M24.25,6.34a1.44,1.44,0,0,0-1.17-1l-1.5-.22L20.9,3.78A1.42,1.42,0,0,0,19.61,3a1.44,1.44,0,0,0-1.3.81l-.67,1.36-1.51.22a1.45,1.45,0,0,0-.8,2.47l1.09,1.06-.26,1.5a1.44,1.44,0,0,0,.58,1.41,1.4,1.4,0,0,0,.85.28,1.45,1.45,0,0,0,.67-.17l1.35-.71,1.34.71a1.42,1.42,0,0,0,1.52-.11,1.44,1.44,0,0,0,.58-1.41l-.26-1.5,1.09-1.06a1.45,1.45,0,0,0,.37-1.49ZM21.62,8a1.09,1.09,0,0,0-.31.95l.29,1.66-1.49-.78a1.11,1.11,0,0,0-.5-.12,1.06,1.06,0,0,0-.5.12l-1.49.78.28-1.66A1.08,1.08,0,0,0,17.59,8L16.38,6.81l1.67-.25A1.08,1.08,0,0,0,18.86,6l.75-1.5L20.35,6a1.08,1.08,0,0,0,.81.59l1.67.25Z" fill="#333"/><path d="M35,6.34a1.43,1.43,0,0,0-1.16-1l-1.51-.22-.67-1.36A1.44,1.44,0,0,0,30.39,3h0a1.42,1.42,0,0,0-1.29.81l-.68,1.36-1.5.22a1.44,1.44,0,0,0-.8,2.47l1.09,1.06L27,10.39a1.44,1.44,0,0,0,.58,1.41,1.42,1.42,0,0,0,1.52.11l1.34-.71,1.35.71a1.45,1.45,0,0,0,.67.17,1.4,1.4,0,0,0,.85-.28,1.44,1.44,0,0,0,.58-1.41l-.26-1.5,1.09-1.06A1.42,1.42,0,0,0,35,6.34ZM32.41,8a1.09,1.09,0,0,0-.31.95l.28,1.66-1.49-.78a1.1,1.1,0,0,0-1,0l-1.49.78.29-1.66A1.08,1.08,0,0,0,28.38,8L27.17,6.81l1.67-.25A1.08,1.08,0,0,0,29.65,6l.74-1.5L31.14,6a1.09,1.09,0,0,0,.81.58l1.67.25Z" fill="#333"/><path d="M45.82,6.34a1.44,1.44,0,0,0-1.16-1l-1.51-.22-.67-1.36A1.44,1.44,0,0,0,41.18,3h0a1.45,1.45,0,0,0-1.3.81l-.67,1.36-1.5.22a1.44,1.44,0,0,0-.8,2.47L38,8.89l-.25,1.5a1.44,1.44,0,0,0,2.09,1.52l1.35-.71,1.35.71a1.45,1.45,0,0,0,.67.17,1.4,1.4,0,0,0,.85-.28,1.41,1.41,0,0,0,.57-1.41l-.25-1.5,1.09-1.06a1.47,1.47,0,0,0,.36-1.49ZM43.2,8a1.06,1.06,0,0,0-.31.95l.28,1.66-1.49-.78a1.1,1.1,0,0,0-1,0l-1.49.78.28-1.66A1.06,1.06,0,0,0,39.16,8L38,6.81l1.66-.25A1.08,1.08,0,0,0,40.44,6l.74-1.5L41.93,6a1.06,1.06,0,0,0,.81.59l1.66.25Z" fill="#333"/><path d="M35.17,35.61H35V30.29H15v5.32h-.13a2.23,2.23,0,1,0,0,4.46H15v.07a7.25,7.25,0,0,0,7.25,7.24h5.58A7.25,7.25,0,0,0,35,40.14v-.07h.13a2.23,2.23,0,0,0,0-4.46Z" fill="none"/><path d="M21.38,38a.74.74,0,0,1-.73-.74V36.06a.74.74,0,0,1,1.47,0V37.3A.74.74,0,0,1,21.38,38Z" fill="#333"/><path d="M28.62,38a.74.74,0,0,1-.74-.74V36.06a.74.74,0,0,1,1.47,0V37.3A.74.74,0,0,1,28.62,38Z" fill="#333"/><path d="M35.76,34.94V32.56a.74.74,0,0,0-1.47,0V35a7.81,7.81,0,0,1-1.52-3.38,1.34,1.34,0,0,0-.56-.91,1.37,1.37,0,0,0-1.06-.21l-1,.22a28.92,28.92,0,0,1-4.39.41h-1.5a28.92,28.92,0,0,1-4.39-.41l-1-.22a1.35,1.35,0,0,0-1.62,1.13A7.88,7.88,0,0,1,15.71,35V22.08l1,.52a3.5,3.5,0,0,0,3.24,0l.79-.41a2,2,0,0,1,1.88,0l.78.41a3.5,3.5,0,0,0,3.24,0l.78-.41a2,2,0,0,1,1.88,0l.78.41a3.5,3.5,0,0,0,3.24,0l1-.52v7.08a.74.74,0,1,0,1.47,0V22.07a1.45,1.45,0,0,0-2.13-1.29l-1,.52a2,2,0,0,1-1.87,0L30,20.89a3.5,3.5,0,0,0-3.24,0l-.78.41a2,2,0,0,1-1.88,0l-.78-.41a3.5,3.5,0,0,0-3.24,0l-.79.41a2,2,0,0,1-1.87,0l-1-.52a1.45,1.45,0,0,0-2.13,1.29V34.94a3,3,0,0,0,0,5.8,8,8,0,0,0,8,7.38h5.58a8,8,0,0,0,8-7.38,3,3,0,0,0,0-5.8Zm-.59,4.39H35a.74.74,0,0,0-.74.74v.07a6.52,6.52,0,0,1-6.51,6.51H22.21a6.52,6.52,0,0,1-6.51-6.51v-.07a.74.74,0,0,0-.74-.74h-.13a1.49,1.49,0,0,1-.58-2.87,1,1,0,0,0,.6.76,1.15,1.15,0,0,0,.36.07,1,1,0,0,0,.7-.3,10.14,10.14,0,0,0,2.75-5.07l.95.21a29.51,29.51,0,0,0,4.63.42h1.52a29.51,29.51,0,0,0,4.63-.42l.95-.21A10.14,10.14,0,0,0,34.09,37a1,1,0,0,0,1.06.23,1,1,0,0,0,.6-.76,1.49,1.49,0,0,1-.58,2.87Z" fill="#333"/></svg>