<svg id="Layer_1" data-name="Layer 1" xmlns="http://www.w3.org/2000/svg" viewBox="0 0 65 65"><defs><style>.cls-1{fill:#f96969;}.cls-2{fill:#333;}</style></defs><title>icons</title><path class="cls-1" d="M41.83,23.36a9,9,0,0,0-1-2.31l.76-1.52L39.11,17l-1.53.76a9.17,9.17,0,0,0-2.31-1l-.54-1.61H31.17l-.54,1.61a9.33,9.33,0,0,0-2.31,1L26.79,17l-2.52,2.52L25,21.05a9.17,9.17,0,0,0-1,2.31l-1.61.54v3.56l1.61.54a9.17,9.17,0,0,0,1,2.31l-.76,1.53,2.53,2.52,1.52-.76a9.33,9.33,0,0,0,2.31,1l.54,1.61h3.56l.54-1.61a8.82,8.82,0,0,0,2.31-1l1.53.76,2.52-2.52-.76-1.53a9.17,9.17,0,0,0,1-2.31l1.61-.53V23.9ZM33,27.65a2,2,0,1,1,2-2A2,2,0,0,1,33,27.65Z"/><path class="cls-2" d="M33,32.24a6.56,6.56,0,1,1,6.56-6.56A6.57,6.57,0,0,1,33,32.24Zm0-11.8a5.25,5.25,0,1,0,5.25,5.24A5.25,5.25,0,0,0,33,20.44Z"/><path class="cls-2" d="M33,28.3a2.62,2.62,0,1,1,2.62-2.62A2.62,2.62,0,0,1,33,28.3Zm0-3.93a1.31,1.31,0,1,0,1.31,1.31A1.31,1.31,0,0,0,33,24.37Z"/><path class="cls-2" d="M60.67,8.67v2.16A2.17,2.17,0,0,1,62.83,13V45.5H2.17V13a2.17,2.17,0,0,1,2.16-2.17V8.67A4.33,4.33,0,0,0,0,13V49.83a4.33,4.33,0,0,0,4.33,4.34h21.3L23,62.83H20.58V65H44.42V62.83H42l-2.6-8.66h21.3A4.33,4.33,0,0,0,65,49.83V13A4.33,4.33,0,0,0,60.67,8.67Zm-21,54.16H25.29l2.6-8.66h9.22Zm23.12-13A2.17,2.17,0,0,1,60.67,52H4.33a2.17,2.17,0,0,1-2.16-2.17V47.67H62.83Z"/><path class="cls-2" d="M10.83,43.33H54.17A4.33,4.33,0,0,0,58.5,39V4.33A4.33,4.33,0,0,0,54.17,0H10.83A4.33,4.33,0,0,0,6.5,4.33V39A4.33,4.33,0,0,0,10.83,43.33Zm-2.16-39a2.16,2.16,0,0,1,2.16-2.16H54.17a2.16,2.16,0,0,1,2.16,2.16V39a2.17,2.17,0,0,1-2.16,2.17H10.83A2.17,2.17,0,0,1,8.67,39Z"/><path class="cls-1" d="M10.83,8.67H54.17v2.16H10.83Z"/><path class="cls-1" d="M10.83,14.08h9.75v2.17H10.83Z"/><path class="cls-1" d="M10.83,18.42h7.59v2.16H10.83Z"/><path class="cls-1" d="M10.83,22.75h6.5v2.17h-6.5Z"/><path class="cls-1" d="M10.83,27.08h6.5v2.17h-6.5Z"/><path class="cls-1" d="M10.83,31.42h6.5v2.16h-6.5Z"/><path class="cls-1" d="M10.83,35.75h9.75v2.17H10.83Z"/><path class="cls-1" d="M44.42,14.08h9.75v2.17H44.42Z"/><path class="cls-1" d="M46.58,18.42h7.59v2.16H46.58Z"/><path class="cls-1" d="M47.67,22.75h6.5v2.17h-6.5Z"/><path class="cls-1" d="M47.67,27.08h6.5v2.17h-6.5Z"/><path class="cls-1" d="M47.67,31.42h6.5v2.16h-6.5Z"/><path class="cls-1" d="M44.42,35.75h9.75v2.17H44.42Z"/><path class="cls-1" d="M10.83,4.33H13V6.5H10.83Z"/><path class="cls-1" d="M15.17,4.33h2.16V6.5H15.17Z"/><path class="cls-1" d="M19.5,4.33h2.17V6.5H19.5Z"/></svg>