<svg id="Layer_1" data-name="Layer 1" xmlns="http://www.w3.org/2000/svg" viewBox="0 0 65 65"><defs><style>.cls-1{fill:#f96969;}.cls-2{fill:#333;}</style></defs><title>icons</title><rect class="cls-1" x="13.58" y="37.43" width="23.65" height="9.53"/><path class="cls-2" d="M6.5,4.33V15.17H8.67V4.33a2.16,2.16,0,0,1,2.16-2.16H54.17a2.16,2.16,0,0,1,2.16,2.16H58.5A4.33,4.33,0,0,0,54.17,0H10.83A4.33,4.33,0,0,0,6.5,4.33Z"/><path class="cls-2" d="M4.33,65H54.17a4.33,4.33,0,0,0,4.33-4.33V56.33H56.33v4.34a2.17,2.17,0,0,1-4.33,0V57.42a1.08,1.08,0,0,0-1.08-1.09H8.67V34.67H6.5V56.33H1.08A1.08,1.08,0,0,0,0,57.42v3.25A4.33,4.33,0,0,0,4.33,65ZM2.17,58.5H49.83v2.17a4.2,4.2,0,0,0,.59,2.16H4.33a2.16,2.16,0,0,1-2.16-2.16Z"/><path class="cls-2" d="M1.08,32.5H22.75a1.08,1.08,0,0,0,1.08-1.08v-13a1.08,1.08,0,0,0-1.08-1.09H1.08A1.08,1.08,0,0,0,0,18.42v13A1.08,1.08,0,0,0,1.08,32.5Zm1.09-13h19.5V30.33H2.17Z"/><path class="cls-2" d="M6.82,22,4.65,24.15a1.09,1.09,0,0,0,0,1.53l2.17,2.17,1.53-1.53L7,24.92l1.4-1.4Z"/><path class="cls-2" d="M17,22l-1.54,1.54,1.4,1.4-1.4,1.4L17,27.85l2.16-2.17a1.07,1.07,0,0,0,0-1.53Z"/><path class="cls-2" d="M9.8,27.82,12,21.32,14,22l-2.17,6.5Z"/><path class="cls-2" d="M10.83,35.75v13a1.08,1.08,0,0,0,1.09,1.08H39a1.08,1.08,0,0,0,1.08-1.08v-13A1.08,1.08,0,0,0,39,34.67H11.92A1.08,1.08,0,0,0,10.83,35.75ZM13,36.83H37.92V47.67H13Z"/><path class="cls-2" d="M15.17,39H19.5v2.17H15.17Z"/><path class="cls-2" d="M21.67,39h9.75v2.17H21.67Z"/><path class="cls-2" d="M33.58,39h2.17v2.17H33.58Z"/><path class="cls-2" d="M15.17,43.33h13V45.5h-13Z"/><path class="cls-2" d="M30.33,43.33h5.42V45.5H30.33Z"/><path class="cls-2" d="M10.83,4.33H13V6.5H10.83Z"/><path class="cls-2" d="M15.17,4.33h2.16V6.5H15.17Z"/><path class="cls-2" d="M19.5,4.33h2.17V6.5H19.5Z"/><path class="cls-2" d="M10.83,8.67h13v2.16h-13Z"/><path class="cls-2" d="M63.92,39H43.33a1.08,1.08,0,0,0-1.08,1.08v13a1.08,1.08,0,0,0,1.08,1.09H63.92A1.08,1.08,0,0,0,65,53.08v-13A1.08,1.08,0,0,0,63.92,39ZM62.83,52H44.42V41.17H62.83Z"/><path class="cls-2" d="M46.58,43.33h2.17V45.5H46.58Z"/><path class="cls-2" d="M46.58,47.67h2.17v2.16H46.58Z"/><path class="cls-2" d="M50.92,43.33h9.75V45.5H50.92Z"/><path class="cls-2" d="M50.92,47.67h9.75v2.16H50.92Z"/><path class="cls-1" d="M28.54,8.37H62.39a1,1,0,0,1,1,1V28.08a1,1,0,0,1-1,1H28.54a1,1,0,0,1-1-1V9.37A1,1,0,0,1,28.54,8.37Z"/><path class="cls-2" d="M56.33,32.5H58.5v4.33H56.33Z"/><path class="cls-2" d="M63.92,6.5H27.08A1.08,1.08,0,0,0,26,7.58V29.25a1.08,1.08,0,0,0,1.08,1.08H63.92A1.08,1.08,0,0,0,65,29.25V7.58A1.08,1.08,0,0,0,63.92,6.5ZM62.83,28.17H28.17V25.53l9.73-5.84,9.48,6.14a1.07,1.07,0,0,0,1.08.05l7.85-4.06,6.52,3.73Zm0-5.12-5.95-3.41a1.1,1.1,0,0,0-1,0L48,23.67l-9.52-6.16a1.08,1.08,0,0,0-1.15,0L28.17,23V8.67H62.83Z"/><circle class="cls-2" cx="51.5" cy="14.47" r="3.04"/></svg>