<svg id="Layer_1" data-name="Layer 1" xmlns="http://www.w3.org/2000/svg" viewBox="0 0 65 72.14"><defs><style>.cls-1{fill:#f96969;}.cls-2{fill:#333;}</style></defs><title>icons</title><circle class="cls-1" cx="38.94" cy="14.48" r="9.37"/><path class="cls-2" d="M64.22,26.5a1.59,1.59,0,0,0-1.59,0l-10.42,5.6v-4.8a1.61,1.61,0,0,0-1.61-1.61H48a14.43,14.43,0,1,0-23.11-14.6,10.88,10.88,0,1,0-16.1,14.6H7.3a1.61,1.61,0,0,0-1.61,1.61v7.31H1.61A1.61,1.61,0,0,0,0,36.18v6.33a1.62,1.62,0,0,0,1.61,1.62H5.69v7.31A1.62,1.62,0,0,0,7.3,53.05h19L17.57,69.79A1.61,1.61,0,0,0,18.25,72a1.65,1.65,0,0,0,.74.18,1.61,1.61,0,0,0,1.43-.86L29,54.92l8.53,16.36a1.61,1.61,0,0,0,1.43.86,1.65,1.65,0,0,0,.74-.18,1.6,1.6,0,0,0,.68-2.17L31.61,53.05h19a1.62,1.62,0,0,0,1.61-1.61V46.63l10.42,5.61a1.59,1.59,0,0,0,.76.19,1.65,1.65,0,0,0,.83-.23A1.61,1.61,0,0,0,65,50.82V27.88A1.61,1.61,0,0,0,64.22,26.5ZM5.69,40.9H3.22V37.79H5.69ZM38.91,3.22A11.22,11.22,0,1,1,27.69,14.44,11.23,11.23,0,0,1,38.91,3.22ZM26.61,22a14.62,14.62,0,0,0,3.22,3.66H24.21A11,11,0,0,0,26.61,22ZM16.49,10.32A7.67,7.67,0,1,1,8.82,18,7.67,7.67,0,0,1,16.49,10.32ZM49,34.76V49.82H8.91V28.87H49ZM61.78,48.12,52.21,43V35.72l9.57-5.15Z"/><path class="cls-2" d="M16.49,13.09A4.9,4.9,0,1,0,21.38,18,4.9,4.9,0,0,0,16.49,13.09Zm0,6.89a2,2,0,1,1,2-2A2,2,0,0,1,16.49,20Z"/><path class="cls-2" d="M38.91,7.41a7,7,0,1,0,7,7A7,7,0,0,0,38.91,7.41Zm0,10.83a3.81,3.81,0,1,1,3.8-3.8A3.81,3.81,0,0,1,38.91,18.24Z"/><rect class="cls-1" x="10.68" y="30.39" width="36.69" height="17.65"/><path class="cls-2" d="M33.71,33.55H16.2a1.54,1.54,0,0,0-1.53,1.53v8.53a1.53,1.53,0,0,0,1.53,1.53H33.71a1.52,1.52,0,0,0,1.53-1.53V35.08A1.53,1.53,0,0,0,33.71,33.55Zm-1.53,8.53H17.73V36.61H32.18v5.47Z"/><circle class="cls-2" cx="42.16" cy="36.69" r="1.61"/><circle class="cls-2" cx="42.16" cy="42" r="1.61"/></svg>