<svg id="Layer_1" data-name="Layer 1" xmlns="http://www.w3.org/2000/svg" viewBox="0 0 65 65"><defs><style>.cls-1{fill:#f96969;}.cls-2{fill:#333;}</style></defs><title>icons</title><path class="cls-1" d="M17.82,37.74a15.68,15.68,0,0,1,5.06-11.53H4.19V40.89H17.82l.25-.44A16.06,16.06,0,0,1,17.82,37.74Z"/><path class="cls-1" d="M4.19,17.82H21v6.29H4.19Z"/><path class="cls-1" d="M52.42,19.92h6.29V37.74H52.42Z"/><path class="cls-1" d="M44,26.21h6.29V37.74H44Z"/><path class="cls-1" d="M35.65,19.92h6.29V37.74H35.65Z"/><path class="cls-2" d="M11.53,53.47H22v2.09H11.53Z"/><path class="cls-2" d="M4.19,17.82h2.1v2.1H4.19Z"/><path class="cls-2" d="M8.39,17.82h2.09v2.1H8.39Z"/><path class="cls-2" d="M12.58,17.82h2.1v2.1h-2.1Z"/><path class="cls-2" d="M16.77,17.82H29.35v2.1H16.77Z"/><path class="cls-2" d="M4.19,22H16.77v2.09H4.19Z"/><path class="cls-2" d="M18.87,22H21v2.09h-2.1Z"/><path class="cls-2" d="M56.2,54.72a32.43,32.43,0,0,0,0-44.43l2.22-2.22a3.05,3.05,0,0,0,1.35.32,3.15,3.15,0,1,0-3.15-3.15,3.05,3.05,0,0,0,.32,1.35L54.71,8.81a32.43,32.43,0,0,0-39.9-3.57H4.19A4.2,4.2,0,0,0,0,9.44V55.56a4.2,4.2,0,0,0,4.19,4.2H14.8a32.46,32.46,0,0,0,35.2.11l4,4a4,4,0,1,0,5.68-5.67ZM59.76,4.19a1,1,0,1,1-1,1A1,1,0,0,1,59.76,4.19ZM32.5,2.1a30.27,30.27,0,0,1,20.73,8.19l-2.61,2.6a3.19,3.19,0,0,0-1.35-.31,3.12,3.12,0,0,0-1.82.59L41.81,9.22a3.27,3.27,0,0,0,.13-.83,3.15,3.15,0,1,0-3.15,3.14,3.09,3.09,0,0,0,1.82-.59l5.64,4a3.34,3.34,0,0,0-.12.84,3.15,3.15,0,0,0,6.29,0,3.05,3.05,0,0,0-.32-1.35l2.61-2.61a30.36,30.36,0,0,1,0,41.47L47.89,46.4a16.62,16.62,0,0,0,2.38-7.61H60.81v-2.1H33.55v2.1H44a10.57,10.57,0,1,1-8.33-11.3V25.34a13.53,13.53,0,0,0-2.1-.18A12.58,12.58,0,1,0,46.08,38.79h2.09A14.67,14.67,0,1,1,33.55,23.06a14.86,14.86,0,0,1,2.1.17V21.11a18.51,18.51,0,0,0-2.1-.14V9.44a4.2,4.2,0,0,0-4.2-4.2H19.05A30.37,30.37,0,0,1,32.5,2.1ZM50.32,15.73a1,1,0,1,1-1-1.05A1,1,0,0,1,50.32,15.73ZM39.84,8.39a1,1,0,1,1-1.05-1.05A1.06,1.06,0,0,1,39.84,8.39ZM2.1,9.44a2.1,2.1,0,0,1,2.09-2.1H29.35a2.1,2.1,0,0,1,2.1,2.1v4.19H2.1Zm0,6.29H31.45v5.38A16.73,16.73,0,0,0,17.62,43H4.19v2.1h14.3a16.8,16.8,0,0,0,2.91,4.19H2.1ZM4.19,57.66a2.1,2.1,0,0,1-2.09-2.1V51.37H23.81a16.52,16.52,0,0,0,7.64,3v1.19a2.1,2.1,0,0,1-2.1,2.1ZM32.5,62.9a30.36,30.36,0,0,1-13.44-3.14H29.35a4.2,4.2,0,0,0,4.2-4.2v-1a16.6,16.6,0,0,0,8.66-2.44l6.27,6.27A30.29,30.29,0,0,1,32.5,62.9Zm24.29,0a1.9,1.9,0,0,1-1.35-.56L44,50.87a16.54,16.54,0,0,0,2.71-2.71L58.15,59.63a1.92,1.92,0,0,1-1.36,3.27Z"/></svg>