<svg id="Layer_1" data-name="Layer 1" xmlns="http://www.w3.org/2000/svg" viewBox="0 0 65 65"><defs><style>.cls-1{fill:#f96969;}.cls-2{fill:#333;}</style></defs><title>icons</title><path class="cls-1" d="M4.19,31.45H23.06V41.94H4.19Z"/><path class="cls-1" d="M40.89,45.08h4.19V59.76H40.89Z"/><path class="cls-1" d="M32.5,47.18h4.19V59.76H32.5Z"/><path class="cls-1" d="M24.11,51.37h4.2v8.39h-4.2Z"/><path class="cls-1" d="M15.73,53.47h4.19v6.29H15.73Z"/><path class="cls-1" d="M7.34,55.56h4.19v4.2H7.34Z"/><path class="cls-2" d="M65,9.44H59.41l-.28.21a14.8,14.8,0,0,1-8.81,2.93V0H10.05L0,10.05V65H50.32V21a14.73,14.73,0,0,1,2.1.16v35.8l5.24,7.86,5.24-7.86V24.11H65ZM48.23,17.82V15.73a1,1,0,0,1,1-1.05h1v4.19h-1A1,1,0,0,1,48.23,17.82ZM52.42,19V14.53a16.91,16.91,0,0,0,6.29-2.11v8.71A16.91,16.91,0,0,0,52.42,19ZM9.44,3.58V9.44H3.58ZM2.1,62.9V11.53h9.43V2.1h36.7V12.77a3.15,3.15,0,0,0-2.1,3v2.09a3.13,3.13,0,0,0,2.1,2.95V62.9Zm56.61-7.34V51.37h-2.1v4.19H54.52V32.5h2.09V49.27h2.1V32.5h2.1V55.56ZM54.52,30.4V28.31h6.29V30.4Zm.91,27.26H59.9L57.66,61Zm5.38-31.45H54.52V21.6a14.66,14.66,0,0,1,4.61,2.3l.28.21h1.4ZM62.9,22H60.81V11.53H62.9Z"/><path class="cls-2" d="M36.86,36.66l3.9-1A72.92,72.92,0,0,1,8.66,49.57L4,50.34l.35,2.07L9,51.63A74.91,74.91,0,0,0,43.71,36.06L43,41.81l2.08.26,1.24-9.9-10,2.46Z"/><path class="cls-2" d="M30.4,31.45A13.63,13.63,0,1,0,16.77,17.82,13.64,13.64,0,0,0,30.4,31.45Zm0-2.1a11.4,11.4,0,0,1-6.83-2.26l7.3-8.22h11A11.54,11.54,0,0,1,30.4,29.35ZM41.88,16.77H31.14L27.47,6.68a11.83,11.83,0,0,1,2.93-.39A11.54,11.54,0,0,1,41.88,16.77ZM25.5,7.4l3.7,10.19L22,25.7A11.5,11.5,0,0,1,25.5,7.4Z"/><path class="cls-2" d="M4.19,31.45h2.1v2.1H4.19Z"/><path class="cls-2" d="M8.39,31.45H23.06v2.1H8.39Z"/><path class="cls-2" d="M4.19,35.65h2.1v2.09H4.19Z"/><path class="cls-2" d="M8.39,35.65H23.06v2.09H8.39Z"/><path class="cls-2" d="M4.19,39.84h2.1v2.1H4.19Z"/><path class="cls-2" d="M8.39,39.84H23.06v2.1H8.39Z"/></svg>