<svg id="Layer_1" data-name="Layer 1" xmlns="http://www.w3.org/2000/svg" viewBox="0 0 65 65"><defs><style>.cls-1{fill:#f96969;}.cls-2{fill:#333;}</style></defs><title>icons</title><path class="cls-1" d="M22.9,47.82,8,62.71a3.5,3.5,0,0,1-4.94,0h0a3.49,3.49,0,0,1,0-4.93L18,42.89Z"/><path class="cls-1" d="M36.44,30.69v1a3.94,3.94,0,0,1-3.94,3.95h0a3.94,3.94,0,0,1-3.94-3.95v-1a3.94,3.94,0,0,1,3.94-4h0A3.94,3.94,0,0,1,36.44,30.69Z"/><path class="cls-1" d="M32.5,35.62h0A9.1,9.1,0,0,0,24,41.39a12.44,12.44,0,0,0,16.94,0A9.1,9.1,0,0,0,32.5,35.62Z"/><path class="cls-2" d="M58.52,34.08a5.32,5.32,0,0,0,.91-3v-1a5.36,5.36,0,0,0-5.35-5.35,5.27,5.27,0,0,0-3.76,1.57,18.8,18.8,0,0,0-35.64,0,5.27,5.27,0,0,0-3.76-1.57,5.36,5.36,0,0,0-5.35,5.35v1a5.32,5.32,0,0,0,.91,3,8.18,8.18,0,0,0-6.48,8v2.55A1.27,1.27,0,0,0,1.27,45.9h6.6a1.27,1.27,0,0,0,0-2.54H2.54V42.08a5.63,5.63,0,0,1,5.63-5.63h6a18.5,18.5,0,0,0,2.49,5.94L2.19,56.88a4.76,4.76,0,0,0,6.72,6.73l8-8a1.27,1.27,0,1,0-1.8-1.79l-8,8A2.22,2.22,0,0,1,4,58.67L18.2,44.45a18.78,18.78,0,0,0,32.62-8h6a5.63,5.63,0,0,1,5.63,5.63v1.28H50.53a1.27,1.27,0,0,0,0,2.54h13.2A1.27,1.27,0,0,0,65,44.63V42.08A8.18,8.18,0,0,0,58.52,34.08Zm-7.24-4a2.81,2.81,0,1,1,5.61,0v1a2.81,2.81,0,0,1-5.61,0Zm-43.17,0a2.81,2.81,0,1,1,5.61,0v1a2.81,2.81,0,0,1-5.61,0ZM32.5,48.53A16.25,16.25,0,1,1,48.75,32.28,16.27,16.27,0,0,1,32.5,48.53Z"/><path class="cls-2" d="M32.5,18.57a13.7,13.7,0,0,0-9.4,23.68l.14.14a13.71,13.71,0,0,0,18.52,0l.14-.14a13.7,13.7,0,0,0-9.4-23.68ZM25.58,41.05a7.84,7.84,0,0,1,13.84,0,11.18,11.18,0,0,1-13.84,0Zm4.24-9.38v-1a2.68,2.68,0,0,1,5.36,0v1a2.68,2.68,0,0,1-5.36,0Zm11.46,7.52a10.33,10.33,0,0,0-4.86-4.08,5.22,5.22,0,0,0,1.29-3.44v-1a5.21,5.21,0,1,0-10.42,0v1a5.22,5.22,0,0,0,1.29,3.44,10.33,10.33,0,0,0-4.86,4.08,11.17,11.17,0,1,1,17.56,0Z"/><path class="cls-2" d="M19.4,50.06a1.26,1.26,0,0,0-1.27,1.27,1.24,1.24,0,0,0,.37.89,1.27,1.27,0,0,0,.9.38,1.28,1.28,0,0,0,1.27-1.27,1.31,1.31,0,0,0-.37-.9A1.28,1.28,0,0,0,19.4,50.06Z"/><path class="cls-2" d="M32.53,6.86A1.27,1.27,0,0,0,33.8,5.59V1.27a1.27,1.27,0,1,0-2.54,0V5.59A1.27,1.27,0,0,0,32.53,6.86Z"/><path class="cls-2" d="M32.53,11a1.26,1.26,0,1,0-.9-.37A1.24,1.24,0,0,0,32.53,11Z"/><path class="cls-2" d="M40.16,9.38a1.32,1.32,0,0,0,.9-.37l2.23-2.23a1.29,1.29,0,0,0,0-1.8,1.27,1.27,0,0,0-1.8,0L39.26,7.21a1.27,1.27,0,0,0,.9,2.17Z"/><path class="cls-2" d="M24,9a1.27,1.27,0,0,0,.9.37,1.27,1.27,0,0,0,.9-2.16L23.51,5a1.27,1.27,0,1,0-1.8,1.8Z"/></svg>