<svg xmlns="http://www.w3.org/2000/svg" width="50" height="49.53" viewBox="0 0 50 49.53"><title>icons</title><path d="M34.54,16.46a9.61,9.61,0,0,1-1.63,7.19l-1.15-.58A3.47,3.47,0,0,1,29.84,20v0a3.47,3.47,0,0,1,3.47-3.47Z" fill="#f96969"/><path d="M27.31,24.65,29,26.9A9.67,9.67,0,0,1,15.46,16.46h2.08a2.35,2.35,0,0,1,2.26,1.76l.05.23a2.34,2.34,0,0,0,1.52,1.64,2.34,2.34,0,0,1,1.52,1.64l.05.23a2.34,2.34,0,0,0,2.26,1.76h.25A2.33,2.33,0,0,1,27.31,24.65Z" fill="#f96969"/><path d="M25,8.4a9.7,9.7,0,0,1,8.31,4.7l-.25.14H31.31a2.75,2.75,0,0,0-1.76.63,2.71,2.71,0,0,0-1,1.59,2.27,2.27,0,0,1-.78,1.3A2.24,2.24,0,0,1,24.38,16l-.28-.54A2.57,2.57,0,0,0,21.77,14a2.59,2.59,0,0,1-2.33-1.44l-.88-1.76A9.7,9.7,0,0,1,25,8.4Z" fill="#f96969"/><path d="M47.08,43.24l-2.73-.77v-.41a5.64,5.64,0,0,0,2.42-4.63V35.82a5.65,5.65,0,1,0-11.29,0v1.61a5.65,5.65,0,0,0,2.42,4.63v.41l-2.72.78a4,4,0,0,0-2.12,1.46A4,4,0,0,0,31,43.24l-2.72-.77v-.41a5.66,5.66,0,0,0,2.42-4.63V35.82a5.65,5.65,0,0,0-11.3,0v1.61a5.65,5.65,0,0,0,2.42,4.63v.41l-2.72.78a4,4,0,0,0-2.11,1.46,4.1,4.1,0,0,0-2.12-1.47l-2.72-.77v-.41a5.66,5.66,0,0,0,2.42-4.63V35.82a5.65,5.65,0,1,0-11.29,0v1.61a5.63,5.63,0,0,0,2.42,4.63v.41l-2.73.78A4,4,0,0,0,0,47.12v2.41H50V47.12A4.06,4.06,0,0,0,47.08,43.24Zm-7.56-.4a5.52,5.52,0,0,0,3.22,0v.24a1.61,1.61,0,0,1-3.22,0ZM37.1,37.43V35.82a4,4,0,1,1,8.06,0v1.61a4,4,0,1,1-8.06,0ZM23.39,42.84a5.52,5.52,0,0,0,3.22,0v.24a1.61,1.61,0,0,1-3.22,0ZM21,37.43V35.82a4,4,0,0,1,8.06,0v1.61a4,4,0,0,1-8.06,0ZM7.26,42.84a5.52,5.52,0,0,0,3.22,0v.24a1.61,1.61,0,0,1-3.22,0ZM4.84,37.43V35.82a4,4,0,0,1,8.06,0v1.61a4,4,0,0,1-8.06,0ZM16.13,47.91H1.61v-.79A2.42,2.42,0,0,1,3.37,44.8l2.46-.71a3.2,3.2,0,0,0,6.09,0l2.45.71a2.42,2.42,0,0,1,1.76,2.32Zm16.13,0H17.74v-.79A2.42,2.42,0,0,1,19.5,44.8L22,44.09a3.21,3.21,0,0,0,6.1,0l2.45.71a2.42,2.42,0,0,1,1.76,2.32Zm16.13,0H33.87v-.79a2.42,2.42,0,0,1,1.76-2.32l2.45-.71a3.2,3.2,0,0,0,6.09,0l2.46.71a2.42,2.42,0,0,1,1.76,2.32Z" fill="#333"/><path d="M25,28.56A10.49,10.49,0,1,0,14.52,18.08,10.49,10.49,0,0,0,25,28.56ZM25,9.2a8.88,8.88,0,1,1-8.87,8.88A8.88,8.88,0,0,1,25,9.2Z" fill="#333"/><path d="M24.19,3.09V6h1.62V3.09l1,1L28,3,25,0,22,3l1.14,1.14Z" fill="#333"/><path d="M9.44,19.93l-1-1.05h4.5V17.27H8.4l1-1L8.3,15.09l-3,3,3,3Z" fill="#333"/><path d="M37.1,17.27v1.61h4.5l-1,1.05,1.14,1.14,3-3-3-3-1.14,1.14,1,1Z" fill="#333"/><path d="M34.44,9.78l1.85-1.85V9.2H37.9v-4h-4V6.79h1.28L33.3,8.63Z" fill="#333"/><path d="M13.71,7.93l1.85,1.85L16.7,8.63,14.85,6.79h1.28V5.17h-4v4h1.61Z" fill="#333"/></svg>