<svg xmlns="http://www.w3.org/2000/svg" width="50" height="50" viewBox="0 0 50 50"><title>icons</title><path d="M28.71,17.76c0,1.24,2.6-3.92,2.2-2.82a10.68,10.68,0,0,1-18.68,2.39C11.05,15.65,14,18.82,14,16.62c0-2,4.69-3.11,4.41-4.94S15.91,6.9,17.41,6,20,5.35,21.65,4.35c.92-.54,1.88.69,3.17,3.27,1,2.06-2.33,3.18-1,4.94S28.71,15.38,28.71,17.76Z" fill="#f96969"/><rect x="12.47" y="34.71" width="15.53" height="14.47" fill="#f96969"/><path d="M47.58,35.48H43.15a.4.4,0,0,1-.33-.64,11.75,11.75,0,0,0,2.34-7v-.4a4,4,0,0,0-4-4A1.61,1.61,0,0,0,39.52,25v1.39a7.55,7.55,0,0,1-3.79,6.53l-4.49,2.56H29V33.87H14.5A8,8,0,0,0,16.13,29a8.09,8.09,0,1,0-4.84,7.39V50H29V48.39H31.3l4,1.61H47.58A2.43,2.43,0,0,0,50,47.58,2.38,2.38,0,0,0,49.37,46a2.39,2.39,0,0,0,0-3.23,2.37,2.37,0,0,0,0-3.22,2.41,2.41,0,0,0-1.79-4ZM1.61,29a6.46,6.46,0,1,1,11.48,4,6.5,6.5,0,0,0-2.36-1.84,4,4,0,1,0-5.33,0A6.5,6.5,0,0,0,3,33.07,6.43,6.43,0,0,1,1.61,29Zm4-.8a2.42,2.42,0,1,1,2.41,2.42A2.41,2.41,0,0,1,5.65,28.23Zm-1.45,6a4.84,4.84,0,0,1,7.73,0,6.44,6.44,0,0,1-7.73,0Zm8.7,1.29H24.19V48.39H12.9ZM27.42,48.39H25.81V35.48h1.61Zm20.16,0H35.64l-4-1.62H29V37.1h2.64l4.86-2.78a9.16,9.16,0,0,0,4.6-7.93V25a2.43,2.43,0,0,1,2.42,2.42v.4a10.14,10.14,0,0,1-2,6,2,2,0,0,0-.4,1.21,2,2,0,0,0,2,2h4.43a.81.81,0,1,1,0,1.61h-4v1.61h4a.81.81,0,1,1,0,1.62h-4v1.61h4a.81.81,0,1,1,0,1.61h-4v1.61h4a.81.81,0,0,1,0,1.62Z" fill="#333"/><path d="M41.94,21.77a8.06,8.06,0,1,0-8.07-8.06A8.07,8.07,0,0,0,41.94,21.77Zm-3.87-2.91a4.85,4.85,0,0,1,7.73,0,6.4,6.4,0,0,1-7.73,0Zm1.45-6a2.42,2.42,0,1,1,2.42,2.42A2.42,2.42,0,0,1,39.52,12.9Zm2.42-5.64a6.44,6.44,0,0,1,5,10.49,6.39,6.39,0,0,0-2.36-1.84,4,4,0,1,0-5.33,0,6.39,6.39,0,0,0-2.36,1.84,6.44,6.44,0,0,1,5-10.49Z" fill="#333"/><path d="M21,22.58A11.29,11.29,0,1,0,9.68,11.29,11.3,11.3,0,0,0,21,22.58ZM21,21A9.66,9.66,0,0,1,14,18a7.18,7.18,0,0,1,2-3.16l1.26,5.05L21,17.14l3.71,2.78,1.26-5.05a7.18,7.18,0,0,1,2,3.16A9.63,9.63,0,0,1,21,21ZM17.74,8.06A3.23,3.23,0,1,1,21,11.29,3.23,3.23,0,0,1,17.74,8.06ZM21,14.87l-1.51-1.81a7.16,7.16,0,0,1,3,0Zm3.14-1.25.43.22-.83,3.33L22.13,16Zm-6.28,0,2,2.37-1.57,1.18-.83-3.33ZM21,1.61a9.67,9.67,0,0,1,8.11,15A8.88,8.88,0,0,0,24,11.82a4.84,4.84,0,1,0-6.08,0,8.82,8.82,0,0,0-5.07,4.74A9.67,9.67,0,0,1,21,1.61Z" fill="#333"/><path d="M17.74,24.19h1.61v1.62H17.74Z" fill="#333"/><path d="M21,24.19h12.9v1.62H21Z" fill="#333"/><path d="M17.74,27.42H33.87V29H17.74Z" fill="#333"/><path d="M17.74,30.65H32.26v1.61H17.74Z" fill="#333"/><path d="M14.52,45.16h1.61v1.61H14.52Z" fill="#333"/><path d="M17.74,45.16h1.61v1.61H17.74Z" fill="#333"/><path d="M21,45.16h1.61v1.61H21Z" fill="#333"/></svg>