<svg xmlns="http://www.w3.org/2000/svg" width="50" height="50" viewBox="0 0 50 50"><title>icons</title><path d="M4.84,28.23H6.45V39.52H4.84Z" fill="#333"/><path d="M5.65,43.55a2.42,2.42,0,1,1,2.41-2.42A2.42,2.42,0,0,1,5.65,43.55Z" fill="#f96969"/><path d="M9.68,32.26h1.61V43.55H9.68Z" fill="#333"/><path d="M10.48,33.06a2.42,2.42,0,1,1,2.42-2.41A2.42,2.42,0,0,1,10.48,33.06Z" fill="#f96969"/><path d="M40.32,28.23h1.62V39.52H40.32Z" fill="#333"/><path d="M41.13,43.55a2.42,2.42,0,1,1,2.42-2.42A2.43,2.43,0,0,1,41.13,43.55Z" fill="#f96969"/><path d="M45.16,32.26h1.61V43.55H45.16Z" fill="#333"/><path d="M46,33.06a2.42,2.42,0,1,1,2.42-2.41A2.41,2.41,0,0,1,46,33.06Z" fill="#f96969"/><path d="M41.94,10.48a8.13,8.13,0,0,0-3.13.63l-5-2.73a8.86,8.86,0,0,0-17.7,0l-5,2.73a8.19,8.19,0,1,0,1.63.94l3.41-1.87a8.91,8.91,0,0,0,6.35,7.22V32.27a2.3,2.3,0,0,1-.25,1.06L21.66,30a5.22,5.22,0,0,0-5.1-4.18,2,2,0,0,0-2,2.05A2.08,2.08,0,0,0,14.86,29l.83,1.25a3.43,3.43,0,0,1,.57,1.54l.56,4.46a5.34,5.34,0,0,0,.68,2l2.66,5.48V46h1.61V43.36L18.92,37.5a4.16,4.16,0,0,1-.5-1.5l-.56-4.46A5,5,0,0,0,17,29.3l-.83-1.24a.42.42,0,0,1-.07-.24.43.43,0,0,1,.43-.43,3.61,3.61,0,0,1,3.52,2.88l1,5.18h2l.69-1.38a4,4,0,0,0,.42-1.8V16.94a.81.81,0,0,1,1.62,0v12.9h1.61V26.61a.81.81,0,0,1,1.61,0v3.23h1.62V26.61a.81.81,0,0,1,1.61,0v3.23h1.61V28.23a.81.81,0,1,1,1.61,0V38.71a4,4,0,0,1-.8,2.42l-1.62,2.15V46h1.62V43.82L36,42.1a5.68,5.68,0,0,0,1.13-3.39V28.23A2.43,2.43,0,0,0,33.78,26a2.4,2.4,0,0,0-3.94-1.16,2.43,2.43,0,0,0-1.61-.63,2.38,2.38,0,0,0-.81.15V17.4a8.92,8.92,0,0,0,6.35-7.22l3.41,1.87a8,8,0,1,0,4.76-1.57ZM4.2,23.7a4.84,4.84,0,0,1,7.73,0,6.4,6.4,0,0,1-7.73,0Zm1.45-6a2.42,2.42,0,1,1,2.41,2.42A2.42,2.42,0,0,1,5.65,17.74Zm8.87.81a6.39,6.39,0,0,1-1.43,4,6.47,6.47,0,0,0-2.36-1.83,4,4,0,1,0-5.33,0A6.47,6.47,0,0,0,3,22.58a6.39,6.39,0,0,1-1.43-4,6.46,6.46,0,0,1,12.91,0Zm10.48-4a2.4,2.4,0,0,0-2.13,1.29,7.42,7.42,0,0,1-2.42-1.29,4.82,4.82,0,0,1,9.1,0,7.32,7.32,0,0,1-2.42,1.29A2.4,2.4,0,0,0,25,14.52ZM22.58,7.26A2.42,2.42,0,1,1,25,9.68,2.42,2.42,0,0,1,22.58,7.26Zm8.19,6a6.41,6.41,0,0,0-3.1-3,4,4,0,0,0,1.36-3,4,4,0,0,0-8.06,0,4,4,0,0,0,1.36,3,6.41,6.41,0,0,0-3.1,3,7.19,7.19,0,0,1-1.49-4.38,7.26,7.26,0,1,1,14.52,0A7.19,7.19,0,0,1,30.77,13.25Zm7.3,10.45a4.84,4.84,0,0,1,7.73,0,6.4,6.4,0,0,1-7.73,0Zm1.45-6a2.42,2.42,0,1,1,2.42,2.42A2.42,2.42,0,0,1,39.52,17.74ZM47,22.58a6.47,6.47,0,0,0-2.36-1.83,4,4,0,1,0-5.33,0,6.47,6.47,0,0,0-2.36,1.83,6.39,6.39,0,0,1-1.43-4,6.46,6.46,0,0,1,12.91,0A6.39,6.39,0,0,1,47,22.58Z" fill="#333"/><path d="M36.29,50H18.55V45.16H36.29Z" fill="#f96969"/></svg>