<svg xmlns="http://www.w3.org/2000/svg" width="50" height="50.76" viewBox="0 0 50 50.76"><title>icons</title><path d="M43.24,39.82l-5.5-15.65L32,26.35A4.17,4.17,0,1,1,24.81,29L19,31.22l2.46,6.59a4,4,0,0,0-1.68.26,4.18,4.18,0,0,0,2.93,7.82A4,4,0,0,0,24.17,45l1.88,5,13.19-4.94c.72-.27-3.9-5.2-3.3-5.76s1.23-.82,1.59-1.59,3.53,3.09,5.12,4C43.64,42.27,43.39,40.25,43.24,39.82Z" fill="#f96969"/><path d="M19.17,26.6a5,5,0,0,0-2,9.58l.66-1.53a3.34,3.34,0,0,1,1.34-6.39,3.22,3.22,0,0,1,1.33.29.84.84,0,0,0,1.1-.44.88.88,0,0,0,.07-.33V21.67H25.9a5.69,5.69,0,0,0-.07.83,5,5,0,0,0,4,4.9l.34-1.63a3.33,3.33,0,0,1-2.39-4.6.83.83,0,0,0-.43-1.1A.75.75,0,0,0,27,20H21.67V15.76a4.57,4.57,0,0,0,.83.07,5,5,0,0,0,0-10h0a5.69,5.69,0,0,0-.83.07V1.67H35.83A4.17,4.17,0,0,1,40,5.83V20H34.65a.82.82,0,0,0-.83.83,1,1,0,0,0,.06.34,3.22,3.22,0,0,1,.29,1.33h1.66a4.57,4.57,0,0,0-.07-.83h5.07a.85.85,0,0,0,.84-.84v-15A5.84,5.84,0,0,0,35.83,0h-30A5.83,5.83,0,0,0,0,5.83V35.76A5.84,5.84,0,0,0,5.83,41.6H15V39.93H5.83a4.17,4.17,0,0,1-4.16-4.17V21.67H7a.91.91,0,0,0,.83-1,.89.89,0,0,0-.07-.28,3.33,3.33,0,1,1,6.1-2.68,3.29,3.29,0,0,1,0,2.68.88.88,0,0,0,.77,1.24H20v5A4.65,4.65,0,0,0,19.17,26.6ZM5.83,1.67H20V7a.83.83,0,0,0,.83.83.8.8,0,0,0,.34-.07A3.37,3.37,0,0,1,22.5,7.5a3.34,3.34,0,0,1,0,6.67,3.22,3.22,0,0,1-1.33-.29.83.83,0,0,0-1.1.44.72.72,0,0,0-.07.33v5.28H15.77a4.87,4.87,0,0,0,.06-.76V19.1a5,5,0,0,0-10,0v.07a4.88,4.88,0,0,0,.07.76H1.67V5.83A4.16,4.16,0,0,1,5.83,1.67Z" fill="#333"/><path d="M48.22,35.82l-7-4.83L38.52,23.8a.83.83,0,0,0-1.07-.49l-.05,0L32,25.73a.84.84,0,0,0-.45,1.06c.09.23.18.41.27.59s.17.36.27.63a3.33,3.33,0,1,1-6.24,2.35,3.26,3.26,0,0,1-.2-1.35.84.84,0,0,0-.79-.88,1,1,0,0,0-.34.06l-5.79,2.18a.83.83,0,0,0-.49,1.07L20.31,37a4.92,4.92,0,0,0-.81.23,5,5,0,1,0,4.27,9l1.49,4a.85.85,0,0,0,1.08.49h0l8.25-3.11A4.5,4.5,0,0,0,37.23,50l.53-1.58A2.78,2.78,0,0,1,36.17,47l2.51-.95a5.8,5.8,0,0,0,5.49,3.87V48.26A4.18,4.18,0,0,1,40,44.1a.85.85,0,0,0-.24-.59l-2.91-2.9A1.25,1.25,0,0,1,36.74,39a1.22,1.22,0,0,1,1.85-.13l5.82,5.82,1.18-1.18-1.72-1.72a5.8,5.8,0,0,0-.08-3.9l-1.56-4.17,5,3.47a2.49,2.49,0,0,1,1.06,2.05V50H50V39.24A4.18,4.18,0,0,0,48.22,35.82Zm-5.74,4.57-2.71-2.7a2.9,2.9,0,0,0-4.15,4l.06.05,2.63,2.64L26.53,48.86,25,44.61a.85.85,0,0,0-.6-.52l-.18,0a.87.87,0,0,0-.59.24A3.34,3.34,0,0,1,19,39.46a3.28,3.28,0,0,1,1.09-.68,3.68,3.68,0,0,1,1.35-.21.84.84,0,0,0,.88-.79.92.92,0,0,0-.06-.33l-2.17-5.81,4-1.5a5,5,0,0,0,5.85,4,4.42,4.42,0,0,0,.81-.23,5,5,0,0,0,2.92-6.45,4.64,4.64,0,0,0-.21-.52l3.84-1.69,5,13.25A4.2,4.2,0,0,1,42.48,40.39Z" fill="#333"/></svg>