<svg xmlns="http://www.w3.org/2000/svg" width="50" height="50" viewBox="0 0 50 50"><title>icons</title><polygon points="29.17 26.67 33.24 30.75 33.25 30.75 33.33 30.73 33.33 21.67 29.17 16.67 20.83 16.67 16.67 21.67 16.67 30.73 16.75 30.75 16.76 30.75 20.83 26.67 29.17 26.67" fill="#f96969"/><path d="M29.17,8.33H20.83c0-.11,0-.23,0-.35.18-2.64,2.28-5.2,3.43-6.42.44-.46.73-.73.73-.73S29.17,4.57,29.17,8.33Z" fill="#f96969"/><rect x="20.83" y="8.33" width="8.33" height="18.33" fill="#f96969"/><path d="M46.67,8.33c-2.85,0-4.17,4.51-4.17,14.17V23a3.21,3.21,0,0,0-.45-.24,2.91,2.91,0,0,0-.82-.21h-.06l-.34,0c-2,0-3.23,1.95-4.37,3.84a11.69,11.69,0,0,1-2.29,3v-7.7a.82.82,0,0,0-.2-.54l-4-4.77v-8C30,4.24,25.74.38,25.56.21a.85.85,0,0,0-1.12,0C24.26.38,20,4.24,20,8.33v8l-4,4.77a.82.82,0,0,0-.2.54v7.7a11.69,11.69,0,0,1-2.29-3c-1.15-1.89-2.33-3.84-4.37-3.84l-.34,0H8.77A2.78,2.78,0,0,0,7.5,23V22.5c0-9.66-1.32-14.17-4.17-14.17C0,8.33,0,11.92,0,29.17c0,6,3.66,8.39,6.89,10.51,2.56,1.69,4.78,3.15,4.78,6.15v2.5A1.66,1.66,0,0,0,13.33,50H36.67a1.66,1.66,0,0,0,1.66-1.67v-2.5c0-3,2.22-4.46,4.78-6.15C46.34,37.56,50,35.15,50,29.17,50,11.92,50,8.33,46.67,8.33Zm-25,15h6.66v2.5H21.67v-2.5Zm6.66-1.66H21.67V9.17h6.66ZM21.18,27.5h7.64l2.57,2.58C28,30.54,26,33.14,25,36c-1-2.88-3-5.48-6.39-5.94ZM32.5,22v6.86L30,26.32V19ZM25,2c1,1,2.85,3.22,3.25,5.5h-6.5C22.15,5.22,24,3,25,2ZM20,19v7.35l-2.5,2.51V22ZM7.81,38.29c-3-2-6.14-4-6.14-9.12C1.67,15.61,1.67,10,3.33,10c.42,0,2.5.6,2.5,12.5A30.59,30.59,0,0,0,6,25.67a10.2,10.2,0,0,0-.16,1.83c0,3.61,5.5,8.43,6.13,9a.84.84,0,0,0,1.17-.1A.83.83,0,0,0,13,35.2C11.5,33.88,7.5,29.92,7.5,27.5a7.49,7.49,0,0,1,.18-1.77,3.1,3.1,0,0,1,.1-.36,1.31,1.31,0,0,1,.08-.21L8,25a3.28,3.28,0,0,1,.2-.31h0a1.26,1.26,0,0,1,1-.47c1.1,0,2,1.47,2.95,3,1.27,2.1,2.71,4.47,5.38,4.47,5.47,0,6.67,6.61,6.67,9.16v7.5H13.33v-2.5C13.33,41.93,10.52,40.08,7.81,38.29Zm34.38,0c-2.71,1.79-5.52,3.64-5.52,7.54v2.5H25.83v-7.5c0-2.55,1.2-9.16,6.67-9.16,2.67,0,4.11-2.37,5.38-4.47.95-1.56,1.85-3,2.95-3a1.26,1.26,0,0,1,1,.47h0a3.28,3.28,0,0,1,.2.31l.09.21a1.31,1.31,0,0,1,.08.21,3.1,3.1,0,0,1,.1.36,7.49,7.49,0,0,1,.18,1.77c0,2.42-4,6.38-5.54,7.7a.83.83,0,0,0-.09,1.17.84.84,0,0,0,1.17.1c.63-.54,6.13-5.36,6.13-9A10.2,10.2,0,0,0,44,25.67a30.59,30.59,0,0,0,.16-3.17c0-11.9,2.08-12.5,2.5-12.5,1.66,0,1.66,5.61,1.66,19.17C48.33,34.25,45.21,36.3,42.19,38.29Z" fill="#333"/><path d="M24.17,12.5h1.66a.84.84,0,0,0,.84-.83.85.85,0,0,0-.84-.84H24.17a.85.85,0,0,0-.84.84A.84.84,0,0,0,24.17,12.5Z" fill="#333"/><path d="M24.17,15.83h1.66a.83.83,0,1,0,0-1.66H24.17a.83.83,0,1,0,0,1.66Z" fill="#333"/></svg>