<svg xmlns="http://www.w3.org/2000/svg" width="50" height="42.27" viewBox="0 0 50 42.27"><title>icons</title><rect x="1" y="25.13" width="5.59" height="10.47" rx="1.44" fill="#f96969"/><rect x="43.3" y="6.71" width="5.76" height="10.88" rx="1.06" fill="#f96969"/><path d="M24.42,18.65,22.24,17l-2.82.65-.83,2.53L19,23.07l2.76,2.47,2.53,1.82H25l1.58-1,2.53-2s2.41-2.47,2.59-2.53a24.7,24.7,0,0,0,0-3.65L29.36,17l-2.65.12-.82,1.47Z" fill="#f96969"/><path d="M29.84,36.25H26.05a1,1,0,1,0,0,2h3.79a1.06,1.06,0,1,1,0,2.12H19.64a5.15,5.15,0,0,1-4-1.86l-2.44-2.93A7.07,7.07,0,0,0,8,33V27.21h3.6a6.8,6.8,0,0,1,4.73,1.91l5.26,5.08a1,1,0,0,1,0,1.34,1,1,0,0,1-1.35.06l-4.14-3.79a1,1,0,0,0-1.32,1.44L19,37a2.92,2.92,0,0,0,4.1-.17,2.92,2.92,0,0,0-.11-4.07l-5.27-5.08a8.69,8.69,0,0,0-6.08-2.46H7.8a2.42,2.42,0,0,0-2.23-1.48H1a1,1,0,0,0-1,1v7.14a1,1,0,1,0,2,0V25.73H5.57A.47.47,0,0,1,6,26.2V34a.47.47,0,0,1-.47.47h-1a1,1,0,1,0,0,1.95h1a2.42,2.42,0,0,0,2.25-1.51,5.12,5.12,0,0,1,3.92,1.85l2.44,2.93a7.08,7.08,0,0,0,5.46,2.56h10.2a3,3,0,1,0,0-6Z" fill="#333"/><path d="M49,9a1,1,0,0,0-1,1v6.54H44.43a.47.47,0,0,1-.47-.47V8.25a.47.47,0,0,1,.47-.47h.94a1,1,0,1,0,0-1.95h-.94a2.43,2.43,0,0,0-2.25,1.51,5.09,5.09,0,0,1-3.92-1.85L35.82,2.56A7.08,7.08,0,0,0,30.36,0H20.16a3,3,0,0,0,0,6h4.17a1,1,0,1,0,0-2H20.16a1.06,1.06,0,1,1,0-2.12h10.2a5.15,5.15,0,0,1,4,1.86l2.44,2.93A7.07,7.07,0,0,0,42,9.29v5.77h-3.6a6.8,6.8,0,0,1-4.73-1.91L28.42,8.07a1,1,0,0,1,1.31-1.4l4.14,3.79a1,1,0,0,0,1.38-.06A1,1,0,0,0,35.19,9L31.05,5.23a2.91,2.91,0,0,0-4,4.24l5.27,5.09A8.72,8.72,0,0,0,38.41,17H42.2a2.42,2.42,0,0,0,2.23,1.48H49a1,1,0,0,0,1-1V10A1,1,0,0,0,49,9Z" fill="#333"/><path d="M31.53,33.21a1,1,0,1,0-.9,1.38.91.91,0,0,0,.39-.08h0A1,1,0,0,0,31.53,33.21Z" fill="#333"/><path d="M34,31.57a1,1,0,0,0-1.36-.21,1,1,0,0,0-.21,1.37,1,1,0,0,0,.78.39,1,1,0,0,0,.58-.18h0A1,1,0,0,0,34,31.57Z" fill="#333"/><path d="M28.8,34.31a1,1,0,1,0-1,1.18l.19,0h0A1,1,0,0,0,28.8,34.31Z" fill="#333"/><path d="M36,29.44a1,1,0,0,0-1.37.07l0,0a1,1,0,0,0,.11,1.37,1,1,0,0,0,.63.24,1,1,0,0,0,.74-.33A1,1,0,0,0,36,29.44Zm-.54.83-.11-.1.12.1Z" fill="#333"/><path d="M38.48,24.15A1,1,0,0,0,37.91,26a1.35,1.35,0,0,0,.28,0,1,1,0,0,0,.94-.69h0A1,1,0,0,0,38.48,24.15Z" fill="#333"/><path d="M39.73,19.11v0a1,1,0,0,0-1.91.4,1,1,0,0,0,1,.79l.17,0A1,1,0,0,0,39.73,19.11Z" fill="#333"/><path d="M38.83,21.23a1,1,0,0,0-1,.89v0a1,1,0,0,0,.92,1h.06a1,1,0,0,0,.08-2Z" fill="#333"/><path d="M37.52,26.93a1,1,0,0,0-1.33.37v0a1,1,0,0,0,.39,1.33,1,1,0,0,0,.47.12,1,1,0,0,0,.85-.51L37,27.78l.85.48A1,1,0,0,0,37.52,26.93Z" fill="#333"/><path d="M19.81,8.33A1,1,0,0,0,18.5,7.9h0a1,1,0,0,0-.44,1.31,1,1,0,0,0,1.32.43A1,1,0,0,0,19.81,8.33Z" fill="#333"/><path d="M22.64,7.52a1,1,0,0,0-1.18-.72h0a1,1,0,0,0,.24,1.92,1,1,0,0,0,1-1.21Z" fill="#333"/><path d="M17.23,9.74a1,1,0,0,0-1.37-.15l.6.77-.6-.77a1,1,0,0,0,.61,1.75.93.93,0,0,0,.6-.22h0A1,1,0,0,0,17.23,9.74Z" fill="#333"/><path d="M12,16.69a1,1,0,0,0-1.2.68v0a1,1,0,0,0,.72,1.18.85.85,0,0,0,.23,0A1,1,0,0,0,12,16.69Z" fill="#333"/><path d="M11.4,19.56a1,1,0,0,0-1,.92v0a1,1,0,0,0,1,1h0a1,1,0,0,0,1-.94A1,1,0,0,0,11.4,19.56Z" fill="#333"/><path d="M13.25,14a1,1,0,0,0-1.31.41l0,0a1,1,0,0,0,.45,1.31.91.91,0,0,0,.43.1A1,1,0,0,0,13.25,14Z" fill="#333"/><path d="M15,11.67a1,1,0,0,0-1.38.13l0,0a1,1,0,0,0,.16,1.37,1,1,0,0,0,.61.22A1,1,0,0,0,15,11.67Z" fill="#333"/><path d="M12.51,23.29a1,1,0,0,0-1.93.34h0a1,1,0,0,0,.95.8h.18A1,1,0,0,0,12.51,23.29Z" fill="#333"/><path d="M28.35,15.87a4.55,4.55,0,0,0-3.29,1.41,4.53,4.53,0,1,0-6.18,6.61v0l5.57,4.4a1,1,0,0,0,.6.21,1,1,0,0,0,.61-.21l5.8-4.62a.27.27,0,0,0,.08-.07,4.53,4.53,0,0,0-3.2-7.75Zm1.86,6.33-5.15,4.1-4.94-3.91a2.58,2.58,0,0,1,1.66-4.56,2.56,2.56,0,0,1,2.38,1.59,1,1,0,0,0,1.81,0,2.58,2.58,0,1,1,4.24,2.78Z" fill="#333"/></svg>