<svg xmlns="http://www.w3.org/2000/svg" width="50.07" height="48.06" viewBox="0 0 50.07 48.06"><title>icons</title><path d="M30.27,9.52A18.75,18.75,0,1,0,49,28.27,18.75,18.75,0,0,0,30.27,9.52Zm0,32.92A14.17,14.17,0,1,1,44.45,28.27,14.17,14.17,0,0,1,30.27,42.44Z" fill="#f96969"/><path d="M26.74,5.66h7a2.35,2.35,0,0,0,2.35-2.34h0A2.35,2.35,0,0,0,33.77,1h-7A2.34,2.34,0,0,0,24.4,3.32h0A2.34,2.34,0,0,0,26.74,5.66Z" fill="#f96969"/><circle cx="30.27" cy="28.27" r="2.06" fill="#f96969"/><path d="M30.27,13.12A15.15,15.15,0,1,0,45.42,28.27,15.17,15.17,0,0,0,30.27,13.12Zm0,28.35a13.2,13.2,0,1,1,13.2-13.2A13.21,13.21,0,0,1,30.27,41.47Z" fill="#333"/><path d="M26.92,4.69h6.85a1.37,1.37,0,0,0,0-2.74h-7a1.37,1.37,0,0,0,0,2.74Z" fill="none"/><path d="M32.62,8.63v-2H27.9v2a20.65,20.65,0,0,1,2.37-.15A20.17,20.17,0,0,1,32.62,8.63Z" fill="none"/><circle cx="30.27" cy="28.27" r="17.24" fill="none"/><path d="M34.58,9V6.54A3.32,3.32,0,0,0,33.77,0h-7a3.32,3.32,0,0,0-.8,6.54V9A19.85,19.85,0,0,0,14.62,16.2h-7a1,1,0,0,0,0,1.95h5.66a19.79,19.79,0,0,0-1.74,3.76H1a1,1,0,1,0,0,1.95H11a21,21,0,0,0-.48,3.75H6.25a1,1,0,1,0,0,2h4.3a19.44,19.44,0,0,0,.61,3.75H4.88a1,1,0,0,0,0,2h6.9A19.78,19.78,0,1,0,34.58,9Zm-9.2-5.64A1.37,1.37,0,0,1,26.74,2h7a1.37,1.37,0,0,1,0,2.74h-7A1.37,1.37,0,0,1,25.38,3.32ZM27.9,6.64h4.72v2a20.17,20.17,0,0,0-2.35-.15,20.65,20.65,0,0,0-2.37.15Zm2.37,38.87A17.24,17.24,0,1,1,47.51,28.27,17.26,17.26,0,0,1,30.27,45.51Z" fill="#333"/><path d="M36.45,20.71l-4.84,4.84a3,3,0,0,0-1.34-.32,3,3,0,0,0-1.34.32l-2.16-2.17a1,1,0,1,0-1.38,1.38l2.16,2.17a3,3,0,0,0-.31,1.34,3,3,0,0,0,6.07,0A3,3,0,0,0,33,26.93l4.69-4.7h0l.14-.14a1,1,0,1,0-1.38-1.38Zm-6.18,8.64a1.08,1.08,0,1,1,1.09-1.08A1.08,1.08,0,0,1,30.27,29.35Z" fill="#333"/><path d="M40.72,27.3h-.91a1,1,0,0,0,0,2h.91a1,1,0,0,0,0-2Z" fill="#333"/><path d="M20.74,27.28h-.91a1,1,0,0,0,0,1.95h.91a1,1,0,0,0,0-1.95Z" fill="#333"/><path d="M30.29,19.71a1,1,0,0,0,1-1v-.9a1,1,0,1,0-2,0v.9A1,1,0,0,0,30.29,19.71Z" fill="#333"/><path d="M30.26,36.83a1,1,0,0,0-1,1v.9a1,1,0,1,0,1.95,0v-.9A1,1,0,0,0,30.26,36.83Z" fill="#333"/></svg>