<svg xmlns="http://www.w3.org/2000/svg" width="50" height="40.13" viewBox="0 0 50 40.13"><title>icons</title><path d="M38,1,49,12,44.09,17,33,5.63Z" fill="#f96969"/><path d="M18.62,7.38,6.11,19.89,1,14.76,13.49,2.25Z" fill="#f96969"/><path d="M39.88,7.61a1,1,0,1,0-1.38,0A1,1,0,0,0,39.88,7.61Z" fill="#333"/><path d="M12.74,9.63a1,1,0,1,0-1.38,0A1,1,0,0,0,12.74,9.63Z" fill="#333"/><path d="M7,15.26l2.92-2.93A1,1,0,0,0,8.54,11L5.61,13.87A1,1,0,0,0,7,15.26Z" fill="#333"/><path d="M43.1,12.42a1,1,0,0,0,1.38,0,1,1,0,0,0,0-1.38L42.54,9.09a1,1,0,0,0-1.39,0,1,1,0,0,0,0,1.38Z" fill="#333"/><path d="M49.71,11.34l-11-11a1,1,0,0,0-1.36,0l-5,4.66h0A4.13,4.13,0,0,1,29.3,6.32a7.76,7.76,0,0,0-5.67,2.09,7.23,7.23,0,0,0-4.57-2L14.18,1.56a1,1,0,0,0-1.38,0L.29,14.07a1,1,0,0,0,0,1.36l0,0,8.15,8.14-.34.35a3.42,3.42,0,0,0,2.45,5.83A3.41,3.41,0,0,0,14,33.22a3.4,3.4,0,0,0,3.45,3.45,3.42,3.42,0,0,0,5.84,2.46l.34-.35.35.35a3.42,3.42,0,0,0,5.83-2.46,3.37,3.37,0,0,0,2.45-1,3.41,3.41,0,0,0,1-2.46,3.42,3.42,0,0,0,3.46-3.45,3.42,3.42,0,0,0,2.45-5.83l-.34-.35c6.8-6.8-1.81,1.82,10.88-10.87A1,1,0,0,0,49.71,11.34ZM2.36,14.76,13.49,3.63l3.75,3.75L6.11,18.51ZM9.48,27.39a1.45,1.45,0,0,1,0-2.07l3.45-3.46A1.47,1.47,0,1,1,15,23.94l-3.45,3.45A1.47,1.47,0,0,1,9.48,27.39Zm3.45,3.45a1.47,1.47,0,0,1,0-2.07l3.45-3.45a1.46,1.46,0,0,1,2.07,2.07h0L15,30.84A1.47,1.47,0,0,1,12.93,30.84Zm3.45,3.45a1.47,1.47,0,0,1,0-2.07l3.45-3.45a1.47,1.47,0,0,1,2.08,2.07h0l-3.46,3.45A1.47,1.47,0,0,1,16.38,34.29Zm3.45,3.46a1.47,1.47,0,0,1,0-2.07l3.46-3.46a1.46,1.46,0,1,1,2.07,2.07l-3.45,3.46A1.48,1.48,0,0,1,19.83,37.75Zm7.6,0a1.47,1.47,0,0,1-2.07,0L25,37.4l1.73-1.72a3.79,3.79,0,0,0,.32-.38l.37.37h0A1.47,1.47,0,0,1,27.43,37.75ZM37.79,27.39a1.47,1.47,0,0,1-2.07,0L31.23,22.9a1,1,0,1,0-1.38,1.38l4.49,4.49a1.47,1.47,0,0,1-2.08,2.07l-4.48-4.49a1,1,0,0,0-1.38,0,1,1,0,0,0,0,1.38l4.48,4.49a1.47,1.47,0,0,1,0,2.07,1.42,1.42,0,0,1-1,.43c-.93,0-1.23-.73-2.11-1.5a3.41,3.41,0,0,0-3.45-3.38,3.41,3.41,0,0,0-3.45-3.45,3.42,3.42,0,0,0-3.46-3.45,3.42,3.42,0,0,0-5.83-2.46L9.82,22.21,7.49,19.89,19,8.4a5.3,5.3,0,0,1,3.26,1.38l-2.76,2.76A3.91,3.91,0,0,0,25,18.07l2.77-2.77,10,10A1.47,1.47,0,0,1,37.79,27.39Zm-.35-5.18-8.28-8.29.69-.69a1,1,0,1,0-1.38-1.38l-4.84,4.84a2,2,0,0,1-2.76-2.77l4-4A5.8,5.8,0,0,1,29.3,8.27,5.73,5.73,0,0,0,33,7l9.72,10C36.36,23.3,37.61,22,37.44,22.21Zm6.65-6.64L34.43,5.66,38,2.34,47.64,12Z" fill="#333"/></svg>