<svg xmlns="http://www.w3.org/2000/svg" width="50" height="50" viewBox="0 0 50 50"><title>icons</title><rect x="6.67" y="40.83" width="1.67" height="8.33" fill="#3685ba"/><rect x="3.33" y="34.17" width="1.67" height="5" fill="#3685ba"/><rect x="10" y="34.17" width="1.67" height="5" fill="#3685ba"/><path d="M25,16.67h0A3.33,3.33,0,0,1,28.33,20v1.67A3.33,3.33,0,0,1,25,25h0a3.33,3.33,0,0,1-3.33-3.33V20A3.33,3.33,0,0,1,25,16.67Z" fill="#f96969"/><path d="M31.67,31.67V27.5a2.5,2.5,0,0,0-2.5-2.5H20.83a2.5,2.5,0,0,0-2.5,2.5v4.17h3.34v9.16l-.84,1.67h8.34l-.84-1.67V31.67Z" fill="#f96969"/><rect x="24.17" y="34.17" width="1.67" height="8.33" fill="#3685ba"/><rect x="18.33" y="31.67" width="3.33" height="3.33" fill="#f96969"/><rect x="28.33" y="31.67" width="3.33" height="3.33" fill="#f96969"/><rect x="20.83" y="27.5" width="1.67" height="5" fill="#3685ba"/><rect x="27.5" y="27.5" width="1.67" height="5" fill="#3685ba"/><rect x="41.67" y="40.83" width="1.67" height="8.33" fill="#3685ba"/><rect x="38.33" y="34.17" width="1.67" height="5" fill="#3685ba"/><rect x="45" y="34.17" width="1.67" height="5" fill="#3685ba"/><path d="M.83,42.5h2.5v4.8l-.74,1.49A.83.83,0,0,0,3,49.91a.81.81,0,0,0,.37.09h8.34a.83.83,0,0,0,.83-.83.85.85,0,0,0-.09-.38l-.74-1.49V42.5h2.5a.83.83,0,0,0,.83-.83v-7.5a3.34,3.34,0,0,0-3.33-3.34h-.86a4.15,4.15,0,0,0,.86-2.5V26.67a4.17,4.17,0,0,0-8.34,0v1.66a4.15,4.15,0,0,0,.86,2.5H3.33A3.34,3.34,0,0,0,0,34.17v7.5A.83.83,0,0,0,.83,42.5Zm12.5-1.67H11.67V39.17h1.66ZM5,26.67a2.5,2.5,0,0,1,5,0v1.66a2.5,2.5,0,0,1-5,0Zm-3.33,7.5A1.66,1.66,0,0,1,3.33,32.5h8.34a1.66,1.66,0,0,1,1.66,1.67V37.5H11.67V34.17H10V47.5a.78.78,0,0,0,.09.37l.23.46h-2v-7.5H6.67v7.5h-2l.23-.46A.78.78,0,0,0,5,47.5V34.17H3.33V37.5H1.67Zm0,5H3.33v1.66H1.67Z" fill="#333"/><path d="M49.17,42.5a.83.83,0,0,0,.83-.83v-7.5a3.34,3.34,0,0,0-3.33-3.34h-.86a4.15,4.15,0,0,0,.86-2.5V26.67a4.17,4.17,0,0,0-8.34,0v1.66a4.15,4.15,0,0,0,.86,2.5h-.86A3.34,3.34,0,0,0,35,34.17v7.5a.83.83,0,0,0,.83.83h2.5v4.8l-.75,1.49A.83.83,0,0,0,38,49.91a.78.78,0,0,0,.37.09h8.34a.83.83,0,0,0,.83-.83,1,1,0,0,0-.08-.38l-.75-1.49V42.5Zm-.84-1.67H46.67V39.17h1.66ZM40,26.67a2.5,2.5,0,0,1,5,0v1.66a2.5,2.5,0,0,1-5,0ZM38.33,40.83H36.67V39.17h1.66ZM45,34.17V47.5a.91.91,0,0,0,.08.37l.23.46h-2v-7.5H41.67v7.5h-2l.23-.46A.78.78,0,0,0,40,47.5V34.17H38.33V37.5H36.67V34.17a1.66,1.66,0,0,1,1.66-1.67h8.34a1.66,1.66,0,0,1,1.66,1.67V37.5H46.67V34.17Z" fill="#333"/><path d="M32.5,20A1.66,1.66,0,0,1,32,21.21a1.71,1.71,0,0,1-1.24.46,1.77,1.77,0,0,1-1.57-1.81V14.17a4.17,4.17,0,0,0-8.34,0V20a1.63,1.63,0,0,1-.52,1.21,1.7,1.7,0,0,1-1.23.46,1.77,1.77,0,0,1-1.58-1.81V5.35L22.85,0H20.49L16.08,4.41l-5,5h0L5.19,15.24a3.49,3.49,0,0,0,2.27,6h.19a3.48,3.48,0,0,0,2.46-1l.72-.71V20a3.32,3.32,0,0,0,5.85,2.17,3.26,3.26,0,0,0,4.32.61,4.12,4.12,0,0,0,.69,1.39h-.86A3.33,3.33,0,0,0,17.5,27.5V35a.83.83,0,0,0,.83.83h2.5v4.81l-.74,1.49a.83.83,0,0,0,.37,1.12,1,1,0,0,0,.37.08h8.34A.82.82,0,0,0,30,42.5a.91.91,0,0,0-.08-.37l-.75-1.49V35.83h2.5A.83.83,0,0,0,32.5,35V27.5a3.33,3.33,0,0,0-3.33-3.33h-.86A4,4,0,0,0,29,22.76a3.27,3.27,0,0,0,1.65.57h.19a3.27,3.27,0,0,0,2.29-.91,3.4,3.4,0,0,0,1-2.42V0H32.5ZM10.83,17.15,8.94,19a1.83,1.83,0,0,1-2.57,0,1.07,1.07,0,0,1-.14-.16,1.81,1.81,0,0,1,.13-2.41L10.83,12v5.15Zm5,2.71V20a1.67,1.67,0,1,1-3.33,0V10.35L15.83,7V19.86Zm6.67-5.69a2.5,2.5,0,0,1,5,0v2.52a4.08,4.08,0,0,0-5,0V14.17Zm0,5.83a2.5,2.5,0,0,1,5,0v1.67a2.5,2.5,0,0,1-5,0ZM20.83,34.17H19.17V32.5h1.66Zm10,0H29.17V32.5h1.66Zm-1.66-8.34a1.66,1.66,0,0,1,1.66,1.67v3.33H29.17V27.5H27.5V40.83a1,1,0,0,0,.08.38l.23.46h-2v-7.5H24.17v7.5h-2l.23-.46a.85.85,0,0,0,.09-.38V27.5H20.83v3.33H19.17V27.5a1.66,1.66,0,0,1,1.66-1.67Z" fill="#333"/></svg>