<svg xmlns="http://www.w3.org/2000/svg" width="50" height="49.99" viewBox="0 0 50 49.99"><title>icons</title><path d="M21.24,42.19h8.12a0,0,0,0,1,0,0v4.35a1.88,1.88,0,0,1-1.88,1.88H23.12a1.88,1.88,0,0,1-1.88-1.88V42.19A0,0,0,0,1,21.24,42.19Z" fill="#f96969"/><ellipse cx="35.89" cy="14.63" rx="5.94" ry="6.38" fill="#f96969"/><path d="M14.53,30.07c0,2.17-1.81,3.12-4.11,3.12a4,4,0,1,1,0-7.89c1.11,0,1.54,2.22,2.29,2.89S14.53,28.94,14.53,30.07Z" fill="#f96969"/><path d="M49.29,13.12h0l-3.23-.46a.82.82,0,0,1-.38-1.48l2.61-2a.83.83,0,0,0,.16-1.16l-3-4a.83.83,0,0,0-1.17-.17l-2.6,2a.85.85,0,0,1-1.17-.16.87.87,0,0,1-.16-.63l.47-3.22a.83.83,0,0,0-.71-.94h0L35.21.21a.83.83,0,0,0-.94.71h0l-.46,3.23a.84.84,0,0,1-1.49.38L30.37,1.92a.84.84,0,0,0-1.17-.17L26.71,3.62a16,16,0,0,0-3.39,0A15.77,15.77,0,0,0,9.42,17.76c0,.23,0,.47,0,.7H9.13a.82.82,0,0,0-.81.66l-.58,2.73L5.45,20.27a.83.83,0,0,0-1.06.09L1.9,22.85a.85.85,0,0,0-.1,1.06L3.38,26.2l-2.73.57a.84.84,0,0,0-.65.82V30.9a.83.83,0,0,0,.66.82l2.73.57L1.81,34.58a.82.82,0,0,0,.1,1.06l2.48,2.49a.83.83,0,0,0,1.06.09l2.29-1.58.58,2.73a.82.82,0,0,0,.81.66h3.32a.83.83,0,0,0,.81-.65l.57-2.73,2.3,1.57a.82.82,0,0,0,1.05-.09l1.29-1.29V39.2a3.34,3.34,0,0,0,1.66,2.86v4.61A3.32,3.32,0,0,0,23.45,50h3.32a3.32,3.32,0,0,0,3.32-3.32V42.06a3.34,3.34,0,0,0,1.66-2.86V35.92a4.05,4.05,0,0,1,1.91-3.39,16.85,16.85,0,0,0,2-1.49L34.51,29.8a14.22,14.22,0,0,1-1.75,1.34,5.71,5.71,0,0,0-2.67,4.78V39.2a1.66,1.66,0,0,1-1.66,1.66H21.79a1.66,1.66,0,0,1-1.66-1.66V35.85a5.56,5.56,0,0,0-2.63-4.68,14.06,14.06,0,0,1,7.43-26l0,.09a.78.78,0,0,0,.16.61l2,2.61a.8.8,0,0,1,0,.92.82.82,0,0,1-.83.4L23,9.37a.82.82,0,0,0-.93.7h0L21.36,15a.84.84,0,0,0,.7.94h0l3.22.46a.83.83,0,0,1,.38,1.49l-2.6,1.95A.83.83,0,0,0,22.9,21l3,4a.82.82,0,0,0,1.16.17l2.61-1.95a.83.83,0,0,1,1.16.16A.86.86,0,0,1,31,24l-.47,3.22a.83.83,0,0,0,.71.94h0l4.93.71h.11a.83.83,0,0,0,.83-.71l.46-3.22a.82.82,0,0,1,.93-.71.84.84,0,0,1,.55.32l2,2.61a.83.83,0,0,0,1.16.17l4-3a.83.83,0,0,0,.17-1.16l-2-2.61a.83.83,0,0,1-.05-.92.82.82,0,0,1,.83-.4l3.23.46a.83.83,0,0,0,.94-.7h0l.7-4.93A.83.83,0,0,0,49.29,13.12Zm-27.5,29.4h6.64v1.66H21.79Zm0,3.32h6.64v.83a1.67,1.67,0,0,1-1.66,1.66H23.45a1.66,1.66,0,0,1-1.66-1.66Zm-6.6-14.31a14.12,14.12,0,0,0,1.41,1,4,4,0,0,1,1.67,2.13L16.5,36.46l-1.73-1.19a1.66,1.66,0,0,0-2.31.43,1.59,1.59,0,0,0-.25.6l-.44,2.07h-2L9.37,36.3A1.67,1.67,0,0,0,7.4,35a1.61,1.61,0,0,0-.6.26L5.08,36.46,3.56,35l1.19-1.72a1.64,1.64,0,0,0-1-2.56l-2.07-.44v-2l2.07-.44a1.66,1.66,0,0,0,1.28-2,1.61,1.61,0,0,0-.26-.6L3.56,23.53,5.08,22,6.8,23.21a1.66,1.66,0,0,0,2.31-.42,1.89,1.89,0,0,0,.26-.6l.14-.69a15.1,15.1,0,0,0,.66,2.81,5,5,0,1,0,5,7.22ZM13.9,30.36a3.31,3.31,0,1,1-3.11-4.43h0A15.6,15.6,0,0,0,13.9,30.36ZM47.76,17.93l-2.41-.34a2.49,2.49,0,0,0-2.34,4l1.46,1.94-2.66,2-1.46-1.94a2.48,2.48,0,0,0-3.48-.5,2.44,2.44,0,0,0-1,1.64l-.34,2.41-3.28-.47.34-2.41a2.49,2.49,0,0,0-4-2.34l-1.94,1.46-2-2.66,1.94-1.46a2.48,2.48,0,0,0-1.14-4.45l-2.41-.35.47-3.28,2.41.34a2.48,2.48,0,0,0,2.34-4L26.88,5.57l2.66-2L31,5.52a2.49,2.49,0,0,0,4.46-1.14L35.79,2l3.29.46-.35,2.41a2.49,2.49,0,0,0,4,2.34l2-1.45,2,2.65-2,1.46a2.48,2.48,0,0,0-.49,3.48,2.44,2.44,0,0,0,1.63,1l2.41.35Z" fill="#333"/><path d="M35.68,7.89a6.64,6.64,0,1,0,6.63,6.64A6.64,6.64,0,0,0,35.68,7.89Zm0,11.62a5,5,0,1,1,5-5A5,5,0,0,1,35.68,19.51Z" fill="#333"/><rect x="24.28" y="36.71" width="1.66" height="2.49" fill="#333"/><path d="M21.48,28.56a10,10,0,0,1-1.68-17.7l-.89-1.4a11.62,11.62,0,0,0,2,20.65,5.28,5.28,0,0,1,3.4,4.94h1.66A6.94,6.94,0,0,0,21.48,28.56Z" fill="#333"/><rect x="40.87" y="30.9" width="5.81" height="1.66" fill="#f96969"/><rect x="41.7" y="34.72" width="1.66" height="6.48" transform="translate(-13.85 46.34) rotate(-50.2)" fill="#f96969"/><rect x="35.89" y="37.54" width="1.66" height="5.81" fill="#f96969"/><rect x="0.95" y="13.48" width="6.84" height="1.66" transform="translate(-3.34 1.49) rotate(-14.03)" fill="#f96969"/><rect x="4.78" y="3.69" width="1.66" height="7.14" transform="translate(-3.56 7.61) rotate(-54.46)" fill="#f96969"/><rect x="10.16" y="0.1" width="1.66" height="6.85" transform="translate(-0.53 2.83) rotate(-14.34)" fill="#f96969"/></svg>