<svg xmlns="http://www.w3.org/2000/svg" width="50" height="69.18" viewBox="0 0 50 69.18"><title>icons</title><path d="M25.8,28.28H24.2L18.77,15.83H31.23Z" fill="#fff"/><path d="M41.24,60.88l-6.82-3.94a4,4,0,0,0,0-4.38l6.82-3.94L42.64,51l5.6-9.71H37l1.39,2.42-6.93,4v8.32H26.74L25,54.33h0l-1.74,1.74H18.5V47.75l-6.93-4L13,41.33H1.76L7.36,51l1.4-2.42,6.82,3.94a4,4,0,0,0,0,4.38L8.76,60.88l-1.4-2.42-5.6,9.71H13l-1.39-2.42,9.28-5.36a15.93,15.93,0,0,0,8.3,0l9.28,5.36L37,68.17H48.24l-5.6-9.71Z" fill="#f96969"/><path d="M17.49,37.26V57.08h6.19L25,55.76l1.32,1.32h6.19V37.26h2.68l2.45-2.45V17.89l-3.07-3.07H29.68L32,12.48V7A7,7,0,0,0,18,7v5.46l2.34,2.34H15.43l-3.07,3.07V34.81l2.45,2.45ZM29.68,16.85l-1.77,4-.39-4Zm-5.92,7.88.75-7.88h1l.76,7.88-1.11,2.54h-.26ZM20,7A5,5,0,0,1,30,7v4.62l-3.18,3.18H23.18L20,11.64Zm2.48,9.83-.39,4-1.77-4Zm-8.09,1.88,1.88-1.88h1.84L23.54,29.3h2.92l5.43-12.45h1.84l1.88,1.88V34l-1.26,1.26H32.51V22.45h-2v32.6H27.16L26,53.91c0-18,0-15.69,0-17.09H24V53.91l-1.14,1.14H19.51V22.45h-2V35.23H15.65L14.39,34Z" fill="#333"/><path d="M40.87,59.5l-5.12-3a5,5,0,0,0,0-3.58l5.12-3,1.77,3.06L50,40.31H35.28l1.77,3.07L33.7,45.31l1,1.76,5.11-3-1-1.78h7.7L42.64,49l-1-1.78-8.6,5,.55.89a3,3,0,0,1,0,3.32L33,57.3l8.6,5,1-1.78,3.85,6.67h-7.7l1-1.78L29.29,59.3a14.58,14.58,0,0,1-4.29.63,14.43,14.43,0,0,1-4.29-.63L10.18,65.38l1,1.78H3.51l3.85-6.67,1,1.78,8.6-5-.54-.89a3,3,0,0,1,0-3.32L17,52.2l-8.6-5L7.36,49,3.51,42.34h7.7l-1,1.78,5.11,3,1-1.76L13,43.38l1.77-3.07H0L7.36,53.06,9.13,50l5.12,3a5,5,0,0,0,0,3.58l-5.12,3L7.36,56.43,0,69.18H14.72L13,66.12l8-4.64a17.12,17.12,0,0,0,8,0l8,4.64-1.77,3.06H50L42.64,56.43Z" fill="#333"/></svg>