<svg xmlns="http://www.w3.org/2000/svg" width="50" height="50" viewBox="0 0 50 50"><title>icons</title><path d="M28.23,39.52,25,37.9l-3.23,1.62,1.62,2.42-1.62,7.25h6.46l-1.62-7.25Z" fill="#f96969"/><path d="M19.32,15.36l-4.8-1.44V12.69a5.63,5.63,0,0,0,2.42-4.62V5.65a5.65,5.65,0,1,0-11.29,0V8.06a5.63,5.63,0,0,0,2.41,4.63v1.23L2.87,15.47A4,4,0,0,0,0,19.34v6.47H1.61V19.34A2.41,2.41,0,0,1,3.34,17l5.19-1.56a3.51,3.51,0,0,0,2.76,1.48,3.51,3.51,0,0,0,2.76-1.48l4.8,1.44Zm-8-13.75a4,4,0,0,1,4,4h-3.7a1.92,1.92,0,0,1-1.37-.58L9.68,4.5l-.57.57a2,2,0,0,1-1.38.58H7.26A4,4,0,0,1,11.29,1.61Zm-4,6.45v-.8h.47a3.54,3.54,0,0,0,1.95-.58,3.48,3.48,0,0,0,1.94.58h3.7v.8a4,4,0,1,1-8.06,0Zm4,7.26a2,2,0,0,1-1.61-1v-.82a5.52,5.52,0,0,0,3.22,0v.82A2,2,0,0,1,11.29,15.32Z" fill="#333"/><path d="M47.13,15.47l-5.19-1.55V12.69a5.62,5.62,0,0,0,2.41-4.62V5.65a5.65,5.65,0,1,0-11.29,0V8.06a5.64,5.64,0,0,0,2.42,4.63v1.23l-4.8,1.44.47,1.54L36,15.46a3.31,3.31,0,0,0,5.52,0L46.66,17a2.41,2.41,0,0,1,1.73,2.32v6.47H50V19.34A4,4,0,0,0,47.13,15.47ZM38.71,1.61a4,4,0,0,1,4,4h-.47a2,2,0,0,1-1.38-.58l-.57-.57-.57.57a1.92,1.92,0,0,1-1.37.58h-3.7A4,4,0,0,1,38.71,1.61Zm-4,6.45v-.8h3.7a3.48,3.48,0,0,0,1.94-.58,3.54,3.54,0,0,0,2,.58h.47v.8a4,4,0,1,1-8.06,0Zm4,7.26a2,2,0,0,1-1.61-1v-.82a5.52,5.52,0,0,0,3.22,0v.82A2,2,0,0,1,38.71,15.32Z" fill="#333"/><path d="M31.89,16.24l-.59-.59a9.36,9.36,0,0,0-16,6.61v4.35h.83c0-.1,0-.21,0-.31a3.32,3.32,0,0,1,3.35-2.91H22.9a9.57,9.57,0,0,0,5.33-1.62l.8,1.62h1.48a3.32,3.32,0,0,1,3.35,2.91c0,.1,0,.21,0,.31h.83V20.29A4.33,4.33,0,0,0,31.89,16.24Z" fill="#f96969"/><path d="M18.55,0h1.61V1.61H18.55Z" fill="#333"/><path d="M18.55,3.23h1.61V12.1H18.55Z" fill="#333"/><path d="M29.84,0h1.61V1.61H29.84Z" fill="#333"/><path d="M29.84,3.23h1.61V12.1H29.84Z" fill="#333"/><path d="M21.77,3.23h1.62V8.87H21.77Z" fill="#333"/><path d="M21.77,10.48h1.62V12.1H21.77Z" fill="#333"/><path d="M26.61,3.23h1.62V8.87H26.61Z" fill="#333"/><path d="M26.61,10.48h1.62V12.1H26.61Z" fill="#333"/><path d="M47.13,34.83l-5.19-1.56V32.05a5.66,5.66,0,0,0,2.41-4.63V25a5.64,5.64,0,0,0-11.1-1.41,4.27,4.27,0,0,0-2.74-1h-1l-1-2-.76.5a8.75,8.75,0,0,1-4.88,1.48H19.49a4.27,4.27,0,0,0-2.74,1A5.64,5.64,0,0,0,5.65,25v2.42a5.66,5.66,0,0,0,2.41,4.63v1.22L2.87,34.83A4,4,0,0,0,0,38.69V46H9.68a.8.8,0,0,1,.8.8V50h29V46.77a.8.8,0,0,1,.8-.8H50V38.69A4,4,0,0,0,47.13,34.83Zm-6.81-1.18a1.77,1.77,0,0,1-3.22,0v-.82a5.75,5.75,0,0,0,3.22,0ZM19.71,34.83l-5.19-1.56V32.05a5.75,5.75,0,0,0,2-2.57A4,4,0,0,0,19,30.61a6.52,6.52,0,0,0,2,2.64v1.59l-.76.18A5.1,5.1,0,0,0,19.71,34.83Zm7.71.25L25,36.9l-2.42-1.82V34.2a6.34,6.34,0,0,0,4.84,0Zm-5.83,1.27,2,1.48-2,1.21L21,36.49Zm6.82,0,.57.13L28.47,39l-2-1.21ZM29.79,35,29,34.84V33.25a6.52,6.52,0,0,0,2-2.64,4,4,0,0,0,2.47-1.13,5.75,5.75,0,0,0,2,2.57v1.22l-5.19,1.56A5.1,5.1,0,0,0,29.79,35Zm8.92-3.57a4,4,0,0,1-4-4v-.81h.47a3.54,3.54,0,0,0,2-.58,3.48,3.48,0,0,0,1.94.58h3.7v.81A4,4,0,0,1,38.71,31.45Zm0-10.48a4,4,0,0,1,4,4H39a2,2,0,0,1-1.37-.57l-.57-.57-.57.57a2,2,0,0,1-1.38.57h-.47A4,4,0,0,1,38.71,21Zm-5.66,5.4a2.36,2.36,0,0,1-1.63,2.52q0-.33,0-.66V24.37A2.42,2.42,0,0,1,33.05,26.37ZM27.9,22.92l.63,1.27h1.31v4a4.84,4.84,0,0,1-9.68,0v-4H22.9A10.46,10.46,0,0,0,27.9,22.92Zm-9.35,1.45v3.86q0,.33,0,.66a2.38,2.38,0,0,1,0-4.52ZM11.29,21a4,4,0,0,1,4,4h-.47a2,2,0,0,1-1.38-.57l-.57-.57-.57.57A2,2,0,0,1,11,25H7.26A4,4,0,0,1,11.29,21Zm-4,6.45v-.81H11A3.48,3.48,0,0,0,12.9,26a3.54,3.54,0,0,0,1.95.58h.47v.81a4,4,0,0,1-8.06,0Zm4,5.64a5.7,5.7,0,0,0,1.61-.23v.82a2,2,0,0,1-1.61,1,2,2,0,0,1-1.61-1v-.82A5.7,5.7,0,0,0,11.29,33.06Zm37.1,11.29H45.16V38.71H43.55v5.64H40.32a2.43,2.43,0,0,0-2.42,2.42v1.62h-4V41.94H32.26v6.45H17.74V41.94H16.13v6.45h-4V46.77a2.43,2.43,0,0,0-2.42-2.42H6.45V38.71H4.84v5.64H1.61V38.69a2.41,2.41,0,0,1,1.73-2.32l5.19-1.55a3.54,3.54,0,0,0,2.76,1.47,3.54,3.54,0,0,0,2.76-1.47l3.06.91-2.25.52a5.63,5.63,0,0,0-4.38,5.5v1H12.1v-1a4,4,0,0,1,3.12-3.93l4.23-1,.95,4.75L25,38.84l4.6,2.76.95-4.75,4.23,1a4,4,0,0,1,3.12,3.93v1h1.62v-1a5.63,5.63,0,0,0-4.38-5.5l-2.25-.52L36,34.82a3.33,3.33,0,0,0,5.52,0l5.19,1.55a2.41,2.41,0,0,1,1.73,2.32Z" fill="#333"/></svg>