<svg xmlns="http://www.w3.org/2000/svg" width="50" height="50" viewBox="0 0 50 50"><title>icons</title><path d="M17.28,34.66l-1.14-1.14-2,2-1.28-1.28,2-2L13.72,31.1l-2,2-1.21-1.21L1.24,41.17a4.23,4.23,0,0,0,3,7.22,4.2,4.2,0,0,0,3-1.24l9.24-9.25-1.21-1.21ZM6.08,46a2.62,2.62,0,0,1-4.47-1.85,2.57,2.57,0,0,1,.77-1.85l8.1-8.11,3.7,3.7Z" fill="#333"/><path d="M23.39,24.19a.8.8,0,0,1-.81-.8v-.81h.81a.8.8,0,0,1,.8.81h1.62a2.41,2.41,0,0,0-1.62-2.27V19.35H22.58V21H21v2.42a2.42,2.42,0,0,0,2.42,2.42.8.8,0,0,1,.8.8v.81h-.8a.81.81,0,0,1-.81-.81H21a2.4,2.4,0,0,0,1.61,2.27v1.77h1.61V29h1.62V26.61A2.43,2.43,0,0,0,23.39,24.19Z" fill="#333"/><path d="M27.42,24.19H29v1.62H27.42Z" fill="#333"/><path d="M17.74,24.19h1.61v1.62H17.74Z" fill="#333"/><path d="M12.9,8.06h1.62V9.68H12.9Z" fill="#333"/><path d="M8.87,0a8.87,8.87,0,1,0,8.87,8.87A8.88,8.88,0,0,0,8.87,0Zm0,16.13a7.26,7.26,0,1,1,7.26-7.26A7.27,7.27,0,0,1,8.87,16.13Z" fill="#333"/><path d="M8.87,6.45a.81.81,0,0,1,.81.81h1.61A2.42,2.42,0,0,0,9.68,5V3.23H8.06V4.84H6.45V7.26A2.43,2.43,0,0,0,8.87,9.68a.8.8,0,0,1,.81.8v.81H8.87a.81.81,0,0,1-.81-.81H6.45a2.42,2.42,0,0,0,1.61,2.27v1.77H9.68V12.9h1.61V10.48A2.43,2.43,0,0,0,8.87,8.06a.81.81,0,0,1-.81-.8V6.45Z" fill="#333"/><path d="M3.23,8.06H4.84V9.68H3.23Z" fill="#333"/><path d="M32.26,45.16h6.45v1.61H32.26Z" fill="#333"/><path d="M46,0H25a4,4,0,0,0-4,4v9.68h1.61V4A2.43,2.43,0,0,1,25,1.61h4v.81a2.43,2.43,0,0,0,2.42,2.42h8.07a2.43,2.43,0,0,0,2.42-2.42V1.61h4A2.43,2.43,0,0,1,48.39,4V41.94H22.58V36.29H21V46a4,4,0,0,0,4,4H46a4,4,0,0,0,4-4V4A4,4,0,0,0,46,0ZM40.32,2.42a.81.81,0,0,1-.8.81H31.45a.81.81,0,0,1-.8-.81V1.61h9.67Zm5.65,46H25A2.43,2.43,0,0,1,22.58,46V43.55H48.39V46A2.43,2.43,0,0,1,46,48.39Z" fill="#333"/><path d="M45.16,40.32H25.81a1.62,1.62,0,0,1-1.62-1.61V36.29h1.62v2.42H45.16V8.06H25.81v5.65H24.19V8.06a1.62,1.62,0,0,1,1.62-1.61H45.16a1.62,1.62,0,0,1,1.61,1.61V38.71A1.61,1.61,0,0,1,45.16,40.32Z" fill="#333"/><path d="M27.42,9.68H29v1.61H27.42Z" fill="#333"/><path d="M30.65,9.68h1.61v1.61H30.65Z" fill="#333"/><path d="M33.87,10.48h9.68V23.39H37.1V13.71H33.87Z" fill="#f96969"/><path d="M33.87,9.68h9.68v1.61H33.87Z" fill="#333"/><path d="M33.87,12.9h9.68v1.62H33.87Z" fill="#333"/><path d="M37.1,16.13h6.45v1.61H37.1Z" fill="#333"/><path d="M37.1,19.35h6.45V21H37.1Z" fill="#333"/><path d="M37.1,22.58h6.45v1.61H37.1Z" fill="#333"/><path d="M43.55,37.1H27.42V35.48H41.94V27.42H34.68V25.81h8.87Z" fill="#333"/><path d="M23.39,37.1A12.1,12.1,0,1,1,35.48,25,12.12,12.12,0,0,1,23.39,37.1Zm0-20.16A8.06,8.06,0,1,0,31.45,25,8.07,8.07,0,0,0,23.39,16.94Z" fill="#f96969"/><path d="M23.39,33.87A8.87,8.87,0,1,1,32.26,25,8.88,8.88,0,0,1,23.39,33.87Zm0-16.13A7.26,7.26,0,1,0,30.65,25,7.27,7.27,0,0,0,23.39,17.74Z" fill="#333"/></svg>