<svg xmlns="http://www.w3.org/2000/svg" width="50.01" height="52.5" viewBox="0 0 50.01 52.5"><title>icons</title><path d="M22.17,32.91H13s-.08-.06-.08-.13V30.52c0-.07,0-.13.08-.13h9.16s.08.06.08.13v2.26C22.25,32.85,22.21,32.91,22.17,32.91Z" fill="#f96969"/><path d="M22.43,26.78H13s-.09-.06-.09-.13V24.38c0-.07,0-.13.09-.13h9.41s.08.06.08.13v2.27C22.51,26.72,22.47,26.78,22.43,26.78Z" fill="#f96969"/><path d="M22.08,20.64H13s-.08-.05-.08-.12V18.25c0-.07,0-.13.08-.13h9.07s.08.06.08.13v2.27C22.16,20.59,22.12,20.64,22.08,20.64Z" fill="#f96969"/><path d="M27.92,10.6H25a.2.2,0,0,1-.2-.2V6.86a.2.2,0,0,1,.2-.2h2.94a.19.19,0,0,1,.2.2V10.4A.19.19,0,0,1,27.92,10.6Z" fill="#f96969"/><path d="M33.79,10.6H30.84a.2.2,0,0,1-.2-.2V6.86a.2.2,0,0,1,.2-.2h2.95a.2.2,0,0,1,.2.2V10.4A.2.2,0,0,1,33.79,10.6Z" fill="#f96969"/><path d="M39.65,10.6H36.7a.2.2,0,0,1-.2-.2V6.86a.2.2,0,0,1,.2-.2h2.95a.2.2,0,0,1,.2.2V10.4A.2.2,0,0,1,39.65,10.6Z" fill="#f96969"/><path d="M27.92,19.38H25a.2.2,0,0,1-.2-.2V15.65a.2.2,0,0,1,.2-.2h2.94a.19.19,0,0,1,.2.2v3.53A.19.19,0,0,1,27.92,19.38Z" fill="#f96969"/><path d="M33.79,19.38H30.84a.2.2,0,0,1-.2-.2V15.65a.2.2,0,0,1,.2-.2h2.95a.2.2,0,0,1,.2.2v3.53A.2.2,0,0,1,33.79,19.38Z" fill="#f96969"/><path d="M39.65,19.38H36.7a.2.2,0,0,1-.2-.2V15.65a.2.2,0,0,1,.2-.2h2.95a.2.2,0,0,1,.2.2v3.53A.2.2,0,0,1,39.65,19.38Z" fill="#f96969"/><path d="M27.92,28.17H25a.2.2,0,0,1-.2-.2V24.43a.2.2,0,0,1,.2-.2h2.94a.19.19,0,0,1,.2.2V28A.19.19,0,0,1,27.92,28.17Z" fill="#f96969"/><path d="M33.79,28.17H30.84a.2.2,0,0,1-.2-.2V24.43a.2.2,0,0,1,.2-.2h2.95a.2.2,0,0,1,.2.2V28A.2.2,0,0,1,33.79,28.17Z" fill="#f96969"/><path d="M39.65,28.17H36.7a.2.2,0,0,1-.2-.2V24.43a.2.2,0,0,1,.2-.2h2.95a.2.2,0,0,1,.2.2V28A.2.2,0,0,1,39.65,28.17Z" fill="#f96969"/><path d="M33.79,37H30.84a.2.2,0,0,1-.2-.2V33.22a.2.2,0,0,1,.2-.2h2.95a.2.2,0,0,1,.2.2v3.54A.2.2,0,0,1,33.79,37Z" fill="#f96969"/><path d="M27.92,37H25a.2.2,0,0,1-.2-.2V33.22A.2.2,0,0,1,25,33h2.94a.19.19,0,0,1,.2.2v3.54A.19.19,0,0,1,27.92,37Z" fill="#f96969"/><path d="M39.65,37H36.7a.2.2,0,0,1-.2-.2V33.22a.2.2,0,0,1,.2-.2h2.95a.2.2,0,0,1,.2.2v3.54A.2.2,0,0,1,39.65,37Z" fill="#f96969"/><path d="M4.92,50.28H2.64A1.88,1.88,0,0,1,.76,48.4V31.52a1.89,1.89,0,0,1,1.88-1.89H4.92a1.89,1.89,0,0,1,1.89,1.89V48.4A1.88,1.88,0,0,1,4.92,50.28Z" fill="#f96969"/><path d="M25,11.35h2.94a1,1,0,0,0,.95-.95V6.86a1,1,0,0,0-.95-1H25a1,1,0,0,0-.95,1V10.4A1,1,0,0,0,25,11.35Zm.55-3.94h1.84V9.85H25.53Z" fill="#333"/><path d="M30.84,11.35h2.95a1,1,0,0,0,1-.95V6.86a1,1,0,0,0-1-1H30.84a1,1,0,0,0-.95,1V10.4A1,1,0,0,0,30.84,11.35Zm.55-3.94h1.85V9.85H31.39Z" fill="#333"/><path d="M36.7,11.35h2.95a1,1,0,0,0,1-.95V6.86a1,1,0,0,0-1-1H36.7a1,1,0,0,0-1,1V10.4A1,1,0,0,0,36.7,11.35Zm.55-3.94H39.1V9.85H37.25Z" fill="#333"/><path d="M25,20.13h2.94a.94.94,0,0,0,.95-.95V15.65a.94.94,0,0,0-.95-1H25a.94.94,0,0,0-.95,1v3.53A.94.94,0,0,0,25,20.13Zm.55-3.93h1.84v2.43H25.53Z" fill="#333"/><path d="M30.84,20.13h2.95a1,1,0,0,0,1-.95V15.65a1,1,0,0,0-1-1H30.84a1,1,0,0,0-.95,1v3.53A.94.94,0,0,0,30.84,20.13Zm.55-3.93h1.85v2.43H31.39Z" fill="#333"/><path d="M36.7,20.13h2.95a1,1,0,0,0,1-.95V15.65a1,1,0,0,0-1-1H36.7a1,1,0,0,0-1,1v3.53A1,1,0,0,0,36.7,20.13Zm.55-3.93H39.1v2.43H37.25Z" fill="#333"/><path d="M25,28.92h2.94a1,1,0,0,0,.95-1V24.43a1,1,0,0,0-.95-.95H25a1,1,0,0,0-.95.95V28A1,1,0,0,0,25,28.92ZM25.53,25h1.84v2.44H25.53Z" fill="#333"/><path d="M30.84,28.92h2.95a1,1,0,0,0,1-1V24.43a1,1,0,0,0-1-.95H30.84a1,1,0,0,0-.95.95V28A1,1,0,0,0,30.84,28.92ZM31.39,25h1.85v2.44H31.39Z" fill="#333"/><path d="M36.7,28.92h2.95a1,1,0,0,0,1-1V24.43a1,1,0,0,0-1-.95H36.7a1,1,0,0,0-1,.95V28A1,1,0,0,0,36.7,28.92ZM37.25,25H39.1v2.44H37.25Z" fill="#333"/><path d="M36.7,37.71h2.95a1,1,0,0,0,1-1V33.22a1,1,0,0,0-1-.95H36.7a1,1,0,0,0-1,.95v3.54A1,1,0,0,0,36.7,37.71Zm.55-3.94H39.1v2.44H37.25Z" fill="#333"/><path d="M49.47,35.61a3.12,3.12,0,0,0-4.32-.83l-2.06,1.38V3.89h.15a1,1,0,0,0,1-1V1a1,1,0,0,0-1-1H38.45a.76.76,0,0,0-.75.75.76.76,0,0,0,.75.75h4.28v.89H21.67V1.5H33.76a.76.76,0,0,0,.75-.75A.76.76,0,0,0,33.76,0H21.15a1,1,0,0,0-1,1V2.91a1,1,0,0,0,1,1h.38v9.64H20V11.67a1.16,1.16,0,0,0-1.17-1.16H13.16A1.17,1.17,0,0,0,12,11.67v1.86H10.92A1.22,1.22,0,0,0,9.7,14.74v17.2l-.95,0H7.56v-.39a2.64,2.64,0,0,0-2.64-2.64H2.64A2.64,2.64,0,0,0,0,31.52V42.23a.75.75,0,0,0,1.5,0V31.52a1.14,1.14,0,0,1,1.13-1.14H4.92a1.14,1.14,0,0,1,1.14,1.14V48.4a1.14,1.14,0,0,1-1.14,1.13H2.64A1.14,1.14,0,0,1,1.51,48.4V46.92a.75.75,0,0,0-1.5,0V48.4A2.63,2.63,0,0,0,2.64,51H4.92A2.64,2.64,0,0,0,7.56,48.4v0L18,52.29l.06,0a5.39,5.39,0,0,0,1.37.19,4.49,4.49,0,0,0,.73-.06h0l15.33-2.21h0A7.56,7.56,0,0,0,39,48.63l0,0L49,39.69A3.11,3.11,0,0,0,49.47,35.61ZM23,32.91v-29H41.59V37.16l-6.24,4.18-2.09-.12,0-.54A4.76,4.76,0,0,0,33,39.55c-.05-.12-.09-.23-.15-.35a4.67,4.67,0,0,0-.27-.49,4.29,4.29,0,0,0-.85-1h2.11a1,1,0,0,0,1-1V33.22a1,1,0,0,0-1-.95H30.84a1,1,0,0,0-.95.95v3.52a5.41,5.41,0,0,0-.58-.12h0l-.42,0V33.22a.94.94,0,0,0-.95-.95H25a.94.94,0,0,0-.95.95V36l-1-.12v-3Zm8.36,3.3V33.77h1.85v2.44Zm-4-2.44v2.44H25.73l-.2,0V33.77ZM13.49,12h5v1.52h-5ZM11.2,15H21.53v2.34H13.06a.89.89,0,0,0-.88.88v2.27a.88.88,0,0,0,.88.87h8.47V23.5H13.06a.89.89,0,0,0-.88.88v2.27a.89.89,0,0,0,.88.88h8.47v2.11H13.06a.88.88,0,0,0-.88.88v1.79l-.38-.09-.18,0-.21,0-.21,0V15Zm10.33,3.84v1H13.68v-1Zm0,6.13v1H13.68V25Zm-7.85,7.16v-1h7.85v1Zm7.85,1.5v2.06l-.23,0a13.93,13.93,0,0,1-1.43-.29,13.29,13.29,0,0,1-2.64-1l-.33-.17-.54-.3-.4-.22-.08,0a.2.2,0,0,1-.08,0ZM48,38.58l-9.9,8.9a6.11,6.11,0,0,1-2.84,1.27L19.89,51h0a3.44,3.44,0,0,1-1.42-.09L7.56,46.75V33.41H8.75a12.58,12.58,0,0,1,1.62.1l.32,0h.05c.28,0,.55.09.82.15l.25,0,.12,0,.33.08.06,0a13.81,13.81,0,0,1,2.46.93l.07,0,.3.16.09,0,.36.2h0c.32.18.64.36,1,.52a15,15,0,0,0,4.53,1.39h0l1.08.13.87.1,2,.23.5.06h0l3.5.4a3.07,3.07,0,0,1,2.61,2.73l0,.26L17.68,39.72a.75.75,0,0,0-.14,1.5l14.9,1.45h.09l3,.17h.25l.07,0h0l.1-.06,6.78-4.54h0L46,36a1.62,1.62,0,0,1,2,2.56Z" fill="#333"/><polygon points="1.5 47.45 0.01 47.64 0 41.46 1.5 41.47 1.5 47.45" fill="#333"/></svg>