<svg xmlns="http://www.w3.org/2000/svg" width="50" height="50" viewBox="0 0 50 50"><title>icons</title><path d="M15.89,37.67l-1.14-1.14L12.5,38.78,11.22,37.5l2.25-2.25-1.14-1.14-2.25,2.25L8.87,35.15,1.24,42.78a4.23,4.23,0,0,0,3,7.22,4.2,4.2,0,0,0,3-1.24l7.63-7.63-1.21-1.21ZM6.08,47.62a2.59,2.59,0,0,1-1.85.77,2.63,2.63,0,0,1-2.62-2.62,2.59,2.59,0,0,1,.77-1.85l6.49-6.49,3.7,3.7Z" fill="#333"/><path d="M21,34.2,15.8,29l3.55-3.56L21,27.09l4.84-4.84,3.56,3.56ZM18.08,29,21,31.92l6.12-6.11-1.28-1.28L21,29.37l-1.62-1.62Z" fill="#333"/><path d="M17.74,6.45H31.45v4H17.74Z" fill="#f96969"/><path d="M46,0H15.32a4,4,0,0,0-4,4V21.38H12.9V4a2.43,2.43,0,0,1,2.42-2.42H46A2.43,2.43,0,0,1,48.39,4V25A2.43,2.43,0,0,1,46,27.42H34.65V29h4.06v3.23H33.28v1.61h7a2.42,2.42,0,0,1,2.42,2.42v.81H28.62v1.61H44.35V36.29a4,4,0,0,0-4-4V29H46a4,4,0,0,0,4-4V4A4,4,0,0,0,46,0Z" fill="#333"/><path d="M45.16,24.19H34.44v1.62H45.16a1.62,1.62,0,0,0,1.61-1.62V4.84a1.61,1.61,0,0,0-1.61-1.61h-29a1.61,1.61,0,0,0-1.61,1.61v12.9h1.61V4.84h29Z" fill="#333"/><path d="M40,13.3a4,4,0,0,0,1.16-2.82,4,4,0,1,0-6.91,2.82,5.65,5.65,0,0,0-3.57,5.25v.8h12.9v-.8A5.66,5.66,0,0,0,40,13.3ZM37.1,8.06a2.42,2.42,0,1,1-2.42,2.42A2.43,2.43,0,0,1,37.1,8.06Zm-4.76,9.68a4,4,0,0,1,3.95-3.22H37.9a4,4,0,0,1,4,3.22Z" fill="#333"/><path d="M22.58,40.32a12.9,12.9,0,1,1,12.9-12.9A12.92,12.92,0,0,1,22.58,40.32Zm0-21.77a8.87,8.87,0,1,0,8.87,8.87A8.88,8.88,0,0,0,22.58,18.55Z" fill="#f96969"/><path d="M22.58,37.1a9.68,9.68,0,1,1,9.68-9.68A9.69,9.69,0,0,1,22.58,37.1Zm0-17.75a8.07,8.07,0,1,0,8.07,8.07A8.07,8.07,0,0,0,22.58,19.35Z" fill="#333"/><path d="M17.74,6.45h1.61V8.06H17.74Z" fill="#333"/><path d="M21,6.45H31.45V8.06H21Z" fill="#333"/><path d="M17.74,9.68H31.45v1.61H17.74Z" fill="#333"/></svg>