<svg xmlns="http://www.w3.org/2000/svg" width="50" height="50.05" viewBox="0 0 50 50.05"><title>icons</title><path d="M3.59,46.1h0A3.38,3.38,0,0,0,.81,43.31h0a3.35,3.35,0,0,0,2.78-2.78h0a3.38,3.38,0,0,0,2.79,2.78h0A3.4,3.4,0,0,0,3.59,46.1Z" fill="#f96969"/><path d="M.7,42.62A.7.7,0,1,0,.7,44a2.7,2.7,0,0,1,2.2,2.2.7.7,0,0,0,1.39,0A2.68,2.68,0,0,1,6.49,44a.7.7,0,0,0,0-1.39,2.7,2.7,0,0,1-2.2-2.2.7.7,0,1,0-1.39,0A2.72,2.72,0,0,1,.7,42.62Zm2.89-.3a4.09,4.09,0,0,0,1,1,4,4,0,0,0-1,1,3.92,3.92,0,0,0-1-1A4,4,0,0,0,3.59,42.32Z" fill="#333"/><path d="M43,6.38h0a3.4,3.4,0,0,0-2.79-2.79h0A3.38,3.38,0,0,0,43,.81h0a3.35,3.35,0,0,0,2.78,2.78h0A3.38,3.38,0,0,0,43,6.38Z" fill="#f96969"/><polygon points="50 15.43 47.91 15.43 47.91 13.34 46.52 13.34 46.52 15.43 44.43 15.43 44.43 16.82 46.52 16.82 46.52 18.91 47.91 18.91 47.91 16.82 50 16.82 50 15.43" fill="#fdb62f"/><path d="M43.73.7a.7.7,0,1,0-1.39,0,2.7,2.7,0,0,1-2.2,2.2.7.7,0,0,0,0,1.39,2.68,2.68,0,0,1,2.2,2.2.7.7,0,0,0,1.39,0,2.7,2.7,0,0,1,2.2-2.2.7.7,0,1,0,0-1.39A2.72,2.72,0,0,1,43.73.7ZM43,4.59a4,4,0,0,0-1-1,3.92,3.92,0,0,0,1-1,4,4,0,0,0,1,1A4.09,4.09,0,0,0,43,4.59Z" fill="#333"/><polygon points="47.91 13.34 46.52 13.34 46.52 15.43 44.43 15.43 44.43 16.82 46.52 16.82 46.52 18.91 47.91 18.91 47.91 16.82 50 16.82 50 15.43 47.91 15.43 47.91 13.34" fill="#333"/><path d="M16.25,27.68l-3.61,1.8,4,8.06a2,2,0,0,0,1.48,1.09,1.73,1.73,0,0,0,.32,0,2,2,0,0,0,1.42-.59l24.2-24.2L41.23,11,19,33.24Z" fill="#f96969"/><path d="M42.75,36.65a.6.6,0,0,0-.62-.06l-6.81,3.08a.61.61,0,0,0-.36.5.6.6,0,0,0,.25.57l1.24.89a16.81,16.81,0,0,1-28-12.56,2.09,2.09,0,1,0-4.17,0,21,21,0,0,0,35.6,15l1.39,1a.6.6,0,0,0,.62.06.61.61,0,0,0,.36-.5L43,37.22A.64.64,0,0,0,42.75,36.65Z" fill="#333"/><path d="M6.2,22.84a.6.6,0,0,0,.36.12.75.75,0,0,0,.26-.05l6.81-3.08a.64.64,0,0,0,.36-.51.61.61,0,0,0-.25-.57l-1.24-.89a16.86,16.86,0,0,1,11.17-4.25,16.68,16.68,0,0,1,8.9,2.56L35.27,13a20.8,20.8,0,0,0-11.6-3.51A21.06,21.06,0,0,0,9.05,15.38l-1.39-1A.62.62,0,0,0,7,14.33a.61.61,0,0,0-.36.51l-.74,7.43A.63.63,0,0,0,6.2,22.84Z" fill="#333"/><path d="M38.27,22.09a16.72,16.72,0,0,1,2.21,8.34,2.09,2.09,0,0,0,4.17,0,20.85,20.85,0,0,0-3.57-11.69Z" fill="#333"/></svg>