<svg xmlns="http://www.w3.org/2000/svg" width="50" height="52.54" viewBox="0 0 50 52.54"><title>icons</title><path d="M32.2,11.86,27.12,8.47H22V0H37.29V8.47H32.2Z" fill="#f96969"/><path d="M22.88,24.58V22H17.8V13.56H29.66V22H27.12Z" fill="#f96969"/><path d="M24.58,29.66A2.55,2.55,0,0,0,22,27.12H14.41V22.88a2.5,2.5,0,0,0-.64-1.66A5.09,5.09,0,0,0,16.1,17V14.41a5.09,5.09,0,1,0-10.17,0V17a5.07,5.07,0,0,0,2.13,4.13,16.32,16.32,0,0,0-.84,2.65H2.54a2.54,2.54,0,0,0,0,5.08h.85v7.63a4.22,4.22,0,0,0,2.37,3.78l-3.1,9.29a2.28,2.28,0,0,0-.12.73A2.34,2.34,0,0,0,7.08,51l1.27-3.55H17v5.08h17.8V35.59h1.69V30.51h-12A2.42,2.42,0,0,0,24.58,29.66ZM22,28.81a.85.85,0,1,1,0,1.7H11.86a.85.85,0,0,1-.84-.85V22.88a.85.85,0,1,1,1.69,0v5.93ZM11.86,32.2H17v3.39H8.47V27.52a15.24,15.24,0,0,1,.9-5.14,2.73,2.73,0,0,0,0,.5v6.78A2.54,2.54,0,0,0,11.86,32.2ZM7.63,14.41a3.39,3.39,0,0,1,6.78,0V17a3.39,3.39,0,0,1-6.78,0ZM2.54,27.12a.85.85,0,1,1,0-1.7H6.92a16.46,16.46,0,0,0-.14,2.1v8.07a1.7,1.7,0,0,0,1.69,1.7H17V39H7.63a2.55,2.55,0,0,1-2.55-2.54V27.12Zm8.23,13.56H17v1.69H10.16ZM5.48,50.44a.65.65,0,0,1-.63.41.61.61,0,0,1-.61-.61.64.64,0,0,1,0-.2L7.4,40.65a1.81,1.81,0,0,0,.23,0H9ZM9,45.76l.61-1.69H17v1.69Zm24.1,5.09H18.64V35.59H33.05Zm1.7-17H18.64V32.2H34.75Z" fill="#333"/><path d="M47.23,11.6a5.07,5.07,0,0,0,1.92-4V5.08A5.09,5.09,0,0,0,39,5.08V7.63a5.1,5.1,0,0,0,2.71,4.49,5,5,0,0,0-1.29,1.49,17.16,17.16,0,0,0-2,5.88H33.9a2.55,2.55,0,0,0,0,5.09h4.24v5.08h1.69V52.54H50V16.15A5.15,5.15,0,0,0,47.23,11.6Zm-6.55-4V5.08a3.39,3.39,0,1,1,6.78,0V7.63a3.39,3.39,0,0,1-6.78,0Zm.85,7.5v4.36H40.08A15.33,15.33,0,0,1,41.53,15.13ZM33.05,22a.85.85,0,0,1,.85-.84h9.32V13.56a.8.8,0,0,1,.2-.52,3.42,3.42,0,0,1,.89-.28.85.85,0,0,1,.61.8V22a.85.85,0,0,1-.85.85H33.9A.85.85,0,0,1,33.05,22Zm11,2.55A2.55,2.55,0,0,0,46.61,22V13.56a2.45,2.45,0,0,0,0-.38,3.45,3.45,0,0,1,1.74,3V28H39.83V24.58Zm-2.54,5.08h1.69V50.85H41.53Zm3.39,21.19V29.66h3.39V50.85Z" fill="#333"/><path d="M32.2,3.39h1.7V5.08H32.2Z" fill="#333"/><path d="M28.81,3.39h1.7V5.08h-1.7Z" fill="#333"/><path d="M25.42,3.39h1.7V5.08h-1.7Z" fill="#333"/><path d="M21.19,17h1.69v1.69H21.19Z" fill="#333"/><path d="M24.58,17h1.69v1.69H24.58Z" fill="#333"/></svg>