<svg xmlns="http://www.w3.org/2000/svg" width="50" height="50.73" viewBox="0 0 50 50.73"><title>icons</title><path d="M28.47,1.66V3.31a.83.83,0,0,1-.82.83h-5a.83.83,0,0,1-.83-.83V1.66a.83.83,0,0,1,.83-.83h5A.83.83,0,0,1,28.47,1.66Z" fill="#f96969"/><path d="M26.33,21.87a1.65,1.65,0,1,0-1.17.48A1.61,1.61,0,0,0,26.33,21.87ZM36.22,12a14.07,14.07,0,0,1-3.08,20.3H21.85l-2.33,1.3A14.07,14.07,0,0,1,16.45,9.65a13.92,13.92,0,0,1,7.06-2.93,14.1,14.1,0,0,1,3.31,0,13.85,13.85,0,0,1,7,2.93A14.06,14.06,0,0,1,36.22,12Z" fill="#f96969"/><path d="M11,47.64,4.8,49.91.83,39l6.23-2.26Z" fill="#f96969"/><path d="M18.82,44.87l.55,1.49L11.58,49.2,11,47.64l-4-10.89-.57-1.56,7.78-2.83,1.26,3.45Z" fill="#f96969"/><path d="M44.33,29.34l-7.07,4.07a3.16,3.16,0,0,0-.65-1,3.31,3.31,0,0,0-2.34-1H21.85a.8.8,0,0,0-.4.11l-5.48,3-.92-2.53a.83.83,0,0,0-1.06-.5L6.21,34.41a.83.83,0,0,0-.47.43.77.77,0,0,0,0,.63l.28.78-5.44,2a.82.82,0,0,0-.5,1.06L4,50.19a.86.86,0,0,0,.43.47.81.81,0,0,0,.63,0l5.45-2,.28.78a.84.84,0,0,0,1.06.5l7.78-2.83a.84.84,0,0,0,.5-1.07l-.2-.54H29.3a.88.88,0,0,0,.42-.11L47.64,35.08a3.31,3.31,0,0,0,0-5.74A3.27,3.27,0,0,0,44.33,29.34Zm-39,19.51L1.9,39.51l4.67-1.7L10,47.14Zm6.79-.71L7.55,35.68l6.23-2.26,4.53,12.45Zm34.73-14.5L29.08,43.88H19.34l-2.8-7.69,5.53-3.07h12.2a1.65,1.65,0,0,1,1.17.48,1.63,1.63,0,0,1,.39.64,1.39,1.39,0,0,1,.1.53,1.66,1.66,0,0,1-1.66,1.66H25.16v1.65h9.11a3.29,3.29,0,0,0,3.27-2.91l7.61-4.4a1.69,1.69,0,0,1,1.66,0,1.67,1.67,0,0,1,.83,1.44A1.63,1.63,0,0,1,46.81,33.64Z" fill="#333"/><path d="M16.4,32.75l1-1.34a13.25,13.25,0,1,1,17.89-2.14l1.26,1.07a14.85,14.85,0,0,0,.78-18.26l1.33-1.34a.78.78,0,0,0,.24-.58.82.82,0,0,0-.24-.59L36.29,7.23a.83.83,0,0,0-1.17,0L33.78,8.56A14.74,14.74,0,0,0,27.65,6V5A1.65,1.65,0,0,0,29.3,3.31V1.66A1.65,1.65,0,0,0,27.65,0h-5A1.66,1.66,0,0,0,21,1.66V3.31A1.66,1.66,0,0,0,22.68,5V6a14.84,14.84,0,0,0-6.14,2.54L15.21,7.23a.83.83,0,0,0-1.17,0L11.69,9.57a.87.87,0,0,0-.24.59.83.83,0,0,0,.24.58L13,12.08a14.8,14.8,0,0,0-2.77,8.62A15,15,0,0,0,16.4,32.75ZM35.7,9l1.17,1.17-.62.62c-.37-.41-.76-.8-1.17-1.18Zm-13-7.33h5V3.31h-5ZM24.33,5H26v.87c-.28,0-.55,0-.83,0s-.55,0-.83,0ZM13.45,10.16,14.62,9l.62.62a16.14,16.14,0,0,0-1.17,1.17Z" fill="#333"/><path d="M22.68,20.7a2.48,2.48,0,0,0,2.48,2.48,2.51,2.51,0,0,0,1.07-.25l4.14,4.15,1.17-1.17L27.4,21.76a2.58,2.58,0,0,0,.25-1.06,2.49,2.49,0,1,0-5,0Zm3.31,0a.83.83,0,1,1-.83-.83A.83.83,0,0,1,26,20.7Z" fill="#333"/><path d="M35.31,24.29a10.77,10.77,0,0,0-6.56-13.74l-.55,1.56a9.11,9.11,0,0,1,5.55,11.62Z" fill="#333"/><path d="M25.16,9.94v1.65a8.59,8.59,0,0,1,1.52.13L27,10.08A10.92,10.92,0,0,0,25.16,9.94Z" fill="#333"/><path d="M41.72,5h1.66V18.21H41.72Z" fill="#333"/><path d="M45,5h1.66v8.28H45Z" fill="#333"/><path d="M48.34,5H50v5H48.34Z" fill="#333"/><path d="M7,5H8.6V18.21H7Z" fill="#333"/><path d="M3.64,5H5.29v8.28H3.64Z" fill="#333"/><path d="M.32,5H2v5H.32Z" fill="#333"/></svg>