<svg xmlns="http://www.w3.org/2000/svg" width="50" height="50" viewBox="0 0 50 50"><title>icons</title><path d="M25,50H2.42A2.43,2.43,0,0,1,0,47.58V12.1A2.42,2.42,0,0,1,2.42,9.68H4v1.61H2.42a.81.81,0,0,0-.81.81V47.58a.82.82,0,0,0,.81.81H25a.82.82,0,0,0,.81-.81V12.1a.81.81,0,0,0-.81-.81H23.39V9.68H25a2.42,2.42,0,0,1,2.42,2.42V47.58A2.43,2.43,0,0,1,25,50Z" fill="#333"/><path d="M13.71,0a10.47,10.47,0,0,0-7.8,17.47h15.6A10.47,10.47,0,0,0,13.71,0Z" fill="#f96969"/><path d="M30.65,26.61h4.83v12.1H30.65Z" fill="#f96969"/><path d="M37.1,23.39h4.84V38.71H37.1Z" fill="#f96969"/><path d="M43.55,20.16h4.84V38.71H43.55Z" fill="#f96969"/><path d="M29,37.9H50v1.62H29Z" fill="#333"/><path d="M14.52,7.3V6.45H12.9V7.3a2,2,0,0,0,.41,4h.8a.41.41,0,1,1,0,.81h-.8a.41.41,0,0,1-.41-.41v-.4H11.29v.4a2,2,0,0,0,1.61,2v.85h1.62v-.85a2,2,0,0,0-.41-4h-.8a.41.41,0,1,1,0-.81h.8a.4.4,0,0,1,.41.4v.41h1.61V9.27A2,2,0,0,0,14.52,7.3Z" fill="#333"/><path d="M21,10.48A7.26,7.26,0,1,0,9.16,16.13H3.23V26.61h21V16.13H18.26A7.25,7.25,0,0,0,21,10.48Zm-12.91,0a5.65,5.65,0,1,1,5.65,5.65A5.65,5.65,0,0,1,8.06,10.48Zm14.52,7.26V25H4.84V17.74Z" fill="#333"/><path d="M22.58,36.29H19.35a1.62,1.62,0,0,0-1.61,1.61v7.26a1.62,1.62,0,0,0,1.61,1.61h3.23a1.61,1.61,0,0,0,1.61-1.61V37.9A1.61,1.61,0,0,0,22.58,36.29Zm-3.23,8.87V37.9h3.23v7.26Z" fill="#333"/><path d="M14.52,28.23H4.84a1.61,1.61,0,0,0-1.61,1.61V45.16a1.61,1.61,0,0,0,1.61,1.61h9.68a1.61,1.61,0,0,0,1.61-1.61V29.84A1.61,1.61,0,0,0,14.52,28.23Zm0,5.64h-4v-4h4Zm-4,1.61h4v4h-4Zm-1.61,4h-4v-4h4Zm0-9.68v4h-4v-4Zm-4,11.29h4v4h-4Zm5.64,4v-4h4v4Z" fill="#333"/><path d="M22.58,28.23H19.35a1.62,1.62,0,0,0-1.61,1.61v3.22a1.62,1.62,0,0,0,1.61,1.62h3.23a1.62,1.62,0,0,0,1.61-1.62V29.84A1.61,1.61,0,0,0,22.58,28.23Zm-3.23,4.83V29.84h3.23v3.22Z" fill="#333"/><path d="M45.16,10.48V12.1h2.25a27.71,27.71,0,0,1-16.95,8.68L28.93,21l.2,1.6,1.53-.19a29.27,29.27,0,0,0,17.73-9v1.91H50V10.48Z" fill="#333"/><path d="M6.45,19.35H8.06v4H6.45Z" fill="#333"/><path d="M9.68,19.35h1.61v4H9.68Z" fill="#333"/><path d="M12.9,21.77h1.62v1.62H12.9Z" fill="#333"/><path d="M16.13,19.35h1.61v4H16.13Z" fill="#333"/><path d="M19.35,19.35H21v4H19.35Z" fill="#333"/></svg>