<svg xmlns="http://www.w3.org/2000/svg" width="50" height="50" viewBox="0 0 50 50"><title>icons</title><path d="M28.23,33.87A8.87,8.87,0,1,1,37.1,25,8.88,8.88,0,0,1,28.23,33.87Z" fill="#f96969"/><path d="M3.23,40.32H37.1v6.45H3.23Z" fill="#f96969"/><path d="M11.29,4H37.1v7.26H11.29Z" fill="#f96969"/><path d="M28.23,27.42a.81.81,0,0,1-.81-.81H25.81a2.4,2.4,0,0,0,1.61,2.27v1.77H29V28.88a2.41,2.41,0,0,0-.8-4.69.81.81,0,1,1,.8-.8h1.62A2.41,2.41,0,0,0,29,21.12V19.35H27.42v1.77a2.41,2.41,0,0,0,.81,4.69.81.81,0,0,1,0,1.61Z" fill="#333"/><path d="M50,12.9H40.32V0H8.54L0,8.54V50H40.32V37.1H50ZM8.06,2.75V8.06H2.75ZM38.71,48.39H1.61V9.68H9.68V1.61h29V12.9H6.45V37.1H38.71Zm9.68-12.91H8.06v-21H48.39Z" fill="#333"/><path d="M11.29,17.74h4V16.13H9.68v5.64h1.61Z" fill="#333"/><path d="M15.32,32.26h-4v-4H9.68v5.64h5.64Z" fill="#333"/><path d="M45.16,21.77h1.61V16.13H41.13v1.61h4Z" fill="#333"/><path d="M46.77,28.23H45.16v4h-4v1.61h5.64Z" fill="#333"/><path d="M11.29,3.23H37.1V4.84H11.29Z" fill="#333"/><path d="M11.29,6.45H12.9V8.06H11.29Z" fill="#333"/><path d="M14.52,6.45H37.1V8.06H14.52Z" fill="#333"/><path d="M11.29,9.68H33.87v1.61H11.29Z" fill="#333"/><path d="M35.48,9.68H37.1v1.61H35.48Z" fill="#333"/><path d="M3.23,38.71H37.1v1.61H3.23Z" fill="#333"/><path d="M3.23,41.94h21v1.61h-21Z" fill="#333"/><path d="M25.81,41.94H37.1v1.61H25.81Z" fill="#333"/><path d="M3.23,45.16H33.87v1.61H3.23Z" fill="#333"/><path d="M35.48,45.16H37.1v1.61H35.48Z" fill="#333"/></svg>