<svg xmlns="http://www.w3.org/2000/svg" width="50" height="45.42" viewBox="0 0 50 45.42"><title>icons</title><path d="M36.3,31.63,24.59,37.39a8.09,8.09,0,0,0,5.68,1.71l.31,0,5.36,5.36L43,38.33Z" fill="#f96969"/><path d="M46.3,20.74c.12-.12-2.48-3.39-2.39-3.53-.1-.17-.92-4-1.07-4.15a2.69,2.69,0,0,0-3.82,0l1-1a2.7,2.7,0,0,0-3.83-3.82l1-1A2.7,2.7,0,0,0,33.28,3.5l-7,7L11.26,26.39.94,36.62l17,7.94,8.55-8.91c4.1-.15,9.46-4.07,12.36-7Z" fill="#f96969"/><path d="M22.73,14.91,17.82,10a2.7,2.7,0,0,0-4.51,1.18,2.67,2.67,0,0,1,2.64.69l4.91,4.91a2.67,2.67,0,0,1,.69,2.64,2.71,2.71,0,0,0,1.18-4.52Z" fill="#fff"/><path d="M26.56,11.09,20.69,5.23a2.7,2.7,0,0,0-3.82,3.82l5.86,5.86a2.7,2.7,0,0,0,3.83-3.82Z" fill="#fff"/><path d="M23.2,15.38,17.34,9.52a2.7,2.7,0,1,0-3.82,3.83l5.86,5.86a2.7,2.7,0,1,0,3.82-3.83Z" fill="#fff"/><path d="M19,19.33l-4.83-5a2.2,2.2,0,0,0-3.16,0,2.36,2.36,0,0,0,0,3.26l4.84,5a2.18,2.18,0,0,0,3.15,0A2.35,2.35,0,0,0,19,19.33Z" fill="#fff"/><path d="M15.46,23.76,11,19.24a2,2,0,0,0-2.91,0,2.09,2.09,0,0,0,0,3l4.46,4.53a2.06,2.06,0,0,0,2.92,0A2.13,2.13,0,0,0,15.46,23.76Z" fill="#fff"/><path d="M49.71,32.46,44.33,27.1A1,1,0,1,0,43,28.48l5.39,5.37a.94.94,0,0,0,.68.28,1,1,0,0,0,.7-.29A1,1,0,0,0,49.71,32.46Z" fill="#333"/><path d="M31.28,38.39a1,1,0,0,0-.78-.29l-.31,0a7.11,7.11,0,0,1-4.07-.89l.63-.63a15.17,15.17,0,0,0,9.82-4.43l9.48-9.47a3.68,3.68,0,0,0-1.78-6.19A3.58,3.58,0,0,0,44.61,15a3.68,3.68,0,0,0-1.07-2.61,3.75,3.75,0,0,0-2-1,3.7,3.7,0,0,0-.89-3.76,3.75,3.75,0,0,0-2-1A3.67,3.67,0,0,0,35.2,1.73a3.65,3.65,0,0,0-1.76.44l-.1-.1A6.48,6.48,0,0,0,28.59,0H20.92a1,1,0,0,0-1,1V2.26a4.6,4.6,0,0,0,.25,1.48,3.55,3.55,0,0,0-1.41-.28,3.68,3.68,0,0,0-3.49,4.83,3.7,3.7,0,0,0-3.06,3.63,3.65,3.65,0,0,0,.19,1.15,3.68,3.68,0,0,0-2.71,5.18,3.68,3.68,0,0,0-1.78,6.19l2,1.95L.29,36a1,1,0,0,0,0,1.38,1,1,0,0,0,.69.29,1,1,0,0,0,.69-.29l9.68-9.68a3.69,3.69,0,0,0,1.82.48,3.69,3.69,0,0,0,3.68-3.83H17a3.69,3.69,0,0,0,3.68-3.68.76.76,0,0,0,0-.15h.15a3.69,3.69,0,0,0,3.68-3.68v-.15h.14a3.67,3.67,0,0,0,2.85-6L34,4.19a1.73,1.73,0,0,1,3,1.22,1.74,1.74,0,0,1-.5,1.22L32,11.05a1,1,0,0,0,0,1.38,1,1,0,0,0,1.38,0L36.84,9a1.73,1.73,0,0,1,2.45,2.44l-3.47,3.47a1,1,0,0,0,0,1.38,1,1,0,0,0,1.38,0l2.51-2.51a1.73,1.73,0,1,1,2.44,2.44L39.64,18.7A1,1,0,1,0,41,20.08l1.2-1.2a1.73,1.73,0,1,1,2.45,2.45L35.19,30.8a13.22,13.22,0,0,1-8.9,3.88,1,1,0,0,0-.66.29l-8.75,8.78a1,1,0,1,0,1.38,1.38l6.44-6.46a9.06,9.06,0,0,0,5.51,1.42l5,5a1,1,0,0,0,1.38,0,1,1,0,0,0,0-1.39ZM21.89,2h6.7A4.53,4.53,0,0,1,31.91,3.4l0,0L26.12,9.28,23.44,6.59a4.17,4.17,0,0,0,.94.1h2.7a1,1,0,0,0,0-1.95H24.38a2.49,2.49,0,0,1-2.49-2.48ZM14.39,25.7a1.72,1.72,0,0,1-1.22.5A1.74,1.74,0,0,1,12,25.7L9.31,23.06a1.73,1.73,0,0,1,1.22-2.95,1.72,1.72,0,0,1,1.22.5l2.64,2.64A1.73,1.73,0,0,1,14.39,25.7Zm4.33-5.05a1.73,1.73,0,0,1-2.95,1.22l-3.95-3.95a1.73,1.73,0,0,1,0-2.44,1.73,1.73,0,0,1,2.45,0l3.95,3.95A1.74,1.74,0,0,1,18.72,20.65Zm3.83-3.82A1.71,1.71,0,0,1,22,18.05a1.73,1.73,0,0,1-2.44,0l-4.91-4.91a1.74,1.74,0,0,1-.5-1.22,1.72,1.72,0,0,1,1.72-1.73,1.7,1.7,0,0,1,1.22.51L22,15.61A1.69,1.69,0,0,1,22.55,16.83Zm3.32-2.61a1.73,1.73,0,0,1-2.45,0l-4.9-4.9h0l-1-1a1.73,1.73,0,0,1,1.22-2.95A1.7,1.7,0,0,1,20,5.92l5.87,5.86a1.74,1.74,0,0,1,.5,1.22A1.72,1.72,0,0,1,25.87,14.22Z" fill="#333"/></svg>