<svg xmlns="http://www.w3.org/2000/svg" width="50" height="50" viewBox="0 0 50 50"><title>icons</title><path d="M21.48,15.65a10,10,0,0,0-4.11,2.9c.83.15,1.71.27,2.63.37A12.22,12.22,0,0,1,21.48,15.65Z" fill="#f96969"/><path d="M16.33,30c1-.21,2.1-.38,3.26-.51a21.92,21.92,0,0,1-.4-3.62H15A9.84,9.84,0,0,0,16.33,30Z" fill="#f96969"/><path d="M15,24.17h4.15a20.9,20.9,0,0,1,.41-3.62c-1.17-.13-2.27-.3-3.27-.51A9.89,9.89,0,0,0,15,24.17Z" fill="#f96969"/><path d="M32.63,18.55a10,10,0,0,0-4.11-2.9A11.89,11.89,0,0,1,30,18.92C30.92,18.82,31.81,18.7,32.63,18.55Z" fill="#f96969"/><path d="M21.26,20.7a21.21,21.21,0,0,0-.41,3.47h8.3a21.21,21.21,0,0,0-.41-3.47c-1.21.09-2.46.13-3.74.13S22.47,20.79,21.26,20.7Z" fill="#f96969"/><path d="M25,15c-1.2,0-2.48,1.53-3.3,4.06,1.06.07,2.17.11,3.3.11s2.24,0,3.3-.11C27.48,16.53,26.2,15,25,15Z" fill="#f96969"/><path d="M35,25.83H30.81a20.9,20.9,0,0,1-.41,3.62c1.17.13,2.27.3,3.27.51A9.89,9.89,0,0,0,35,25.83Z" fill="#f96969"/><path d="M28.52,34.35a10,10,0,0,0,4.11-2.9c-.82-.15-1.71-.27-2.64-.37A11.89,11.89,0,0,1,28.52,34.35Z" fill="#f96969"/><path d="M33.67,20c-1,.21-2.1.38-3.26.51a21.92,21.92,0,0,1,.4,3.62H35A9.89,9.89,0,0,0,33.67,20Z" fill="#f96969"/><path d="M25,35c1.2,0,2.48-1.53,3.3-4.06-1.07-.07-2.17-.11-3.3-.11s-2.24,0-3.3.11C22.52,33.47,23.8,35,25,35Z" fill="#f96969"/><path d="M21.48,34.35A12.22,12.22,0,0,1,20,31.08c-.92.1-1.8.22-2.63.37A10,10,0,0,0,21.48,34.35Z" fill="#f96969"/><path d="M28.74,29.3a21.21,21.21,0,0,0,.41-3.47h-8.3a21.21,21.21,0,0,0,.41,3.47c1.21-.09,2.46-.13,3.74-.13S27.53,29.21,28.74,29.3Z" fill="#f96969"/><path d="M.83,8.33H4.17V10H.83v1.67H9.17V10H5.83V8.33H9.17A.83.83,0,0,0,10,7.5V.83A.83.83,0,0,0,9.17,0H.83A.83.83,0,0,0,0,.83V7.5A.83.83,0,0,0,.83,8.33Zm.84-6.66H8.33v5H1.67Z" fill="#333"/><path d="M49.17,0H40.83A.83.83,0,0,0,40,.83V7.5a.83.83,0,0,0,.83.83h3.34V10H40.83v1.67h8.34V10H45.83V8.33h3.34A.83.83,0,0,0,50,7.5V.83A.83.83,0,0,0,49.17,0Zm-.84,6.67H41.67v-5h6.66Z" fill="#333"/><path d="M10,48.33H5.83V46.67H9.17a.84.84,0,0,0,.83-.84V39.17a.84.84,0,0,0-.83-.84H.83a.84.84,0,0,0-.83.84v6.66a.84.84,0,0,0,.83.84H4.17v1.66H0V50H10ZM1.67,40H8.33v5H1.67Z" fill="#333"/><path d="M49.17,38.33H40.83a.84.84,0,0,0-.83.84v6.66a.84.84,0,0,0,.83.84h3.34v1.66H40V50H50V48.33H45.83V46.67h3.34a.84.84,0,0,0,.83-.84V39.17A.84.84,0,0,0,49.17,38.33ZM48.33,45H41.67V40h6.66Z" fill="#333"/><path d="M13.9,10l-2.5.84a.79.79,0,0,0-.52.52L10,13.9l1.59.53.4-1.22,2.38,2.38,1.18-1.18L13.21,12l1.22-.41Z" fill="#333"/><path d="M38.6,10.88,36.1,10l-.53,1.59,1.22.4-2.38,2.38,1.18,1.18L38,13.21l.41,1.22L40,13.91l-.83-2.5A.8.8,0,0,0,38.6,10.88Z" fill="#333"/><path d="M14.41,34.41,12,36.79l-.41-1.22L10,36.1l.83,2.5a.81.81,0,0,0,.53.52l2.5.84.53-1.59L13.21,38l2.38-2.38Z" fill="#333"/><path d="M36.1,40l2.5-.84a.79.79,0,0,0,.52-.52L40,36.1l-1.59-.53L38,36.79l-2.38-2.38-1.18,1.18L36.79,38l-1.22.41Z" fill="#333"/><rect x="24.17" y="3.33" width="1.67" height="6.67" fill="#333"/><rect x="24.17" width="1.67" height="1.67" fill="#333"/><rect x="27.99" y="10" width="2.36" height="1.67" transform="translate(0.88 23.8) rotate(-45)" fill="#333"/><rect x="20" y="9.65" width="1.67" height="2.36" transform="translate(-1.56 17.9) rotate(-45)" fill="#333"/><rect x="24.17" y="40" width="1.67" height="6.67" fill="#333"/><rect x="24.17" y="48.33" width="1.67" height="1.67" fill="#333"/><rect x="28.33" y="37.99" width="1.67" height="2.36" transform="translate(-19.15 32.1) rotate(-45)" fill="#333"/><rect x="20.16" y="38.12" width="1.77" height="1.67" transform="translate(-21.38 26.29) rotate(-45)" fill="#333"/><rect x="40" y="24.17" width="6.67" height="1.67" fill="#333"/><rect x="48.33" y="24.17" width="1.67" height="1.67" fill="#333"/><rect x="37.99" y="20" width="2.36" height="1.67" transform="translate(-3.26 33.8) rotate(-45)" fill="#333"/><rect x="38.33" y="27.99" width="1.67" height="2.36" transform="translate(-9.15 36.24) rotate(-45)" fill="#333"/><rect x="3.33" y="24.17" width="6.67" height="1.67" fill="#333"/><rect y="24.17" width="1.67" height="1.67" fill="#333"/><rect x="10" y="19.66" width="1.67" height="2.36" transform="translate(-11.56 13.76) rotate(-45)" fill="#333"/><rect x="9.65" y="28.33" width="2.36" height="1.67" transform="translate(-17.45 16.2) rotate(-45)" fill="#333"/></svg>