<svg xmlns="http://www.w3.org/2000/svg" width="50" height="50" viewBox="0 0 50 50"><title>icons</title><circle cx="22.16" cy="28.01" r="14.98" fill="#f96969"/><path d="M43.12,13.15,49.57,6.7a1.46,1.46,0,0,0-1-2.5H45.61V1.46A1.47,1.47,0,0,0,44.69.11a1.45,1.45,0,0,0-1.6.34L36.84,6.9a1.44,1.44,0,0,0-.41,1v3.39a21.92,21.92,0,1,0,2.26,2.26h3.39A1.49,1.49,0,0,0,43.12,13.15ZM35.53,41.5a19.1,19.1,0,1,1-1.08-28l-2.08,2.08a16.11,16.11,0,1,0,2.07,2.07l2.08-2.08A19.14,19.14,0,0,1,35.53,41.5ZM22.06,23.55A4.36,4.36,0,1,0,26,26l2.14-2.14a7.31,7.31,0,1,1-2.07-2.07L24,24A4.4,4.4,0,0,0,22.06,23.55Zm1.46,4.39a1.46,1.46,0,1,1-1.46-1.46A1.46,1.46,0,0,1,23.52,27.94Zm4.68-8.21a10.25,10.25,0,1,0,2.07,2.07l2.09-2.09a13.17,13.17,0,1,1-2.07-2.07Zm11.16-9.09V8.51l3.32-3.43v.58a1.46,1.46,0,0,0,1.46,1.47H45l-3.52,3.51Z" fill="#333"/></svg>