<svg xmlns="http://www.w3.org/2000/svg" width="50" height="50.86" viewBox="0 0 50 50.86"><title>icons</title><path d="M42.24,36.21V34.48H40.52A1.72,1.72,0,0,1,42.24,36.21Z" fill="#a1d51c"/><path d="M5.17,32.76H19a1.72,1.72,0,0,1,1.72,1.72V44.83H3.45V34.48A1.72,1.72,0,0,1,5.17,32.76Z" fill="#f96969"/><path d="M.86,44.83H23.28v.86a2.59,2.59,0,0,1-2.59,2.59H3.45A2.59,2.59,0,0,1,.86,45.69v-.86Z" fill="#f96969"/><rect x="32.76" y="34.48" width="9.48" height="13.79" rx="1.72" fill="#f96969"/><path d="M34.1,34.53a1.21,1.21,0,0,0-.32.11l.7.7v-.86h-.36Z" fill="#4891d3"/><path d="M31.09,6.9A4.9,4.9,0,0,0,31,6l1.73-1L31,2,29.31,3A5.26,5.26,0,0,0,27.67,2V0H24.22V2A5.33,5.33,0,0,0,22.59,3L20.87,2l-1.72,3,1.72,1a4.58,4.58,0,0,0,0,1.88l-1.72,1,1.72,3,1.72-1a5.33,5.33,0,0,0,1.63.94v2h3.45v-2a5.47,5.47,0,0,0,1.64-.94l1.72,1,1.73-3L31,7.84A5,5,0,0,0,31.09,6.9ZM25.92,8.62A1.73,1.73,0,1,1,27.65,6.9,1.72,1.72,0,0,1,25.92,8.62Z" fill="#f96969"/><path d="M30.17,33.62H21.41A2.6,2.6,0,0,0,19,31.9H17.24V22.41a.87.87,0,0,1,.86-.86H29.82L38,29.76a.86.86,0,0,0,1.21-1.22l-7-7h8.27a.87.87,0,0,1,.86.86v8.26a.86.86,0,0,0,1.72,0V22.41a2.58,2.58,0,0,0-2.58-2.58H18.1a2.59,2.59,0,0,0-2.58,2.58V31.9H5.17a2.57,2.57,0,0,0-2.58,2.58V44H.86a.86.86,0,0,0-.86.86v.86a3.45,3.45,0,0,0,3.45,3.45H20.69a3.46,3.46,0,0,0,3.45-3.45v-.86a.86.86,0,0,0-.86-.86H21.55V38.79H25l-1.55,2.07a.86.86,0,0,0,.17,1.21.87.87,0,0,0,.52.17h5.17a.86.86,0,1,0,0-1.72H25.86l1.3-1.73h2.15a.86.86,0,1,0,0-1.72H21.55V35.34h8.62a.86.86,0,0,0,0-1.72ZM20.69,47.41H3.45a1.73,1.73,0,0,1-1.73-1.72H22.41A1.72,1.72,0,0,1,20.69,47.41ZM4.31,44V34.48a.87.87,0,0,1,.86-.86h6.55l4.91,4.92a.87.87,0,0,0,1.22,0h0a.87.87,0,0,0,0-1.22h0l-3.7-3.7H19a.87.87,0,0,1,.86.86V44Z" fill="#333"/><path d="M29.31,44H26.72a.86.86,0,0,0,0,1.72h2.59a.86.86,0,1,0,0-1.72Z" fill="#333"/><path d="M48.28,39.66H43.1V36.21a2.58,2.58,0,0,0-2.58-2.59h-6a2.58,2.58,0,0,0-2.58,2.59V46.55a2.58,2.58,0,0,0,2.58,2.59h6a2.55,2.55,0,0,0,.86-.15v1a.86.86,0,0,0,1.72,0V41.73l5.18,5.18V50A.86.86,0,0,0,50,50V41.38A1.72,1.72,0,0,0,48.28,39.66Zm-6.9-3.45V44H33.62V36.21a.86.86,0,0,1,.1-.41l4.46,4.47a.86.86,0,0,0,1.22,0h0a.87.87,0,0,0,0-1.22h0l-3.71-3.7h4.82A.87.87,0,0,1,41.38,36.21Zm-.86,11.2h-6a.86.86,0,0,1-.86-.86v-.86h7.76v.86A.86.86,0,0,1,40.52,47.41Zm4.66-6h3.1v3.09Z" fill="#333"/><path d="M9.34,17.39A.86.86,0,0,0,10,15.92h0a4.31,4.31,0,0,0-6.1,0h0a.89.89,0,0,0,0,1.23.87.87,0,0,0,1.23,0,2.65,2.65,0,0,1,3.65,0A.9.9,0,0,0,9.34,17.39Z" fill="#333"/><path d="M2.63,14.7a6,6,0,0,1,8.53,0h0a.86.86,0,0,0,1.22-1.22,7.77,7.77,0,0,0-11,0A.87.87,0,0,0,2.63,14.7Z" fill="#333"/><circle cx="6.9" cy="18.97" r="0.86" fill="#333"/><path d="M6.9,27.59a.87.87,0,0,0,.86-.87V22.41a.87.87,0,0,0-1.73,0v4.31A.87.87,0,0,0,6.9,27.59Z" fill="#333"/><path d="M35.34,7.76H43.1a2.59,2.59,0,0,1,2.59,2.58V36.21a.86.86,0,0,0,1.72,0V10.34A4.31,4.31,0,0,0,43.1,6H35.34a.87.87,0,0,0,0,1.73Z" fill="#333"/><path d="M35,12.84l.77.38a.86.86,0,0,1,.48.78v3.24a.86.86,0,1,0,1.72,0V14a2.59,2.59,0,0,0-1.43-2.32l-.77-.38a.86.86,0,0,0-.89,1.48Z" fill="#333"/><path d="M6.9,8.62a.87.87,0,0,0,.86-.86V5.17a.86.86,0,0,1,.86-.86h6a.86.86,0,0,0,0-1.72h-6A2.58,2.58,0,0,0,6,5.17V7.76A.87.87,0,0,0,6.9,8.62Z" fill="#333"/></svg>