<svg xmlns="http://www.w3.org/2000/svg" width="50" height="50" viewBox="0 0 50 50"><title>icons</title><path d="M21.53,23.56h7.12a3,3,0,0,1,3,3v6.79a0,0,0,0,1,0,0H18.56a0,0,0,0,1,0,0V26.53A3,3,0,0,1,21.53,23.56Z" fill="#f96969"/><ellipse cx="25.18" cy="17.62" rx="4.97" ry="5.35" fill="#f96969"/><path d="M.83,0A.83.83,0,0,0,0,.83V10H1.67V1.67H10V0Z" fill="#333"/><path d="M49.17,0H40V1.67h8.33V10H50V.83A.83.83,0,0,0,49.17,0Z" fill="#333"/><path d="M1.67,48.33V40H0v9.17A.83.83,0,0,0,.83,50H10V48.33Z" fill="#333"/><path d="M48.33,40v8.33H40V50h9.17a.83.83,0,0,0,.83-.83V40Z" fill="#333"/><path d="M48.31,24.17A23.35,23.35,0,0,0,25.83,1.69V0H24.17V1.69A23.35,23.35,0,0,0,1.69,24.17H0v1.66H1.69A23.35,23.35,0,0,0,24.17,48.31V50h1.66V48.31A23.35,23.35,0,0,0,48.31,25.83H50V24.17ZM7.32,37.5a22.12,22.12,0,0,1-1.49-2.42V31.92a2.75,2.75,0,0,1,2.75-2.75h1.86l-1.21,3a.83.83,0,0,0,.18.9l1.67,1.67a.85.85,0,0,0,1.18,0l1.66-1.67a.84.84,0,0,0,.19-.9l-1.21-3h1.85a2.75,2.75,0,0,1,2.75,2.75V37.5ZM12.82,22l3,1.79a5.15,5.15,0,0,1-4.12,3.72,5.25,5.25,0,0,1-4-3.38C9,24,11.62,23.57,12.82,22Zm-5.27.46c.22-2.79,1.53-4.12,4.12-4.12a3.65,3.65,0,0,1,4,3.46l-2.78-1.67a.83.83,0,0,0-1.14.28.65.65,0,0,0-.08.17C11.29,21.83,9,22.31,7.55,22.45Zm4.81,9.85-.69.69L11,32.3l.69-1.72ZM25.83,46.65V45H24.17v1.65A21.61,21.61,0,0,1,8.63,39.17h9.7a.85.85,0,0,0,.84-.84V34.17H30.83v4.16a.85.85,0,0,0,.84.84h9.7A21.61,21.61,0,0,1,25.83,46.65ZM26.15,17l3,1.79A5.17,5.17,0,0,1,25,22.5,5.27,5.27,0,0,1,21,19.12C22.38,19,25,18.57,26.15,17Zm-5.27.46c.22-2.79,1.54-4.12,4.12-4.12a3.64,3.64,0,0,1,4,3.46l-2.78-1.67a.83.83,0,0,0-1.14.28,1.3,1.3,0,0,0-.08.17C24.62,16.83,22.35,17.31,20.88,17.45Zm4.81,9.85L25,28l-.69-.69L25,25.58Zm-1.92-3.13-1.21,3a.84.84,0,0,0,.19.9l1.66,1.67a.85.85,0,0,0,1.18,0l1.67-1.67a.83.83,0,0,0,.18-.9l-1.21-3h1.85a2.75,2.75,0,0,1,2.75,2.75V32.5H19.17V26.92a2.75,2.75,0,0,1,2.75-2.75Zm20.4,10.91a22.12,22.12,0,0,1-1.49,2.42H32.5V31.92a2.75,2.75,0,0,1,2.75-2.75H37.1l-1.21,3a.84.84,0,0,0,.19.9l1.66,1.67a.85.85,0,0,0,1.18,0l1.67-1.67a.84.84,0,0,0,.19-.9l-1.22-3h1.86a2.75,2.75,0,0,1,2.75,2.75ZM39.48,22l3,1.79a5.16,5.16,0,0,1-4.13,3.72,5.27,5.27,0,0,1-4-3.38C35.71,24,38.29,23.57,39.48,22Zm-5.27.46c.23-2.79,1.54-4.12,4.12-4.12a3.64,3.64,0,0,1,4,3.46L39.6,20.12a.84.84,0,0,0-1.15.28,1.22,1.22,0,0,0-.07.17C38,21.83,35.68,22.31,34.21,22.45ZM39,32.3l-.69.69-.69-.69.69-1.72Zm7.63-6.47a21.54,21.54,0,0,1-.89,5.35A4.38,4.38,0,0,0,42,27.54a5.79,5.79,0,0,0,2.2-4.21c0-5.51-3.18-6.66-5.84-6.66s-5.83,1.15-5.83,6.66a5.79,5.79,0,0,0,2.2,4.21,4.34,4.34,0,0,0-1.9.7l-.3.23V26.92a4.4,4.4,0,0,0-3.86-4.38,5.76,5.76,0,0,0,2.19-4.21c0-5.51-3.17-6.66-5.83-6.66s-5.83,1.15-5.83,6.66a5.74,5.74,0,0,0,2.19,4.21,4.41,4.41,0,0,0-3.86,4.38v1.55a3.4,3.4,0,0,0-.3-.23,4.34,4.34,0,0,0-1.9-.7,5.82,5.82,0,0,0,2.2-4.21c0-5.51-3.17-6.66-5.83-6.66s-5.84,1.15-5.84,6.66A5.79,5.79,0,0,0,8,27.54a4.38,4.38,0,0,0-3.79,3.64,21.54,21.54,0,0,1-.89-5.35H5V24.17H3.35A21.7,21.7,0,0,1,24.17,3.35V5h1.66V3.35A21.7,21.7,0,0,1,46.65,24.17H45v1.66Z" fill="#333"/></svg>