<svg xmlns="http://www.w3.org/2000/svg" width="50" height="50" viewBox="0 0 50 50"><title>icons</title><path d="M44.35,12.9H40a4.83,4.83,0,0,0-9.11,0H26.61a4.26,4.26,0,0,0-.8.08V7.26a4,4,0,0,0-4-4H17.46a4.83,4.83,0,0,0-9.11,0H4a4,4,0,0,0-4,4v9.68a4,4,0,0,0,4,4h8.23V19.35H4a2.42,2.42,0,0,1-2.42-2.41V7.26A2.42,2.42,0,0,1,4,4.84h4a4.82,4.82,0,0,0,1.86,3.8,8.08,8.08,0,0,0-5.08,7.49v1.61H21V16.13a8.08,8.08,0,0,0-5.09-7.49,4.82,4.82,0,0,0,1.86-3.8h4a2.42,2.42,0,0,1,2.42,2.42v6.47a4,4,0,0,0-1.61,3.21v.46h1.61v-.46a2.42,2.42,0,0,1,2.42-2.42h4a4.82,4.82,0,0,0,1.85,3.8,8,8,0,0,0-3.7,3l1.33.9a6.51,6.51,0,0,1,3.49-2.56l-.49,6.17H31.34v1.61H43.55V25.81a8.07,8.07,0,0,0-5.09-7.49,4.83,4.83,0,0,0,1.86-3.8h4a2.42,2.42,0,0,1,2.42,2.42v9.67A2.42,2.42,0,0,1,44.35,29H42.5l-3.79,2.53V29H31.34v1.62H37.1v3.92L43,30.65h1.36a4,4,0,0,0,4-4V16.94a4,4,0,0,0-4-4ZM13.13,9.69l.51,6.44H12.16l.52-6.44h.45ZM11,10l-.49,6.18H6.45A6.48,6.48,0,0,1,11,10Zm8.31,6.18H15.26L14.77,10A6.47,6.47,0,0,1,19.35,16.13ZM12.9,8.06a3.23,3.23,0,1,1,3.23-3.22A3.22,3.22,0,0,1,12.9,8.06ZM35.26,19.37l.22,0,.23,0,.51,6.44H34.74Zm6.68,6.44h-4.1l-.49-6.18A6.47,6.47,0,0,1,41.94,25.81Zm-6.46-8.07a3.23,3.23,0,1,1,3.23-3.22A3.22,3.22,0,0,1,35.48,17.74Z" fill="#333"/><path d="M43.55,16.13h1.61v1.61H43.55Z" fill="#333"/><path d="M43.55,19.35h1.61V21H43.55Z" fill="#333"/><path d="M3.23,6.45H4.84V8.06H3.23Z" fill="#333"/><path d="M3.23,9.68H4.84v1.61H3.23Z" fill="#333"/><path d="M14.06,37.89l-1.14-1.14-1.63,1.63L10,37.1l1.63-1.63L10.5,34.33,8.87,36l-.81-.81-7,7a3.66,3.66,0,1,0,5.17,5.18l7-7-.81-.8Zm-9,8.29a2.05,2.05,0,0,1-3.49-1.45,2.07,2.07,0,0,1,.6-1.45l5.85-5.85L11,40.32Z" fill="#333"/><path d="M20.16,40.32a12.1,12.1,0,1,1,12.1-12.09A12.11,12.11,0,0,1,20.16,40.32Zm0-20.16a8.07,8.07,0,1,0,8.07,8.07A8.07,8.07,0,0,0,20.16,20.16Z" fill="#f96969"/><path d="M20.16,37.1A8.88,8.88,0,1,1,29,28.23,8.88,8.88,0,0,1,20.16,37.1Zm0-16.13a7.26,7.26,0,1,0,7.26,7.26A7.27,7.27,0,0,0,20.16,21Z" fill="#333"/><path d="M47.58,35.48H33.06a2.42,2.42,0,0,0-2.41,2.42v9.68A2.42,2.42,0,0,0,33.06,50H47.58A2.43,2.43,0,0,0,50,47.58V37.9A2.43,2.43,0,0,0,47.58,35.48Zm.81,12.1a.81.81,0,0,1-.81.81H33.06a.8.8,0,0,1-.8-.81V37.9a.8.8,0,0,1,.8-.8H47.58a.81.81,0,0,1,.81.8Z" fill="#333"/><path d="M45.16,40.32H43.55v4.84H41.94V41.94H40.32v3.22H38.71V43.55H37.1v1.61H35.48V38.71H33.87v8.06h12.9V45.16H45.16Z" fill="#333"/></svg>