<svg xmlns="http://www.w3.org/2000/svg" width="50" height="45.31" viewBox="0 0 50 45.31"><title>icons</title><path d="M.82,19.59V28.1H49.15V19.59Zm6.34,5.64c0,.14-.18.22-.35.22s-.35-.08-.35-.22V23.94A.49.49,0,0,0,6,23.46a.45.45,0,0,0-.44.48v1.29h0c0,.11-.16.22-.35.22s-.35-.11-.35-.22V21.59c0-.13.14-.21.35-.21s.35.08.35.21v1.67a.73.73,0,0,1,.68-.42,1,1,0,0,1,.93,1.1ZM9,24.86h.22a.3.3,0,0,1,0,.59H9c-.65,0-1-.27-1-.88V22c0-.13.19-.22.35-.22s.35.09.35.22v.93h.64c.11,0,.18.13.18.25s-.07.26-.18.26H8.7v1.18h0C8.7,24.78,8.78,24.86,9,24.86Zm2.21,0h.21a.3.3,0,1,1,0,.59h-.21c-.65,0-1-.27-1-.88V22c0-.13.18-.22.34-.22s.36.09.36.22v.93h.64c.11,0,.17.13.17.25s-.06.26-.17.26h-.64v1.18C10.91,24.78,11,24.86,11.21,24.86Zm3.57-.47a1.07,1.07,0,0,1-.95,1.11.83.83,0,0,1-.71-.43v1.36c0,.11-.16.22-.36.22s-.34-.11-.34-.22V23.09c0-.13.15-.21.33-.21s.33.08.33.21v.17a.83.83,0,0,1,.73-.42,1,1,0,0,1,1,1.1Zm1.61,1.11c-.55,0-1-.23-1-.47s.1-.31.23-.31.28.25.73.25.4-.13.4-.24c0-.47-1.29-.17-1.29-1.08,0-.38.25-.81,1-.81.44,0,.87.16.87.36s-.1.33-.26.33-.3-.15-.59-.15-.38.13-.38.24c0,.39,1.3.12,1.3,1.09C17.39,25.19,17,25.5,16.39,25.5Zm2.07,0a.37.37,0,0,1-.37-.37.36.36,0,0,1,.37-.36.36.36,0,0,1,.36.36A.37.37,0,0,1,18.46,25.48Zm0-1.58a.37.37,0,0,1,0-.74.37.37,0,0,1,0,.74Zm1.28,1.77a.25.25,0,0,1-.26-.24.24.24,0,0,1,0-.09l1.95-3.95a.21.21,0,0,1,.19-.12.27.27,0,0,1,.28.25.16.16,0,0,1,0,.09L20,25.55A.26.26,0,0,1,19.74,25.67Zm3.79-4.06-1.94,3.94a.26.26,0,0,1-.48-.12.14.14,0,0,1,0-.09l1.95-3.95a.2.2,0,0,1,.19-.12.26.26,0,0,1,.27.25A.15.15,0,0,1,23.53,21.61Zm4,1.63-.84,2.14c0,.1-.15.13-.27.13s-.26,0-.29-.13L25.7,24.2l-.41,1.18c0,.09-.16.13-.3.13a.27.27,0,0,1-.27-.13l-.83-2.14a.26.26,0,0,1,0-.1c0-.17.27-.29.46-.29a.21.21,0,0,1,.2.11l.54,1.54.4-1.34c0-.12.13-.14.24-.14s.2,0,.24.14l.4,1.35L26.89,23a.2.2,0,0,1,.2-.11c.17,0,.45.12.45.29A.36.36,0,0,1,27.52,23.24Zm4.08,0-.84,2.14c0,.1-.15.13-.27.13s-.26,0-.29-.13l-.42-1.18-.41,1.18c0,.09-.16.13-.3.13a.27.27,0,0,1-.27-.13L28,23.24a.26.26,0,0,1,0-.1c0-.17.27-.29.46-.29a.21.21,0,0,1,.2.11l.54,1.54.4-1.34c0-.12.13-.14.24-.14s.2,0,.24.14l.4,1.35L31,23a.2.2,0,0,1,.2-.11c.17,0,.45.12.45.29A.36.36,0,0,1,31.6,23.24Zm4.08,0-.84,2.14c0,.1-.15.13-.27.13s-.26,0-.29-.13l-.42-1.18-.41,1.18c0,.09-.16.13-.3.13a.27.27,0,0,1-.27-.13l-.83-2.14a.26.26,0,0,1,0-.1c0-.17.27-.29.46-.29a.21.21,0,0,1,.2.11l.54,1.54.4-1.34c0-.12.13-.14.24-.14a.22.22,0,0,1,.24.14l.4,1.35L35.05,23a.2.2,0,0,1,.2-.11c.17,0,.45.12.45.29A.36.36,0,0,1,35.68,23.24Zm10.9.58-.71.7.17,1a.57.57,0,0,1-.22.54.55.55,0,0,1-.58,0l-.88-.46-.88.46a.58.58,0,0,1-.26.06.53.53,0,0,1-.32-.1.55.55,0,0,1-.22-.54l.17-1-.72-.7a.56.56,0,0,1-.14-.56.57.57,0,0,1,.45-.38l1-.14.45-.89a.54.54,0,0,1,.49-.31h0a.54.54,0,0,1,.49.31l.44.89,1,.14a.54.54,0,0,1,.44.38A.52.52,0,0,1,46.58,23.82Z" fill="#f96969"/><path d="M44.66,23.18l-.3-.6-.3.6a.57.57,0,0,1-.41.3l-.67.1.48.47a.56.56,0,0,1,.16.49l-.11.66.59-.31a.48.48,0,0,1,.26-.07.45.45,0,0,1,.25.07l.6.31-.11-.66a.58.58,0,0,1,.15-.49l.49-.47-.67-.1A.53.53,0,0,1,44.66,23.18Z" fill="#f96969"/><path d="M13.59,23.46a.47.47,0,0,0-.47.48v.55a.53.53,0,0,0,.48.4.52.52,0,0,0,.48-.5v-.45A.5.5,0,0,0,13.59,23.46Z" fill="#f96969"/><path d="M48.18,18.6h-.89A22.67,22.67,0,0,0,25,0,22.67,22.67,0,0,0,2.69,18.7H1.82A1.81,1.81,0,0,0,0,20.51v6.6a1.82,1.82,0,0,0,1.82,1.82H3.23a22.57,22.57,0,0,0,7,10.91.73.73,0,0,0,1-.07.74.74,0,0,0-.08-1,21.44,21.44,0,0,1-2.42-2.44,28.81,28.81,0,0,1,3.42-1.18,24.51,24.51,0,0,0,1.85,2.79A28.54,28.54,0,0,0,19,43a21.24,21.24,0,0,1-4.3-1.79.72.72,0,0,0-1,.28.73.73,0,0,0,.28,1A22.68,22.68,0,0,0,46.77,29h1.41A1.82,1.82,0,0,0,50,27.14V20.41A1.81,1.81,0,0,0,48.18,18.6Zm-2.38,0H40.7q-.09-.57-.21-1.14a25.8,25.8,0,0,0-2-6l.4-.11a27.54,27.54,0,0,0,3.29-1.13A21,21,0,0,1,45.8,18.6Zm-6.57.1H31.65c0-.37,0-.74-.08-1.11-.15-1.64-.36-3.23-.64-4.74a46.72,46.72,0,0,0,6.08-1,24.7,24.7,0,0,1,2.05,5.94C39.12,18.07,39.18,18.38,39.23,18.7Zm.75-11c.43.43.84.88,1.23,1.34-1,.39-2,.69-2.75.92l-.69.19A24.58,24.58,0,0,0,36.24,7.7a25.29,25.29,0,0,0-5.17-5.36A21.07,21.07,0,0,1,40,7.67ZM27.26,1.59a24,24,0,0,1,7.79,7c.44.63.86,1.27,1.24,1.94a47.75,47.75,0,0,1-5.64.91A30.25,30.25,0,0,0,26.9,1.55ZM25,1.47h.05a26.36,26.36,0,0,1,4.13,10.06c-1.57.11-3.17.16-4.81.13-1.12,0-2.31-.05-3.55-.12A26.19,26.19,0,0,1,25,1.47Zm-1.9.08a30.12,30.12,0,0,0-3.75,9.88,43.58,43.58,0,0,1-5.69-.86c.4-.69.83-1.37,1.29-2a24,24,0,0,1,7.79-7Zm-4,11.33q-.4,2.26-.63,4.71c0,.37-.06.74-.08,1.11H10.77c.05-.32.11-.63.17-.94a24.37,24.37,0,0,1,2-5.85A44,44,0,0,0,19.06,12.88ZM10,7.67a21.07,21.07,0,0,1,8.91-5.33A25.29,25.29,0,0,0,13.76,7.7a24.94,24.94,0,0,0-1.57,2.5A28.66,28.66,0,0,1,8.78,9C9.17,8.55,9.58,8.11,10,7.67ZM7.85,10.21a28,28,0,0,0,3.65,1.31,26.27,26.27,0,0,0-2,5.94c-.09.41-.16.82-.22,1.24H4.18A20.92,20.92,0,0,1,7.85,10.21Zm-6,17.25a.35.35,0,0,1-.35-.35v-6.6a.35.35,0,0,1,.35-.35H23a.74.74,0,0,0,0-1.47H19.82c0-.32,0-.64.07-1,.15-1.64.36-3.22.64-4.73,1.34.08,2.62.12,3.82.14h.86c1.45,0,2.87-.06,4.26-.16.28,1.51.49,3.1.64,4.74,0,.33.05.65.07,1H27.56a.74.74,0,1,0,0,1.47H38.93v7.3Zm36.93,1.46A23.06,23.06,0,0,1,37,33.48a48.33,48.33,0,0,0-6.07-1c.21-1.15.38-2.33.52-3.53h7.29Zm-8.77,0c-.13,1.17-.3,2.31-.51,3.41-1.67-.13-3.38-.18-5.12-.15-1.2,0-2.49,0-3.83.14-.2-1.1-.37-2.23-.5-3.4ZM7.85,35.09a21.27,21.27,0,0,1-3.09-6.17h5a25.22,25.22,0,0,0,1.77,4.86A31.22,31.22,0,0,0,7.85,35.09Zm3.4-6.17h7.29c.14,1.2.31,2.38.52,3.51a43.73,43.73,0,0,0-6.11,1A23.09,23.09,0,0,1,11.25,28.92Zm11.48,14.8A25.58,25.58,0,0,1,15.21,37a24.37,24.37,0,0,1-1.53-2.27,41.53,41.53,0,0,1,5.66-.86,38.82,38.82,0,0,0,1,3.8,29.36,29.36,0,0,0,2.74,6.08Zm2.27.12H25a23.21,23.21,0,0,1-3.18-6.62c-.36-1.09-.68-2.24-.95-3.45,1.24-.08,2.43-.11,3.55-.13,1.64,0,3.24,0,4.81.14-.27,1.2-.59,2.36-.95,3.44a23.21,23.21,0,0,1-3.18,6.62Zm1.89-.08a29.12,29.12,0,0,0,2.74-6.08,39,39,0,0,0,1-3.77,45.14,45.14,0,0,1,5.62.91A24,24,0,0,1,34.79,37a25.21,25.21,0,0,1-7.53,6.71ZM40,37.64A21,21,0,0,1,31,43a28,28,0,0,0,5-5.09,22.85,22.85,0,0,0,1.8-2.72l.71.2a26.61,26.61,0,0,1,2.75.91C40.82,36.76,40.41,37.2,40,37.64Zm2.17-2.54A27.54,27.54,0,0,0,38.86,34l-.4-.11a25.26,25.26,0,0,0,1.8-4.9h5A21,21,0,0,1,42.15,35.1Zm6.38-8a.35.35,0,0,1-.35.35H40.4v-7.3h7.78a.35.35,0,0,1,.35.35Z" fill="#333"/></svg>