<?xml version="1.0" encoding="utf-8"?>
<!-- Generator: Adobe Illustrator 23.1.0, SVG Export Plug-In . SVG Version: 6.00 Build 0)  -->
<svg version="1.1" id="Layer_1" xmlns="http://www.w3.org/2000/svg" xmlns:xlink="http://www.w3.org/1999/xlink" x="0px" y="0px"
	 viewBox="0 0 100 100" style="enable-background:new 0 0 100 100;" xml:space="preserve">
<style type="text/css">
	.st0{fill:#FFFFFF;}
	.st1{fill:#005788;}
	.st2{fill:#BB842C;}
	.st3{fill:#005889;}
</style>
<g>
	<circle class="st0" cx="49.97" cy="50.01" r="49.95"/>
	<g>
		<g>
			<path class="st1" d="M9.63,79.55l1.49-1.2c-6.38-8.14-9.06-17.19-9.06-28.32C2.06,23.6,23.57,2.1,50,2.1
				c26.43,0,47.94,21.51,47.94,47.94c0,11.12-2.81,20.51-9.19,28.65l1.62,0.86c2.28-3.11,4.19-6.47,5.7-10.05
				c2.61-6.16,3.93-12.71,3.93-19.46s-1.32-13.3-3.93-19.46c-2.52-5.95-6.12-11.3-10.71-15.89s-9.94-8.2-15.89-10.71
				C63.3,1.36,56.75,0.04,50,0.04S36.7,1.36,30.54,3.97c-5.95,2.52-11.3,6.12-15.89,10.71s-8.2,9.94-10.71,15.89
				C1.32,36.74,0,43.29,0,50.04s1.32,13.3,3.93,19.46C5.44,73.08,7.35,76.44,9.63,79.55z"/>
		</g>
	</g>
	<g>
		<g>
			<path class="st1" d="M84.87,70.02c-6.71,12.74-19.7,20.81-35.07,20.81s-28.55-8.32-35.26-21.06l-1.72,0.97
				c2.02,4.07,4.15,6.41,7.4,9.65c3.84,3.84,8.32,6.86,13.3,8.97c5.16,2.18,10.64,3.29,16.29,3.29s11.13-1.11,16.29-3.29
				c4.98-2.11,9.46-5.12,13.3-8.97c3.24-3.24,5.12-5.39,7.14-9.45L84.87,70.02z"/>
		</g>
	</g>
	<g>
		<g>
			<path class="st2" d="M9.18,58.97c-0.17,0.31-2.39,1.62-3.86-3.94C5.33,55.03,10.3,56.96,9.18,58.97z"/>
		</g>
		<g>
			<path class="st2" d="M10.78,58.5c0.3,0.19,2.88,0.3,1.54-5.29C12.32,53.21,8.85,57.25,10.78,58.5z"/>
		</g>
	</g>
	<g>
		<g>
			<path class="st2" d="M10.55,64.61c-0.15,0.36-2.45,2.05-4.67-3.91C5.88,60.7,11.55,62.27,10.55,64.61z"/>
		</g>
		<g>
			<path class="st2" d="M12.26,63.91c0.35,0.18,3.2,0.01,1.11-5.99C13.37,57.92,10,62.75,12.26,63.91z"/>
		</g>
	</g>
	<g>
		<g>
			<path class="st2" d="M12.29,69.47c-0.14,0.4-2.53,2.4-5.37-3.93C6.93,65.54,13.22,66.85,12.29,69.47z"/>
		</g>
		<g>
			<path class="st2" d="M14.1,68.59c0.39,0.17,3.48-0.21,0.79-6.6C14.89,61.98,11.56,67.48,14.1,68.59z"/>
		</g>
	</g>
	<g>
		<g>
			<path class="st2" d="M87.19,69.53c0.14,0.4,2.53,2.4,5.37-3.93C92.55,65.6,86.26,66.92,87.19,69.53z"/>
		</g>
		<g>
			<path class="st2" d="M85.37,68.65c-0.39,0.17-3.48-0.21-0.79-6.6C84.59,62.05,87.92,67.54,85.37,68.65z"/>
		</g>
	</g>
	<g>
		<g>
			<path class="st2" d="M8.44,53.8c-0.2,0.26-2.45,1.15-2.99-4.21C5.45,49.59,9.77,52.1,8.44,53.8z"/>
		</g>
		<g>
			<path class="st2" d="M9.99,53.6c0.25,0.22,2.62,0.7,2.2-4.67C12.19,48.92,8.39,52.16,9.99,53.6z"/>
		</g>
	</g>
	<g>
		<g>
			<path class="st2" d="M8.38,49.36c-0.21,0.2-2.29,0.67-2.04-4.07C6.34,45.3,9.76,48.06,8.38,49.36z"/>
		</g>
		<g>
			<path class="st2" d="M9.76,49.39c0.18,0.22,2.18,0.96,2.54-3.77C12.3,45.62,8.56,47.93,9.76,49.39z"/>
		</g>
	</g>
	<g>
		<path class="st2" d="M12.56,35.05c0.16,0.18,1.85,0.7,1.93-3.23C14.49,31.82,11.5,33.89,12.56,35.05z"/>
	</g>
	<g>
		<g>
			<path class="st2" d="M9.14,45.29c-0.24,0.18-2.42,0.39-1.55-4.42C7.6,40.87,10.72,44.14,9.14,45.29z"/>
		</g>
		<g>
			<path class="st2" d="M10.54,45.5c0.16,0.25,2.1,1.27,3.09-3.52C13.63,41.98,9.51,43.84,10.54,45.5z"/>
		</g>
	</g>
	<g>
		<g>
			<path class="st2" d="M9.97,41.38c-0.24,0.13-2.2,0.05-0.84-4.12C9.14,37.26,11.52,40.55,9.97,41.38z"/>
		</g>
		<g>
			<path class="st2" d="M11.2,41.73c0.11,0.24,1.72,1.38,3.18-2.75C14.37,38.98,10.48,40.14,11.2,41.73z"/>
		</g>
	</g>
	<g>
		<g>
			<path class="st2" d="M11.16,37.51c-0.24,0.08-2.06-0.35-0.05-3.99C11.11,33.52,12.75,37.01,11.16,37.51z"/>
		</g>
		<g>
			<path class="st2" d="M12.23,38.06c0.06,0.25,1.35,1.59,3.45-2C15.68,36.06,11.85,36.44,12.23,38.06z"/>
		</g>
	</g>
	<g>
		<path class="st3" d="M15.09,24.11l4.79-5.24c0.09,0.46,0.17,0.81,0.24,1.04c0.08,0.23,0.23,0.58,0.45,1.04l0.06,0.13
			c-0.66-0.2-1.16-0.25-1.49-0.15c-0.33,0.09-0.73,0.4-1.2,0.91l-0.26,0.29l-0.45,0.49l-0.18,0.18l2.36,2.16l0.28-0.31l-2.09-1.9
			l0.13-0.15c0.18-0.22,0.38-0.44,0.59-0.68c0.63-0.69,1.2-0.95,1.71-0.8c-0.31,0.02-0.58,0.1-0.81,0.25
			c-0.23,0.14-0.53,0.42-0.9,0.82c-0.13,0.14-0.29,0.33-0.47,0.56l1.95,1.78l0.7-0.76l-0.12-1.59l2.12,1.93l-1.61,0.08l-1.06,1.16
			l2.55,2.32l1.25-0.05l-2.26,2.48l0.09-1.42l-2.17-1.98c-0.24,0.26-0.35,0.58-0.33,0.95l-0.19,0c-0.04-0.39,0.09-0.75,0.39-1.07
			l-0.24-0.22c-0.07,0.06-0.12,0.11-0.15,0.14c-0.29,0.31-0.41,0.7-0.36,1.16l-0.11-0.04c-0.3-0.55-0.23-1.1,0.2-1.65l-2.13-1.95
			L15.09,24.11z M20.54,18.76c0.12,0.99,0.36,1.77,0.72,2.32l-0.17,0.04c-0.41-0.61-0.65-1.39-0.72-2.35L20.54,18.76z M21.61,24.26
			l-0.95,1.04l2.16,1.97l1.91,0.12l-2.67,2.92l-0.25,0l2.53-2.77l-1.57-0.09l-2.36-2.15l0.93-1.01L21.61,24.26z M20.91,21.97
			l2.18,1.99l-0.2,0.06l-2.18-1.99L20.91,21.97z"/>
		<path class="st3" d="M29.79,11.95l-0.03,0.17c-0.1,0.73-0.07,1.48,0.08,2.25c-0.09-0.07-0.16-0.11-0.21-0.14
			c-0.5-0.34-0.91-0.5-1.24-0.48c-0.33,0.01-0.81,0.21-1.44,0.6c-0.29,0.18-0.64,0.4-1.03,0.67l1.64,2.68l0.37-0.23l-1.45-2.37
			c0.28-0.21,0.55-0.39,0.82-0.56c0.49-0.3,0.89-0.47,1.19-0.51c0.3-0.04,0.63,0.04,1,0.23c-0.08-0.01-0.13-0.01-0.17-0.02
			c-0.47-0.06-0.79-0.06-0.95-0.03c-0.17,0.04-0.46,0.18-0.87,0.44c-0.12,0.08-0.34,0.22-0.65,0.43l-0.12,0.08l1.36,2.22l1.07-0.66
			l0.12-1.49l1.54,2.51l-1.35-0.51l-1.59,0.97l2,3.27l0.37-0.23l-1.84-3l1.27-0.77l0.24,0.06l-1.27,0.78l1.74,2.85
			c0.79-0.49,1.32-0.89,1.59-1.2c0.27-0.32,0.39-0.7,0.38-1.15l-0.02-0.72c0-0.03-0.01-0.09-0.01-0.17c0.36,0.37,0.7,0.63,1,0.8
			c0.31,0.16,0.74,0.31,1.29,0.44l-6.54,4l0.47-1.22l-1.59-2.6c-0.3,0.24-0.54,0.52-0.7,0.85l-0.16-0.07
			c0.13-0.32,0.39-0.62,0.76-0.93l-0.17-0.27c-0.07,0.03-0.12,0.06-0.15,0.07c-0.4,0.24-0.67,0.61-0.82,1.1
			c-0.2-0.73,0.02-1.29,0.65-1.68l-1.52-2.49l-1.31-0.16L29.79,11.95z M35.32,18.79l0.02,0.71l-6.37,3.9l-0.19-0.1l6.38-3.91
			l-0.03-0.49c-0.88-0.17-1.61-0.48-2.2-0.93l0.23-0.04c0.52,0.37,1.18,0.64,2,0.83L35.32,18.79z M29.8,15.18l1.58,2.58l-0.19,0.01
			L29.6,15.2L29.8,15.18z M30.32,12.19l-0.01,0.08c-0.08,0.93-0.07,1.66,0.03,2.19l-0.17-0.06c-0.11-0.76-0.11-1.52-0.01-2.27
			L30.32,12.19z"/>
		<path class="st3" d="M42.12,7.8l-0.07,0.15c-0.31,0.67-0.5,1.39-0.58,2.18c-0.07-0.09-0.12-0.16-0.16-0.2
			c-0.38-0.47-0.73-0.74-1.05-0.83c-0.32-0.08-0.84-0.03-1.56,0.15c-0.33,0.09-0.73,0.2-1.18,0.34l0.78,3.05l0.42-0.11l-0.69-2.69
			c0.33-0.12,0.64-0.22,0.95-0.29c0.56-0.14,0.99-0.19,1.28-0.14s0.59,0.22,0.89,0.51C41.08,9.89,41.03,9.87,41,9.86
			c-0.43-0.19-0.73-0.29-0.9-0.3c-0.17-0.01-0.49,0.04-0.96,0.16c-0.14,0.04-0.39,0.11-0.75,0.22l-0.14,0.04l0.65,2.52l1.22-0.31
			l0.55-1.39l0.73,2.85l-1.14-0.89l-1.81,0.47l0.96,3.71l0.42-0.11l-0.88-3.4l1.44-0.37l0.22,0.13l-1.44,0.37L40,16.79
			c0.9-0.23,1.52-0.46,1.87-0.69c0.35-0.23,0.58-0.55,0.7-0.98l0.2-0.69c0.01-0.03,0.02-0.09,0.04-0.17
			c0.24,0.46,0.48,0.81,0.73,1.06c0.24,0.25,0.61,0.52,1.11,0.8l-7.42,1.91L38.03,17l-0.76-2.95c-0.36,0.14-0.67,0.34-0.92,0.6
			l-0.13-0.12c0.22-0.26,0.55-0.48,1-0.66l-0.08-0.31c-0.08,0.01-0.13,0.02-0.16,0.03c-0.45,0.12-0.82,0.39-1.1,0.81
			c0.02-0.76,0.39-1.23,1.12-1.42l-0.73-2.83l-1.21-0.54L42.12,7.8z M45.41,15.96l-0.19,0.68l-7.23,1.86l-0.15-0.15l7.25-1.87
			l0.12-0.48c-0.79-0.42-1.4-0.93-1.83-1.53l0.23,0.02c0.39,0.5,0.94,0.96,1.67,1.38L45.41,15.96z M41.18,10.89l0.75,2.93
			l-0.19-0.04l-0.75-2.93L41.18,10.89z M42.56,8.18l-0.03,0.07c-0.35,0.86-0.56,1.56-0.61,2.1l-0.15-0.11
			c0.12-0.76,0.34-1.49,0.66-2.18L42.56,8.18z"/>
		<path class="st3" d="M47.6,7.17l3.27,0.09l-0.99,0.91l-0.21,7.31l0.05,0l0.25,0.03l0.06,0l0.21-7.26L51,7.52l0.09,0.15l-0.68,0.66
			l-0.21,7.18c0.2,0.02,0.4,0.04,0.59,0.04c0.72,0.02,1.28-0.12,1.66-0.43c0.38-0.31,0.65-0.83,0.79-1.57
			c0.39,1.26,0.81,2.12,1.25,2.59l-7.14-0.2l0.97-0.75l0.2-7.13L47.6,7.17z M55.16,16.1l-0.33,0.61l-7.14-0.2l-0.17-0.19l7.23,0.21
			l0.21-0.42c-0.48-0.63-0.86-1.33-1.14-2.09l-0.03-0.08l0.22,0.09l0.04,0.12c0.29,0.68,0.63,1.32,1.04,1.9L55.16,16.1z"/>
		<path class="st3" d="M58.97,8.15l3.14,0.8l-1.12,0.67l-1.76,6.9l0.66,0.92l-3.09-0.79l1.12-0.53l1.76-6.91L58.97,8.15z
			 M62.31,9.41l-0.85,0.5l-1.72,6.75l0.79,1.53l-3.44-0.88l-0.12-0.22l3.22,0.82l-0.65-1.23l1.76-6.88l0.94-0.55L62.31,9.41z"/>
		<path class="st3" d="M73.73,14.61l-1.18,0.25l-1.98,3.76c-0.65,1.23-1.17,1.98-1.56,2.26c-0.79,0.55-1.77,0.52-2.92-0.08
			c-0.99-0.52-1.61-1.16-1.85-1.92l0.04,0.05l0.15,0.23c0.34,0.55,0.9,1.03,1.68,1.44c1.11,0.59,2.04,0.62,2.77,0.11
			c0.39-0.28,0.89-0.99,1.49-2.13l2.04-3.87l1.29-0.26L73.73,14.61z M73.74,14.09l-1.54,0.3l-2.06,3.91
			c-0.38,0.72-0.67,1.22-0.88,1.51c-0.21,0.29-0.44,0.5-0.68,0.63c-0.62,0.33-1.43,0.24-2.43-0.29c-1.06-0.56-1.66-1.2-1.81-1.94
			c-0.12-0.58,0.12-1.45,0.73-2.61l2.11-4.02l-0.43-1.17l2.86,1.5l-1.25,0.37l-2.08,3.96l-0.48,0.94c-0.32,0.6-0.42,1.09-0.3,1.48
			c0.12,0.38,0.47,0.73,1.07,1.04c0.65,0.34,1.2,0.39,1.65,0.14c0.36-0.21,0.81-0.82,1.35-1.84l2.08-3.9l-0.49-1.36L73.74,14.09z
			 M69.69,12.38l-0.91,0.29l-2.37,4.5l-0.23,0.41l-0.22,0.87c0.01,0.2,0.09,0.48,0.23,0.83l-0.02,0.06
			c-0.27-0.32-0.4-0.64-0.39-0.97c0.01-0.33,0.16-0.77,0.45-1.32l2.39-4.54l1.03-0.31L69.69,12.38z"/>
		<path class="st3" d="M84.38,23.64l-1.33-0.01l-5.03,4.9l0.01,1.16l-2.2-2.25l1.24,0.12l3.29-3.21l-5.78,2.61l-0.46-0.47l0.09-0.17
			l0.42,0.43l6.15-2.81l0.75-0.73l-6.8,3.08l-0.33-0.34l2.64-5.19l-2.59,2.53c-0.35,0.34-0.57,0.6-0.67,0.78
			c-0.1,0.19-0.15,0.45-0.16,0.79l-0.13,0.98L71,23.29l0.05-0.22l2.34,2.4l0.09-0.44l-2.13-2.18l0.15,0.05
			c0.55,0.17,0.99,0.21,1.3,0.13c0.32-0.08,0.7-0.34,1.14-0.77L78,18.3l-0.02-1.24l2.47,2.53l-1.33-0.08l-2.75,5.38l0.6-0.24
			l2.41-4.8l1.1,0.18l0.02,0.18l-1.03-0.19l-2.27,4.49l4.72-2.14l0.06-1.22L84.38,23.64z M77.82,19.23l-3.51,3.43
			c-0.54,0.53-0.86,0.94-0.96,1.24c-0.1,0.3-0.04,0.66,0.18,1.07l0.03-0.12c-0.09-0.54,0.07-1.01,0.49-1.42l0.36-0.35l2.89-2.82
			L77.82,19.23z M84.27,24.29l-0.94-0.17l-4.93,4.81l-0.14,1.8l-2.54-2.6l0.07-0.2l2.31,2.37l0.1-1.43l5.09-4.96l0.96,0.19
			L84.27,24.29z"/>
	</g>
	<g>
		<g>
			<path class="st2" d="M90.4,59.04c0.17,0.31,2.39,1.62,3.86-3.94C94.26,55.1,89.29,57.03,90.4,59.04z"/>
		</g>
		<g>
			<path class="st2" d="M88.8,58.56c-0.3,0.19-2.88,0.3-1.54-5.29C87.26,53.27,90.73,57.31,88.8,58.56z"/>
		</g>
	</g>
	<g>
		<g>
			<path class="st2" d="M89.04,64.67c0.15,0.36,2.45,2.05,4.67-3.91C93.71,60.76,88.04,62.34,89.04,64.67z"/>
		</g>
		<g>
			<path class="st2" d="M87.33,63.97c-0.35,0.18-3.2,0.01-1.11-5.99C86.22,57.98,89.59,62.81,87.33,63.97z"/>
		</g>
	</g>
	<g>
		<g>
			<path class="st2" d="M91.15,53.86c0.2,0.26,2.45,1.15,2.99-4.21C94.14,49.65,89.82,52.17,91.15,53.86z"/>
		</g>
		<g>
			<path class="st2" d="M89.59,53.66c-0.25,0.22-2.62,0.7-2.2-4.67C87.39,48.99,91.2,52.22,89.59,53.66z"/>
		</g>
	</g>
	<g>
		<g>
			<path class="st2" d="M91.11,49.34c0.2,0.21,2.25,0.79,2.25-3.95C93.36,45.39,89.8,47.97,91.11,49.34z"/>
		</g>
		<g>
			<path class="st2" d="M89.73,49.3c-0.2,0.21-2.23,0.84-2.34-3.9C87.39,45.39,91.01,47.89,89.73,49.3z"/>
		</g>
	</g>
	<g>
		<path class="st2" d="M87.28,34.86c-0.16,0.18-1.85,0.7-1.93-3.23C85.35,31.63,88.34,33.7,87.28,34.86z"/>
	</g>
	<g>
		<g>
			<path class="st2" d="M90.7,45.1c0.24,0.18,2.42,0.39,1.55-4.42C92.25,40.68,89.12,43.95,90.7,45.1z"/>
		</g>
		<g>
			<path class="st2" d="M89.3,45.31c-0.16,0.25-2.1,1.27-3.09-3.52C86.21,41.79,90.33,43.65,89.3,45.31z"/>
		</g>
	</g>
	<g>
		<g>
			<path class="st2" d="M89.87,41.18c0.24,0.13,2.2,0.05,0.84-4.12C90.71,37.06,88.32,40.35,89.87,41.18z"/>
		</g>
		<g>
			<path class="st2" d="M88.65,41.54c-0.11,0.24-1.72,1.38-3.18-2.75C85.47,38.79,89.37,39.94,88.65,41.54z"/>
		</g>
	</g>
	<g>
		<g>
			<path class="st2" d="M88.68,37.32c0.24,0.08,2.06-0.35,0.05-3.99C88.73,33.33,87.1,36.82,88.68,37.32z"/>
		</g>
		<g>
			<path class="st2" d="M87.61,37.87c-0.06,0.25-1.35,1.59-3.45-2C84.16,35.87,87.99,36.25,87.61,37.87z"/>
		</g>
	</g>
	<g>
		<g>
			<path class="st1" d="M21.43,43.68C24.74,31.27,36.08,22.1,49.52,22.1s24.78,9.17,28.09,21.58h2.53c-0.4-1.63-0.92-3.22-1.58-4.78
				c-1.59-3.75-3.86-7.12-6.75-10.02c-2.89-2.89-6.26-5.17-10.02-6.75c-3.89-1.64-8.01-2.48-12.27-2.48
				c-4.25,0-8.38,0.83-12.27,2.48c-3.75,1.59-7.12,3.86-10.02,6.75c-2.89,2.89-5.17,6.26-6.75,10.02c-0.66,1.56-1.19,3.15-1.58,4.78
				H21.43z"/>
		</g>
	</g>
	<g>
		<g>
			<path class="st1" d="M79.07,68.13C73.23,79.03,62.23,86.4,49.64,86.4s-23.59-7.36-29.43-18.27h-1.49
				c1.61,3.17,3.64,6.07,6.06,8.65c3.23,3.45,6.99,6.15,11.18,8.04c4.34,1.96,8.94,2.95,13.69,2.95s9.35-0.99,13.69-2.95
				c4.19-1.89,7.95-4.59,11.18-8.04c2.42-2.58,4.45-5.48,6.06-8.65H79.07z"/>
		</g>
	</g>
	<g>
		<path class="st3" d="M28.55,68.84c-0.1-0.08-0.17-0.15-0.22-0.21c-0.04-0.06-0.09-0.15-0.14-0.25c0.25-0.28,0.41-0.53,0.49-0.77
			l-0.77-1.08l-1.53,1.09l0.47,0.57c0.06,0.07,0.16,0.11,0.28,0.12c0.12,0.01,0.26-0.01,0.41-0.07l0.24,0.33l-1.33,0.95l-0.24-0.33
			c0.13-0.18,0.21-0.33,0.24-0.43c0.03-0.1,0.02-0.2-0.02-0.28l-0.37-0.63l-1.65,1.18l0.81,1.13c0.3-0.01,0.65-0.1,1.03-0.28
			c0.08,0.08,0.14,0.16,0.2,0.24c0.06,0.08,0.1,0.16,0.14,0.24l-1.26,0.81l-2.28-3.18l0.28-0.16c0.15,0.15,0.29,0.23,0.42,0.25
			l3.44-2.47c0.02-0.17-0.02-0.34-0.09-0.53l0.25-0.15l2.24,3.13L28.55,68.84z"/>
		<path class="st3" d="M28.29,71.83l0.53-0.54l1.31,1.28l-0.53,0.54L28.29,71.83z"/>
		<path class="st3" d="M32.16,77.42c-0.61-0.42-0.95-0.93-1.02-1.52c-0.07-0.59,0.15-1.25,0.66-1.99c0.51-0.74,1.05-1.19,1.63-1.35
			c0.58-0.17,1.18-0.04,1.79,0.39c0.4,0.27,0.66,0.57,0.8,0.91c0.14,0.33,0.12,0.62-0.05,0.88c-0.11,0.16-0.25,0.25-0.42,0.29
			c-0.18,0.04-0.33,0.02-0.45-0.07c-0.13-0.09-0.22-0.19-0.27-0.31c-0.05-0.12-0.07-0.24-0.06-0.36c0.15-0.07,0.27-0.17,0.35-0.29
			c0.08-0.12,0.11-0.25,0.09-0.38c-0.03-0.13-0.11-0.25-0.24-0.34c-0.51-0.35-1.19,0.08-2.02,1.29c-0.42,0.61-0.66,1.13-0.71,1.55
			c-0.05,0.42,0.1,0.76,0.46,1c0.36,0.25,0.8,0.31,1.33,0.19l0.07,0.36c-0.36,0.09-0.71,0.11-1.05,0.07
			C32.7,77.69,32.41,77.58,32.16,77.42z"/>
		<path class="st3" d="M37.9,80.44c-0.73-0.29-1.19-0.73-1.38-1.31c-0.2-0.58-0.13-1.28,0.2-2.11c0.33-0.83,0.77-1.38,1.31-1.66
			c0.54-0.28,1.18-0.28,1.9,0.02c0.73,0.29,1.19,0.72,1.38,1.3c0.2,0.58,0.13,1.28-0.2,2.1c-0.33,0.83-0.77,1.38-1.31,1.66
			C39.26,80.74,38.63,80.74,37.9,80.44z M39.75,75.81c-0.35-0.14-0.66-0.08-0.95,0.19c-0.29,0.26-0.58,0.77-0.88,1.52
			c-0.3,0.75-0.44,1.32-0.42,1.71c0.02,0.39,0.21,0.65,0.55,0.79c0.35,0.14,0.66,0.07,0.94-0.19c0.28-0.27,0.58-0.77,0.87-1.52
			c0.3-0.75,0.44-1.31,0.42-1.7C40.28,76.21,40.1,75.95,39.75,75.81z"/>
		<path class="st3" d="M47.13,82.57l-1.19-0.17l-1.56-3.9l-0.43,3.05c0.1,0.13,0.29,0.24,0.55,0.33l-0.1,0.3l-1.69-0.24l0.08-0.32
			c0.18-0.01,0.34-0.06,0.48-0.17l0.58-4.12c-0.1-0.11-0.24-0.22-0.44-0.32l0.07-0.3l1.55,0.22l1.63,4.1l0.45-3.24
			c-0.12-0.13-0.29-0.24-0.51-0.31l0.08-0.32l1.71,0.24l-0.09,0.3c-0.21,0.03-0.38,0.1-0.51,0.18L47.13,82.57z"/>
		<path class="st3" d="M50.3,78.8c-0.09,0.02-0.19,0.04-0.28,0.05c-0.09,0.01-0.18,0.01-0.27,0l-0.13-1.48
			c0.77-0.05,1.64-0.12,2.58-0.2c0.95-0.09,1.57-0.15,1.86-0.2l0.13,1.48c-0.09,0.02-0.18,0.04-0.27,0.05
			c-0.09,0.01-0.18,0.01-0.28,0c-0.08-0.36-0.2-0.66-0.37-0.88c-0.27-0.01-0.54-0.01-0.82,0.01l0.38,4.22
			c0.12,0.1,0.32,0.16,0.61,0.18l-0.03,0.33l-2.3,0.21l0-0.33c0.22-0.05,0.41-0.15,0.55-0.29l-0.38-4.21
			c-0.12,0.02-0.38,0.06-0.79,0.12C50.35,78.14,50.28,78.46,50.3,78.8z"/>
		<path class="st3" d="M57.58,76.01c1.28-0.43,2.07-0.2,2.36,0.68c0.21,0.64,0.03,1.18-0.55,1.61c0.2,0.06,0.38,0.18,0.56,0.37
			l1.01,1.15c0.09,0.1,0.27,0.14,0.55,0.11l0.05,0.33l-1.37,0.45l-1.38-1.73c-0.12-0.14-0.29-0.19-0.5-0.15
			c-0.09,0.03-0.19,0.06-0.31,0.09l-0.08,0.03l0.58,1.74c0.14,0.07,0.35,0.09,0.64,0.05l0.04,0.31l-2.07,0.69l-0.07-0.32
			c0.16-0.09,0.28-0.21,0.35-0.37l-1.31-3.95c-0.13-0.06-0.3-0.09-0.54-0.09l-0.07-0.3L57.58,76.01z M58.78,77.1
			c-0.09-0.28-0.24-0.47-0.44-0.58c-0.2-0.1-0.42-0.12-0.65-0.04c-0.24,0.08-0.41,0.15-0.53,0.21l0.6,1.8l0.49-0.16
			C58.81,78.14,58.99,77.73,58.78,77.1z"/>
		<path class="st3" d="M66.3,77.06l-0.91-0.77L64,77.15l0.25,1.13c0.19,0.03,0.42-0.03,0.7-0.15l0.13,0.29l-1.52,0.94l-0.13-0.29
			c0.2-0.14,0.3-0.28,0.31-0.42l-1.07-4.94l0.7-0.43l3.92,3.1c0.14,0.07,0.33,0.06,0.55-0.02l0.13,0.29l-1.85,1.14L66,77.48
			C66.18,77.32,66.28,77.18,66.3,77.06z M63.45,74.66l0.43,1.97l1.1-0.68L63.45,74.66z"/>
		<path class="st3" d="M71.35,73.71c-0.54,0.52-1.1,0.75-1.69,0.69c-0.59-0.05-1.2-0.4-1.81-1.05c-0.62-0.64-0.95-1.27-1-1.87
			c-0.05-0.6,0.2-1.16,0.74-1.68c0.35-0.33,0.7-0.53,1.05-0.6c0.35-0.07,0.63,0.01,0.85,0.23c0.13,0.14,0.2,0.3,0.2,0.47
			c0,0.18-0.05,0.32-0.16,0.43c-0.11,0.11-0.23,0.17-0.36,0.2c-0.13,0.03-0.25,0.02-0.36-0.02c-0.04-0.16-0.11-0.3-0.21-0.4
			c-0.1-0.11-0.22-0.16-0.36-0.16c-0.14,0-0.26,0.06-0.38,0.17c-0.45,0.43-0.16,1.18,0.86,2.24c0.52,0.54,0.98,0.87,1.38,1.01
			c0.4,0.14,0.76,0.06,1.07-0.24c0.31-0.3,0.46-0.72,0.46-1.26l0.36,0c0.02,0.37-0.03,0.72-0.15,1.04
			C71.73,73.24,71.57,73.5,71.35,73.71z"/>
		<path class="st3" d="M71.22,68.03c-0.04,0.09-0.09,0.17-0.14,0.25c-0.05,0.08-0.11,0.15-0.17,0.21l-1.24-0.83
			c0.45-0.63,0.94-1.35,1.47-2.14c0.53-0.79,0.87-1.31,1.01-1.57l1.24,0.83c-0.04,0.08-0.08,0.16-0.13,0.24
			c-0.05,0.07-0.11,0.15-0.17,0.22c-0.33-0.17-0.64-0.26-0.92-0.27c-0.18,0.2-0.35,0.41-0.51,0.64l3.52,2.35
			c0.15-0.03,0.33-0.15,0.53-0.36l0.24,0.23l-1.28,1.92l-0.25-0.21c0.1-0.21,0.14-0.41,0.12-0.61l-3.52-2.35
			c-0.06,0.1-0.2,0.33-0.41,0.69C70.74,67.58,70.94,67.83,71.22,68.03z"/>
	</g>
	<circle class="st3" cx="49.67" cy="50.52" r="23.91"/>
	<g>
		<g>
			<path class="st2" d="M53.21,64.11H33.09c-0.48,0-0.86-0.38-0.86-0.85V43.74c0-0.31,0.12-0.59,0.34-0.81l5.7-5.64
				c0.16-0.15,0.36-0.24,0.58-0.24h14.36c0.48,0,0.86,0.38,0.86,0.85v3.03h-1.42v-2.48H39.09l-5.45,5.39v18.85h19.01V60.6h1.42v2.66
				C54.07,63.73,53.68,64.11,53.21,64.11z"/>
		</g>
		<g>
			<polygon class="st2" points="39.55,44.3 32.93,44.3 32.93,42.89 38.13,42.89 38.13,37.76 39.55,37.76 			"/>
		</g>
	</g>
	<g>
		<path class="st2" d="M59.97,41.88H48.41c-0.35,0-0.64-0.28-0.64-0.63l0,0c0-0.35,0.29-0.63,0.64-0.63h11.56V41.88z"/>
	</g>
	<g>
		<path class="st2" d="M67.88,45.4H42.51c-0.35,0-0.64-0.28-0.64-0.63v0c0-0.35,0.29-0.63,0.64-0.63h25.37V45.4z"/>
	</g>
	<g>
		<path class="st2" d="M63.75,49.37H37.63c-0.35,0-0.64-0.28-0.64-0.63l0,0c0-0.35,0.29-0.63,0.64-0.63h26.12V49.37z"/>
	</g>
	<g>
		<path class="st2" d="M63.81,53.34H37.69c-0.35,0-0.64-0.28-0.64-0.63l0,0c0-0.35,0.29-0.63,0.64-0.63h26.12V53.34z"/>
	</g>
	<g>
		<path class="st2" d="M68.01,57.11H37.82c-0.35,0-0.64-0.28-0.64-0.63l0,0c0-0.35,0.29-0.63,0.64-0.63h30.19V57.11z"/>
	</g>
	<g>
		<path class="st2" d="M62.08,60.88H43.24c-0.35,0-0.64-0.28-0.64-0.63l0,0c0-0.35,0.29-0.63,0.64-0.63h18.84V60.88z"/>
	</g>
	<g>
		<path class="st2" d="M60.76,42.3c-0.66,0-1.2-0.53-1.2-1.19s0.54-1.19,1.2-1.19c0.66,0,1.2,0.53,1.2,1.19S61.42,42.3,60.76,42.3z
			 M60.76,40.52c-0.33,0-0.6,0.27-0.6,0.6s0.27,0.6,0.6,0.6s0.6-0.27,0.6-0.6S61.09,40.52,60.76,40.52z"/>
	</g>
	<g>
		<path class="st2" d="M68.75,45.99c-0.66,0-1.2-0.53-1.2-1.19s0.54-1.19,1.2-1.19s1.2,0.53,1.2,1.19S69.42,45.99,68.75,45.99z
			 M68.75,44.2c-0.33,0-0.6,0.27-0.6,0.6s0.27,0.6,0.6,0.6c0.33,0,0.6-0.27,0.6-0.6S69.09,44.2,68.75,44.2z"/>
	</g>
	<g>
		<path class="st2" d="M64.38,49.94c-0.66,0-1.2-0.53-1.2-1.19s0.54-1.19,1.2-1.19c0.66,0,1.2,0.53,1.2,1.19
			S65.04,49.94,64.38,49.94z M64.38,48.15c-0.33,0-0.6,0.27-0.6,0.6s0.27,0.6,0.6,0.6s0.6-0.27,0.6-0.6S64.71,48.15,64.38,48.15z"/>
	</g>
	<path class="st2" d="M64.38,53.95c-0.66,0-1.2-0.53-1.2-1.19s0.54-1.19,1.2-1.19c0.66,0,1.2,0.53,1.2,1.19S65.04,53.95,64.38,53.95
		z M64.38,52.16c-0.33,0-0.6,0.27-0.6,0.6c0,0.33,0.27,0.6,0.6,0.6s0.6-0.27,0.6-0.6C64.98,52.43,64.71,52.16,64.38,52.16z"/>
	<g>
		<path class="st2" d="M68.86,57.63c-0.66,0-1.2-0.53-1.2-1.19c0-0.66,0.54-1.19,1.2-1.19c0.66,0,1.2,0.53,1.2,1.19
			C70.07,57.1,69.53,57.63,68.86,57.63z M68.86,55.84c-0.33,0-0.6,0.27-0.6,0.6c0,0.33,0.27,0.6,0.6,0.6c0.33,0,0.6-0.27,0.6-0.6
			C69.46,56.11,69.19,55.84,68.86,55.84z"/>
	</g>
	<g>
		<path class="st2" d="M62.63,61.44c-0.66,0-1.2-0.53-1.2-1.19c0-0.66,0.54-1.19,1.2-1.19c0.66,0,1.2,0.53,1.2,1.19
			C63.83,60.9,63.29,61.44,62.63,61.44z M62.63,59.65c-0.33,0-0.6,0.27-0.6,0.6c0,0.33,0.27,0.6,0.6,0.6s0.6-0.27,0.6-0.6
			C63.23,59.92,62.96,59.65,62.63,59.65z"/>
	</g>
</g>
</svg>
