<?xml version="1.0" encoding="utf-8"?>
<!-- Generator: Adobe Illustrator 24.0.2, SVG Export Plug-In . SVG Version: 6.00 Build 0)  -->
<svg version="1.1" id="Layer_2" xmlns="http://www.w3.org/2000/svg" xmlns:xlink="http://www.w3.org/1999/xlink" x="0px" y="0px"
	 viewBox="0 0 50 50" style="enable-background:new 0 0 50 50;" xml:space="preserve">
<style type="text/css">
	.st0{fill:#2D2D2D;}
	.st1{fill:#F96969;}
</style>
<g>
	<path class="st0" d="M27.4,17.2c-5-5.5-13.4-5.8-18.8-0.9c-0.2,0.2-0.6,0.5-0.8,0.8l-0.3,0.6l0.4,0.5l0.1,0.1
		c4.9,5.4,13.3,5.7,18.7,0.8c0.2-0.2,0.6-0.5,0.8-0.8l0.4-0.6L27.4,17.2z M15.9,17.7c0-0.9,0.7-1.7,1.7-1.7c0.9,0,1.7,0.7,1.7,1.7
		s-0.7,1.7-1.7,1.7C16.7,19.3,15.9,18.6,15.9,17.7z M16.5,14.5c-1.7,0.6-2.7,2.4-2.2,4.2c0.3,1,1.1,1.8,2.2,2.2
		c-2.6-0.2-5.1-1.3-7-3.2C11.5,15.8,13.9,14.8,16.5,14.5z M18.7,20.8c1.7-0.6,2.7-2.4,2.2-4.2c-0.3-1-1.1-1.8-2.2-2.2
		c2.6,0.2,5.1,1.3,7,3.2C23.6,19.5,21.2,20.6,18.7,20.8z"/>
	<path class="st1" d="M17.6,3.5C9.8,3.5,3.5,9.9,3.5,17.7s6.3,14.1,14.1,14.1c7.8,0,14.1-6.3,14.1-14.1S25.4,3.5,17.6,3.5z
		 M17.6,30.1c-6.9,0-12.5-5.6-12.5-12.5c0-6.9,5.6-12.5,12.5-12.5c6.9,0,12.5,5.6,12.5,12.5C30,24.6,24.5,30.1,17.6,30.1z"/>
	<path class="st0" d="M45.8,35.9V8.5c0-2.3-1.8-4.2-4.2-4.2h-9.1V6h9.1c1.4,0,2.5,1.1,2.5,2.5v27.4H45.8z"/>
	<path class="st0" d="M4.3,33.4v8.3c0,2.3,1.8,4.2,4.2,4.2h29.1v-1.7H8.4c-1.4,0-2.5-1.1-2.5-2.5v-8.3H4.3z"/>
	<path class="st0" d="M35,8.5h7.5v1.7H35V8.5z"/>
	<path class="st0" d="M36.7,12.7h5.8v1.7h-5.8V12.7z"/>
	<path class="st0" d="M36.7,16.8h5.8v1.7h-5.8V16.8z"/>
	<path class="st0" d="M36.7,21h5.8v1.7h-5.8V21z"/>
	<path class="st0" d="M36.7,25.1h5.8v1.7h-5.8V25.1z"/>
	<path class="st0" d="M37.5,29.3h5v1.7h-5V29.3z"/>
	<path class="st0" d="M7.6,36.8H30v1.7H7.6V36.8z"/>
	<path class="st0" d="M7.6,40.1h25.7v1.7H7.6V40.1z"/>
	<path class="st0" d="M11.8,24.3h11.6V26H11.8V24.3z"/>
	<path class="st0" d="M11.8,9.4h11.6V11H11.8V9.4z"/>
	<path class="st1" d="M40.2,35c-0.5-0.5-1.1-0.7-1.7-0.7h-0.6l-6-6.7c5.5-8,3.6-18.8-4.4-24.4c-8-5.6-18.9-3.5-24.4,4.4
		c-5.5,7.9-3.6,18.8,4.4,24.4c6.3,4.4,14.8,4.2,20.8-0.7l5.8,6.6v0.7c0,0.7,0.2,1.3,0.7,1.7l8.6,8.6c1.5,1.5,3.8,1.5,5.3,0
		c1.5-1.5,1.5-3.8,0-5.3L40.2,35z M1.8,17.7c0-8.7,7.1-15.8,15.8-15.8s15.8,7.1,15.8,15.8s-7.1,15.8-15.8,15.8S1.8,26.4,1.8,17.7z
		 M29.6,30.3c0.4-0.4,0.9-0.9,1.2-1.3l5.5,6.1L35,36.3L29.6,30.3z M46.2,48.4c-0.6,0-1.1-0.2-1.5-0.6l-8.6-8.6
		c-0.2-0.2-0.2-0.3-0.2-0.6v-0.7l2-2h0.7c0.2,0,0.4,0.1,0.6,0.2l8.6,8.6c0.8,0.8,0.8,2.2,0,3C47.3,48.1,46.7,48.4,46.2,48.4z"/>
</g>
</svg>
