<?xml version="1.0" encoding="utf-8"?>
<!-- Generator: Adobe Illustrator 24.0.2, SVG Export Plug-In . SVG Version: 6.00 Build 0)  -->
<svg version="1.1" id="Layer_1" xmlns="http://www.w3.org/2000/svg" xmlns:xlink="http://www.w3.org/1999/xlink" x="0px" y="0px"
	 viewBox="0 0 50 50" style="enable-background:new 0 0 50 50;" xml:space="preserve">
<style type="text/css">
	.st0{fill:#F96969;}
	.st1{fill:#EDEDED;}
	.st2{fill:#2D2D2D;}
	.st3{fill:#333333;}
</style>
<g>
	<polygon class="st0" points="40.8,30 40.8,44.2 40.8,46.7 49.2,46.7 49.2,28.3 40.8,28.3 	"/>
	<g>
		<circle class="st1" cx="43.3" cy="19.2" r="2.5"/>
		<circle class="st1" cx="31.7" cy="7.5" r="2.5"/>
	</g>
	<circle class="st0" cx="13.3" cy="13.3" r="12.5"/>
	<path class="st2" d="M49.2,27.5h-8.3c-0.5,0-0.8,0.4-0.8,0.8v0.8h-6.5c-0.8,0-1.6,0.2-2.3,0.7l-6.5,4.3h-6.6
		c-1.2,0-2.3,0.6-2.9,1.6c-0.6,0.8-0.7,1.9-0.5,2.8L4.4,35.4c-0.7-0.3-1.5-0.3-2.2,0C0.9,35.8,0,37,0,38.4c0,1.3,0.8,2.5,2,3
		l18.2,7.7c1.4,0.6,3,0.9,4.5,0.9h0.2c1.3,0,2.5-0.2,3.7-0.6l11.4-4v1.3c0,0.5,0.4,0.8,0.8,0.8h8.3c0.5,0,0.8-0.4,0.8-0.8V28.3
		C50,27.9,49.6,27.5,49.2,27.5z M28.1,47.8c-1,0.3-2.1,0.5-3.2,0.5h-0.2c-1.3,0-2.7-0.3-3.9-0.8L2.6,39.9c-0.6-0.2-1-0.8-1-1.5
		c0-0.7,0.4-1.3,1.1-1.5c0.3-0.1,0.7-0.1,1.1,0l12,3.8c0,0,0,0,0,0c0.3,0.3,0.7,0.5,1.1,0.7c0,0,0,0,0,0c0.2,0.1,0.4,0.1,0.5,0.2
		c0,0,0.1,0,0.1,0c0.2,0,0.4,0.1,0.6,0.1h12.5V40H18.3c-0.2,0-0.3,0-0.5-0.1c-0.1,0-0.1,0-0.2-0.1c-0.1,0-0.2-0.1-0.3-0.1
		c-0.1,0-0.1-0.1-0.2-0.1c-0.1-0.1-0.2-0.1-0.3-0.2c0,0-0.1,0-0.1-0.1l0,0c-0.1-0.1-0.2-0.3-0.3-0.4l-0.2-0.4
		c-0.3-0.6-0.3-1.3,0.1-1.9c0.3-0.5,0.9-0.8,1.5-0.8H25c0.2,0,0.3,0,0.5-0.1l6.7-4.4c0.4-0.3,0.9-0.4,1.4-0.4H40v12.7L28.1,47.8z
		 M48.3,45.8h-6.7V29.2h6.7V45.8z"/>
	<path class="st2" d="M40,19.2c0,1.8,1.5,3.3,3.3,3.3c1.8,0,3.3-1.5,3.3-3.3c0-1.8-1.5-3.3-3.3-3.3C41.5,15.8,40,17.3,40,19.2z
		 M45,19.2c0,0.9-0.7,1.7-1.7,1.7c-0.9,0-1.7-0.7-1.7-1.7c0-0.9,0.7-1.7,1.7-1.7C44.3,17.5,45,18.2,45,19.2z"/>
	<path class="st2" d="M31.7,4.2c-1.8,0-3.3,1.5-3.3,3.3s1.5,3.3,3.3,3.3c1.8,0,3.3-1.5,3.3-3.3S33.5,4.2,31.7,4.2z M31.7,9.2
		c-0.9,0-1.7-0.7-1.7-1.7s0.7-1.7,1.7-1.7c0.9,0,1.7,0.7,1.7,1.7C33.3,8.4,32.6,9.2,31.7,9.2z"/>
	<rect x="25.7" y="12.5" transform="matrix(0.7071 -0.7071 0.7071 0.7071 1.5542 30.4212)" class="st3" width="23.6" height="1.7"/>
	<path class="st2" d="M13.3,0C6,0,0,6,0,13.3s6,13.3,13.3,13.3s13.3-6,13.3-13.3S20.7,0,13.3,0z M13.3,25C6.9,25,1.7,19.8,1.7,13.3
		S6.9,1.7,13.3,1.7S25,6.9,25,13.3S19.8,25,13.3,25z"/>
	<rect x="3.3" y="25.8" class="st2" width="1.7" height="1.7"/>
	<rect x="3.3" y="29.2" class="st2" width="1.7" height="3.3"/>
	<rect x="21.7" y="25.8" class="st2" width="1.7" height="1.7"/>
	<rect x="21.7" y="29.2" class="st2" width="1.7" height="3.3"/>
	<rect x="12.5" y="28.3" class="st2" width="1.7" height="1.7"/>
	<rect x="12.5" y="31.7" class="st2" width="1.7" height="2.5"/>
	<g>
		<path class="st2" d="M7.9,17.1H6.3v-4.6l0-0.8l0-0.8c-0.3,0.3-0.5,0.5-0.6,0.6l-0.9,0.7l-0.8-1l2.6-2h1.4V17.1z"/>
		<path class="st2" d="M15.7,13.1c0,1.4-0.2,2.4-0.7,3.1c-0.5,0.7-1.2,1-2.1,1c-0.9,0-1.6-0.3-2.1-1c-0.5-0.7-0.7-1.7-0.7-3.1
			c0-1.4,0.2-2.4,0.7-3.1c0.5-0.7,1.2-1,2.1-1c0.9,0,1.6,0.3,2.1,1C15.5,10.7,15.7,11.7,15.7,13.1z M11.8,13.1c0,1,0.1,1.7,0.3,2.1
			c0.2,0.4,0.5,0.6,0.9,0.6c0.4,0,0.7-0.2,0.9-0.6c0.2-0.4,0.3-1.1,0.3-2.1c0-1-0.1-1.7-0.3-2.1c-0.2-0.4-0.5-0.6-0.8-0.6
			c-0.4,0-0.7,0.2-0.9,0.6C11.9,11.4,11.8,12.1,11.8,13.1z"/>
		<path class="st2" d="M22.1,13.1c0,1.4-0.2,2.4-0.7,3.1c-0.5,0.7-1.2,1-2.1,1c-0.9,0-1.6-0.3-2.1-1c-0.5-0.7-0.7-1.7-0.7-3.1
			c0-1.4,0.2-2.4,0.7-3.1c0.5-0.7,1.2-1,2.1-1c0.9,0,1.6,0.3,2.1,1C21.8,10.7,22.1,11.7,22.1,13.1z M18.2,13.1c0,1,0.1,1.7,0.3,2.1
			c0.2,0.4,0.5,0.6,0.9,0.6c0.4,0,0.7-0.2,0.9-0.6c0.2-0.4,0.3-1.1,0.3-2.1c0-1-0.1-1.7-0.3-2.1c-0.2-0.4-0.5-0.6-0.8-0.6
			c-0.4,0-0.7,0.2-0.9,0.6C18.3,11.4,18.2,12.1,18.2,13.1z"/>
	</g>
</g>
</svg>
