<?xml version="1.0" encoding="utf-8"?>
<!-- Generator: Adobe Illustrator 24.0.2, SVG Export Plug-In . SVG Version: 6.00 Build 0)  -->
<svg version="1.1" id="Layer_2" xmlns="http://www.w3.org/2000/svg" xmlns:xlink="http://www.w3.org/1999/xlink" x="0px" y="0px"
	 viewBox="0 0 50 50" style="enable-background:new 0 0 50 50;" xml:space="preserve">
<style type="text/css">
	.st0{fill:#F96969;}
	.st1{fill:#2D2D2D;}
	.st2{fill:#FFFFFF;}
</style>
<g>
	<circle class="st0" cx="38.2" cy="11.8" r="11.8"/>
	<path class="st0" d="M41.1,37V13.7c0-1.7-1.4-3.1-3.1-3.1h-34c-1.7,0-3.1,1.4-3.1,3.1V37H41.1z"/>
	<path class="st1" d="M41.1,37.8H0.8C0.3,37.8,0,37.5,0,37V13.7c0-2.2,1.7-3.9,3.9-3.9h34c2.2,0,3.9,1.7,3.9,3.9V37
		C41.9,37.5,41.5,37.8,41.1,37.8z M1.6,36.3h38.7V13.7c0-1.3-1-2.3-2.3-2.3h-34c-1.3,0-2.3,1-2.3,2.3L1.6,36.3L1.6,36.3z"/>
	<g>
		<rect x="3.9" y="13.7" class="st2" width="34" height="20.2"/>
		<path class="st2" d="M0.8,37v3.4c0,1.7,1.4,3.1,3.1,3.1h34c1.7,0,3.1-1.4,3.1-3.1V37H0.8z"/>
	</g>
	<g>
		<path class="st1" d="M38,44.5h-34c-2.2,0-3.9-1.7-3.9-3.9v-3.4c0-0.5,0.3-0.8,0.8-0.8h40.3c0.5,0,0.8,0.3,0.8,0.8v3.4
			C41.9,42.7,40.1,44.5,38,44.5z M1.6,37.8v2.7c0,1.3,1,2.3,2.3,2.3h34c1.3,0,2.3-1,2.3-2.3v-2.7H1.6z"/>
		<path class="st1" d="M26.5,50L26.5,50H15.4c-0.2,0-0.5-0.2-0.6-0.3c-0.2-0.2-0.2-0.5-0.1-0.7l2.3-5.5c0.2-0.3,0.4-0.5,0.7-0.5h6.6
			c0.3,0,0.6,0.2,0.7,0.5l2.3,5.5c0.1,0.2,0.2,0.2,0.2,0.5C27.3,49.7,27,50,26.5,50z M16.5,48.4h8.8l-1.6-4h-5.5L16.5,48.4z"/>
	</g>
	<path class="st1" d="M27.7,50H14.2c-0.5,0-0.8-0.3-0.8-0.8c0-0.5,0.3-0.8,0.8-0.8h13.6c0.5,0,0.8,0.3,0.8,0.8
		C28.5,49.7,28.2,50,27.7,50z"/>
	<rect x="7.4" y="22.7" class="st2" width="5.4" height="5.4"/>
	<path class="st1" d="M12.8,28.9H7.4c-0.5,0-0.8-0.3-0.8-0.8v-5.4c0-0.5,0.3-0.8,0.8-0.8h5.4c0.5,0,0.8,0.3,0.8,0.8v5.4
		C13.6,28.5,13.2,28.9,12.8,28.9z M8.1,27.4H12v-3.8H8.1V27.4z"/>
	<rect x="18.2" y="22.7" class="st2" width="5.4" height="5.4"/>
	<path class="st1" d="M23.7,28.9h-5.4c-0.5,0-0.8-0.3-0.8-0.8v-5.4c0-0.5,0.3-0.8,0.8-0.8h5.4c0.5,0,0.8,0.3,0.8,0.8v5.4
		C24.5,28.5,24.1,28.9,23.7,28.9z M19,27.4h3.8v-3.8H19V27.4z"/>
	<rect x="29.1" y="22.7" class="st2" width="5.4" height="5.4"/>
	<path class="st1" d="M34.5,28.9h-5.4c-0.5,0-0.8-0.3-0.8-0.8v-5.4c0-0.5,0.3-0.8,0.8-0.8h5.4c0.5,0,0.8,0.3,0.8,0.8v5.4
		C35.3,28.5,34.9,28.9,34.5,28.9z M29.8,27.4h3.8v-3.8h-3.8V27.4z"/>
	<path class="st1" d="M12.8,32.1H7.4c-0.5,0-0.8-0.3-0.8-0.8s0.3-0.8,0.8-0.8h5.4c0.5,0,0.8,0.3,0.8,0.8S13.2,32.1,12.8,32.1z"/>
	<path class="st1" d="M23.7,32.1h-5.4c-0.5,0-0.8-0.3-0.8-0.8s0.3-0.8,0.8-0.8h5.4c0.5,0,0.8,0.3,0.8,0.8S24.1,32.1,23.7,32.1z"/>
	<g>
		<path class="st1" d="M34.5,32.1h-5.4c-0.5,0-0.8-0.3-0.8-0.8s0.3-0.8,0.8-0.8h5.4c0.5,0,0.8,0.3,0.8,0.8
			C35.3,31.7,34.9,32.1,34.5,32.1z"/>
		<rect x="15.6" y="39.5" class="st1" width="1.6" height="1.6"/>
		<rect x="20.2" y="39.5" class="st1" width="1.6" height="1.6"/>
		<rect x="24.8" y="39.5" class="st1" width="1.6" height="1.6"/>
	</g>
	<path class="st2" d="M23.7,14.4l1.2-2.6l-1.8-1c0.2-0.7,0.2-1.4,0.1-2L25,7.9l-0.9-2.7l-2,0.5c-0.4-0.5-0.9-1.1-1.4-1.5l0.6-2
		l-2.6-1.2l-1,1.7c-0.7-0.2-1.4-0.2-2-0.1l-0.9-1.9L12,1.8l0.5,2C12,4.2,11.4,4.7,11,5.2L9,4.6L7.8,7.2l1.8,1.1
		c-0.2,0.7-0.2,1.4-0.1,2l-1.9,0.9l0.9,2.7l2-0.5c0.4,0.5,0.9,1.1,1.4,1.5l-0.6,2L14,18l1.1-1.8c0.7,0.2,1.4,0.2,2,0.1l0.9,1.9
		l2.7-0.9l-0.5-2c0.5-0.4,1.1-0.9,1.5-1.4L23.7,14.4z"/>
	<path class="st1" d="M18.1,18.9c-0.3,0-0.5-0.2-0.7-0.4l-0.7-1.4c-0.4,0-0.8,0-1.2-0.1l-0.9,1.3c-0.2,0.3-0.6,0.5-1,0.3L11,17.5
		c-0.4-0.2-0.5-0.5-0.4-0.9l0.5-1.5c-0.3-0.2-0.5-0.5-0.8-0.9l-1.6,0.4c-0.4,0.1-0.8-0.2-0.9-0.5l-0.9-2.7c-0.2-0.4,0-0.8,0.4-0.9
		l1.4-0.7c0-0.4,0-0.8,0.1-1.2L7.4,7.8C7.1,7.6,7,7.2,7.1,6.8l1.2-2.6c0.2-0.4,0.5-0.5,0.9-0.4l1.5,0.5C11,4,11.3,3.7,11.6,3.5
		l-0.4-1.6c-0.1-0.4,0.2-0.8,0.5-0.9l2.7-0.9c0.4-0.2,0.8,0,0.9,0.4L16,1.9c0.4,0,0.8,0,1.2,0.1l0.9-1.3c0.2-0.3,0.6-0.5,1-0.3
		l2.6,1.2C22,1.6,22.2,2,22,2.4l-0.5,1.5c0.3,0.2,0.5,0.5,0.8,0.9l1.6-0.4c0.4-0.1,0.8,0.2,0.9,0.5l0.9,2.7c0.2,0.4,0,0.8-0.4,0.9
		l-1.4,0.7c0,0.4,0,0.8-0.1,1.2l1.3,0.9c0.3,0.2,0.5,0.6,0.3,1l-1.2,2.6c-0.2,0.4-0.5,0.5-0.9,0.4l-1.5-0.5
		c-0.2,0.3-0.5,0.5-0.9,0.8l0.4,1.6c0.1,0.4-0.2,0.8-0.5,0.9l-2.7,0.9C18.2,18.9,18.1,18.9,18.1,18.9z M17,15.5
		c0.3,0,0.5,0.2,0.7,0.4l0.6,1.2l1.3-0.5l-0.3-1.3c-0.1-0.3,0.1-0.6,0.3-0.9c0.5-0.3,0.9-0.8,1.3-1.2c0.2-0.2,0.5-0.4,0.9-0.2
		l1.3,0.4l0.6-1.2l-1.2-0.7c-0.3-0.2-0.4-0.5-0.4-0.8c0.1-0.6,0.2-1.2,0.1-1.8c0-0.3,0.2-0.6,0.4-0.8L24,7.5l-0.5-1.3l-1.3,0.3
		c-0.3,0.1-0.6-0.1-0.9-0.3c-0.3-0.5-0.8-0.9-1.2-1.3c-0.2-0.2-0.4-0.5-0.2-0.9l0.4-1.3L19,2l-0.7,1.2c-0.2,0.3-0.5,0.4-0.8,0.4
		c-0.6-0.1-1.2-0.2-1.8-0.1c-0.3,0-0.6-0.2-0.8-0.4l-0.6-1.2l-1.4,0.5l0.3,1.3c0.1,0.3-0.1,0.6-0.3,0.9c-0.5,0.3-0.9,0.8-1.3,1.2
		C11.3,6,11,6.1,10.7,6L9.4,5.6L8.8,6.8l1.2,0.7c0.3,0.2,0.4,0.5,0.4,0.8c-0.1,0.6-0.2,1.2-0.1,1.8c0,0.3-0.2,0.6-0.4,0.8l-1.2,0.6
		l0.5,1.3l1.3-0.3c0.3-0.1,0.6,0.1,0.9,0.3c0.3,0.5,0.8,0.9,1.2,1.3c0.2,0.2,0.4,0.5,0.2,0.9l-0.4,1.3l1.2,0.6l0.7-1.2
		c0.2-0.3,0.5-0.4,0.8-0.4c0.6,0.1,1.2,0.2,1.8,0.1C17,15.5,17,15.5,17,15.5z"/>
	<circle class="st0" cx="16.3" cy="9.5" r="4.9"/>
	<circle class="st2" cx="16.3" cy="9.5" r="2"/>
	<path class="st1" d="M16.3,12.2c-0.4,0-0.8-0.1-1.2-0.2c-0.6-0.3-1.2-0.9-1.4-1.6c-0.2-0.7-0.2-1.4,0.1-2.1
		c0.5-0.9,1.4-1.6,2.5-1.6c0.4,0,0.8,0.1,1.2,0.2c1.3,0.6,2,2.3,1.3,3.6C18.4,11.6,17.4,12.2,16.3,12.2z M16.3,8.3
		c-0.5,0-0.9,0.2-1.1,0.7c-0.2,0.3-0.2,0.6,0,0.9c0.2,0.2,0.3,0.5,0.6,0.6c0.5,0.2,1.2,0,1.6-0.5c0.2-0.5,0-1.2-0.5-1.6
		C16.7,8.4,16.5,8.3,16.3,8.3z"/>
	<path class="st2" d="M47.6,13.5v-3l-2.3-0.2c-0.2-0.7-0.5-1.4-0.9-2l1.4-1.8l-2.1-2.1L42,5.7c-0.6-0.4-1.3-0.6-2-0.9l-0.2-2.3h-3
		l-0.2,2.3c-0.7,0.2-1.4,0.5-2,0.9l-1.8-1.4l-2.1,2.1l1.4,1.8c-0.4,0.6-0.6,1.3-0.9,2l-2.3,0.2v3l2.3,0.2c0.2,0.7,0.5,1.4,0.9,2
		l-1.4,1.8l2.1,2.1l1.8-1.4c0.6,0.4,1.3,0.6,2,0.9l0.2,2.3h3l0.2-2.3c0.7-0.2,1.4-0.5,2-0.9l1.8,1.4l2.1-2.1l-1.4-1.8
		c0.4-0.6,0.6-1.3,0.9-2L47.6,13.5z"/>
	<path class="st1" d="M39.7,22.1h-3c-0.4,0-0.7-0.3-0.8-0.7l-0.2-1.7c-0.4-0.2-0.9-0.3-1.2-0.5l-1.3,1.1c-0.3,0.2-0.8,0.2-1-0.1
		L30,18.1c-0.3-0.3-0.3-0.7-0.1-1l1.1-1.3c-0.2-0.4-0.4-0.8-0.5-1.2l-1.7-0.2c-0.4-0.1-0.7-0.4-0.7-0.8v-3c0-0.4,0.3-0.7,0.7-0.8
		l1.7-0.2C30.6,9,30.8,8.6,31,8.2l-1.1-1.3c-0.2-0.3-0.2-0.8,0.1-1l2.1-2.1c0.3-0.3,0.7-0.3,1-0.1l1.3,1.1c0.4-0.2,0.8-0.4,1.2-0.5
		l0.2-1.7c0.1-0.4,0.4-0.7,0.8-0.7h3c0.4,0,0.7,0.3,0.8,0.7l0.2,1.7c0.4,0.2,0.9,0.3,1.2,0.5l1.3-1.1c0.3-0.2,0.8-0.2,1,0.1l2.1,2.1
		c0.3,0.3,0.3,0.7,0.1,1l-1.1,1.4C45.7,8.6,45.8,9,46,9.5l1.7,0.2c0.4,0.1,0.7,0.4,0.7,0.8v3c0,0.4-0.3,0.7-0.7,0.8L46,14.5
		c-0.2,0.4-0.3,0.9-0.5,1.2l1.1,1.3c0.2,0.3,0.2,0.8-0.1,1l-2.1,2.1c-0.3,0.3-0.7,0.3-1,0.1l-1.4-1.1c-0.4,0.2-0.8,0.4-1.2,0.5
		l-0.2,1.7C40.5,21.8,40.1,22.1,39.7,22.1z M37.4,20.6H39l0.2-1.6c0.1-0.3,0.2-0.6,0.6-0.7c0.6-0.2,1.2-0.4,1.8-0.8
		c0.3-0.2,0.6-0.2,0.9,0.1l1.2,0.9l1.2-1.2L44,16.1c-0.2-0.2-0.2-0.6-0.1-0.9c0.3-0.5,0.6-1.2,0.8-1.8c0.1-0.3,0.3-0.5,0.7-0.6
		l1.6-0.2v-1.6l-1.6-0.2c-0.3-0.1-0.6-0.2-0.7-0.6c-0.2-0.6-0.4-1.2-0.8-1.8c-0.2-0.3-0.2-0.6,0.1-0.9l0.9-1.2l-1.2-1.2l-1.2,0.9
		c-0.2,0.2-0.6,0.2-0.9,0.1c-0.5-0.3-1.2-0.6-1.8-0.8c-0.3-0.1-0.5-0.3-0.6-0.7L39,3.3h-1.6l-0.2,1.6c-0.1,0.3-0.2,0.6-0.6,0.7
		c-0.6,0.2-1.2,0.4-1.8,0.8c-0.3,0.2-0.6,0.2-0.9-0.1l-1.2-0.9l-1.2,1.2l0.9,1.2c0.2,0.2,0.2,0.6,0.1,0.9c-0.3,0.5-0.6,1.2-0.8,1.8
		c-0.1,0.3-0.3,0.5-0.7,0.6l-1.6,0.2v1.6l1.6,0.2c0.3,0,0.6,0.2,0.7,0.6c0.2,0.6,0.4,1.2,0.8,1.8c0.2,0.3,0.2,0.6-0.1,0.9l-0.9,1.2
		l1.2,1.2l1.2-0.9c0.2-0.2,0.6-0.2,0.9-0.1c0.5,0.3,1.2,0.6,1.8,0.8c0.3,0.1,0.5,0.3,0.6,0.7L37.4,20.6z"/>
	<circle class="st0" cx="38.2" cy="12" r="5.2"/>
	<circle class="st2" cx="38.2" cy="12" r="2.1"/>
	<path class="st1" d="M38.2,14.8c-1.6,0-2.9-1.2-2.9-2.9c0-1.6,1.2-2.9,2.9-2.9c1.6,0,2.9,1.2,2.9,2.9
		C41.1,13.6,39.8,14.8,38.2,14.8z M38.2,10.7c-0.7,0-1.3,0.6-1.3,1.3c0,0.7,0.6,1.3,1.3,1.3c0.7,0,1.3-0.6,1.3-1.3
		C39.5,11.2,39,10.7,38.2,10.7z"/>
</g>
</svg>
