<?xml version="1.0" encoding="utf-8"?>
<!-- Generator: Adobe Illustrator 24.0.2, SVG Export Plug-In . SVG Version: 6.00 Build 0)  -->
<svg version="1.1" id="Layer_2" xmlns="http://www.w3.org/2000/svg" xmlns:xlink="http://www.w3.org/1999/xlink" x="0px" y="0px"
	 viewBox="0 0 50 50" style="enable-background:new 0 0 50 50;" xml:space="preserve">
<style type="text/css">
	.st0{fill:#F96969;}
	.st1{fill:#F5B789;}
	.st2{fill:#CCBFB0;}
	.st3{fill:#3685BA;}
	.st4{fill:#2D2D2D;}
	.st5{fill:#FFFFFF;}
</style>
<g>
	<path class="st0" d="M45.8,0.8H35c-1.8,0-3.3,1.5-3.3,3.3v8.3c0,1.8,1.5,3.3,3.3,3.3h2.5V20l4.2-4.2h4.2c1.8,0,3.3-1.5,3.3-3.3V4.2
		C49.2,2.3,47.7,0.8,45.8,0.8z"/>
	<g>
		<path class="st1" d="M7.5,50H5.8v-2.2c-2-2.8-2.2-6.5-0.3-9.4l0.6-1l1.4,0.9l-0.6,1c-1.5,2.4-1.4,5.5,0.4,7.7
			c0.1,0.1,0.2,0.3,0.2,0.5L7.5,50L7.5,50z"/>
		<path class="st1" d="M27.5,50h-1.7v-2.5c0-0.2,0.1-0.4,0.2-0.5c1.8-2.2,1.9-5.3,0.4-7.7l-0.6-1l1.4-0.9l0.6,1
			c1.8,2.9,1.7,6.6-0.3,9.4V50z"/>
	</g>
	<path class="st0" d="M28.3,20.8v-8.3c0-6.4-5.2-11.7-11.7-11.7l0,0C10.2,0.8,5,6.1,5,12.5v8.3c0,2.8,2.2,5,5,5h13.3
		C26.1,25.8,28.3,23.6,28.3,20.8z"/>
	<g>
		<rect x="35" y="4.2" class="st2" width="5.8" height="1.7"/>
		<rect x="42.5" y="4.2" class="st2" width="3.3" height="1.7"/>
		<rect x="35" y="7.5" class="st2" width="10.8" height="1.7"/>
		<rect x="35" y="10.8" class="st2" width="5.8" height="1.7"/>
	</g>
	<g>
		<path class="st3" d="M7.5,50H5.8v-2.2c-2-2.8-2.2-6.5-0.3-9.4l0.6-1l1.4,0.9l-0.6,1c-1.5,2.4-1.4,5.5,0.4,7.7
			c0.1,0.1,0.2,0.3,0.2,0.5L7.5,50L7.5,50z"/>
		<path class="st3" d="M27.5,50h-1.7v-2.5c0-0.2,0.1-0.4,0.2-0.5c1.8-2.2,1.9-5.3,0.4-7.7l-0.6-1l1.4-0.9l0.6,1
			c1.8,2.9,1.7,6.6-0.3,9.4V50z"/>
	</g>
	<path class="st4" d="M23.3,25.8h-0.8v1.7h0.8c3.2,0,5.8-2.6,5.8-5.8v-9.2C29.2,5.6,23.6,0,16.7,0S4.2,5.6,4.2,12.5v9.2
		c0,3.2,2.6,5.8,5.8,5.8h0.8v-1.7H10c-2.3,0-4.2-1.9-4.2-4.2v-9.2c0-6,4.8-10.8,10.8-10.8s10.8,4.8,10.8,10.8v9.2
		C27.5,24,25.6,25.8,23.3,25.8z"/>
	<path class="st4" d="M7.5,38.3l-1.4-0.9l-0.6,1c-1.8,2.9-1.7,6.6,0.3,9.4V50h1.7v-2.5c0-0.2-0.1-0.4-0.2-0.5
		c-1.8-2.2-1.9-5.3-0.4-7.7L7.5,38.3z"/>
	<path class="st4" d="M45.8,0H35c-2.3,0-4.2,1.9-4.2,4.2v8.3c0,2.3,1.9,4.2,4.2,4.2h1.7V20c0,0.3,0.2,0.6,0.5,0.8
		c0.1,0,0.2,0.1,0.3,0.1c0.2,0,0.4-0.1,0.6-0.2l3.9-3.9h3.8c2.3,0,4.2-1.9,4.2-4.2V4.2C50,1.9,48.1,0,45.8,0z M48.3,12.5
		c0,1.4-1.1,2.5-2.5,2.5h-4.2c-0.2,0-0.4,0.1-0.6,0.2L38.3,18v-2.2c0-0.5-0.4-0.8-0.8-0.8H35c-1.4,0-2.5-1.1-2.5-2.5V4.2
		c0-1.4,1.1-2.5,2.5-2.5h10.8c1.4,0,2.5,1.1,2.5,2.5V12.5z"/>
	<rect x="35" y="4.2" class="st4" width="5.8" height="1.7"/>
	<rect x="42.5" y="4.2" class="st4" width="3.3" height="1.7"/>
	<rect x="35" y="7.5" class="st4" width="10.8" height="1.7"/>
	<rect x="35" y="10.8" class="st4" width="5.8" height="1.7"/>
	<path class="st4" d="M25.9,47.5V50h1.7v-2.2c2-2.8,2.2-6.5,0.3-9.4l-0.6-1l-1.4,0.9l0.6,1c1.5,2.4,1.4,5.5-0.4,7.7
		C25.9,47.1,25.9,47.3,25.9,47.5z"/>
	<polygon class="st5" points="9.4,15.1 23.2,8.3 24.2,9.8 24.2,20 22.1,23.7 18.5,25.6 14.1,25.4 10.8,22.9 9,18.8 	"/>
	<path class="st4" d="M1.7,35c0-2.3,1.9-4.2,4.2-4.2h2.7L16,41.3c0.2,0.2,0.4,0.3,0.7,0.3h0c0.3,0,0.5-0.1,0.7-0.3l7.9-10.5h2.2
		c2.3,0,4.2,1.9,4.2,4.2v6.7c0,0.5,0.4,0.8,0.8,0.8c0.3,0,0.6-0.2,0.7-0.4l3.9-7.1h4.8l-8.1,15h1.9l8.1-15h0.3
		c3.2,0,5.8-2.6,5.8-5.8c0-0.5-0.4-0.8-0.8-0.8h-7.5c-3.1,0-5.7,2.5-5.8,5.6l-2.5,4.5V35c0-3.2-2.6-5.8-5.8-5.8h-3l0,0l0,0h-1.9
		c-0.9,0-1.7-0.7-1.7-1.7v-2c2.6-1.5,4.2-4.2,4.2-7.2v-6.7c0-1.4-0.3-2.7-1-4c-0.2-0.4-0.7-0.5-1.1-0.4L8.8,14
		c-0.3,0.1-0.5,0.4-0.5,0.8v3.6c0,3,1.6,5.7,4.2,7.2v2c0,0.9-0.7,1.7-1.7,1.7h-5C2.6,29.2,0,31.8,0,35v15h1.7V35z M41.7,30h6.6
		c-0.4,1.9-2.1,3.3-4.1,3.3h-6.6C38,31.4,39.7,30,41.7,30z M16.7,39.4l-2.6-3.6h5.3L16.7,39.4z M10,18.3v-3.1l12.9-6.1
		c0.3,0.8,0.5,1.6,0.5,2.4v6.7c0,3.7-3,6.7-6.7,6.7S10,22,10,18.3z M10.8,30.8c1.8,0,3.3-1.5,3.3-3.3v-1.2c1.6,0.5,3.4,0.5,5,0v1.2
		c0,1.8,1.5,3.3,3.3,3.3h0.7l-2.5,3.3h-7.7l-2.4-3.3H10.8z"/>
</g>
</svg>
