<?xml version="1.0" encoding="utf-8"?>
<!-- Generator: Adobe Illustrator 24.0.2, SVG Export Plug-In . SVG Version: 6.00 Build 0)  -->
<svg version="1.1" id="Capa_1" xmlns="http://www.w3.org/2000/svg" xmlns:xlink="http://www.w3.org/1999/xlink" x="0px" y="0px"
	 viewBox="0 0 50 49.7" style="enable-background:new 0 0 50 49.7;" xml:space="preserve">
<style type="text/css">
	.st0{fill:#F96969;}
	.st1{fill:#333333;}
	.st2{fill:none;}
</style>
<path class="st0" d="M27.9,24.5H0.7V3l3.1-2.3l32.8,0.2l2.9,2.6l-0.5,11.5C39.1,14.9,29.6,16.1,27.9,24.5z"/>
<ellipse class="st0" cx="35.3" cy="44.1" rx="3.2" ry="4.6"/>
<g>
	<g>
		<path class="st1" d="M26.8,38H3.3c-0.5,0-0.8,0.4-0.8,0.8v10c0,0.5,0.4,0.8,0.8,0.8h23.4c0.5,0,0.8-0.4,0.8-0.8v-10
			C27.6,38.4,27.2,38,26.8,38z M25.9,48.1H4.2v-8.4h21.7V48.1z"/>
	</g>
</g>
<g>
	<g>
		<rect x="5.9" y="44.7" class="st1" width="1.7" height="1.7"/>
	</g>
</g>
<g>
	<g>
		<rect x="5.9" y="41.4" class="st1" width="1.7" height="1.7"/>
	</g>
</g>
<g>
	<g>
		<rect x="9.2" y="41.4" class="st1" width="1.7" height="1.7"/>
	</g>
</g>
<g>
	<g>
		<rect x="12.5" y="41.4" class="st1" width="1.7" height="1.7"/>
	</g>
</g>
<g>
	<g>
		<rect x="19.2" y="41.4" class="st1" width="1.7" height="1.7"/>
	</g>
</g>
<g>
	<g>
		<rect x="15.9" y="41.4" class="st1" width="1.7" height="1.7"/>
	</g>
</g>
<g>
	<g>
		<rect x="22.6" y="44.7" class="st1" width="1.7" height="1.7"/>
	</g>
</g>
<g>
	<g>
		<rect x="22.6" y="41.4" class="st1" width="1.7" height="1.7"/>
	</g>
</g>
<g>
	<g>
		<rect x="9.2" y="44.7" class="st1" width="11.7" height="1.7"/>
	</g>
</g>
<g>
	<g>
		<path class="st1" d="M35.3,38c-2.3,0-4.2,1.9-4.2,4.2v3.3c0,2.3,1.9,4.2,4.2,4.2c2.3,0,4.2-1.9,4.2-4.2v-3.3
			C39.5,39.9,37.6,38,35.3,38z M37.8,45.6c0,1.4-1.1,2.5-2.5,2.5c-1.4,0-2.5-1.1-2.5-2.5v-3.3c0-1.4,1.1-2.5,2.5-2.5
			c1.4,0,2.5,1.1,2.5,2.5V45.6z"/>
	</g>
</g>
<g>
	<g>
		<rect x="34.4" y="41.4" class="st1" width="1.7" height="1.7"/>
	</g>
</g>
<g>
	<g>
		<rect x="14" y="12.6" transform="matrix(0.2751 -0.9614 0.9614 0.2751 1.6675 29.0047)" class="st1" width="12.2" height="1.7"/>
	</g>
</g>
<g>
	<g>
		<path class="st1" d="M15.6,9.8l-1.1-1.3l-5,4.2c-0.4,0.3-0.4,0.8-0.1,1.2c0,0,0.1,0.1,0.1,0.1l5,4.2l1.1-1.3l-4.2-3.5L15.6,9.8z"
			/>
	</g>
</g>
<g>
	<g>
		<path class="st1" d="M30.8,12.8c0,0-0.1-0.1-0.1-0.1l-5-4.2l-1.1,1.3l4.2,3.5l-4.2,3.5l1.1,1.3l5-4.2C31,13.7,31,13.2,30.8,12.8z"
			/>
	</g>
</g>
<path class="st2" d="M1.7,26.8c0,1.4,1.1,2.5,2.5,2.5h23.7c-0.3-1-0.5-2.2-0.5-3.3c0-0.3,0-0.6,0-0.9H1.7V26.8z"/>
<path class="st2" d="M36,1.7H4.2c-1.4,0-2.5,1.1-2.5,2.5v19.2h26.1c1.1-5,5.5-8.7,10.7-8.9V4.2C38.5,2.8,37.4,1.7,36,1.7z"/>
<polygon class="st2" points="17.4,30.9 16.2,35.1 24,35.1 22.8,30.9 "/>
<path class="st1" d="M4.2,29.3c-1.4,0-2.5-1.1-2.5-2.5v-1.7h25.8c0-0.6,0.1-1.1,0.2-1.7H1.7V4.2c0-1.4,1.1-2.5,2.5-2.5H36
	c1.4,0,2.5,1.1,2.5,2.5v10.4c0.1,0,0.3,0,0.4,0c0.4,0,0.9,0,1.3,0.1V4.2C40.1,1.9,38.3,0,36,0H4.2C1.9,0,0,1.9,0,4.2v22.6
	c0,2.3,1.9,4.2,4.2,4.2h11.4l-1.2,4.2h-2.7v1.7h16.7v-1.7h-2.7l-1.2-4.2h4.1c-0.3-0.5-0.5-1.1-0.7-1.7H4.2z M16.2,35.1l1.2-4.2h5.4
	l1.2,4.2H16.2z"/>
<path class="st0" d="M46.2,32.8c0,1.3,2.7-4.1,2.2-3C46.9,34,42.9,37,38.1,37c-3.8,0-7.1-1.8-9-4.7c-1.2-1.7,1.8,1.5,1.8-0.7
	c0-2,4.9-3.2,4.6-5.1c-0.3-1.8-2.6-4.9-1-5.8c1.6-0.9,2.7-0.7,4.4-1.7c0.9-0.6,1.9,0.7,3.3,3.4c1,2.1-2.5,3.3-1,5.1
	C42.5,29.2,46.2,30.3,46.2,32.8z"/>
<path class="st1" d="M38.5,37.6C44.8,37.6,50,32.4,50,26s-5.2-11.5-11.5-11.5S27,19.6,27,26S32,37.6,38.5,37.6z M38.5,35.9
	c-2.8,0-5.3-1.1-7.1-3c0.4-1.3,1.1-2.3,2-3.2l1.3,5.2l3.8-2.8l3.8,2.8l1.3-5.2c0.9,0.9,1.6,1.9,2,3.2C43.7,34.8,41.2,35.9,38.5,35.9
	z M35.1,22.8c0-1.8,1.5-3.3,3.3-3.3s3.3,1.5,3.3,3.3c0,1.8-1.5,3.3-3.3,3.3S35.1,24.6,35.1,22.8z M38.5,29.6l-1.6-1.8
	c0.5-0.1,1-0.2,1.5-0.2c0.5,0,1,0.1,1.5,0.2L38.5,29.6z M41.6,28.4c0.1,0.1,0.3,0.1,0.4,0.2l-0.8,3.4l-1.6-1.2L41.6,28.4z
	 M35.2,28.4l2,2.4l-1.6,1.2l-0.8-3.4C34.9,28.5,35,28.5,35.2,28.4z M38.5,16.1c5.5,0,9.9,4.4,9.9,9.9c0,2-0.6,3.8-1.6,5.4
	c-1-2.3-2.9-4-5.2-4.9c1.1-0.9,1.8-2.3,1.8-3.8c0-2.7-2.2-5-5-5c-2.7,0-5,2.2-5,5c0,1.5,0.7,2.9,1.8,3.8c-2.3,0.8-4.1,2.5-5.2,4.9
	c-1-1.5-1.6-3.4-1.6-5.4C28.5,20.5,32.9,16.1,38.5,16.1L38.5,16.1z"/>
</svg>
