<svg xmlns="http://www.w3.org/2000/svg" width="50" height="50" viewBox="0 0 50 50"><title>icons</title><circle cx="25" cy="33.87" r="10.48" fill="#f96969"/><rect x="37.1" y="32.26" width="6.45" height="1.61" fill="#f96969"/><rect x="37.1" y="35.48" width="6.45" height="1.61" fill="#f96969"/><rect x="41.94" y="38.71" width="1.61" height="1.61" fill="#f96969"/><rect x="37.1" y="38.71" width="3.23" height="1.61" fill="#f96969"/><rect x="6.45" y="16.13" width="8.06" height="1.61" fill="#f96969"/><rect x="6.45" y="19.35" width="8.06" height="1.61" fill="#f96969"/><rect x="6.45" y="22.58" width="8.06" height="1.61" fill="#f96969"/><path d="M0,0V8.06H50V0ZM48.39,6.45H1.61V1.61H48.39Z" fill="#333"/><rect x="3.23" y="3.23" width="1.61" height="1.61" fill="#333"/><rect x="6.45" y="3.23" width="1.61" height="1.61" fill="#333"/><rect x="9.68" y="3.23" width="1.61" height="1.61" fill="#333"/><polygon points="48.39 48.39 1.61 48.39 1.61 7.68 0 7.68 0 50 50 50 50 7.68 48.39 7.68 48.39 48.39" fill="#333"/><path d="M25,27.42a4,4,0,0,0-2.42,7.24v5.66h4.84V34.66A4,4,0,0,0,25,27.42Zm1.21,6.11-.4.24v4.94H24.19V33.77l-.4-.24a2.39,2.39,0,0,1-1.21-2.08,2.42,2.42,0,0,1,4.84,0A2.39,2.39,0,0,1,26.21,33.53Z" fill="#333"/><polygon points="35.48 41.94 35.48 43.55 46.77 43.55 46.77 29.03 37.1 29.03 37.1 30.64 45.16 30.64 45.16 41.94 35.48 41.94" fill="#333"/><path d="M25,11.29a8.88,8.88,0,0,0-8.87,8.87v6.75a11.29,11.29,0,1,0,17.74,0V20.16A8.88,8.88,0,0,0,25,11.29Zm0,1.61a7.27,7.27,0,0,1,7.26,7.26v5.08a10.59,10.59,0,0,0-1.61-1.13V20.16a5.65,5.65,0,0,0-11.3,0v3.95a11.28,11.28,0,0,0-1.61,1.12V20.16A7.27,7.27,0,0,1,25,12.9Zm4,10.44a11.06,11.06,0,0,0-8.06,0V20.16a4,4,0,1,1,8.06,0ZM25,43.55a9.68,9.68,0,1,1,9.68-9.68A9.69,9.69,0,0,1,25,43.55Z" fill="#333"/><polygon points="3.23 27.42 14.52 27.42 14.52 25.81 4.84 25.81 4.84 14.52 16.13 14.52 16.13 12.9 3.23 12.9 3.23 27.42" fill="#333"/></svg>