<svg xmlns="http://www.w3.org/2000/svg" width="50" height="50" viewBox="0 0 50 50"><title>icons</title><path d="M25,.83V6.15a3.34,3.34,0,1,1,.34,4.7,2.65,2.65,0,0,1-.34-.33v5.31h5l5,5v-5H45V.83Z" fill="#f96969"/><path d="M27.5,5A3.34,3.34,0,0,0,25,6.15V.83H5v15H15v5l5-5h5V10.52A3.34,3.34,0,1,0,27.5,5Z" fill="#f96969"/><path d="M.83,39.17h2.5v10a.84.84,0,0,0,.84.83H12.5a.83.83,0,0,0,.83-.83V33.33h7.5a.84.84,0,0,0,.84-.83V29.17a.85.85,0,0,0-.84-.84H12.05a5,5,0,1,0-7.43,0H4.17A4.17,4.17,0,0,0,0,32.5v5.83A.84.84,0,0,0,.83,39.17ZM5,25a3.34,3.34,0,1,1,3.33,3.33A3.33,3.33,0,0,1,5,25ZM1.67,32.5A2.5,2.5,0,0,1,4.17,30H20v1.67H12.5a.83.83,0,0,0-.83.83V48.33H9.17V39.17H7.5v9.16H5V32.5H3.33v5H1.67Z" fill="#333"/><path d="M45.83,28.33h-.45a5,5,0,1,0-7.43,0H37.5a4.17,4.17,0,0,0-4.17,4.17v5.83a.85.85,0,0,0,.84.84h2.5v10a.83.83,0,0,0,.83.83h8.33a.84.84,0,0,0,.84-.83v-10h2.5a.84.84,0,0,0,.83-.84V32.5A4.17,4.17,0,0,0,45.83,28.33ZM38.33,25a3.34,3.34,0,1,1,3.34,3.33A3.34,3.34,0,0,1,38.33,25Zm10,12.5H46.67v-5H45V48.33H42.5V39.17H40.83v9.16h-2.5V32.5H36.67v5H35v-5A2.5,2.5,0,0,1,37.5,30h8.33a2.5,2.5,0,0,1,2.5,2.5Z" fill="#333"/><path d="M14.68,21.6a.71.71,0,0,0,.32.07.83.83,0,0,0,.59-.25l4.75-4.75h9.32l4.75,4.75a.83.83,0,0,0,.59.25.71.71,0,0,0,.32-.07.83.83,0,0,0,.51-.77V16.67H45a.84.84,0,0,0,.83-.84V.83A.83.83,0,0,0,45,0H5a.83.83,0,0,0-.83.83v15a.84.84,0,0,0,.83.84h9.17v4.16A.83.83,0,0,0,14.68,21.6ZM44.17,15H35a.83.83,0,0,0-.83.83v3l-3.58-3.59A.87.87,0,0,0,30,15H25.83V12.14a4,4,0,0,0,1.67.36,4.17,4.17,0,1,0-1.67-8V1.67H44.17ZM5.83,15V1.67H24.17V6.15A.83.83,0,0,0,25,7a.84.84,0,0,0,.63-.28,2.49,2.49,0,1,1,1.87,4.13A2.46,2.46,0,0,1,25.63,10a.83.83,0,0,0-1.18-.07.8.8,0,0,0-.28.62V15H20a.87.87,0,0,0-.59.24l-3.58,3.59v-3A.83.83,0,0,0,15,15Z" fill="#333"/><path d="M8.33,4.17H21.67V5.83H8.33Z" fill="#333"/><path d="M8.33,7.5H21.67V9.17H8.33Z" fill="#333"/><path d="M8.33,10.83H21.67V12.5H8.33Z" fill="#333"/><path d="M34.17,4.17h7.5V5.83h-7.5Z" fill="#333"/><path d="M34.17,7.5h7.5V9.17h-7.5Z" fill="#333"/><path d="M34.17,10.83h7.5V12.5h-7.5Z" fill="#333"/></svg>