<svg xmlns="http://www.w3.org/2000/svg" width="50" height="49.6" viewBox="0 0 50 49.6"><title>icons</title><path d="M49,16.53V14.88l-1.53-.77-.12-.29.55-1.62L46.69,11l-1.62.54-.29-.12L44,9.92H42.36l-.77,1.53-.29.12L39.68,11,38.51,12.2l.54,1.62-.12.29-1.53.77v1.65l1.53.77.12.29-.54,1.62,1.17,1.18,1.62-.55.29.12.77,1.53H44L44.78,20l.29-.12,1.62.55,1.18-1.18-.55-1.62.12-.29Zm-5.78.83a1.66,1.66,0,1,1,1.65-1.65A1.65,1.65,0,0,1,43.19,17.36Z" fill="#f96969"/><path d="M30.79,7.44V5.79L29.26,5c0-.1-.09-.19-.13-.29l.55-1.62L28.51,1.93l-1.63.55-.28-.12L25.83.83H24.17L23.4,2.36l-.28.12L21.5,1.93,20.32,3.11l.55,1.62c0,.1-.09.19-.13.29l-1.53.77V7.44l1.53.77c0,.1.09.19.13.29l-.55,1.62,1.18,1.17,1.62-.54.28.12.77,1.53h1.66l.77-1.53.28-.12,1.63.54,1.17-1.17L29.13,8.5c0-.1.09-.19.13-.29ZM25,8.27a1.66,1.66,0,1,1,1.65-1.66A1.65,1.65,0,0,1,25,8.27Z" fill="#f96969"/><path d="M12.6,16.53V14.88l-1.53-.77L11,13.82l.54-1.62L10.32,11l-1.62.54-.29-.12L7.64,9.92H6l-.77,1.53-.29.12L3.31,11,2.13,12.2l.55,1.62-.12.29L1,14.88v1.65l1.53.77.12.29-.55,1.62,1.18,1.18,1.62-.55.29.12L6,21.49H7.64L8.41,20l.29-.12,1.62.55,1.17-1.18L11,17.59l.12-.29Zm-5.79.83a1.66,1.66,0,1,1,1.66-1.65A1.65,1.65,0,0,1,6.81,17.36Z" fill="#f96969"/><path d="M29.13,28.93c0-2.73-1.85-5-4.13-5s-4.13,2.23-4.13,5,1.85,5,4.13,5S29.13,31.67,29.13,28.93ZM25,32.24c-1.37,0-2.48-1.48-2.48-3.31s1.11-3.3,2.48-3.3,2.48,1.48,2.48,3.3S26.37,32.24,25,32.24Z" fill="#333"/><path d="M25,9.09a2.48,2.48,0,1,0-2.48-2.48A2.48,2.48,0,0,0,25,9.09Zm0-3.3a.83.83,0,1,1-.83.82A.83.83,0,0,1,25,5.79Z" fill="#333"/><path d="M18.84,8.18l1.08.54-.38,1.14a.84.84,0,0,0,.2.85l1.17,1.16a.81.81,0,0,0,.85.2l1.14-.38.54,1.08a.82.82,0,0,0,.73.46h1.66a.83.83,0,0,0,.74-.46l.54-1.08,1.14.38a.82.82,0,0,0,.85-.2l1.16-1.16a.82.82,0,0,0,.2-.85l-.38-1.14,1.08-.54a.82.82,0,0,0,.45-.74V5.79a.81.81,0,0,0-.45-.74l-1.08-.54.38-1.14a.83.83,0,0,0-.2-.85L29.09,1.35a.82.82,0,0,0-.84-.19l-1.15.38L26.57.46A.83.83,0,0,0,25.83,0H24.17a.83.83,0,0,0-.74.46L22.9,1.53l-1.15-.37a.82.82,0,0,0-.84.2L19.74,2.52a.83.83,0,0,0-.2.85l.38,1.14-1.07.54a.82.82,0,0,0-.46.74V7.44A.81.81,0,0,0,18.84,8.18ZM20,6.3l1.07-.54a.82.82,0,0,0,.41-.45,2.44,2.44,0,0,1,.1-.24.88.88,0,0,0,0-.6l-.38-1.14.44-.45,1.14.38a.81.81,0,0,0,.61,0l.24-.1a.84.84,0,0,0,.45-.4l.53-1.08h.64l.53,1.08a.84.84,0,0,0,.45.4l.24.1a.78.78,0,0,0,.6,0l1.14-.38.45.45-.38,1.14a.83.83,0,0,0,0,.6l.1.24a.81.81,0,0,0,.4.45L30,6.3v.63l-1.08.54a.82.82,0,0,0-.4.44,1.86,1.86,0,0,1-.1.25.83.83,0,0,0,0,.6l.38,1.14-.45.44L27.14,10a.83.83,0,0,0-.6,0l-.24.09a.9.9,0,0,0-.45.41l-.53,1.07h-.64l-.53-1.07a.9.9,0,0,0-.45-.41L23.46,10a.86.86,0,0,0-.61,0l-1.14.38-.44-.44.38-1.14a.86.86,0,0,0,0-.61l-.09-.24a.84.84,0,0,0-.41-.44L20,6.93Z" fill="#333"/><path d="M6.81,18.19a2.48,2.48,0,1,0-2.48-2.48A2.48,2.48,0,0,0,6.81,18.19Zm0-3.31a.83.83,0,1,1-.82.83A.83.83,0,0,1,6.81,14.88Z" fill="#333"/><path d="M.66,17.28l1.07.53L1.36,19a.83.83,0,0,0,.2.85L2.73,21a.82.82,0,0,0,.84.2l1.14-.38.54,1.07a.82.82,0,0,0,.74.46H7.64a.83.83,0,0,0,.74-.46l.54-1.07,1.14.38a.82.82,0,0,0,.84-.2l1.17-1.17a.81.81,0,0,0,.2-.85l-.38-1.14L13,17.27a.82.82,0,0,0,.46-.74V14.88a.83.83,0,0,0-.46-.74L11.9,13.6l.37-1.14a.83.83,0,0,0-.19-.85l-1.17-1.16a.82.82,0,0,0-.85-.2l-1.14.38L8.38,9.55a.83.83,0,0,0-.74-.46H6a.82.82,0,0,0-.74.46l-.54,1.08-1.14-.38a.83.83,0,0,0-.85.2L1.55,11.61a.83.83,0,0,0-.19.85l.38,1.14-1.08.54a.83.83,0,0,0-.46.74v1.65A.84.84,0,0,0,.66,17.28Zm1.19-1.89,1.08-.54a.82.82,0,0,0,.4-.44c0-.09.07-.17.1-.25a.78.78,0,0,0,0-.6l-.38-1.14L3.53,12l1.14.38a.83.83,0,0,0,.6,0l.24-.09A.82.82,0,0,0,6,11.82l.54-1.07h.63l.54,1.07a.82.82,0,0,0,.45.41l.23.09a.86.86,0,0,0,.61,0L10.1,12l.44.44-.38,1.14a.86.86,0,0,0,0,.61c0,.08.06.15.09.24a.84.84,0,0,0,.41.44l1.07.54V16l-1.07.54a.82.82,0,0,0-.41.45,2.44,2.44,0,0,1-.1.24.88.88,0,0,0,0,.6L10.54,19l-.44.45L9,19.06a.81.81,0,0,0-.61,0l-.23.1a.77.77,0,0,0-.45.4l-.54,1.08H6.5L6,19.59a.77.77,0,0,0-.45-.4l-.24-.1a.78.78,0,0,0-.6,0l-1.14.38L3.08,19l.38-1.14a.81.81,0,0,0,0-.61,1.6,1.6,0,0,1-.1-.23.81.81,0,0,0-.4-.45L1.85,16Z" fill="#333"/><path d="M40.71,15.71a2.48,2.48,0,1,0,2.48-2.48A2.48,2.48,0,0,0,40.71,15.71Zm3.3,0a.83.83,0,1,1-.82-.83A.82.82,0,0,1,44,15.71Z" fill="#333"/><path d="M42.36,9.09a.83.83,0,0,0-.74.46l-.54,1.08-1.14-.38a.82.82,0,0,0-.84.2l-1.17,1.16a.82.82,0,0,0-.2.85l.38,1.14L37,14.14a.83.83,0,0,0-.46.74v1.65a.82.82,0,0,0,.46.74l1.08.54L37.73,19a.83.83,0,0,0,.19.85L39.09,21a.84.84,0,0,0,.85.2l1.14-.38.54,1.07a.83.83,0,0,0,.74.46H44a.84.84,0,0,0,.75-.46l.53-1.07,1.15.38a.82.82,0,0,0,.84-.2l1.17-1.17a.83.83,0,0,0,.2-.85l-.38-1.14,1.08-.54a.81.81,0,0,0,.45-.74V14.88a.83.83,0,0,0-.46-.74l-1.07-.54.38-1.14a.84.84,0,0,0-.2-.85l-1.17-1.16a.81.81,0,0,0-.85-.2l-1.14.38-.54-1.08A.82.82,0,0,0,44,9.09Zm2.13,3.14.24.09a.83.83,0,0,0,.6,0L46.47,12l.45.44-.38,1.14a.81.81,0,0,0,0,.61,1.73,1.73,0,0,1,.1.24.82.82,0,0,0,.4.44l1.08.54V16l-1.08.54a.81.81,0,0,0-.4.45,1.6,1.6,0,0,1-.1.23.81.81,0,0,0,0,.61L46.92,19l-.45.45-1.14-.38a.78.78,0,0,0-.6,0l-.24.1a.77.77,0,0,0-.45.4l-.54,1.08h-.63l-.54-1.08a.77.77,0,0,0-.45-.4l-.23-.1a.81.81,0,0,0-.61,0l-1.14.38L39.46,19l.38-1.14a.83.83,0,0,0,0-.6c0-.08-.06-.17-.09-.24a.82.82,0,0,0-.41-.45L38.23,16v-.63l1.07-.54a.78.78,0,0,0,.4-.44c0-.09.07-.17.1-.25a.78.78,0,0,0,0-.6l-.37-1.14L39.9,12l1.14.38a.86.86,0,0,0,.61,0l.23-.09a.82.82,0,0,0,.45-.41l.54-1.07h.63L44,11.82A.82.82,0,0,0,44.49,12.23Z" fill="#333"/><path d="M38.86,31.35l-7.38,2.54h-13l-7.33-2.52a2.18,2.18,0,0,0-2.82,1.1,2.43,2.43,0,0,0-.18.84,2.12,2.12,0,0,0,1.32,1.94l7.82,3.23.23.33v10a.83.83,0,0,0,.83.83H31.61a.83.83,0,0,0,.83-.83v-10l.23-.33,7.83-3.23a2.13,2.13,0,0,0,1.16-1.18,2,2,0,0,0,0-1.6A2.18,2.18,0,0,0,38.86,31.35Zm1.27,2.11a.49.49,0,0,1-.27.26l-8,3.33a.85.85,0,0,0-.36.29l-.52.74a.83.83,0,0,0-.15.48V48H19.21v-9.4a.8.8,0,0,0-.15-.47l-.52-.75a.79.79,0,0,0-.36-.29l-8-3.32a.48.48,0,0,1-.3-.42.47.47,0,0,1,0-.16.54.54,0,0,1,.72-.23l7.52,2.59a.86.86,0,0,0,.27,0H31.61a.81.81,0,0,0,.27,0l7.57-2.6a.52.52,0,0,1,.67.24A.44.44,0,0,1,40.13,33.46Z" fill="#333"/><path d="M28.31,45.47H30v1.65H28.31Z" fill="#333"/><path d="M25.83,45.47h1.65v1.65H25.83Z" fill="#333"/><path d="M28.31,43H30v1.65H28.31Z" fill="#333"/><path d="M7.6,30.59a4.41,4.41,0,0,1-4.15-2.77,4.23,4.23,0,0,1,.12-3.09l.9,1.36,1.38-.92L4.19,22.69a.82.82,0,0,0-.65-.37.86.86,0,0,0-.23.05v0L0,23.17l.4,1.6,1.54-.38a5.74,5.74,0,0,0,0,4A6,6,0,0,0,7.6,32.24h.05l0-1.65Z" fill="#333"/><path d="M50,23.17l-3.31-.83v0a.71.71,0,0,0-.89.32l-1.65,2.48,1.37.92.91-1.36a4.28,4.28,0,0,1,.11,3.09,4.4,4.4,0,0,1-4.14,2.77h0l0,1.65h0a6,6,0,0,0,5.69-3.84,5.82,5.82,0,0,0,0-4l1.53.38Z" fill="#333"/><path d="M7.64,7.44h9.92V5.79H6.81A.82.82,0,0,0,6,6.61V8.27H7.64Z" fill="#333"/><path d="M42.36,8.27H44V6.61a.82.82,0,0,0-.82-.82H32.44V7.44h9.92Z" fill="#333"/></svg>