<svg xmlns="http://www.w3.org/2000/svg" width="50" height="50" viewBox="0 0 50 50"><title>icons</title><path d="M43.55,42.74V20.16h-4V38.71a.82.82,0,0,1-.81.81H6.45a.81.81,0,0,1-.8-.81V16.13a.8.8,0,0,1,.8-.81h7.26a4.82,4.82,0,0,1,1.93-3.86l-.47-.14-9.52,0a4,4,0,0,0-4,4V42.74Z" fill="#f96969"/><path d="M11.29,29h6.45v4H11.29Z" fill="#f96969"/><path d="M22.58,22.58H33.87v4H22.58Z" fill="#f96969"/><path d="M6.45,45.16H8.06v1.61H6.45Z" fill="#333"/><path d="M9.68,45.16h1.61v1.61H9.68Z" fill="#333"/><path d="M0,46a4,4,0,0,0,4,4h37.1a4,4,0,0,0,4-4v-4H0Zm28-2.42-.4,1.61h-10l-.41-1.61Zm-26.39,0H15.5l.81,3.22H28.86l.8-3.22H43.55V46a2.43,2.43,0,0,1-2.42,2.42H4A2.43,2.43,0,0,1,1.61,46Z" fill="#333"/><path d="M45.12,9.73a7.25,7.25,0,0,0-10-5.93A9.67,9.67,0,0,0,17.74,9.68s0,0,0,.06A5.65,5.65,0,0,0,13,14.52H6.45a1.61,1.61,0,0,0-1.61,1.61V38.71a1.61,1.61,0,0,0,1.61,1.61H38.71a1.61,1.61,0,0,0,1.61-1.61V21h4a5.65,5.65,0,0,0,.77-11.24Zm-6.41,29H6.45V16.13H13A5.65,5.65,0,0,0,18.55,21h.8v4.84H8.06V37.1H25.81V30.65H37.1V21h1.61ZM24.19,30.65v4.83H9.68V27.42h9.67v3.23ZM21,29V21H35.48V29Zm23.38-9.68H18.55a4,4,0,0,1-.65-8,9.6,9.6,0,0,0,.91,2.74l1.43-.74a8,8,0,0,1-.89-3.68A8.06,8.06,0,0,1,33.67,4.6,7.26,7.26,0,0,0,32.19,6l1.27,1a5.65,5.65,0,0,1,10.09,3.48v.81h.8a4,4,0,1,1,0,8.06Z" fill="#333"/><path d="M29.09,17.48,32.32,7.8l1.53.51L30.62,18Z" fill="#333"/><path d="M34.16,9.49l4.1,3.41-4.1,3.42,1,1.24,5.59-4.66L35.19,8.25Z" fill="#333"/><path d="M27.71,8.25,22.13,12.9l5.58,4.66,1-1.24L24.65,12.9l4.09-3.41Z" fill="#333"/><path d="M22.58,22.58H33.87v1.61H22.58Z" fill="#333"/><path d="M22.58,25.81H33.87v1.61H22.58Z" fill="#333"/><path d="M11.29,29h6.45v1.62H11.29Z" fill="#333"/><path d="M11.29,32.26H22.58v1.61H11.29Z" fill="#333"/><path d="M8.06,22.58H9.68v1.61H8.06Z" fill="#333"/><path d="M9.68,19.35h1.61V17.74H8.06V21H9.68Z" fill="#333"/></svg>