<svg xmlns="http://www.w3.org/2000/svg" width="50" height="50" viewBox="0 0 50 50"><title>icons</title><path d="M12.9,41.94H37.1v1.61H12.9Z" fill="#f96969"/><path d="M27.46,39.52l-1.54-7.37-1.75-.06-1.55,7.43Z" fill="#f96969"/><path d="M25.85,24.19H24.23a2.42,2.42,0,1,1,0-4.84h1.62a2.42,2.42,0,0,1,0,4.84Z" fill="#f96969"/><path d="M38.71,40.63v4.22l4,2,4-2V40.63l-4-2Zm6.45,3.23-2.42,1.21-2.42-1.21V41.63l2.42-1.21,2.42,1.21Z" fill="#333"/><path d="M35.48,41.94H37.1v1.61H35.48Z" fill="#333"/><path d="M32.26,41.94h1.61v1.61H32.26Z" fill="#333"/><path d="M29,41.94h1.62v1.61H29Z" fill="#333"/><path d="M42.74,35.48A7.17,7.17,0,0,0,39,36.53,14.46,14.46,0,0,0,29,26.37a8.12,8.12,0,0,0,3.42-3.79h.68a4,4,0,0,0,2.25-7.37,10.46,10.46,0,0,0-20.64,0A4,4,0,0,0,17,22.58h.67a8.05,8.05,0,0,0,3.42,3.78A14.47,14.47,0,0,0,11,36.57a7.23,7.23,0,0,0-3.78-1.09A7.32,7.32,0,0,0,.92,39.11l-.57,1,4.81,1,1.13,1.69-1.13,1.7-4.81,1,.57,1a7.3,7.3,0,0,0,12.37.4H36.71a7.26,7.26,0,1,0,6-11.29Zm-12.64-7L28.64,33.3,26.3,31.42l3.52-3.07Zm3-7.49h-.16a7.81,7.81,0,0,0,.16-1.62,8.07,8.07,0,0,0-.67-3.22h.67a2.42,2.42,0,1,1,0,4.84ZM25,8.06a8.87,8.87,0,0,1,8.53,6.5c-.15,0-.3,0-.47,0H31.48a8,8,0,0,0-12.88,0H17c-.16,0-.32,0-.47,0A8.88,8.88,0,0,1,25,8.06ZM17,21a2.42,2.42,0,0,1,0-4.84h.67A8.07,8.07,0,0,0,17,19.35,7.81,7.81,0,0,0,17.14,21Zm1.61-1.62a6.45,6.45,0,0,1,12.9,0A6.66,6.66,0,0,1,31.28,21H27.46v1.61h3.16a6.44,6.44,0,0,1-12-3.23ZM28,27.78l-3,2.6-3-2.6a12.43,12.43,0,0,1,5.94,0ZM21.44,33.3,20,28.46l.27-.12,3.52,3.08Zm-2.92-4.11,2.06,6.86L25,32.48l4.46,3.57,2.06-6.86a12.86,12.86,0,0,1,6.06,8.44,7.32,7.32,0,0,0-.91,1.08H33.87V35.48H32.26v3.23H17.74V35.48H16.13v3.23H13.29a7.54,7.54,0,0,0-.85-1,12.83,12.83,0,0,1,6.08-8.5Zm24.22,19.2a5.67,5.67,0,0,1-4.88-2.83l-.24-.4H12.37l-.23.4a5.67,5.67,0,0,1-4.88,2.83A5.76,5.76,0,0,1,3,46.51l3.13-.62,2.1-3.15L6.13,39.6,3,39A5.75,5.75,0,0,1,7.26,37.1a5.66,5.66,0,0,1,4.88,2.82l.23.4H37.63l.23-.4a5.64,5.64,0,1,1,4.88,8.47Z" fill="#333"/><path d="M47.29,0,42.45,4H39.52A2.42,2.42,0,0,0,37.1,6.45v8.07a2.42,2.42,0,0,0,2.42,2.42h2.93l4.84,4H50V0ZM41.94,15.32H39.52a.8.8,0,0,1-.81-.8V6.45a.8.8,0,0,1,.81-.8h2.42Zm6.45,4h-.52l-4.32-3.6V5.22l4.32-3.61h.52Z" fill="#333"/><path d="M45.16,6.45h1.61V8.06H45.16Z" fill="#333"/><path d="M45.16,9.68h1.61v1.61H45.16Z" fill="#333"/><path d="M45.16,12.9h1.61v1.62H45.16Z" fill="#333"/><path d="M7.55,16.94h2.93a2.42,2.42,0,0,0,2.42-2.42V6.45A2.42,2.42,0,0,0,10.48,4H7.55L2.71,0H0V21H2.71ZM8.06,5.65h2.42a.8.8,0,0,1,.81.8v8.07a.8.8,0,0,1-.81.8H8.06ZM1.61,19.35V1.61h.52L6.45,5.22V15.75l-4.32,3.6Z" fill="#333"/><path d="M3.23,6.45H4.84V8.06H3.23Z" fill="#333"/><path d="M3.23,9.68H4.84v1.61H3.23Z" fill="#333"/><path d="M3.23,12.9H4.84v1.62H3.23Z" fill="#333"/></svg>