<svg xmlns="http://www.w3.org/2000/svg" width="50" height="43.55" viewBox="0 0 50 43.55"><title>icons</title><path d="M34.08,18.37l3.82-1.43V15.32h0a4,4,0,0,1-1.55-2.42h-.08a2.42,2.42,0,0,1,0-4.84h.14a5.5,5.5,0,0,0,3.89-1.61,5.54,5.54,0,0,0,3.9,1.61h.13a2.42,2.42,0,1,1,0,4.84h-.08a4,4,0,0,1-1.55,2.42h0v1.62l3.83,1.43a4.06,4.06,0,0,0,2.54-1.88l.26-.52L49,15.56a4.73,4.73,0,0,1-1.38-3.32v-5a7.26,7.26,0,0,0-14.52,0v5a4.76,4.76,0,0,1-1.37,3.32l-.41.41.26.52A4,4,0,0,0,34.08,18.37Z" fill="#f96969"/><path d="M9.68,0A7.27,7.27,0,0,0,2.42,7.26v3.22h.81A2.42,2.42,0,0,1,5.65,8.06h8.06a2.42,2.42,0,0,1,2.42,2.42h.81V7.26A7.27,7.27,0,0,0,9.68,0Z" fill="#f96969"/><path d="M25,13.71A7.27,7.27,0,0,0,17.74,21v3.22h.81A2.42,2.42,0,0,1,21,21.77h.14A5.5,5.5,0,0,0,25,20.16a5.5,5.5,0,0,0,3.89,1.61H29a2.42,2.42,0,0,1,2.42,2.42h.81V21A7.27,7.27,0,0,0,25,13.71Z" fill="#f96969"/><path d="M50,21.59a4.06,4.06,0,0,0-2.62-3.78l-3.83-1.43v-.69a4.75,4.75,0,0,0,1.35-2,3.22,3.22,0,0,0-.55-6.39h-.13a4.67,4.67,0,0,1-3.33-1.38l-.57-.57-.57.57a4.67,4.67,0,0,1-3.32,1.38h-.14a3.22,3.22,0,0,0-.54,6.39,4.81,4.81,0,0,0,1.35,2v.69l-3.84,1.44a4,4,0,0,0-2.6,3.6A3.21,3.21,0,0,0,29,21h-.14a4.67,4.67,0,0,1-3.32-1.38L25,19l-.57.57A4.67,4.67,0,0,1,21.11,21H21a3.21,3.21,0,0,0-1.63.45,4.06,4.06,0,0,0-2.6-3.61L12.9,16.38v-.69a4.75,4.75,0,0,0,1.35-2,3.22,3.22,0,0,0-.54-6.39H5.65a3.22,3.22,0,0,0-.55,6.39,4.81,4.81,0,0,0,1.35,2v.69L2.62,17.81A4.06,4.06,0,0,0,0,21.59v5.83H4.84v2.42h9.68V27.42h4.83V27a3.13,3.13,0,0,0,1.07.39,4.81,4.81,0,0,0,1.35,2v.69l-3.83,1.43a4.06,4.06,0,0,0-2.62,3.78v5.83h4.84v2.42h9.68V41.13h4.84V35.3a4.06,4.06,0,0,0-2.62-3.78l-3.83-1.43V29.4a4.75,4.75,0,0,0,1.35-2A3.13,3.13,0,0,0,30.65,27v.45h4.83v2.42h9.68V27.42H50ZM46,10.48a1.61,1.61,0,0,1-.81,1.39V9.1A1.6,1.6,0,0,1,46,10.48ZM40.32,7.53a6.33,6.33,0,0,0,3.23,1.29V12.1a3.23,3.23,0,0,1-6.45,0V8.82A6.29,6.29,0,0,0,40.32,7.53Zm-5.64,3a1.59,1.59,0,0,1,.8-1.38v2.77A1.6,1.6,0,0,1,34.68,10.48Zm5.64,6.46a4.84,4.84,0,0,0,1.62-.29v0l-1.62,2.15-1.61-2.15v0A4.83,4.83,0,0,0,40.32,16.94ZM9.68,15.32A3.23,3.23,0,0,1,6.45,12.1V8.87H12.9V12.1A3.22,3.22,0,0,1,9.68,15.32Zm5.64-4.84a1.6,1.6,0,0,1-.8,1.39V9.1A1.59,1.59,0,0,1,15.32,10.48ZM4,10.48A1.6,1.6,0,0,1,4.84,9.1v2.77A1.61,1.61,0,0,1,4,10.48Zm5.65,6.46a4.83,4.83,0,0,0,1.61-.29v0L9.68,18.82,8.06,16.67v0A4.84,4.84,0,0,0,9.68,16.94ZM12.9,28.23H6.45V23.39H12.9Zm4.84-2.42H14.52v-4H4.84v4H1.61V21.59a2.45,2.45,0,0,1,1.57-2.27L7,17.9l2.7,3.61,2.7-3.61,3.79,1.43a2.42,2.42,0,0,1,1.57,2.26Zm1.61-1.62a1.62,1.62,0,0,1,.81-1.39v2.78A1.61,1.61,0,0,1,19.35,24.19Zm8.88,17.75H21.77V37.1h6.46Zm4.83-6.64v4.22H29.84v-4H20.16v4H16.94V35.3A2.45,2.45,0,0,1,18.51,33L22,31.73a3.2,3.2,0,0,0,6,0L31.49,33A2.45,2.45,0,0,1,33.06,35.3Zm-6.45-4.65a1.61,1.61,0,0,1-3.22,0v-.29a4.61,4.61,0,0,0,3.22,0ZM25,29a3.23,3.23,0,0,1-3.23-3.22V22.53A6.33,6.33,0,0,0,25,21.24a6.33,6.33,0,0,0,3.23,1.29v3.28A3.23,3.23,0,0,1,25,29Zm4.84-3.45V22.8a1.6,1.6,0,0,1,0,2.78Zm13.71,2.65H37.1V23.39h6.45Zm4.84-2.42H45.16v-4H35.48v4H32.26V21.59a2.45,2.45,0,0,1,1.57-2.27l3.79-1.42,2.7,3.61L43,17.9l3.8,1.43a2.42,2.42,0,0,1,1.57,2.26Z" fill="#333"/><path d="M23.39,38.71h3.22v1.61H23.39Z" fill="#333"/><path d="M8.06,25h3.23v1.61H8.06Z" fill="#333"/><path d="M38.71,25h3.23v1.61H38.71Z" fill="#333"/></svg>