<svg xmlns="http://www.w3.org/2000/svg" width="50" height="50" viewBox="0 0 50 50"><title>icons</title><path d="M33.87,12.9V0H0V38.71H19.35V50H50V12.9ZM1.61,1.61H32.26V6.45H1.61ZM19.35,24.19H17.74v1.62h1.61v1.61H3.23V29H19.35v1.62H3.23v1.61H19.35v1.61H6.45v1.61h12.9V37.1H1.61v-29H32.26V12.9H30.65V9.68H3.23v12.9H19.35Zm0-3.22H4.84V11.29H29V12.9H19.35Zm29,27.42H21V14.52H48.39Z" fill="#333"/><rect x="3.23" y="3.23" width="1.61" height="1.61" fill="#333"/><rect x="6.45" y="3.23" width="1.61" height="1.61" fill="#333"/><rect x="9.68" y="3.23" width="1.61" height="1.61" fill="#333"/><path d="M22.58,27.42H46.77V16.13H22.58Zm1.61-9.68h21v8.07h-21Z" fill="#333"/><rect x="3.23" y="24.19" width="12.9" height="1.61" fill="#333"/><rect x="3.23" y="33.87" width="1.61" height="1.61" fill="#333"/><path d="M22.58,46.77h12.9V29H22.58Zm1.61-16.12h9.68V45.16H24.19Z" fill="#333"/><rect x="37.1" y="29.03" width="9.68" height="1.61" fill="#333"/><rect x="40.32" y="32.26" width="6.45" height="1.61" fill="#333"/><rect x="37.1" y="32.26" width="1.61" height="1.61" fill="#333"/><rect x="37.1" y="35.48" width="9.68" height="1.61" fill="#333"/><rect x="37.1" y="38.71" width="9.68" height="1.61" fill="#333"/><rect x="37.1" y="41.94" width="9.68" height="1.61" fill="#333"/><rect x="45.16" y="45.16" width="1.61" height="1.61" fill="#333"/><rect x="37.1" y="45.16" width="6.45" height="1.61" fill="#333"/><circle cx="14.8" cy="40.31" r="9.32" fill="#fff"/><circle cx="14.71" cy="40.35" r="7.54" fill="#f96969"/><path d="M14.8,32.25a8.06,8.06,0,1,0,8.06,8.06A8.07,8.07,0,0,0,14.8,32.25ZM7.55,40.31a7.26,7.26,0,0,1,.63-3l3.46,9.47A7.24,7.24,0,0,1,7.55,40.31Zm7.25,7.25a7,7,0,0,1-2.05-.3L14.93,41l2.23,6.1a.31.31,0,0,0,.05.1A7.34,7.34,0,0,1,14.8,47.56Zm1-10.65c.44,0,.83-.07.83-.07a.3.3,0,0,0-.05-.59s-1.17.09-1.93.09-1.91-.09-1.91-.09a.3.3,0,0,0,0,.59s.37,0,.76.07L14.59,40,13,44.76l-2.64-7.85c.44,0,.83-.06.83-.06a.3.3,0,0,0,0-.6s-1.17.09-1.93.09H8.75A7.24,7.24,0,0,1,19.7,35h-.1a1.26,1.26,0,0,0-1.22,1.29A3.42,3.42,0,0,0,19.1,38a3.86,3.86,0,0,1,.59,2,8.46,8.46,0,0,1-.55,2.34l-.72,2.42Zm2.65,9.67,2.21-6.4a6.93,6.93,0,0,0,.55-2.6,5.9,5.9,0,0,0-.05-.75,7.26,7.26,0,0,1-2.71,9.75Z" fill="#333"/></svg>