<svg xmlns="http://www.w3.org/2000/svg" width="50" height="50" viewBox="0 0 50 50"><title>icons</title><path d="M46.77,25.81V18.55a4,4,0,0,0-4-4h-21a4.09,4.09,0,0,0-1.75.41,10.38,10.38,0,0,0-4.45-3,6.45,6.45,0,1,0-6.93,0,10.49,10.49,0,0,0-7,9.88v4H0V50H50V25.81ZM19.35,18.55a2.42,2.42,0,0,1,2.42-2.42h21a2.42,2.42,0,0,1,2.42,2.42V29H19.35Zm0,12.1H45.16v.8a2.42,2.42,0,0,1-2.42,2.42h-21a2.42,2.42,0,0,1-2.42-2.42Zm7.26,8.06V35.48H37.9v3.23ZM7.26,6.45a4.84,4.84,0,1,1,4.84,4.84A4.84,4.84,0,0,1,7.26,6.45Zm-4,15.32A8.88,8.88,0,0,1,12.1,12.9a8.76,8.76,0,0,1,6.64,3,4,4,0,0,0-1,2.63v7.26H7.26V18.55H5.65v7.26H3.23ZM48.39,48.39H1.61V45.16H48.39Zm0-4.84H1.61V27.42H17.74v4a4,4,0,0,0,4,4H25v3.23H21.77v1.61h21V38.71H39.52V35.48h3.22a4,4,0,0,0,4-4v-4h1.62Z" fill="#333"/><path d="M10.48,29C8,29,3.23,30,3.23,32.26v6.45c0,2.25,4.8,3.23,7.25,3.23s7.26-1,7.26-3.23V32.26C17.74,30,12.94,29,10.48,29ZM4.84,32.27c.17-.54,2.88-1.62,5.64-1.62s5.43,1.06,5.64,1.61c-.21.54-2.9,1.61-5.64,1.61S5,32.78,4.84,32.28Zm0,2a13.57,13.57,0,0,0,11.29,0v1.22C16,36,13.25,37.1,10.48,37.1S5,36,4.84,35.48Zm5.64,6.07c-2.77,0-5.48-1.09-5.64-1.61V37.47a13.81,13.81,0,0,0,5.64,1.24,13.82,13.82,0,0,0,5.65-1.24v1.22C16,39.23,13.26,40.32,10.48,40.32Z" fill="#333"/><path d="M41.13,27.42H36.29V17.74h4.84Z" fill="#f96969"/><path d="M34.68,27.42H29.84V21h4.84Z" fill="#f96969"/><path d="M28.23,27.42H23.39V19.35h4.84Z" fill="#f96969"/><path d="M40.85,7.2l4.4-4.4L46.39,4,42,8.34Z" fill="#333"/><path d="M35.94,5.63l1.14-1.14,2.83,2.84L38.77,8.47Z" fill="#333"/><path d="M29.26,9.11l4.65-4.65L35.05,5.6l-4.64,4.65Z" fill="#333"/><path d="M23.38,7.26l1-1.29,3.88,2.9-1,1.29Z" fill="#333"/><path d="M22.58,8.06A2.42,2.42,0,1,1,25,5.65,2.42,2.42,0,0,1,22.58,8.06Z" fill="#f96969"/><path d="M29,12.9a2.42,2.42,0,1,1,2.42-2.42A2.42,2.42,0,0,1,29,12.9Z" fill="#f96969"/><path d="M35.48,6.45A2.42,2.42,0,1,1,37.9,4,2.42,2.42,0,0,1,35.48,6.45Z" fill="#f96969"/><path d="M46.77,4.84a2.42,2.42,0,1,1,2.42-2.42A2.43,2.43,0,0,1,46.77,4.84Z" fill="#f96969"/><path d="M40.32,11.29a2.42,2.42,0,1,1,2.42-2.42A2.43,2.43,0,0,1,40.32,11.29Z" fill="#f96969"/><path d="M21.77,25.81h21v1.61h-21Z" fill="#333"/></svg>