<svg xmlns="http://www.w3.org/2000/svg" width="50" height="50" viewBox="0 0 50 50"><title>icons</title><path d="M33.87,12.9V0H0V38.71H19.35V50H50V12.9ZM1.61,1.61H32.26V6.45H1.61ZM19.35,24.19H17.74v1.62h1.61v1.61H3.23V29H19.35v1.62H3.23v1.61H19.35v1.61H6.45v1.61h12.9V37.1H1.61v-29H32.26V12.9H30.65V9.68H3.23v12.9H19.35Zm0-3.22H4.84V11.29H29V12.9H19.35Zm29,27.42H21V14.52H48.39Z" fill="#333"/><rect x="3.23" y="3.23" width="1.61" height="1.61" fill="#333"/><rect x="6.45" y="3.23" width="1.61" height="1.61" fill="#333"/><rect x="9.68" y="3.23" width="1.61" height="1.61" fill="#333"/><path d="M22.58,27.42H46.77V16.13H22.58Zm1.61-9.68h21v8.07h-21Z" fill="#333"/><rect x="3.23" y="24.19" width="12.9" height="1.61" fill="#333"/><rect x="3.23" y="33.87" width="1.61" height="1.61" fill="#333"/><path d="M22.58,46.77h12.9V29H22.58Zm1.61-16.12h9.68V45.16H24.19Z" fill="#333"/><rect x="37.1" y="29.03" width="9.68" height="1.61" fill="#333"/><rect x="40.32" y="32.26" width="6.45" height="1.61" fill="#333"/><rect x="37.1" y="32.26" width="1.61" height="1.61" fill="#333"/><rect x="37.1" y="35.48" width="9.68" height="1.61" fill="#333"/><rect x="37.1" y="38.71" width="9.68" height="1.61" fill="#333"/><rect x="37.1" y="41.94" width="9.68" height="1.61" fill="#333"/><rect x="45.16" y="45.16" width="1.61" height="1.61" fill="#333"/><rect x="37.1" y="45.16" width="6.45" height="1.61" fill="#333"/><path d="M7.09,33.37a.26.26,0,0,0-.27.27l1.33,14.3a.44.44,0,0,0,.31.35l5.63,1.5a1.32,1.32,0,0,0,.56,0l5.65-1.5a.44.44,0,0,0,.31-.35l1.33-14.3a.25.25,0,0,0-.26-.27Zm12,3.28c0,.13,0,.37-.05.52l0,.37c0,.15,0,.37,0,.48l0,.2H12a.26.26,0,0,0-.26.28l.12,1.32a.32.32,0,0,0,.32.27h6.37a.22.22,0,0,1,.23.24c0,.14,0,.37-.05.52l-.39,4.25c0,.15,0,.34,0,.43s-.14.18-.29.22l-3.33.89-.28.08-.28-.08-3.34-.89a.42.42,0,0,1-.3-.34l-.22-2.32a.25.25,0,0,1,.26-.27h1.34a.32.32,0,0,1,.31.27l.08.91a.45.45,0,0,0,.3.35l1.57.4.27.07.28-.07,1.56-.41a.43.43,0,0,0,.31-.34l.17-1.81a.26.26,0,0,0-.27-.28h-6a.31.31,0,0,1-.31-.27l-.42-4.47c0-.15,0-.39,0-.52a.25.25,0,0,1,.27-.25h8.93A.25.25,0,0,1,19.11,36.65Z" fill="#fff"/><polygon points="9.33 36.49 10.5 46.3 14.06 47.47 18.42 46.01 19.32 36.65 9.33 36.49" fill="#f96969"/><path d="M8.3,34.45a.22.22,0,0,0-.22.24L9.19,47.12a.37.37,0,0,0,.25.3l4.71,1.31a1.19,1.19,0,0,0,.46,0l4.71-1.31a.4.4,0,0,0,.26-.3l1.1-12.43a.21.21,0,0,0-.21-.24Zm10,2.85,0,.45,0,.33c0,.13,0,.32,0,.42l0,.17H12.38a.21.21,0,0,0-.21.24l.1,1.15a.26.26,0,0,0,.26.23h5.31a.2.2,0,0,1,.2.22c0,.11,0,.32,0,.45l-.33,3.69c0,.13,0,.3,0,.37s-.12.16-.25.2L14.61,46l-.23.06L14.15,46l-2.78-.77a.4.4,0,0,1-.26-.3l-.17-2a.2.2,0,0,1,.21-.24h1.11a.26.26,0,0,1,.26.24l.07.78a.38.38,0,0,0,.26.3l1.3.35.23.07.23-.07,1.3-.35a.38.38,0,0,0,.26-.3l.14-1.57a.22.22,0,0,0-.22-.24h-5a.27.27,0,0,1-.26-.24l-.34-3.89-.05-.45a.21.21,0,0,1,.22-.21h7.46A.21.21,0,0,1,18.33,37.3Z" fill="#333"/></svg>