<svg xmlns="http://www.w3.org/2000/svg" width="50" height="49.95" viewBox="0 0 50 49.95"><title>icons</title><path d="M6.81,5A1.42,1.42,0,1,1,5.4,3.54,1.41,1.41,0,0,1,6.81,5Z" fill="#f96969"/><path d="M12.28,5a1.42,1.42,0,1,1-1.42-1.42A1.41,1.41,0,0,1,12.28,5Z" fill="#f96969"/><path d="M17.75,5a1.42,1.42,0,1,1-1.42-1.42A1.42,1.42,0,0,1,17.75,5Z" fill="#f96969"/><path d="M.79,9.22H24.87V35.07H.79Z" fill="#f96969"/><path d="M44.26,26.1H30a1.16,1.16,0,0,1-1.16-1.16V13.3A1.16,1.16,0,0,1,30,12.14H44.26a1.16,1.16,0,0,1,1.16,1.16V24.94A1.16,1.16,0,0,1,44.26,26.1Z" fill="#f96969"/><path d="M40.71,18.57l-2.37,2.37-3.12-3.51a.44.44,0,0,0-.63,0l-5.8,5.8v1.73A1.16,1.16,0,0,0,30,26.1H44.26a1.16,1.16,0,0,0,1.16-1.16V23.21l-4.09-4.62A.43.43,0,0,0,40.71,18.57Z" fill="#f96969"/><path d="M5.4,2.81A2.15,2.15,0,1,0,7.54,5,2.15,2.15,0,0,0,5.4,2.81Zm0,2.83A.69.69,0,1,1,6.08,5,.69.69,0,0,1,5.4,5.64Z" fill="#333"/><path d="M10.86,2.81A2.15,2.15,0,1,0,13,5,2.14,2.14,0,0,0,10.86,2.81Zm0,2.83A.69.69,0,1,1,11.55,5,.69.69,0,0,1,10.86,5.64Z" fill="#333"/><path d="M16.33,2.81A2.15,2.15,0,1,0,18.48,5,2.15,2.15,0,0,0,16.33,2.81Zm0,2.83a.69.69,0,0,1,0-1.37.69.69,0,1,1,0,1.37Z" fill="#333"/><path d="M49.21,14.44a.73.73,0,0,0,.73-.74L50,3.22A3.22,3.22,0,0,0,46.78,0H3.22A3.23,3.23,0,0,0,0,3.22V38.63a3.23,3.23,0,0,0,2.73,3.18,2.63,2.63,0,0,0,.49,0H17.46v2.62H15.25a2.68,2.68,0,0,0-2.67,2.68v1.58A1.22,1.22,0,0,0,13.8,50h3.49a.74.74,0,0,0,0-1.47H14V47.15a1.21,1.21,0,0,1,1.21-1.21H34.69a1.21,1.21,0,0,1,1.21,1.21v1.33H21.83a.74.74,0,0,0,0,1.47H36.15a1.22,1.22,0,0,0,1.22-1.22V47.15a2.68,2.68,0,0,0-2.68-2.68H32.48V41.85H46.72a2.63,2.63,0,0,0,.49,0,3.22,3.22,0,0,0,2.73-3.18V18.24a.73.73,0,0,0-1.46,0V34.39H25.61V10H48.48V13.7A.74.74,0,0,0,49.21,14.44ZM1.52,10H24.14V34.34H1.52ZM31,44.47H18.92V41.85H31Zm17.46-8.62v2.78a1.76,1.76,0,0,1-1.58,1.75H3a1.77,1.77,0,0,1-1.58-1.75V35.85ZM24.87,8.49H1.52V3.22A1.76,1.76,0,0,1,3.27,1.46H46.72a1.76,1.76,0,0,1,1.76,1.76V8.49Z" fill="#333"/><path d="M4.58,12.87H8.29a.73.73,0,0,0,0-1.46H4.58a.73.73,0,0,0,0,1.46Z" fill="#333"/><path d="M10.82,12.87h1.76a.73.73,0,0,0,0-1.46H10.82a.73.73,0,1,0,0,1.46Z" fill="#333"/><path d="M10.14,14H7.7a.73.73,0,1,0,0,1.46h2.44a.73.73,0,1,0,0-1.46Z" fill="#333"/><path d="M21.65,16.67H19.22a.73.73,0,1,0,0,1.46h2.43a.73.73,0,1,0,0-1.46Z" fill="#333"/><path d="M11.65,14.72a.73.73,0,0,0,.74.73h5.85a.73.73,0,0,0,0-1.46H12.39A.74.74,0,0,0,11.65,14.72Z" fill="#333"/><path d="M9.31,17.4a.73.73,0,0,0,.73.73h1.27a.73.73,0,0,0,0-1.46H10A.73.73,0,0,0,9.31,17.4Z" fill="#333"/><path d="M17,18.13a.73.73,0,0,0,0-1.46H13.46a.73.73,0,1,0,0,1.46Z" fill="#333"/><path d="M9,26.88a.73.73,0,0,0-.73-.73H4.58a.73.73,0,1,0,0,1.46H8.29A.73.73,0,0,0,9,26.88Z" fill="#333"/><path d="M10.82,26.15a.73.73,0,1,0,0,1.46h1.76a.73.73,0,1,0,0-1.46Z" fill="#333"/><path d="M10.87,29.46a.73.73,0,0,0-.73-.73H7.7a.74.74,0,0,0,0,1.47h2.44A.73.73,0,0,0,10.87,29.46Z" fill="#333"/><path d="M11.31,31.41H10a.73.73,0,0,0,0,1.46h1.27a.73.73,0,0,0,0-1.46Z" fill="#333"/><path d="M21.65,31.41H19.22a.73.73,0,1,0,0,1.46h2.43a.73.73,0,1,0,0-1.46Z" fill="#333"/><path d="M19,29.46a.73.73,0,0,0-.73-.73H12.39a.74.74,0,1,0,0,1.47h5.85A.74.74,0,0,0,19,29.46Z" fill="#333"/><path d="M17,31.41H13.46a.73.73,0,1,0,0,1.46H17a.73.73,0,1,0,0-1.46Z" fill="#333"/><path d="M4.58,21.48H6.63a.73.73,0,0,0,0-1.46h-2a.73.73,0,1,0,0,1.46Z" fill="#333"/><path d="M16.92,20.75a.73.73,0,0,0-.73-.73H8.68a.73.73,0,0,0,0,1.46h7.51A.73.73,0,0,0,16.92,20.75Z" fill="#333"/><path d="M15.56,23.33a.73.73,0,0,0-.73-.73H7.7a.74.74,0,0,0,0,1.47h7.13A.74.74,0,0,0,15.56,23.33Z" fill="#333"/><path d="M16.87,24.07h1.37a.74.74,0,0,0,0-1.47H16.87a.74.74,0,0,0,0,1.47Z" fill="#333"/><path d="M33.5,28.29H28.81a.73.73,0,0,0,0,1.46H33.5a.73.73,0,1,0,0-1.46Z" fill="#333"/><path d="M45.4,28.29H36.13a.73.73,0,0,0,0,1.46H45.4a.73.73,0,1,0,0-1.46Z" fill="#333"/><path d="M33.5,31.12H28.81a.73.73,0,1,0,0,1.46H33.5a.73.73,0,0,0,0-1.46Z" fill="#333"/><path d="M45.4,31.12H36.13a.73.73,0,1,0,0,1.46H45.4a.73.73,0,1,0,0-1.46Z" fill="#333"/><path d="M46.16,13.3a1.9,1.9,0,0,0-1.9-1.89H30a1.89,1.89,0,0,0-1.89,1.89v9.91h0v1.73A1.89,1.89,0,0,0,30,26.83H44.26a1.89,1.89,0,0,0,1.9-1.89ZM44.69,24.94a.43.43,0,0,1-.43.43H30a.43.43,0,0,1-.43-.43V23.51l5.36-5.35,3.7,4.16a.73.73,0,1,0,1.1-1L39.34,21,41,19.32l3.69,4.17Zm0-3.66-2.81-3.17a1.19,1.19,0,0,0-.84-.39,1.12,1.12,0,0,0-.85.34l-1.82,1.82-2.61-2.94a1.15,1.15,0,0,0-.83-.39,1.16,1.16,0,0,0-.85.34l-4.56,4.55V13.3a.43.43,0,0,1,.43-.43H44.26a.43.43,0,0,1,.43.43Z" fill="#333"/><rect x="48.49" y="12.38" width="1.45" height="8.18" fill="#333"/><rect x="19.44" y="45.12" width="1.47" height="8.18" transform="translate(-29.04 69.38) rotate(-90)" fill="#333"/></svg>