<svg xmlns="http://www.w3.org/2000/svg" width="50" height="50" viewBox="0 0 50 50"><title>icons</title><path d="M24.17,39.17,48.48,14.86a2.4,2.4,0,0,0,.69-1.67h0a2.36,2.36,0,0,0-2.36-2.36h0a2.38,2.38,0,0,0-1.67.69L20.83,35.83l-1.66,5Z" fill="#f96969"/><path d="M2.74,2.74A.88.88,0,0,0,2.57,3a.77.77,0,0,0,0,.63.59.59,0,0,0,.17.27A.83.83,0,0,0,3.92,2.74.86.86,0,0,0,2.74,2.74Z" fill="#333"/><path d="M5.52,2.57a.62.62,0,0,0-.28.17.85.85,0,0,0,0,1.18.84.84,0,0,0,1.43-.59.88.88,0,0,0-.25-.59A.83.83,0,0,0,5.52,2.57Z" fill="#333"/><path d="M8,2.57a.88.88,0,0,0-.28.17A.83.83,0,0,0,8,4.1a.82.82,0,0,0,.31.07.83.83,0,0,0,.84-.82v0a.88.88,0,0,0-.25-.59A.83.83,0,0,0,8,2.57Z" fill="#333"/><rect x="10.83" y="14.17" width="11.67" height="1.67" fill="#333"/><rect x="10.83" y="19.17" width="11.67" height="1.67" fill="#333"/><rect x="10.83" y="24.17" width="15.83" height="1.67" fill="#333"/><rect x="10.83" y="29.17" width="10.83" height="1.67" fill="#333"/><rect x="10.83" y="34.17" width="6.67" height="1.67" fill="#333"/><rect x="10.83" y="39.17" width="5" height="1.67" fill="#333"/><path d="M46.81,10a3.18,3.18,0,0,0-2.26.93l-2.88,2.89V2.5A2.5,2.5,0,0,0,39.17,0H2.5A2.5,2.5,0,0,0,0,2.5v45A2.5,2.5,0,0,0,2.5,50H39.17a2.5,2.5,0,0,0,2.5-2.5V22.84l7.39-7.39A3.19,3.19,0,0,0,46.81,10ZM1.67,2.5a.83.83,0,0,1,.83-.83H39.17A.83.83,0,0,1,40,2.5V5H1.67ZM40,47.5a.83.83,0,0,1-.83.83H2.5a.83.83,0,0,1-.83-.83V6.67H40v8.82l-5,5V18L26.18,9.17H6.67V45.83H35V29.51l5-5ZM20.1,35.38l-2.25,6.77,6.77-2.26L27,37.5l6.32-6.32v13h-25V10.83H25v8.34h8.33v3L22.5,33Zm2.4,0,2.15,2.16-.93.94-3.24,1.08,1.08-3.24ZM26.67,12l5.48,5.49H26.67Zm-.84,24.31-2.15-2.15L43.33,14.51l2.16,2.16Zm22.06-22-1.22,1.22-2.16-2.16,1.22-1.22a1.52,1.52,0,0,1,2.2,2.11Z" fill="#333"/></svg>