<svg xmlns="http://www.w3.org/2000/svg" width="50" height="50.83" viewBox="0 0 50 50.83"><title>icons</title><polygon points="27.5 18.33 25 18.33 22.5 18.33 25 25 27.5 18.33" fill="#f96969"/><path d="M20.83,32.5h8.34V28.33h4.16v-5a5,5,0,0,0-5-5H27.5L25,25l-2.5-6.67h-.83a5,5,0,0,0-5,5v5h4.16Z" fill="#f96969"/><circle cx="25" cy="13.33" r="5" fill="#f96969"/><polygon points="16.67 5 20.83 5 20.83 0.83 9.17 0.83 9.17 5 13.33 5 13.33 7.5 16.67 5" fill="#f96969"/><path d="M3.33,38.25V50.83H5V38.33h7.5V50a.83.83,0,0,0,.83.83h5a.84.84,0,0,0,.84-.83V36.67h5v12.5H20.83v1.66h8.34V49.17H25.83V36.67h5V50a.84.84,0,0,0,.84.83h5A.83.83,0,0,0,37.5,50V38.33H45v12.5h1.67V38.25A4.17,4.17,0,0,0,50,34.17V21.67a4.16,4.16,0,0,0-3.5-4.1,5.83,5.83,0,1,0-7.17.65,4.18,4.18,0,0,0-1.83,3.45V27.5H34.17V23.33A5.83,5.83,0,0,0,29,17.55a5.84,5.84,0,1,0-8,0,5.83,5.83,0,0,0-5.15,5.78V27.5H12.5V21.67a4.18,4.18,0,0,0-1.83-3.45,5.83,5.83,0,1,0-7.17-.65A4.16,4.16,0,0,0,0,21.67v12.5A4.17,4.17,0,0,0,3.33,38.25ZM30.93,35H19.07a4.06,4.06,0,0,0-.74-1.67H31.67A4.2,4.2,0,0,0,30.93,35Zm7.4-21.67A4.17,4.17,0,1,1,42.5,17.5,4.17,4.17,0,0,1,38.33,13.33Zm0,15.84a.85.85,0,0,0,.84-.84V21.67a2.5,2.5,0,0,1,2.5-2.5h4.16a2.5,2.5,0,0,1,2.5,2.5v12.5a2.51,2.51,0,0,1-2.5,2.5H36.67a.84.84,0,0,0-.84.83V49.17H32.5V35.83a2.51,2.51,0,0,1,2.5-2.5h7.5a.83.83,0,0,0,.83-.83V24.17H41.67v7.5H30v-2.5Zm-12-10L25,22.63l-1.3-3.46Zm-5.47-5.84A4.17,4.17,0,1,1,25,17.5,4.17,4.17,0,0,1,20.83,13.33Zm-3.33,10a4.17,4.17,0,0,1,4.17-4.16h.25l2.3,6.12a.83.83,0,0,0,1.56,0l2.3-6.12h.25a4.17,4.17,0,0,1,4.17,4.16V27.5H29.17a.84.84,0,0,0-.84.83v3.34H21.67V28.33a.84.84,0,0,0-.84-.83H17.5Zm-14.17-10A4.17,4.17,0,1,1,7.5,17.5,4.17,4.17,0,0,1,3.33,13.33ZM1.67,21.67a2.5,2.5,0,0,1,2.5-2.5H8.33a2.5,2.5,0,0,1,2.5,2.5v6.66a.85.85,0,0,0,.84.84H20v2.5H8.33v-7.5H6.67V32.5a.83.83,0,0,0,.83.83H15a2.51,2.51,0,0,1,2.5,2.5V49.17H14.17V37.5a.84.84,0,0,0-.84-.83H4.17a2.51,2.51,0,0,1-2.5-2.5Z" fill="#333"/><rect x="24.17" y="27.5" width="1.67" height="1.67" fill="#333"/><path d="M13,8.25a1,1,0,0,0,.37.08.81.81,0,0,0,.5-.16l3.11-2.34h3.89A.84.84,0,0,0,21.67,5V.83A.84.84,0,0,0,20.83,0H9.17a.84.84,0,0,0-.84.83V5a.84.84,0,0,0,.84.83H12.5V7.5A.85.85,0,0,0,13,8.25ZM10,4.17V1.67H20v2.5H16.67a.88.88,0,0,0-.5.16l-2,1.5V5a.84.84,0,0,0-.84-.83Z" fill="#333"/><rect x="29.17" y="2.5" width="1.67" height="1.67" fill="#333"/><rect x="32.5" y="2.5" width="1.67" height="1.67" fill="#333"/><rect x="35.83" y="2.5" width="1.67" height="1.67" fill="#333"/></svg>