<svg xmlns="http://www.w3.org/2000/svg" width="50" height="49.42" viewBox="0 0 50 49.42"><title>icons</title><path d="M6.37,27.87l6.53-2.3a2.42,2.42,0,0,0,1.62-2.28V23a10.59,10.59,0,0,1-4.84-8.9V11.29h1.41a8.28,8.28,0,0,0,5.85-2.42,8.24,8.24,0,0,0,5.84,2.42h1.41v2.83A10.59,10.59,0,0,1,19.35,23v.27A2.42,2.42,0,0,0,21,25.57l6.53,2.3C27.83,26.71,29,26.51,29,25c0-1.74-1.61-1.74-1.61-3.49S29,19.75,29,18s-1.61-1.75-1.61-3.49V10.61A9.8,9.8,0,0,0,10,4.49l-.28.35A4.26,4.26,0,0,0,6.45,9v5.55c0,1.74-1.61,1.74-1.61,3.49s1.61,1.74,1.61,3.49S4.84,23.25,4.84,25c0,1.52,1.21,1.72,1.53,2.88Z" fill="#f96969"/><path d="M40.78,36.42l-1.26-1-1.27,1-.44-.21a4.06,4.06,0,0,1-1.29-1l-.3-.34.48-1.55-1.26-1,.05-.46A4.84,4.84,0,0,1,36,30.26l.23-.42h1.54l.48-1.44.46-.09a3.92,3.92,0,0,1,1.6,0l.45.09.48,1.44H42.7l.24.43a4.69,4.69,0,0,1,.6,1.68l.05.46-1.26,1,.48,1.55-.3.34a4.06,4.06,0,0,1-1.29,1Zm-1.26-3,1.41,1.06.06,0-.54-1.72,1.38-1.05c0-.07-.06-.16-.1-.25l-1.63,0-.55-1.63h-.07L39,31.46h-1.7a2.17,2.17,0,0,0-.07.24l1.4,1.05L38,34.47l.06,0Z" fill="#333"/><path d="M17.74,37.9h1.61v1.62H17.74Z" fill="#333"/><path d="M17.74,41.13h1.61v1.61H17.74Z" fill="#333"/><path d="M45.16,39.52v7.83l-5.64-1.41-5.65,1.41V39.52H32.26v4.83H27.42V33.87H25.81V44.35H16.13V37.46l1.57-1.4A17,17,0,0,0,23,27.13l4.46,1.57a7.19,7.19,0,0,1,2.31,1.35l1.06-1.22A8.92,8.92,0,0,0,28,27.18l-6.71-2.37a1.6,1.6,0,0,1-1.06-1.37A11.41,11.41,0,0,0,25,14.12V10.48H22.78A7.36,7.36,0,0,1,17.51,8.3l-.57-.57-.57.57a7.4,7.4,0,0,1-5.27,2.18H8.87v3.64a11.41,11.41,0,0,0,4.82,9.32,1.6,1.6,0,0,1-1.06,1.37L5.92,27.18A8.88,8.88,0,0,0,0,35.54V46H32.26v3.45l7.26-1.81,7.25,1.81v-9.9Zm-28.22-5a14.22,14.22,0,0,1-1.36-1.44l1.36-1.89,1.35,1.89A15.33,15.33,0,0,1,16.94,34.56Zm4.48-8a15.25,15.25,0,0,1-2.13,5.17l-1.37-1.93,2.43-3.65a2.21,2.21,0,0,0,.35.16ZM10.48,14.12v-2h.62A9,9,0,0,0,16.94,10a9,9,0,0,0,5.84,2.13h.61v2a9.8,9.8,0,0,1-6.45,9.22A9.81,9.81,0,0,1,10.48,14.12ZM16.68,25l.26.08.25-.08a13,13,0,0,0,1.53-.64,3.26,3.26,0,0,0,.4.79l-2.18,3.27-2.19-3.27a3.26,3.26,0,0,0,.4-.79,13,13,0,0,0,1.53.64Zm-3.51,1.37a2.21,2.21,0,0,0,.35-.16L16,29.82l-1.38,1.93a15.28,15.28,0,0,1-2.13-5.16Zm1.35,10.4v7.62H8.06V33.06H6.45V44.35H1.61V35.54A7.26,7.26,0,0,1,6.46,28.7l4.45-1.57a17,17,0,0,0,4.83,8.52Z" fill="#333"/><path d="M39.52,42.74A10.49,10.49,0,1,1,50,32.26,10.5,10.5,0,0,1,39.52,42.74Zm0-16.93A6.45,6.45,0,1,0,46,32.26,6.46,6.46,0,0,0,39.52,25.81Z" fill="#f96969"/><path d="M39.52,39.52a7.26,7.26,0,1,1,7.25-7.26A7.27,7.27,0,0,1,39.52,39.52Zm0-12.91a5.65,5.65,0,1,0,5.64,5.65A5.66,5.66,0,0,0,39.52,26.61Z" fill="#333"/><path d="M39.48,20.16a2.39,2.39,0,0,1-2.38-2.38V15.32H32.26a2.42,2.42,0,0,1-2.42-2.42V2.42A2.42,2.42,0,0,1,32.26,0H47.58A2.43,2.43,0,0,1,50,2.42V12.9a2.42,2.42,0,0,1-2.42,2.42H44L41.46,19.1A2.38,2.38,0,0,1,39.48,20.16ZM32.26,1.61a.81.81,0,0,0-.81.81V12.9a.81.81,0,0,0,.81.81h6.45v4.07a.77.77,0,0,0,1.41.43l3-4.5h4.46a.81.81,0,0,0,.81-.81V2.42a.81.81,0,0,0-.81-.81Z" fill="#333"/><path d="M38.71,11.62l-3-3,1.14-1.14,1.85,1.85,5.88-5.88L45.73,4.6Z" fill="#333"/></svg>