<svg xmlns="http://www.w3.org/2000/svg" width="50" height="50" viewBox="0 0 50 50"><title>icons</title><path d="M24.19,31.45H29V46H24.19Z" fill="#f96969"/><path d="M32.26,25H37.1V46H32.26Z" fill="#f96969"/><path d="M40.32,18.55h4.84V46H40.32Z" fill="#f96969"/><path d="M25.81,8.87A8.07,8.07,0,1,1,17.74.81,8.07,8.07,0,0,1,25.81,8.87Z" fill="#f96969"/><path d="M17.74,12.9H15.32V11.29h2.42a.81.81,0,1,0,0-1.61,2.42,2.42,0,1,1,0-4.84h2.42V6.45H17.74a.81.81,0,0,0,0,1.61,2.42,2.42,0,1,1,0,4.84Z" fill="#333"/><path d="M16.94,3.23h1.61V5.65H16.94Z" fill="#333"/><path d="M16.94,12.1h1.61v2.42H16.94Z" fill="#333"/><path d="M29,46.77H24.19a.8.8,0,0,1-.8-.8V31.45a.8.8,0,0,1,.8-.8H29a.8.8,0,0,1,.81.8V46A.8.8,0,0,1,29,46.77Zm-4-1.61h3.23V32.26H25Z" fill="#333"/><path d="M37.1,46.77H32.26a.8.8,0,0,1-.81-.8V25a.81.81,0,0,1,.81-.81H37.1a.8.8,0,0,1,.8.81V46A.8.8,0,0,1,37.1,46.77Zm-4-1.61h3.23V25.81H33.06Z" fill="#333"/><path d="M45.16,46.77H40.32a.8.8,0,0,1-.8-.8V18.55a.8.8,0,0,1,.8-.81h4.84a.81.81,0,0,1,.81.81V46A.8.8,0,0,1,45.16,46.77Zm-4-1.61h3.22V19.35H41.13Z" fill="#333"/><path d="M49.19,50h-29a.81.81,0,0,1-.81-.81V46a.81.81,0,0,1,.81-.81h29A.81.81,0,0,1,50,46v3.22A.81.81,0,0,1,49.19,50ZM21,48.39H48.39V46.77H21Z" fill="#333"/><path d="M24.19,41.94H29v1.61H24.19Z" fill="#333"/><path d="M32.26,41.94H37.1v1.61H32.26Z" fill="#333"/><path d="M40.32,41.94h4.84v1.61H40.32Z" fill="#333"/><path d="M17.74,17.74a8.87,8.87,0,1,1,8.87-8.87A8.88,8.88,0,0,1,17.74,17.74Zm0-16.13A7.26,7.26,0,1,0,25,8.87,7.27,7.27,0,0,0,17.74,1.61Z" fill="#333"/><path d="M4.84,28.23a4.84,4.84,0,1,1,4.84-4.84A4.84,4.84,0,0,1,4.84,28.23Zm0-8.07a3.23,3.23,0,1,0,3.22,3.23A3.23,3.23,0,0,0,4.84,20.16Z" fill="#333"/><path d="M30.65,28.23a4.84,4.84,0,1,1,4.83-4.84,4.73,4.73,0,0,1-.4,1.93l-1.48-.64a3.17,3.17,0,0,0,.27-1.29,3.23,3.23,0,1,0-3.22,3.22,3.38,3.38,0,0,0,1.29-.26l.64,1.47A4.74,4.74,0,0,1,30.65,28.23Z" fill="#333"/><path d="M8.87,22.58H26.61v1.61H8.87Z" fill="#333"/><path d="M16.94,16.94h1.61v6.45H16.94Z" fill="#333"/><path d="M16.13,39.52a3.23,3.23,0,1,1,3.22-3.23A3.23,3.23,0,0,1,16.13,39.52Zm0-4.84a1.61,1.61,0,1,0,1.61,1.61A1.61,1.61,0,0,0,16.13,34.68Z" fill="#333"/><path d="M4.84,39.52a3.23,3.23,0,1,1,3.22-3.23A3.23,3.23,0,0,1,4.84,39.52Zm0-4.84a1.61,1.61,0,1,0,1.61,1.61A1.61,1.61,0,0,0,4.84,34.68Z" fill="#333"/><path d="M4,27.42H5.65v6.45H4Z" fill="#333"/><path d="M4.84,50a3.23,3.23,0,1,1,3.22-3.23A3.23,3.23,0,0,1,4.84,50Zm0-4.84a1.62,1.62,0,1,0,1.61,1.61A1.61,1.61,0,0,0,4.84,45.16Z" fill="#333"/><path d="M4,38.71H5.65v5.64H4Z" fill="#333"/><path d="M7.26,35.48h6.45V37.1H7.26Z" fill="#333"/></svg>