<svg xmlns="http://www.w3.org/2000/svg" width="50" height="51.67" viewBox="0 0 50 51.67"><title>icons</title><path d="M25,23.33a1.67,1.67,0,1,1,1.67-1.66h1.66a3.33,3.33,0,0,0-2.5-3.22V16.67H24.17v1.78A3.33,3.33,0,0,0,25,25a1.67,1.67,0,1,1-1.67,1.67H21.67a3.31,3.31,0,0,0,2.5,3.21v1.79h1.66V29.88A3.33,3.33,0,0,0,25,23.33Z" fill="#333"/><path d="M30.83,40H29.17V37.5H27.5V40h-5V37.5H20.83V40H19.17v1.67h1.66V47.5a4.17,4.17,0,0,0,8.34,0V41.67h1.66ZM27.5,47.5a2.5,2.5,0,0,1-5,0V41.67h5Z" fill="#333"/><path d="M8.33,28.33H1.67V6.67H8.33Zm-5-1.66H6.67V8.33H3.33Z" fill="#333"/><path d="M13.33,19.6H11.67V10h6.66v3.09H16.67V11.67H13.33Z" fill="#333"/><path d="M23.33,11.14H21.67V6.67h6.66V11H26.67V8.33H23.33Z" fill="#333"/><path d="M38.33,19.64H36.67v-8H33.33v1.59H31.67V10h6.66Z" fill="#333"/><path d="M48.33,28.33H41.67V6.67h6.66Zm-5-1.66h3.34V8.33H43.33Z" fill="#333"/><path d="M45,0a2.5,2.5,0,0,0-2.49,2.45L37,4.3A2.47,2.47,0,0,0,33,4.3L27.49,2.45a2.49,2.49,0,0,0-5,0L17,4.3A2.47,2.47,0,0,0,13,4.3L7.49,2.45A2.5,2.5,0,1,0,5,5,2.47,2.47,0,0,0,7,4l5.55,1.85a2.49,2.49,0,0,0,5,0L23,4A2.47,2.47,0,0,0,27,4l5.55,1.85a2.49,2.49,0,0,0,5,0L43,4a2.47,2.47,0,0,0,2,1,2.5,2.5,0,0,0,0-5ZM5,3.33a.83.83,0,1,1,.83-.83A.83.83,0,0,1,5,3.33ZM15,6.67a.84.84,0,0,1-.83-.84.83.83,0,1,1,1.66,0A.84.84,0,0,1,15,6.67ZM25,3.33a.83.83,0,1,1,.83-.83A.83.83,0,0,1,25,3.33ZM35,6.67a.84.84,0,0,1-.83-.84.83.83,0,1,1,1.66,0A.84.84,0,0,1,35,6.67ZM45,3.33a.83.83,0,1,1,.83-.83A.83.83,0,0,1,45,3.33Z" fill="#333"/><path d="M0,40H15v7.5H0Z" fill="#f96969"/><path d="M0,45.83H11.67V47.5H0Z" fill="#333"/><path d="M13.33,45.83H15V47.5H13.33Z" fill="#333"/><path d="M0,42.5H15v1.67H0Z" fill="#333"/><path d="M0,39.17H15v1.66H0Z" fill="#333"/><path d="M35,40H50v7.5H35Z" fill="#f96969"/><path d="M35,45.83H46.67V47.5H35Z" fill="#333"/><path d="M48.33,45.83H50V47.5H48.33Z" fill="#333"/><path d="M35,42.5H50v1.67H35Z" fill="#333"/><path d="M35,39.17H50v1.66H35Z" fill="#333"/><path d="M30.83,23.33H32.5V25H30.83Z" fill="#333"/><path d="M17.5,23.33h1.67V25H17.5Z" fill="#333"/><path d="M25,38.33A14.17,14.17,0,1,1,39.17,24.17,14.18,14.18,0,0,1,25,38.33Zm0-24.16a10,10,0,1,0,10,10A10,10,0,0,0,25,14.17Z" fill="#f96969"/><path d="M25,35A10.84,10.84,0,1,1,35.83,24.17,10.84,10.84,0,0,1,25,35Zm0-20a9.17,9.17,0,1,0,9.17,9.17A9.18,9.18,0,0,0,25,15Z" fill="#333"/></svg>