<svg xmlns="http://www.w3.org/2000/svg" width="50" height="50.83" viewBox="0 0 50 50.83"><title>icons</title><polygon points="22.12 8.48 19.67 8.96 19.67 5.43 22.18 6.38 22.12 8.48" fill="#f96969"/><rect x="40.58" y="32.31" width="4.07" height="3.8" fill="#f96969"/><polygon points="28.29 49.41 1.21 49.21 0.67 45.61 29.04 45.61 28.29 49.41" fill="#f96969"/><polygon points="31.42 30.54 12.07 38.62 8.47 33.19 25.38 19.61 31.42 30.54" fill="#f96969"/><path d="M29.17,44.17H27.5V36a.83.83,0,0,0-.83-.83.84.84,0,0,0-.84.83v8.17H4.17V27.5H11.1a.83.83,0,0,0,.83-.83.84.84,0,0,0-.83-.84H3.33a.84.84,0,0,0-.83.84v17.5H.83A.83.83,0,0,0,0,45v1.67a4.17,4.17,0,0,0,4.17,4.16H25.83A4.17,4.17,0,0,0,30,46.67V45A.83.83,0,0,0,29.17,44.17Zm-.84,2.5a2.5,2.5,0,0,1-2.5,2.5H24.17v-.84a.84.84,0,0,0-.84-.83.83.83,0,0,0-.83.83v.84H7.5v-.84a.83.83,0,0,0-.83-.83.84.84,0,0,0-.84.83v.84H4.17a2.5,2.5,0,0,1-2.5-2.5v-.84H28.33Z" fill="#333"/><path d="M43.33,5.83H45a.83.83,0,0,0,0-1.66H43.33a2.5,2.5,0,0,0-2.5,2.5V7.5H40a.83.83,0,0,0-.83.83.84.84,0,0,0,.83.84h.83v2.5a.84.84,0,0,0,.84.83.83.83,0,0,0,.83-.83V9.17h.83a.85.85,0,0,0,.84-.84.84.84,0,0,0-.84-.83H42.5V6.67A.84.84,0,0,1,43.33,5.83Z" fill="#333"/><path d="M47.5.83h-10A2.5,2.5,0,0,0,35,3.33V5a.83.83,0,0,0,.83.83A.84.84,0,0,0,36.67,5V3.33a.83.83,0,0,1,.83-.83h10a.83.83,0,0,1,.83.83v10a.84.84,0,0,1-.83.84h-10a.84.84,0,0,1-.83-.84v-5a.84.84,0,0,0-.84-.83.83.83,0,0,0-.83.83v5a2.5,2.5,0,0,0,2.5,2.5h10a2.5,2.5,0,0,0,2.5-2.5v-10A2.5,2.5,0,0,0,47.5.83Z" fill="#333"/><path d="M39.17,34.17a3.33,3.33,0,1,0,3.33-3.34A3.33,3.33,0,0,0,39.17,34.17Zm5,0A1.67,1.67,0,1,1,42.5,32.5,1.66,1.66,0,0,1,44.17,34.17Z" fill="#333"/><path d="M47.5,26.67h-10a2.5,2.5,0,0,0-2.5,2.5v10a2.5,2.5,0,0,0,2.5,2.5h10a2.5,2.5,0,0,0,2.5-2.5V37.5a.83.83,0,0,0-.83-.83.84.84,0,0,0-.84.83v1.67a.83.83,0,0,1-.83.83h-10a.83.83,0,0,1-.83-.83v-10a.84.84,0,0,1,.83-.84h10a.84.84,0,0,1,.83.84v5a.84.84,0,0,0,.84.83.83.83,0,0,0,.83-.83v-5A2.5,2.5,0,0,0,47.5,26.67Z" fill="#333"/><path d="M18.72,10.71a.89.89,0,0,0,.45.12.78.78,0,0,0,.37-.09l5-2.5a.83.83,0,0,0,.36-1.12.78.78,0,0,0-.36-.36l-5-2.5a.83.83,0,0,0-1.12.37.78.78,0,0,0-.09.37v5A.84.84,0,0,0,18.72,10.71ZM20,6.35,22.3,7.5,20,8.65Z" fill="#333"/><path d="M20.83,15a7.5,7.5,0,1,0-7.5-7.5A7.5,7.5,0,0,0,20.83,15Zm0-13.33A5.83,5.83,0,1,1,15,7.5,5.84,5.84,0,0,1,20.83,1.67Z" fill="#333"/><path d="M29.17,18.33a.81.81,0,0,0,.66-.33l2.5-3.33a.83.83,0,1,0-1.33-1L28.5,17a.83.83,0,0,0,.17,1.17A.88.88,0,0,0,29.17,18.33Z" fill="#333"/><path d="M31,21.33a.83.83,0,0,0,1.17.17L35.5,19a.83.83,0,1,0-1-1.33l-3.33,2.5A.82.82,0,0,0,31,21.33Z" fill="#333"/><path d="M39.17,23.17a.84.84,0,0,0-1-.68h0L34,23.33A.84.84,0,1,0,34.17,25h.16l4.17-.83a.84.84,0,0,0,.67-1Z" fill="#333"/><path d="M.83,23.33h10a.84.84,0,0,0,.84-.83V9.17a.85.85,0,0,0-.84-.84H.83A.84.84,0,0,0,0,9.17V22.5A.83.83,0,0,0,.83,23.33ZM1.67,10H10V21.67H1.67Z" fill="#333"/><path d="M7.5,11.67H5.83a.83.83,0,1,0,0,1.66H7.5a.83.83,0,0,0,0-1.66Z" fill="#333"/><path d="M7.5,15H4.17a.84.84,0,0,0-.84.83.85.85,0,0,0,.84.84H7.5a.84.84,0,0,0,.83-.84A.83.83,0,0,0,7.5,15Z" fill="#333"/><path d="M7.5,18.33H4.17a.85.85,0,0,0-.84.84.84.84,0,0,0,.84.83H7.5a.83.83,0,0,0,.83-.83A.84.84,0,0,0,7.5,18.33Z" fill="#333"/><path d="M28.43,23.08a.84.84,0,0,0-1.14-.31A.85.85,0,0,0,27,23.92l3.68,6.36-13.34,5H17.2L15,36.53l-1.44.83a1.65,1.65,0,0,1-2.27-.61L9.65,33.87a1.67,1.67,0,0,1,.62-2.2L13.16,30l2.08,3.61A.84.84,0,0,0,16,34a.83.83,0,0,0,.83-.84.74.74,0,0,0-.11-.41l-2.15-3.72L25,20.43l.34.6a.84.84,0,0,0,1.45-.84L26,18.75a.86.86,0,0,0-.58-.4.8.8,0,0,0-.68.18L13,28.14,9.48,30.19A3.33,3.33,0,0,0,8,34l-.83.47A2.49,2.49,0,0,0,7.72,39a2.37,2.37,0,0,0,.65.09,2.5,2.5,0,0,0,1.25-.34l.83-.47a3.3,3.3,0,0,0,1.46.87,2.85,2.85,0,0,0,.87.11,3.27,3.27,0,0,0,1.67-.45l.73-.41,1.66,2.89a2.5,2.5,0,0,0,4.33-2.5h0l-1.52-2.64,12.5-4.7a.79.79,0,0,0,.49-.5.84.84,0,0,0-.06-.69ZM8.75,37.33A.85.85,0,0,1,7.61,37a.89.89,0,0,1-.09-.64.85.85,0,0,1,.4-.51l.72-.41.83,1.44Zm11,2.33a.82.82,0,0,1,.08.63.85.85,0,0,1-.39.5.83.83,0,0,1-1.14-.3L16.61,37.6,18,36.81h.07Z" fill="#333"/></svg>