<svg xmlns="http://www.w3.org/2000/svg" width="53.4" height="61.2" viewBox="0 0 53.4 61.2"><title>icons</title><circle cx="11.55" cy="50.1" r="2.48" fill="#f96969"/><path d="M50.37,30.19c-2.54-2.53-5.48-.16-5.48-.16V16.71a.81.81,0,0,0-1.62,0V31.17A44.7,44.7,0,0,1,37.75,35V11a2,2,0,0,1,2-2h1.48a2,2,0,0,1,2,2V13.4a.81.81,0,1,0,1.62,0V11a3.65,3.65,0,0,0-3.64-3.64H39.77A3.64,3.64,0,0,0,36.13,11V35.6a8.31,8.31,0,0,1-1.49.27V18.8A3.66,3.66,0,0,0,31,15.14H29.54a3.66,3.66,0,0,0-3.66,3.66v8.25l-1.48.79V25.09a3.29,3.29,0,0,0-3.3-3.29H18.93a3.29,3.29,0,0,0-3.29,3.29v7.4L13,33.89,5.56,36a5,5,0,0,0-3,2.38A5.07,5.07,0,0,0,2,42.23l.83,3.19A.81.81,0,1,0,4.42,45l-.84-3.19A3.49,3.49,0,0,1,6,37.57l6.79-1.94,5.1,13.62a3.62,3.62,0,0,1-2.41,4.48l-5.13,1.16a3.35,3.35,0,0,1-4-2.44l-1-4a.81.81,0,0,0-1.57.41l1,4A5,5,0,0,0,9.59,56.6a39.74,39.74,0,0,0,6.26-1.29,5,5,0,0,0,3.29-2.5,5,5,0,0,0,.49-3.4l17.75-4.35a10.16,10.16,0,0,0,4-2l8.64-7.1A3.84,3.84,0,0,0,50.37,30.19ZM29.54,16.76H31a2,2,0,0,1,2,2V35.92H27.91c-.47,0-.14-.31-.12-.33l1.48-1.19a7.71,7.71,0,0,0,2.66-4.6A3.21,3.21,0,0,0,27.5,26.2V18.8A2,2,0,0,1,29.54,16.76ZM17.26,25.09a1.67,1.67,0,0,1,1.67-1.67H21.1a1.68,1.68,0,0,1,1.68,1.67V28.7l-5.52,2.93V25.09ZM49,34.69l-8.64,7.1A8.64,8.64,0,0,1,37,43.49L19.11,47.87,14.3,35,28,27.74a1.59,1.59,0,0,1,2.3,1.72,6.16,6.16,0,0,1-2.09,3.67l-1.48,1.19a1.81,1.81,0,0,0,1.14,3.21h5.91a10.1,10.1,0,0,0,5.84-1.85l6.59-4.64a2.29,2.29,0,0,1,3,.27A2.25,2.25,0,0,1,49,34.69Z" fill="#333"/><polygon points="2.21 23.77 16.95 10.16 20.21 11.51 27.52 5.55 24.38 4.65 24.26 2.4 33.38 1.84 33.71 10.72 31.8 12.07 30.45 9.49 30.11 8.14 22.01 15.45 19.88 15.45 17.4 13.88 5.14 26.25 2.89 26.59 2.21 25.13 2.21 23.77" fill="#f96969"/><path d="M14.8,49.77A3.19,3.19,0,1,0,11.61,53,3.19,3.19,0,0,0,14.8,49.77Zm-4.76,0a1.57,1.57,0,1,1,1.57,1.57A1.57,1.57,0,0,1,10,49.77Z" fill="#333"/><path d="M5.79,26.73,17.56,14.87l2.65,1.37a2.49,2.49,0,0,0,2.87-.42l6.41-6.17s-.17,3.17,2.49,3.17a2.5,2.5,0,0,0,2.5-2.49V3.77A2.35,2.35,0,0,0,32,1.3H25.51A2.5,2.5,0,0,0,23,3.79c0,2.74,2.79,2.49,2.79,2.49L20.91,11,18.23,9.6a2.49,2.49,0,0,0-2.92.46L2.25,23.22a2.5,2.5,0,0,0,0,3.53A2.47,2.47,0,0,0,5.79,26.73ZM3.4,24.36,16.46,11.2a.73.73,0,0,1,1-.16l3.2,1.66a.82.82,0,0,0,.94-.14l6.75-6.5a.8.8,0,0,0,.19-.89.82.82,0,0,0-.75-.51h-2.3a.87.87,0,1,1,0-1.74H32c.24,0,.87,0,.87.87v6.54a.88.88,0,0,1-1.75,0V7.75a.81.81,0,0,0-1.37-.59L22,14.65a.88.88,0,0,1-1,.15l-3.17-1.64a.79.79,0,0,0-1,.15L4.64,25.59a.85.85,0,0,1-1.24,0A.88.88,0,0,1,3.4,24.36Z" fill="#333"/></svg>