<svg xmlns="http://www.w3.org/2000/svg" width="50" height="50" viewBox="0 0 50 50"><title>icons</title><path d="M11.29,0A8.07,8.07,0,0,0,3.23,8.06v4H4A2.42,2.42,0,0,1,6.45,9.68,1.62,1.62,0,0,1,8.06,8.06h6.46a1.62,1.62,0,0,1,1.61,1.62,2.42,2.42,0,0,1,2.42,2.42h.8v-4A8.07,8.07,0,0,0,11.29,0Z" fill="#f96969"/><path d="M38.71,0a8.07,8.07,0,0,0-8.06,8.06v12.1h1.61l4-.81V17.08a4.94,4.94,0,0,1-2.14-2.56h-.28a2.42,2.42,0,1,1,0-4.84V8.87A5.81,5.81,0,0,0,38,7.16l.71-.71.71.71a5.81,5.81,0,0,0,4.13,1.71v.81a2.42,2.42,0,1,1,0,4.84h-.28a4.94,4.94,0,0,1-2.14,2.56v2.27l4,.81h1.61V8.06A8.07,8.07,0,0,0,38.71,0Z" fill="#f96969"/><path d="M46.76,19.66l-4.82-1V17.53a5.89,5.89,0,0,0,1.88-2.23A3.21,3.21,0,0,0,44.35,9V8.06h-.8A5,5,0,0,1,40,6.59L38.71,5.31,37.43,6.59a5,5,0,0,1-3.56,1.47h-.81V9a3.21,3.21,0,0,0,.54,6.31,5.89,5.89,0,0,0,1.88,2.23v1.16l-4.82,1a4,4,0,0,0-3.24,3.95v2.2H38.71V37.9a.81.81,0,0,1-.81.81H34.68v1.61H37.9a2.42,2.42,0,0,0,2.42-2.42V25.81H50v-2.2A4,4,0,0,0,46.76,19.66ZM32.26,12.1a1.6,1.6,0,0,1,.8-1.39V12.9a5.66,5.66,0,0,0,0,.6A1.6,1.6,0,0,1,32.26,12.1Zm12.9,0a1.6,1.6,0,0,1-.84,1.4,5.74,5.74,0,0,0,0-.6V10.71A1.61,1.61,0,0,1,45.16,12.1Zm-10.48.8V9.63a6.62,6.62,0,0,0,3.89-1.9l.14-.14.14.14a6.62,6.62,0,0,0,3.89,1.9V12.9a4,4,0,1,1-8.06,0Zm4,5.65a5.7,5.7,0,0,0,1.61-.24V19l-1.61,1.61L37.1,19v-.71A5.7,5.7,0,0,0,38.71,18.55Zm9.68,5.64H29v-.58A2.43,2.43,0,0,1,31,21.24l5.05-1,2.68,2.68,2.68-2.68,5,1a2.43,2.43,0,0,1,2,2.37v.58Z" fill="#333"/><path d="M11.29,37.9V25.81H22.58v-2.2a4,4,0,0,0-3.24-3.95l-4.82-1V17.53A5.89,5.89,0,0,0,16.4,15.3,3.22,3.22,0,0,0,16.81,9a2.41,2.41,0,0,0-2.29-1.69H8.06A2.41,2.41,0,0,0,5.77,9a3.22,3.22,0,0,0,.41,6.35,5.89,5.89,0,0,0,1.88,2.23v1.16l-4.82,1A4,4,0,0,0,0,23.61v2.2H9.68V37.9a2.42,2.42,0,0,0,2.42,2.42h3.22V38.71H12.1A.81.81,0,0,1,11.29,37.9Zm6.45-25.8a1.6,1.6,0,0,1-.84,1.4,5.66,5.66,0,0,0,0-.6V10.71A1.6,1.6,0,0,1,17.74,12.1Zm-12.9,0a1.61,1.61,0,0,1,.81-1.39V12.9a5.74,5.74,0,0,0,0,.6A1.6,1.6,0,0,1,4.84,12.1Zm2.42.8V9.68a.8.8,0,0,1,.8-.81h6.46a.8.8,0,0,1,.8.81V12.9a4,4,0,1,1-8.06,0Zm4,5.65a5.7,5.7,0,0,0,1.61-.24V19l-1.61,1.61L9.68,19v-.71A5.7,5.7,0,0,0,11.29,18.55ZM1.61,23.61a2.43,2.43,0,0,1,2-2.37l5-1,2.68,2.68L14,20.23l5,1A2.43,2.43,0,0,1,21,23.61v.58H1.61Z" fill="#333"/><circle cx="25" cy="39.52" r="10.48" fill="#f96969"/><rect x="37.1" y="41.94" width="1.61" height="1.61" fill="#333"/><rect x="40.32" y="41.94" width="1.61" height="1.61" fill="#333"/><rect x="43.55" y="41.94" width="1.61" height="1.61" fill="#333"/><rect x="4.84" y="41.94" width="1.61" height="1.61" fill="#333"/><rect x="8.06" y="41.94" width="1.61" height="1.61" fill="#333"/><rect x="11.29" y="41.94" width="1.61" height="1.61" fill="#333"/><path d="M25,35.48a1.62,1.62,0,0,1,1.61,1.62h1.62A3.23,3.23,0,0,0,25.81,34V32.26H24.19V34A3.21,3.21,0,0,0,25,40.32a1.62,1.62,0,1,1-1.61,1.62H21.77a3.24,3.24,0,0,0,2.42,3.11v1.72h1.62V45.05A3.22,3.22,0,0,0,25,38.71a1.62,1.62,0,0,1,0-3.23Z" fill="#333"/><rect x="30.65" y="38.71" width="1.61" height="1.61" fill="#333"/><rect x="17.74" y="38.71" width="1.61" height="1.61" fill="#333"/></svg>