<svg xmlns="http://www.w3.org/2000/svg" width="50" height="50.12" viewBox="0 0 50 50.12"><title>icons</title><path d="M38.68,15.36a.85.85,0,0,1-.45-.14.8.8,0,0,1-.34-.81l.53-3.09H36.26a2.43,2.43,0,0,1-2.43-2.43V2.42A2.43,2.43,0,0,1,36.26,0H47.58A2.43,2.43,0,0,1,50,2.42V8.89a2.43,2.43,0,0,1-2.42,2.43h-2.2l-6.27,3.92A.82.82,0,0,1,38.68,15.36Z" fill="#f96969"/><rect x="5.17" y="27.11" width="2.96" height="6.86" transform="translate(-19.65 13.64) rotate(-45)" fill="#f96969"/><polygon points="21 46.98 23.33 44.85 18.48 40 16.14 42.12 21 46.98" fill="#f96969"/><path d="M38.74,38a5.64,5.64,0,0,0-4.35-3.77l-5.41-1v-.41a8.24,8.24,0,0,0,2.41-2.14H33a2.43,2.43,0,0,0,2.42-2.43v-9.7a10.51,10.51,0,0,0-21,0v5.66A3.25,3.25,0,0,0,17,27.42a8.16,8.16,0,0,0,3.89,5.44v.41l-5.4,1A5.65,5.65,0,0,0,11.14,38l-.32,1L8.07,36.25a.8.8,0,0,1,0-1.14l3.19-3.19-6-6L1.66,29.53a5.65,5.65,0,0,0,0,8L12.58,48.46a5.65,5.65,0,0,0,8,0l3.94-3.61-1.23-1.22H40.61Zm-13.8-2-2.42-2.43v0a8.13,8.13,0,0,0,4.85,0v0ZM33,29.1h-.68a8,8,0,0,0,.52-1.68,3.13,3.13,0,0,0,1-.39v1.26A.8.8,0,0,1,33,29.1Zm0-6.24a1.61,1.61,0,0,1,0,2.78Zm-17,1.39a1.61,1.61,0,0,1,.81-1.39v2.78A1.61,1.61,0,0,1,16.05,24.25Zm.81-4v.92a3.23,3.23,0,0,0-.81.34V18.59a8.89,8.89,0,1,1,17.78,0v2.88a3.32,3.32,0,0,0-.8-.34v-.92h-.81a8.9,8.9,0,0,1-6.33-2.62l-.95-.95-.94.95a8.91,8.91,0,0,1-6.33,2.62Zm1.62,5.66V21.79a10.44,10.44,0,0,0,6.46-2.87,10.47,10.47,0,0,0,6.47,2.87v4.08a6.36,6.36,0,0,1-.88,3.23H24.94v1.62h4.27a6.46,6.46,0,0,1-10.73-4.85ZM9,31.92l-.88.87-3.7-3.7.88-.88ZM16.58,48.5a4,4,0,0,1-2.86-1.19L2.8,36.39a4,4,0,0,1,0-5.71l.44-.45L7,33.94l0,0a2.44,2.44,0,0,0,0,3.43l5.8,5.79a2.43,2.43,0,0,0,3.4,0l.06,0,3.72,3.72-.46.43A4,4,0,0,1,16.58,48.5Zm4.52-2.7-3.72-3.72,1.07-1,3.71,3.71ZM21.65,42,18.5,38.88,15,42.05a.83.83,0,0,1-1.14,0L12.1,40.28l.58-1.73a4,4,0,0,1,3.11-2.7l5.65-1,3.5,3.51,3.51-3.51,5.65,1a4,4,0,0,1,3.11,2.7L38.37,42Z" fill="#333"/><rect x="37.07" y="3.23" width="9.7" height="1.62" fill="#333"/><rect x="37.07" y="6.47" width="6.47" height="1.62" fill="#333"/><rect x="45.15" y="6.47" width="1.62" height="1.62" fill="#333"/><path d="M7.58,20.09l-.84-1.38L4.55,20A21,21,0,0,1,31.17,5l.48-1.54a22.37,22.37,0,0,0-6.71-1,22.61,22.61,0,0,0-22,17.5L1.39,17.37,0,18.2l2.84,4.73Z" fill="#333"/><path d="M49.61,17.9l-4.74-2.84L42,19.79l1.39.83,1.41-2.35A20.72,20.72,0,0,1,46,25.06a21.1,21.1,0,0,1-4.69,13.23l1.26,1a22.73,22.73,0,0,0,5-14.25,22.45,22.45,0,0,0-1.18-7.2l2.38,1.42Z" fill="#333"/></svg>