<svg xmlns="http://www.w3.org/2000/svg" width="50" height="50" viewBox="0 0 50 50"><title>icons</title><path d="M17.74,12.1A5.65,5.65,0,1,1,12.1,6.45,5.65,5.65,0,0,1,17.74,12.1Z" fill="#f96969"/><path d="M22.58,4h12.9V7.26H22.58Z" fill="#f96969"/><path d="M12.9,35.48V33.06H3.23V46.77H35.48V35.48Z" fill="#f96969"/><path d="M50,23.83,40,14.9l4-3.8a3.65,3.65,0,0,0-5.08-5.25l-.23.23V0H0V50H38.71V29.8L50,39.68ZM18.14,29l2.1,2.09-2.94.84Zm3.64,1.36-2.89-2.89L20,26.37a2.8,2.8,0,0,0,2.18,1.05h2.61ZM19.86,23a1.43,1.43,0,0,1-.07-2.13l6.78-6.79a4,4,0,0,1,2.85-1.18h2.21l-9.2,8.87h-.25A2.82,2.82,0,0,0,19.86,23ZM36.62,10.34l2.84,2.84-9.13,8.59H24.76ZM40.06,7a2.09,2.09,0,0,1,1.48-.56,2,2,0,0,1,1.38,3.47l-2.29,2.15L37.78,9.22Zm-3,41.38H1.61V1.61H37.1v6l-3.79,3.65H29.42a5.65,5.65,0,0,0-4,1.65l-6.78,6.79a3,3,0,0,0-.91,2.18,3.1,3.1,0,0,0,1.62,2.71s0,.07,0,.11L17,27,15,34.24l7.24-2.07,4.93-4.75H36l1.11,1ZM48.39,36.13,36.59,25.81H22.18a1.21,1.21,0,0,1,0-2.42H31L38.81,16l9.58,8.56Z" fill="#333"/><path d="M3.23,32.26H12.9v1.61H3.23Z" fill="#333"/><path d="M3.23,35.48H35.48V37.1H3.23Z" fill="#333"/><path d="M6.45,38.71h29v1.61h-29Z" fill="#333"/><path d="M3.23,38.71H4.84v1.61H3.23Z" fill="#333"/><path d="M3.23,41.94H35.48v1.61H3.23Z" fill="#333"/><path d="M33.87,45.16h1.61v1.61H33.87Z" fill="#333"/><path d="M3.23,45.16h29v1.61h-29Z" fill="#333"/><path d="M12.1,21A8.87,8.87,0,1,0,3.23,12.1,8.88,8.88,0,0,0,12.1,21Zm0-1.62a7.22,7.22,0,0,1-5.28-2.29l5.38-4,6.15,2.73A7.24,7.24,0,0,1,12.1,19.35Zm7.25-7.25A7.22,7.22,0,0,1,19,14.29L12.9,11.57V4.89A7.26,7.26,0,0,1,19.35,12.1ZM11.29,4.89v6.8L5.85,15.77a7.17,7.17,0,0,1-1-3.67A7.26,7.26,0,0,1,11.29,4.89Z" fill="#333"/><path d="M22.58,3.23h12.9V4.84H22.58Z" fill="#333"/><path d="M22.58,6.45h12.9V8.06H22.58Z" fill="#333"/></svg>