<svg xmlns="http://www.w3.org/2000/svg" width="50" height="50" viewBox="0 0 50 50"><title>icons</title><rect x="1.2" y="6.72" width="2.44" height="10.77" fill="#f96969"/><rect x="4.41" y="9.34" width="2.44" height="8.15" fill="#f96969"/><rect x="7.61" y="12.53" width="2.44" height="4.96" fill="#f96969"/><rect x="10.84" y="14.94" width="2.44" height="2.55" fill="#f96969"/><path d="M50,8.06H38.71V0H50Z" fill="#f96969"/><path d="M9.68,50H0V38.71H9.68Z" fill="#f96969"/><path d="M50,50H40.32V38.71H50Z" fill="#f96969"/><path d="M4.84,2.73A16.3,16.3,0,0,0,16.13,7.26V5.65A14.64,14.64,0,0,1,6,1.61H7.26V0h-4V4H4.84Z" fill="#333"/><rect x="3.23" y="41.94" width="3.23" height="1.61" fill="#333"/><rect x="3.23" y="45.16" width="3.23" height="1.61" fill="#333"/><rect x="43.55" y="41.94" width="3.23" height="1.61" fill="#333"/><rect x="43.55" y="45.16" width="3.23" height="1.61" fill="#333"/><path d="M35.48,41.26A19.34,19.34,0,0,0,44.35,25a19.11,19.11,0,0,0-1.61-7.72V12.52l-1.1.44c-.39.16-.78.29-1.17.43a19.43,19.43,0,0,0-6.6-5.58v-3h4.84V3.23H32.26V7.07a19.33,19.33,0,0,0-21,4.27v-.05H8.06V8.06H4.84V5.65H0v12.9H6.75a19.37,19.37,0,0,0,7.77,22.71v2.29H9.68v1.61h6.45v-3a19.29,19.29,0,0,0,17.74,0v3h6.45V43.55H35.48ZM33.56,19.35h-1.3V16.13h1.61v3.25Zm1.92-3.3a23.2,23.2,0,0,0,5.65-1.18v5.74a23.68,23.68,0,0,0-5.65-1.18Zm-1.61-4.76V9.65a17.77,17.77,0,0,1,4.94,4.22,21.51,21.51,0,0,1-5.25.65h-1.3a1.61,1.61,0,0,0-1.61,1.61v3.22A1.62,1.62,0,0,0,32.26,21h1.3a21.7,21.7,0,0,1,8.08,1.55l1,.4c.05.42.08.84.1,1.27H25.81V7.28a17.78,17.78,0,0,1,6.45,1.54v2.47Zm-22.58,4H12.9v1.62H11.29ZM9.68,12.9v4H8.06v-4Zm-6.45,4H1.61V7.26H3.23ZM4.84,9.68H6.45v7.26H4.84ZM14.52,37.1v2.2A17.72,17.72,0,0,1,7.26,25a17.48,17.48,0,0,1,1.23-6.45h6V13.71H11.33A17.62,17.62,0,0,1,24.19,7.28V42.72a17.57,17.57,0,0,1-8.06-2.37V37.1Zm11.29,5.62V25.81H42.72A17.71,17.71,0,0,1,35.48,39.3V37.1H33.87v3.25A17.57,17.57,0,0,1,25.81,42.72Z" fill="#333"/><rect x="14.52" y="22.58" width="7.26" height="1.61" fill="#333"/><rect x="14.52" y="25.81" width="7.26" height="1.61" fill="#333"/><rect x="14.52" y="29.03" width="7.26" height="1.61" fill="#333"/><path d="M44.69,16.6a1.63,1.63,0,0,1,.47,1.14,1.61,1.61,0,0,1-.47,1.14L45.83,20a3.24,3.24,0,0,0,0-4.56Z" fill="#333"/><path d="M48.11,13.18,47,14.32a4.83,4.83,0,0,1,0,6.84l1.14,1.14a6.45,6.45,0,0,0,0-9.12Z" fill="#333"/><rect x="41.94" y="3.23" width="1.61" height="1.61" fill="#333"/><rect x="45.16" y="3.23" width="1.61" height="1.61" fill="#333"/><path d="M31.64,29.82l4.64,2.46a.27.27,0,0,1,0,.48L31.69,35.3a.27.27,0,0,1-.4-.24l-.05-5A.27.27,0,0,1,31.64,29.82Z" fill="#333"/></svg>