<svg xmlns="http://www.w3.org/2000/svg" width="50" height="49.76" viewBox="0 0 50 49.76"><title>icons</title><path d="M49.19,34.44v4.84H14.52L12.9,37.67H.81V34.44H8.06V10.25H12.9V22.34h25V10.25h4V34.44Z" fill="#f96969"/><path d="M24.19,32h1.62v1.61H24.19Z" fill="#333"/><path d="M46,9.44H38.71V4.6H29.37l3.46-3.46L31.69,0,28.25,3.44A4.82,4.82,0,0,0,20.82,4.6H11.29V9.44H4a4,4,0,0,0-4,4V40.89a4,4,0,0,0,4,4H14.52v3.22H11.29v1.61H38.71V48.15H35.48V44.93H46a4,4,0,0,0,4-4V13.47A4,4,0,0,0,46,9.44Zm-16.65,4L37.1,7.1V21.2ZM25,3.8a3.21,3.21,0,0,1,2.1.79L25,6.69l-1-1L22.82,6.79,25,9l3-3A3.22,3.22,0,1,1,25,3.8Zm0,8.06A4.84,4.84,0,0,0,29.84,7a5.29,5.29,0,0,0-.07-.8h5.86L25,14.85,14.37,6.22h5.86a5.29,5.29,0,0,0-.07.8A4.84,4.84,0,0,0,25,11.86ZM4,11.05H12.9v-4l7.78,6.32L12.9,21.2V12.67H11.29V24h8.87v9.67H17.74v1.62h4V22.34H14l7.9-7.89,2.25,1.83V30.41h1.62V16.28l2.25-1.83L36,22.34H28.23V35.25h4V33.63H29.84V24h8.87V11.05H46a2.43,2.43,0,0,1,2.42,2.42V33.63H41.94V19.12H40.32V35.25h8.07v3.22H14.85l-1.61-1.61H1.61V35.25H9.68V19.12H8.06V33.63H1.61V13.47A2.43,2.43,0,0,1,4,11.05ZM46,43.31H17.74v1.62H33.87v3.22H16.13V43.31H4a2.42,2.42,0,0,1-2.42-2.42V38.47h11l1.61,1.62H48.39v.8A2.42,2.42,0,0,1,46,43.31Z" fill="#333"/><path d="M3.23,40.09H4.84V41.7H3.23Z" fill="#333"/><path d="M6.45,40.09H8.06V41.7H6.45Z" fill="#333"/><path d="M9.68,40.09h1.61V41.7H9.68Z" fill="#333"/><path d="M33.87,33.63h1.61v1.62H33.87Z" fill="#333"/><path d="M14.52,33.63h1.61v1.62H14.52Z" fill="#333"/><path d="M24.19,35.25h1.62v1.61H24.19Z" fill="#333"/><path d="M8.06,12.67H9.68v1.61H8.06Z" fill="#333"/><path d="M8.06,15.89H9.68v1.62H8.06Z" fill="#333"/><path d="M40.32,12.67h1.62v1.61H40.32Z" fill="#333"/><path d="M40.32,15.89h1.62v1.62H40.32Z" fill="#333"/><path d="M11.29,25.57H12.9v9.68H11.29Z" fill="#333"/><path d="M37.1,25.57h1.61v9.68H37.1Z" fill="#333"/></svg>