<svg xmlns="http://www.w3.org/2000/svg" width="50" height="50" viewBox="0 0 50 50"><title>icons</title><ellipse cx="29.2" cy="9.14" rx="7.85" ry="8.32" fill="#f96969"/><ellipse cx="9.08" cy="20.2" rx="7.85" ry="8.32" fill="#f96969"/><ellipse cx="40.02" cy="30.84" rx="7.62" ry="8.03" fill="#f96969"/><ellipse cx="20.08" cy="40.67" rx="7.79" ry="8.09" fill="#f96969"/><path d="M46.67,10A3.34,3.34,0,1,0,50,13.33,3.34,3.34,0,0,0,46.67,10Zm0,5a1.67,1.67,0,1,1,0-3.33,1.67,1.67,0,0,1,0,3.33Z" fill="#333"/><path d="M3.33,37.5a3.34,3.34,0,1,0,3.34,3.33A3.34,3.34,0,0,0,3.33,37.5Zm0,5A1.67,1.67,0,1,1,5,40.83,1.66,1.66,0,0,1,3.33,42.5Z" fill="#333"/><path d="M45.05,11.05,37.86,7.58A.84.84,0,0,0,36.75,8a.82.82,0,0,0,.39,1.11l7.19,3.47a.77.77,0,0,0,.36.09.84.84,0,0,0,.36-1.59Z" fill="#333"/><path d="M37.5,43.33a3.34,3.34,0,1,0,3.33,3.34A3.34,3.34,0,0,0,37.5,43.33Zm0,5a1.67,1.67,0,1,1,1.67-1.66A1.66,1.66,0,0,1,37.5,48.33Z" fill="#333"/><path d="M35.88,44.39,28.7,40.92a.83.83,0,1,0-.73,1.5l7.19,3.47a.94.94,0,0,0,.36.08.83.83,0,0,0,.36-1.58Z" fill="#333"/><path d="M25,22.5a3.34,3.34,0,1,0,3.33,3.33A3.34,3.34,0,0,0,25,22.5Zm0,5a1.67,1.67,0,1,1,1.67-1.67A1.67,1.67,0,0,1,25,27.5Z" fill="#333"/><path d="M23.53,23.65,18,19.34a.83.83,0,1,0-1,1.32L22.51,25a.81.81,0,0,0,.51.18.83.83,0,0,0,.51-1.49Z" fill="#333"/><path d="M40,21.67a9.17,9.17,0,1,0,9.17,9.16A9.18,9.18,0,0,0,40,21.67Zm0,16.66a7.5,7.5,0,1,1,7.5-7.5A7.5,7.5,0,0,1,40,38.33Z" fill="#333"/><path d="M40,25a3.34,3.34,0,1,0,3.33,3.33A3.34,3.34,0,0,0,40,25Zm0,5a1.67,1.67,0,1,1,1.67-1.67A1.67,1.67,0,0,1,40,30Z" fill="#333"/><path d="M42.42,33.33H37.58A2.55,2.55,0,0,0,35,35.85V38a.83.83,0,0,0,.42.72,9.08,9.08,0,0,0,9.16,0A.82.82,0,0,0,45,38V35.85A2.55,2.55,0,0,0,42.42,33.33Zm.91,4.22a7.56,7.56,0,0,1-6.66,0v-1.7a.88.88,0,0,1,.91-.85h4.84a.88.88,0,0,1,.91.85v1.7Z" fill="#333"/><path d="M20,31.67a9.17,9.17,0,1,0,9.17,9.16A9.18,9.18,0,0,0,20,31.67Zm0,16.66a7.5,7.5,0,1,1,7.5-7.5A7.5,7.5,0,0,1,20,48.33Z" fill="#333"/><path d="M20,35a3.34,3.34,0,1,0,3.33,3.33A3.34,3.34,0,0,0,20,35Zm0,5a1.67,1.67,0,1,1,1.67-1.67A1.67,1.67,0,0,1,20,40Z" fill="#333"/><path d="M22.42,43.33H17.58A2.55,2.55,0,0,0,15,45.85V48a.83.83,0,0,0,.42.72,9.08,9.08,0,0,0,9.16,0A.82.82,0,0,0,25,48V45.85A2.55,2.55,0,0,0,22.42,43.33Zm.91,4.22a7.56,7.56,0,0,1-6.66,0v-1.7a.88.88,0,0,1,.91-.85h4.84a.88.88,0,0,1,.91.85v1.7Z" fill="#333"/><path d="M9.17,10.83A9.17,9.17,0,1,0,18.33,20,9.18,9.18,0,0,0,9.17,10.83Zm0,16.67a7.5,7.5,0,1,1,7.5-7.5A7.5,7.5,0,0,1,9.17,27.5Z" fill="#333"/><path d="M9.17,14.17A3.33,3.33,0,1,0,12.5,17.5,3.34,3.34,0,0,0,9.17,14.17Zm0,5a1.67,1.67,0,1,1,1.66-1.67A1.67,1.67,0,0,1,9.17,19.17Z" fill="#333"/><path d="M11.58,22.5H6.75A2.55,2.55,0,0,0,4.17,25v2.2a.82.82,0,0,0,.41.72,9.1,9.1,0,0,0,9.17,0,.83.83,0,0,0,.42-.72V25A2.56,2.56,0,0,0,11.58,22.5Zm.92,4.21a7.52,7.52,0,0,1-6.67,0V25a.88.88,0,0,1,.92-.84h4.83a.88.88,0,0,1,.92.84v1.7Z" fill="#333"/><path d="M29.17,0a9.17,9.17,0,1,0,9.16,9.17A9.18,9.18,0,0,0,29.17,0Zm0,16.67a7.5,7.5,0,1,1,7.5-7.5A7.51,7.51,0,0,1,29.17,16.67Z" fill="#333"/><path d="M29.17,3.33A3.34,3.34,0,1,0,32.5,6.67,3.35,3.35,0,0,0,29.17,3.33Zm0,5a1.67,1.67,0,1,1,1.66-1.66A1.66,1.66,0,0,1,29.17,8.33Z" fill="#333"/><path d="M31.58,11.67H26.75a2.55,2.55,0,0,0-2.58,2.51v2.2a.83.83,0,0,0,.41.72,9.16,9.16,0,0,0,9.17,0,.84.84,0,0,0,.42-.72v-2.2A2.55,2.55,0,0,0,31.58,11.67Zm.92,4.21a7.59,7.59,0,0,1-6.67,0v-1.7a.89.89,0,0,1,.92-.85h4.83a.89.89,0,0,1,.92.85v1.7Z" fill="#333"/><path d="M21.47,8.62a.85.85,0,0,0-1.18-.09l-5.77,4.94a.84.84,0,0,0-.09,1.18.82.82,0,0,0,.63.29.81.81,0,0,0,.54-.2L21.38,9.8A.84.84,0,0,0,21.47,8.62Z" fill="#333"/><path d="M39.83,22l-5-6.67a.83.83,0,0,0-1.33,1l5,6.67a.82.82,0,0,0,.67.33.85.85,0,0,0,.5-.16A.84.84,0,0,0,39.83,22Z" fill="#333"/><path d="M33,33.59a.83.83,0,0,0-1.16-.17l-4.66,3.49A.83.83,0,0,0,27,38.08a.81.81,0,0,0,.66.33.83.83,0,0,0,.5-.16l4.66-3.5A.82.82,0,0,0,33,33.59Z" fill="#333"/><path d="M11.67,40H5.83a.83.83,0,0,0-.83.83.84.84,0,0,0,.83.84h5.84a.84.84,0,0,0,.83-.84A.83.83,0,0,0,11.67,40Z" fill="#333"/><path d="M9.17,0A3.34,3.34,0,1,0,12.5,3.33,3.34,3.34,0,0,0,9.17,0Zm0,5a1.67,1.67,0,1,1,0-3.33A1.67,1.67,0,0,1,9.17,5Z" fill="#333"/><path d="M9.17,5a.84.84,0,0,0-.84.83v5.84a.84.84,0,0,0,.84.83.83.83,0,0,0,.83-.83V5.83A.83.83,0,0,0,9.17,5Z" fill="#333"/></svg>