<svg xmlns="http://www.w3.org/2000/svg" width="50" height="50" viewBox="0 0 50 50"><title>icons</title><path d="M0,0V50H50V0ZM48.39,1.61V6.45H1.61V1.61ZM1.61,48.39V8.06H48.39V48.39Z" fill="#333"/><rect x="3.23" y="3.23" width="1.61" height="1.61" fill="#333"/><rect x="6.45" y="3.23" width="1.61" height="1.61" fill="#333"/><rect x="9.68" y="3.23" width="1.61" height="1.61" fill="#333"/><path d="M17.74,11.29a12.91,12.91,0,0,0,0,25.81,12.79,12.79,0,0,0,4.3-.74l-.53-1.52A11.3,11.3,0,0,1,6.49,25H9.72a8,8,0,0,0,7.13,7.21l.17-1.6a6.45,6.45,0,1,1,6.36-9.55l1.41-.79a8.08,8.08,0,0,0-6.24-4.09V12.93a11.34,11.34,0,0,1,9,5.63l1.4-.81A13,13,0,0,0,17.74,11.29Zm-8,12.1H6.49A11.3,11.3,0,0,1,16.94,12.94v3.23A8.07,8.07,0,0,0,9.72,23.39Z" fill="#333"/><path d="M33.87,45.16H27.42v-3.7a11.11,11.11,0,0,1-2.14-.89l-2.62,2.62L18.1,38.63,20.72,36a11.78,11.78,0,0,1-.89-2.14h-3.7V27.42h3.7a11.11,11.11,0,0,1,.89-2.14L18.1,22.66l4.56-4.56,2.62,2.62a11.78,11.78,0,0,1,2.14-.89v-3.7h6.45v3.7a11.11,11.11,0,0,1,2.14.89l2.62-2.62,4.56,4.56-2.62,2.62a11.78,11.78,0,0,1,.89,2.14h3.7v6.45h-3.7A11.11,11.11,0,0,1,40.57,36l2.62,2.62-4.56,4.56L36,40.57a11.78,11.78,0,0,1-2.14.89Z" fill="#f96969"/><path d="M30.65,37.1a6.45,6.45,0,1,1,5.41-2.94l-1.36-.88a4.84,4.84,0,0,0-4.05-7.47,4.84,4.84,0,1,0,3.28,8.39L35,35.38A6.44,6.44,0,0,1,30.65,37.1Z" fill="#333"/><rect x="35.48" y="9.68" width="11.29" height="1.61" fill="#333"/><rect x="35.48" y="12.9" width="8.06" height="1.61" fill="#333"/><rect x="45.16" y="12.9" width="1.61" height="1.61" fill="#333"/></svg>