<svg xmlns="http://www.w3.org/2000/svg" width="50" height="50" viewBox="0 0 50 50"><title>icons</title><path d="M9.68,13.71a4,4,0,1,1-4-4A4,4,0,0,1,9.68,13.71Z" fill="#f96969"/><path d="M16.94,5.65a4,4,0,1,1-4-4A4,4,0,0,1,16.94,5.65Z" fill="#f96969"/><path d="M24.19,16.94a4,4,0,1,1-4-4A4,4,0,0,1,24.19,16.94Z" fill="#f96969"/><path d="M33.06,10.48a4,4,0,1,1-4-4A4,4,0,0,1,33.06,10.48Z" fill="#f96969"/><path d="M3.23,21H22.58V32.26H3.23Z" fill="#f96969"/><path d="M0,0V35.48H13.71V48.39H3.23V50H46.77V48.39H36.29V35.48H50V0ZM15.32,35.48h1.62V48.39H15.32Zm16.13,0V48.39H18.55V35.48Zm3.23,12.91H33.06V35.48h1.62ZM48.39,33.87H1.61V1.61H48.39Z" fill="#333"/><path d="M0,48.39H1.61V50H0Z" fill="#333"/><path d="M48.39,48.39H50V50H48.39Z" fill="#333"/><path d="M5.65,16.13a2.42,2.42,0,0,0,2.41-2.42,2.37,2.37,0,0,0-.3-1.15L12,7.88a2.32,2.32,0,0,0,.92.18A2.44,2.44,0,0,0,13.45,8l4.81,7.46a2.41,2.41,0,1,0,4.32,1.48,2.26,2.26,0,0,0-.11-.69l5-3.61c0,.09,0,.18,0,.26A9.68,9.68,0,1,0,28.7,8.1a2.41,2.41,0,0,0-2.09,2.38,2.62,2.62,0,0,0,.11.69l-5.19,3.77a2.39,2.39,0,0,0-1.37-.42,2,2,0,0,0-.55.07l-4.8-7.47a2.38,2.38,0,0,0,.51-1.47,2.42,2.42,0,1,0-4.84,0,2.34,2.34,0,0,0,.31,1.14L6.57,11.48a2.37,2.37,0,0,0-.92-.19,2.42,2.42,0,0,0,0,4.84ZM37.9,4.88a8,8,0,0,1,2.83.83L37.9,8.54Zm0,16.05V13.71h7.22A8.08,8.08,0,0,1,37.9,20.93Zm3.56-8.83,2.83-2.83a8,8,0,0,1,.83,2.83ZM43.4,7.88,39.18,12.1H37.9V10.82L42.12,6.6A8.61,8.61,0,0,1,43.4,7.88Zm-7.11-3v16a8.08,8.08,0,0,1-7.26-8,2.42,2.42,0,0,0,1.34-4.43A8,8,0,0,1,36.29,4.89ZM29,9.68a.81.81,0,1,1-.8.8A.8.8,0,0,1,29,9.68ZM21,16.94a.81.81,0,0,1-1.62,0,.81.81,0,0,1,1.62,0ZM12.9,4.84a.81.81,0,1,1-.8.81A.81.81,0,0,1,12.9,4.84ZM5.65,12.9a.81.81,0,1,1-.81.81A.81.81,0,0,1,5.65,12.9Z" fill="#333"/><path d="M3.23,30.65H4.84v1.61H3.23Z" fill="#333"/><path d="M6.45,30.65H22.58v1.61H6.45Z" fill="#333"/><path d="M3.23,27.42H4.84V29H3.23Z" fill="#333"/><path d="M6.45,27.42H22.58V29H6.45Z" fill="#333"/><path d="M3.23,24.19H4.84v1.62H3.23Z" fill="#333"/><path d="M6.45,24.19H22.58v1.62H6.45Z" fill="#333"/><path d="M3.23,21H4.84v1.61H3.23Z" fill="#333"/><path d="M6.45,21H22.58v1.61H6.45Z" fill="#333"/></svg>