<svg xmlns="http://www.w3.org/2000/svg" width="50" height="50" viewBox="0 0 50 50"><title>icons</title><polygon points="14.17 5 35.83 5 35.83 29.67 31.22 29.58 31.27 35.74 29.95 39.35 30.45 41.12 21.85 41.67 21.03 37.1 15.52 33.97 18.5 34.47 21.86 30.13 14.17 30.12 14.17 5" fill="#f96969"/><rect x="16.67" y="4.17" width="16.67" height="1.67" fill="#333"/><path d="M41.25,31.25a2.92,2.92,0,0,0-2.92-2.92H36.67V16.67H35V28.33H32.92a2.91,2.91,0,0,0-2,5,2.89,2.89,0,0,0-.44,3.61A2.89,2.89,0,0,0,29,40.83H22.5a7.53,7.53,0,0,0-3.22-6.16A5,5,0,0,0,22.5,30a.83.83,0,0,0-.83-.83H15V20.83H13.33v8.34a2.5,2.5,0,0,0-2.5,2.5V50H12.5V31.67a.84.84,0,0,1,.83-.84h7.4a3.34,3.34,0,0,1-3.23,2.5H15a.84.84,0,0,0-.83.84A.83.83,0,0,0,15,35a5.84,5.84,0,0,1,5.83,5.83v.84a.84.84,0,0,0,.84.83h4.87a2.9,2.9,0,0,0,2.63,4.17V50h1.66V46.67h3.75a2.92,2.92,0,0,0,2.92-2.92,2.82,2.82,0,0,0-.3-1.26,2.9,2.9,0,0,0,2.36-4.43,2.91,2.91,0,0,0,.81-4.73A2.9,2.9,0,0,0,41.25,31.25ZM34.58,45H29.17a1.25,1.25,0,0,1,0-2.5h5.41a1.25,1.25,0,0,1,0,2.5Zm2.5-4.17H31.67a1.25,1.25,0,0,1,0-2.5h5.41a1.25,1.25,0,0,1,0,2.5Zm2.5-5.41a1.25,1.25,0,0,1-1.25,1.25H32.92a1.25,1.25,0,0,1,0-2.5h5.41A1.25,1.25,0,0,1,39.58,35.42ZM32.92,32.5a1.25,1.25,0,0,1,0-2.5h5.41a1.25,1.25,0,0,1,0,2.5Z" fill="#333"/><path d="M11.3,9.34a2.27,2.27,0,0,0-4.5.42A5,5,0,0,1,4.92,9l-.29-.2a.83.83,0,0,0-1.3.69v.68A4.82,4.82,0,0,0,4.2,13l-.63.63a.85.85,0,0,0-.17.91.83.83,0,0,0,.77.51h4a3.16,3.16,0,0,0,3.13-2.8l.93-.95a.84.84,0,0,0,.24-.64.87.87,0,0,0-.33-.61ZM9.92,11.25a.83.83,0,0,0-.24.58,1.49,1.49,0,0,1-1.48,1.5H6.08a.82.82,0,0,0-.17-.92A3.14,3.14,0,0,1,5.11,11a6.34,6.34,0,0,0,2.52.51.83.83,0,0,0,.83-.83V9.79a.62.62,0,0,1,.61-.62.61.61,0,0,1,.61.62.84.84,0,0,0,.33.67l.4.3Z" fill="#333"/><path d="M24.17,13.33v2.5H22.5V17.5h1.67v3.33h1.66V17.5H27.5V15.83H25.83V14.17H27.5V12.5H25A.83.83,0,0,0,24.17,13.33Z" fill="#333"/><path d="M32.5,21.67v-10A2.5,2.5,0,0,0,30,9.17H20a2.5,2.5,0,0,0-2.5,2.5v10a2.5,2.5,0,0,0,2.5,2.5H30A2.5,2.5,0,0,0,32.5,21.67Zm-13.33,0v-10a.84.84,0,0,1,.83-.84H30a.84.84,0,0,1,.83.84v10a.83.83,0,0,1-.83.83H20A.83.83,0,0,1,19.17,21.67Z" fill="#333"/><path d="M15,16.67v-10a2.5,2.5,0,0,0-2.5-2.5H2.5A2.5,2.5,0,0,0,0,6.67v10a2.5,2.5,0,0,0,2.5,2.5h10A2.5,2.5,0,0,0,15,16.67Zm-13.33,0v-10a.84.84,0,0,1,.83-.84h10a.84.84,0,0,1,.83.84v10a.83.83,0,0,1-.83.83H2.5A.83.83,0,0,1,1.67,16.67Z" fill="#333"/><path d="M47.5,0h-10A2.5,2.5,0,0,0,35,2.5v10A2.5,2.5,0,0,0,37.5,15h10A2.5,2.5,0,0,0,50,12.5V2.5A2.5,2.5,0,0,0,47.5,0Zm-10,1.67h10a.83.83,0,0,1,.83.83V6.67H46.58a4.16,4.16,0,0,0-8.16,0H36.67V2.5A.83.83,0,0,1,37.5,1.67ZM45,7.5A2.5,2.5,0,1,1,42.5,5,2.5,2.5,0,0,1,45,7.5Zm2.5,5.83h-10a.83.83,0,0,1-.83-.83V8.33h1.75a4.16,4.16,0,0,0,8.16,0h1.75V12.5A.83.83,0,0,1,47.5,13.33Z" fill="#333"/><rect x="24.17" y="34.17" width="1.67" height="1.67" fill="#333"/></svg>