<svg xmlns="http://www.w3.org/2000/svg" width="50" height="46.77" viewBox="0 0 50 46.77"><title>icons</title><path d="M29.84,11.29H41.13v6.45H29.84Z" fill="#f96969"/><path d="M44.35,0H5.65A1.62,1.62,0,0,0,4,1.61V4.84A1.62,1.62,0,0,0,5.65,6.45h38.7A1.62,1.62,0,0,0,46,4.84V1.61A1.62,1.62,0,0,0,44.35,0Z" fill="#f96969"/><path d="M24.19,8.87h3.23v12.9H24.19Z" fill="#f96969"/><path d="M17.74,12.1H21v9.67H17.74Z" fill="#f96969"/><path d="M11.29,14.52h3.23v7.25H11.29Z" fill="#f96969"/><path d="M10.35,2.47H12V4.08H10.35Z" fill="#333"/><path d="M42.19,2.47h1.62V4.08H42.19Z" fill="#333"/><path d="M7.12,2.47H8.73V4.08H7.12Z" fill="#333"/><path d="M47.66,36.63l-3.31-1V34.24A4.81,4.81,0,0,0,46,30.65V29a4.79,4.79,0,0,0-1.62-3.59v-19H42.74v18a4.74,4.74,0,0,0-1.61-.29A4.84,4.84,0,0,0,36.29,29v1.62a4.85,4.85,0,0,0,1.61,3.59v1.44l-3.3,1a3.19,3.19,0,0,0-1.54,1,3.16,3.16,0,0,0-1.53-1l-3.3-1V34.24a4.83,4.83,0,0,0,1.61-3.59V29a4.84,4.84,0,0,0-9.68,0v1.62a4.85,4.85,0,0,0,1.61,3.59v1.44l-3.3,1a3.16,3.16,0,0,0-1.53,1,3.19,3.19,0,0,0-1.54-1l-3.3-1V34.24a4.83,4.83,0,0,0,1.61-3.59V29a4.84,4.84,0,0,0-4.84-4.84,4.74,4.74,0,0,0-1.61.29v-18H5.65v19A4.79,4.79,0,0,0,4,29v1.62a4.82,4.82,0,0,0,1.62,3.59v1.44l-3.31,1A3.23,3.23,0,0,0,0,39.73v7H50v-7A3.23,3.23,0,0,0,47.66,36.63Zm-3.88.57.49.14-.45,1.81-1.33-.66ZM37.9,29a3.23,3.23,0,0,1,6.45,0v1.62a3.23,3.23,0,0,1-6.45,0Zm3.23,6.45a4.74,4.74,0,0,0,1.61-.28V36l-1.61,1.61L39.52,36V35.2A4.74,4.74,0,0,0,41.13,35.48ZM38.47,37.2l1.3,1.29-1.33.66L38,37.34Zm-10.82,0,.49.14-.45,1.81-1.33-.66ZM21.77,29a3.23,3.23,0,0,1,6.46,0v1.62a3.23,3.23,0,0,1-6.46,0ZM25,35.48a4.74,4.74,0,0,0,1.61-.28V36L25,37.57,23.39,36V35.2A4.74,4.74,0,0,0,25,35.48ZM22.35,37.2l1.29,1.29-1.33.66-.45-1.81Zm-3.44,1,1.4-.4.92,3.71L25,39.61l3.76,1.88.93-3.71,1.4.4a1.61,1.61,0,0,1,1.17,1.55v5.43H17.74V39.73A1.61,1.61,0,0,1,18.91,38.18Zm-7.38-1,.48.14-.45,1.81-1.33-.66ZM5.65,29a3.23,3.23,0,0,1,6.45,0v1.62a3.23,3.23,0,0,1-6.45,0Zm3.22,6.45a4.74,4.74,0,0,0,1.61-.28V36L8.87,37.57,7.26,36V35.2A4.74,4.74,0,0,0,8.87,35.48ZM6.22,37.2l1.29,1.29-1.33.66-.45-1.81ZM1.61,39.73a1.61,1.61,0,0,1,1.17-1.55l1.4-.4.93,3.71,3.76-1.88,3.77,1.88.92-3.71,1.4.4a1.61,1.61,0,0,1,1.17,1.55v5.43H1.61Zm46.78,5.43H33.87V39.73A1.61,1.61,0,0,1,35,38.18l1.4-.4.92,3.71,3.77-1.88,3.76,1.88.93-3.71,1.4.4a1.61,1.61,0,0,1,1.17,1.55Z" fill="#333"/><path d="M8.87,21h21v1.61h-21Z" fill="#333"/><path d="M29.84,10.48H41.13V12.1H29.84Z" fill="#333"/><path d="M36.29,13.71h4.84v1.61H36.29Z" fill="#333"/><path d="M29.84,13.71h4.84v1.61H29.84Z" fill="#333"/><path d="M29.84,16.94H41.13v1.61H29.84Z" fill="#333"/></svg>