<svg xmlns="http://www.w3.org/2000/svg" width="51" height="49.72" viewBox="0 0 51 49.72"><title>icons</title><path d="M8.34,46a.81.81,0,0,0,.81-.81V37h4.53v8.17a.81.81,0,0,0,1.62,0v-9a.81.81,0,0,0-.81-.81H8.34a.8.8,0,0,0-.8.81v9A.8.8,0,0,0,8.34,46Z" fill="#333"/><path d="M14.49,46.49a1.31,1.31,0,0,1-1.31-1.31V37.5H9.65v7.68a1.31,1.31,0,1,1-2.61,0v-9a1.31,1.31,0,0,1,1.3-1.31h6.15A1.31,1.31,0,0,1,15.8,36.2v9A1.31,1.31,0,0,1,14.49,46.49Zm-5.84-10h5.53v8.68a.31.31,0,0,0,.62,0v-9a.31.31,0,0,0-.31-.31H8.34a.3.3,0,0,0-.3.31v9a.3.3,0,0,0,.3.31.31.31,0,0,0,.31-.31Z" fill="#333"/><path d="M23.9,46a.81.81,0,0,0,.81-.81V30.41a.81.81,0,0,0-.81-.81H17.75a.8.8,0,0,0-.8.81V45.18a.81.81,0,1,0,1.61,0v-14h4.53v14A.81.81,0,0,0,23.9,46Z" fill="#333"/><path d="M23.9,46.49a1.31,1.31,0,0,1-1.31-1.31V31.72H19.06V45.18a1.31,1.31,0,1,1-2.61,0V30.41a1.31,1.31,0,0,1,1.3-1.31H23.9a1.31,1.31,0,0,1,1.31,1.31V45.18A1.31,1.31,0,0,1,23.9,46.49ZM18.06,30.72h5.53V45.18a.31.31,0,1,0,.62,0V30.41a.31.31,0,0,0-.31-.31H17.75a.3.3,0,0,0-.3.31V45.18a.3.3,0,0,0,.3.31.31.31,0,0,0,.31-.31Z" fill="#333"/><path d="M33.31,46a.81.81,0,0,0,.81-.81V22.27a.81.81,0,0,0-.81-.8H27.16a.8.8,0,0,0-.8.8V45.18a.81.81,0,1,0,1.61,0V23.08H32.5v22.1A.81.81,0,0,0,33.31,46Z" fill="#333"/><path d="M33.31,46.49A1.31,1.31,0,0,1,32,45.18V23.58H28.47v21.6a1.31,1.31,0,1,1-2.61,0V22.27a1.3,1.3,0,0,1,1.3-1.3h6.15a1.31,1.31,0,0,1,1.31,1.3V45.18A1.31,1.31,0,0,1,33.31,46.49ZM27.47,22.58H33v22.6a.31.31,0,0,0,.62,0V22.27a.3.3,0,0,0-.31-.3H27.16a.29.29,0,0,0-.3.3V45.18a.3.3,0,0,0,.3.31.31.31,0,0,0,.31-.31Z" fill="#333"/><path d="M42.72,46a.81.81,0,0,0,.81-.81v-9a.81.81,0,0,0-.81-.81H36.57a.8.8,0,0,0-.8.81v9a.81.81,0,1,0,1.61,0V37h4.53v8.17A.81.81,0,0,0,42.72,46Z" fill="#333"/><path d="M42.72,46.49a1.31,1.31,0,0,1-1.31-1.31V37.5H37.88v7.68a1.31,1.31,0,1,1-2.61,0v-9a1.31,1.31,0,0,1,1.3-1.31h6.15A1.31,1.31,0,0,1,44,36.2v9A1.31,1.31,0,0,1,42.72,46.49Zm-5.84-10h5.53v8.68a.31.31,0,1,0,.62,0v-9a.31.31,0,0,0-.31-.31H36.57a.3.3,0,0,0-.3.31v9a.3.3,0,0,0,.3.31.31.31,0,0,0,.31-.31Z" fill="#333"/><path d="M49.32,47.6H2.12V1.8A.81.81,0,0,0,.5,1.8V48.41a.81.81,0,0,0,.81.81h48a.81.81,0,0,0,0-1.62Z" fill="#333"/><path d="M49.32,49.72h-48A1.31,1.31,0,0,1,0,48.41V1.8a1.31,1.31,0,0,1,2.62,0V47.1h46.7a1.31,1.31,0,1,1,0,2.62ZM1.31,1.49A.31.31,0,0,0,1,1.8V48.41a.31.31,0,0,0,.31.31h48a.31.31,0,0,0,0-.62H1.62V1.8A.31.31,0,0,0,1.31,1.49Z" fill="#333"/><path d="M49.69.5H10.78a.81.81,0,0,0-.81.81V15.74a.81.81,0,0,0,.81.81H26.64l3,3a.83.83,0,0,0,1.15,0l3-3H49.69a.81.81,0,0,0,.81-.81V1.31A.81.81,0,0,0,49.69.5Zm-.81,14.43H33.49a.82.82,0,0,0-.57.24l-2.68,2.68-2.69-2.68a.82.82,0,0,0-.57-.24H11.59V2.12H48.88Z" fill="#333"/><path d="M30.24,20.3a1.3,1.3,0,0,1-.93-.38l-2.87-2.87H10.78a1.31,1.31,0,0,1-1.31-1.31V1.31A1.31,1.31,0,0,1,10.78,0H49.69A1.31,1.31,0,0,1,51,1.31V15.74a1.31,1.31,0,0,1-1.31,1.31H34l-2.88,2.87A1.29,1.29,0,0,1,30.24,20.3ZM10.78,1a.31.31,0,0,0-.31.31V15.74a.31.31,0,0,0,.31.31H26.85L30,19.21a.31.31,0,0,0,.44,0l3.16-3.16H49.69a.31.31,0,0,0,.31-.31V1.31A.31.31,0,0,0,49.69,1ZM30.24,18.56l-3-3a.27.27,0,0,0-.21-.09H11.09V1.62H49.38V15.43H33.49a.27.27,0,0,0-.21.09ZM12.09,14.43H27a1.3,1.3,0,0,1,.92.38l2.34,2.34,2.33-2.34a1.32,1.32,0,0,1,.92-.38H48.38V2.62H12.09Z" fill="#333"/><path d="M20.53,4.71l.63,1.94a.45.45,0,0,0,.42.31h2a.44.44,0,0,1,.26.8L22.23,9a.46.46,0,0,0-.16.5l.63,1.94a.45.45,0,0,1-.69.5l-1.65-1.2a.45.45,0,0,0-.52,0l-1.65,1.2a.45.45,0,0,1-.69-.5l.63-1.94A.45.45,0,0,0,18,9l-1.65-1.2a.44.44,0,0,1,.26-.8h2a.45.45,0,0,0,.43-.31l.63-1.94a.45.45,0,0,1,.85,0Z" fill="#f96969"/><path d="M30.66,4.71l.63,1.94a.45.45,0,0,0,.42.31h2a.44.44,0,0,1,.26.8L32.37,9a.45.45,0,0,0-.17.5l.64,1.94a.45.45,0,0,1-.69.5L30.5,10.7a.47.47,0,0,0-.53,0l-1.65,1.2a.44.44,0,0,1-.68-.5l.63-1.94a.46.46,0,0,0-.16-.5l-1.66-1.2a.44.44,0,0,1,.27-.8h2a.45.45,0,0,0,.42-.31l.63-1.94a.45.45,0,0,1,.85,0Z" fill="#f96969"/><path d="M40.79,4.71l.64,1.94a.44.44,0,0,0,.42.31h2a.44.44,0,0,1,.26.8L42.5,9a.46.46,0,0,0-.16.5L43,11.4a.45.45,0,0,1-.69.5l-1.65-1.2a.45.45,0,0,0-.52,0l-1.65,1.2a.45.45,0,0,1-.69-.5l.63-1.94a.45.45,0,0,0-.16-.5l-1.65-1.2a.44.44,0,0,1,.26-.8h2a.45.45,0,0,0,.43-.31L40,4.71a.44.44,0,0,1,.84,0Z" fill="#f96969"/></svg>