<svg xmlns="http://www.w3.org/2000/svg" width="50" height="50" viewBox="0 0 50 50"><title>icons</title><path d="M22.5,23.33a5.84,5.84,0,1,1-5.83-5.83A5.83,5.83,0,0,1,22.5,23.33Z" fill="#f96969"/><path d="M29.44,36.48a6.67,6.67,0,0,0-6.11-4H17.5l1.67,10L16.67,45l-2.5-2.5,1.66-10H10a6.66,6.66,0,0,0-6.67,6.67v10H30v-10A6.72,6.72,0,0,0,29.44,36.48Z" fill="#f96969"/><path d="M34.17,35a.84.84,0,0,0-.84.83V37.5a.84.84,0,0,0,.84.83h2a2.92,2.92,0,0,0,.19.49L34.94,40.2a.85.85,0,0,0,0,1.18l1.18,1.18a.85.85,0,0,0,1.18,0l1.38-1.38a2.92,2.92,0,0,0,.49.19v2a.84.84,0,0,0,.83.84h1.67a.84.84,0,0,0,.83-.84v-2a2.53,2.53,0,0,0,.48-.19l1.39,1.38a.85.85,0,0,0,1.18,0l1.17-1.18a.83.83,0,0,0,0-1.18l-1.38-1.38a3,3,0,0,0,.2-.49h2a.83.83,0,0,0,.83-.83V35.83A.83.83,0,0,0,47.5,35h-2a2.55,2.55,0,0,0-.2-.48l1.38-1.39a.83.83,0,0,0,0-1.18l-1.17-1.17a.83.83,0,0,0-1.18,0L43,32.16a2.55,2.55,0,0,0-.48-.2V30a.83.83,0,0,0-.83-.83H40a.83.83,0,0,0-.83.83v2a3,3,0,0,0-.49.2L37.3,30.78a.83.83,0,0,0-1.18,0L34.94,32a.85.85,0,0,0,0,1.18l1.38,1.39a2.53,2.53,0,0,0-.19.48Zm6.66,0a1.67,1.67,0,1,1,0,3.33,1.67,1.67,0,0,1,0-3.33Z" fill="#f96969"/><path d="M48.33,8.33H45.59a5.92,5.92,0,0,0-.46-1.11l1.95-1.94a.83.83,0,0,0,0-1.17L45.89,2.92a.83.83,0,0,0-1.17,0l-1.94,2a5.92,5.92,0,0,0-1.11-.46V1.67a.85.85,0,0,0-.84-.84H39.17a.85.85,0,0,0-.84.84V4.41a5.92,5.92,0,0,0-1.11.46L35.28,2.92a.83.83,0,0,0-1.17,0L32.92,4.11a.83.83,0,0,0,0,1.17l1.95,1.94a5.92,5.92,0,0,0-.46,1.11H31.67a.85.85,0,0,0-.84.84v1.66a.85.85,0,0,0,.84.84h2.74a5.92,5.92,0,0,0,.46,1.11l-1.95,1.94a.83.83,0,0,0,0,1.17l1.19,1.19a.83.83,0,0,0,1.17,0l1.94-1.95a5.92,5.92,0,0,0,1.11.46v2.74a.85.85,0,0,0,.84.84h1.66a.85.85,0,0,0,.84-.84V15.59a5.92,5.92,0,0,0,1.11-.46l1.94,1.95a.83.83,0,0,0,1.17,0l1.19-1.19a.83.83,0,0,0,0-1.17l-1.95-1.94s.34-.73.46-1.11h2.74a.85.85,0,0,0,.84-.84V9.17A.85.85,0,0,0,48.33,8.33ZM40,12.5A2.5,2.5,0,1,1,42.5,10,2.5,2.5,0,0,1,40,12.5Z" fill="#f96969"/><path d="M16.67,30a6.67,6.67,0,1,1,6.66-6.67A6.66,6.66,0,0,1,16.67,30Zm0-11.67a5,5,0,1,0,5,5A5,5,0,0,0,16.67,18.33Z" fill="#333"/><path d="M31.67,20h-3a12.1,12.1,0,0,0-1.18-2.83l2.09-2.09a1.67,1.67,0,0,0,.48-1.18,1.69,1.69,0,0,0-.48-1.18l-2.36-2.35a1.71,1.71,0,0,0-2.36,0l-2.08,2.09A12.1,12.1,0,0,0,20,11.28V8.33a1.66,1.66,0,0,0-1.67-1.66H15a1.66,1.66,0,0,0-1.67,1.66v2.95a12.1,12.1,0,0,0-2.83,1.18L8.42,10.37a1.71,1.71,0,0,0-2.36,0L3.7,12.73a1.65,1.65,0,0,0,0,2.35l2.09,2.09A12.07,12.07,0,0,0,4.62,20H1.67A1.67,1.67,0,0,0,0,21.67V25a1.67,1.67,0,0,0,1.67,1.67h3A12.07,12.07,0,0,0,5.79,29.5L3.7,31.58a1.67,1.67,0,0,0,0,2.36l.5.49a7.28,7.28,0,0,0-1.07,1.72,7.47,7.47,0,0,0-.63,3V50H30.83V39.17a7.38,7.38,0,0,0-1.69-4.74l.49-.49a1.68,1.68,0,0,0,.49-1.18,1.66,1.66,0,0,0-.49-1.17L27.54,29.5a12.1,12.1,0,0,0,1.18-2.83h3A1.66,1.66,0,0,0,33.33,25V21.67A1.66,1.66,0,0,0,31.67,20Zm-2.5,28.33h-5v-10H22.5v10H10.83v-10H9.17v10h-5V39.17A5.82,5.82,0,0,1,10,33.33h4.85l-1.58,9.46,3.4,3.39,3.39-3.39-1.58-9.46h4.85a5.84,5.84,0,0,1,5.84,5.84Zm-12.38-15,1.48,8.88-1.6,1.61-1.61-1.61,1.48-8.88ZM31.67,25H27.4l-.15.66a10.63,10.63,0,0,1-1.46,3.51l-.36.57,3,3-.51.51a7.46,7.46,0,0,0-4.61-1.6H10a7.48,7.48,0,0,0-4.61,1.6l-.51-.51,3-3-.36-.57a10.84,10.84,0,0,1-1.46-3.51L5.94,25H1.67V21.67H5.94L6.08,21a10.77,10.77,0,0,1,1.46-3.52l.36-.56-3-3,2.36-2.36,3,3,.57-.36a10.63,10.63,0,0,1,3.51-1.46L15,12.6V8.33h3.33V12.6l.66.15a10.77,10.77,0,0,1,3.52,1.46l.56.36,3-3,2.36,2.35-3,3,.36.56A10.77,10.77,0,0,1,27.25,21l.14.66h4.28Z" fill="#333"/><path d="M41.67,45H40a1.67,1.67,0,0,1-1.67-1.67V42.7l-.44.45a1.67,1.67,0,0,1-2.36,0L34.35,42a1.67,1.67,0,0,1,0-2.36l.45-.44h-.63A1.67,1.67,0,0,1,32.5,37.5V35.83a1.66,1.66,0,0,1,1.67-1.66h.63l-.45-.45a1.67,1.67,0,0,1,0-2.36l1.18-1.17a1.67,1.67,0,0,1,2.36,0l.44.44V30A1.67,1.67,0,0,1,40,28.33h1.67A1.66,1.66,0,0,1,43.33,30v.63l.45-.44a1.67,1.67,0,0,1,2.36,0l1.17,1.17a1.65,1.65,0,0,1,0,2.36l-.44.45h.63a1.66,1.66,0,0,1,1.67,1.66V37.5a1.67,1.67,0,0,1-1.67,1.67h-.63l.44.44a1.67,1.67,0,0,1,0,2.36l-1.17,1.18a1.67,1.67,0,0,1-2.36,0l-.45-.45v.63A1.66,1.66,0,0,1,41.67,45Zm-3.14-4.85.54.29.34.14.59.18v2.57h1.67V40.76l.59-.18.34-.14.54-.29L45,42l1.18-1.18L44.32,39l.28-.54a1.43,1.43,0,0,0,.14-.34l.18-.59H47.5V35.83H44.92l-.18-.59a1.43,1.43,0,0,0-.14-.34l-.28-.54,1.82-1.82L45,31.36l-1.82,1.82-.54-.28a1.43,1.43,0,0,0-.34-.14l-.59-.18V30H40v2.58l-.59.18a1.43,1.43,0,0,0-.34.14l-.54.28-1.82-1.82-1.18,1.18,1.82,1.82-.29.54a3.45,3.45,0,0,0-.14.34l-.18.59H34.17V37.5h2.57l.18.59a3.45,3.45,0,0,0,.14.34l.29.54-1.82,1.82L36.71,42Z" fill="#333"/><path d="M40.83,39.17a2.5,2.5,0,1,1,2.5-2.5A2.5,2.5,0,0,1,40.83,39.17Zm0-3.34a.84.84,0,0,0-.83.84.83.83,0,0,0,.83.83.84.84,0,0,0,.84-.83A.85.85,0,0,0,40.83,35.83Z" fill="#333"/><path d="M40.83,20H39.17a1.67,1.67,0,0,1-1.67-1.67V16.18l-.1,0-1.53,1.52a1.66,1.66,0,0,1-2.35,0l-1.19-1.18a1.66,1.66,0,0,1,0-2.35l1.53-1.53a.42.42,0,0,1,0-.1H31.67A1.67,1.67,0,0,1,30,10.83V9.17A1.67,1.67,0,0,1,31.67,7.5h2.15l0-.1L32.33,5.87a1.68,1.68,0,0,1,0-2.35l1.19-1.19a1.66,1.66,0,0,1,2.35,0L37.4,3.86l.1,0V1.67A1.67,1.67,0,0,1,39.17,0h1.66A1.67,1.67,0,0,1,42.5,1.67V3.82l.1,0,1.53-1.52a1.66,1.66,0,0,1,2.35,0l1.19,1.18a1.66,1.66,0,0,1,0,2.35L46.14,7.4a.42.42,0,0,1,0,.1h2.15A1.67,1.67,0,0,1,50,9.17v1.66a1.67,1.67,0,0,1-1.67,1.67H46.17a.42.42,0,0,0,0,.1l1.54,1.53a1.66,1.66,0,0,1,0,2.35l-1.19,1.19a1.66,1.66,0,0,1-2.35,0L42.6,16.14l-.1,0v2.15A1.67,1.67,0,0,1,40.83,20Zm-3.75-5.9.54.3a5,5,0,0,0,1,.39l.59.18v3.36h1.66V15l.59-.18a5,5,0,0,0,1-.39l.54-.3,2.39,2.39,1.18-1.19L44.13,13l.25-.53a9,9,0,0,0,.42-1l.18-.59h3.35V9.17H45l-.18-.59a5,5,0,0,0-.39-1l-.3-.54,2.39-2.39L45.3,3.51,42.92,5.9l-.54-.3a5,5,0,0,0-1-.39L40.83,5V1.67H39.17V5l-.59.18a5,5,0,0,0-1,.39l-.54.3L34.69,3.51,33.51,4.7,35.9,7.08l-.3.54a5,5,0,0,0-.39,1L35,9.17H31.67v1.66H35l.18.59a5,5,0,0,0,.39,1l.3.54-2.39,2.39,1.19,1.18Z" fill="#333"/><path d="M40,13.33A3.33,3.33,0,1,1,43.33,10,3.33,3.33,0,0,1,40,13.33Zm0-5A1.67,1.67,0,1,0,41.67,10,1.67,1.67,0,0,0,40,8.33Z" fill="#333"/></svg>