<svg xmlns="http://www.w3.org/2000/svg" width="50" height="50" viewBox="0 0 50 50"><title>icons</title><polygon points="15.49 47.87 8.44 48.01 5.34 45.4 1.38 45.57 1.38 25.61 15.49 25.61 15.49 47.87" fill="#f96969"/><path d="M47.07,28a4.4,4.4,0,0,0-4.39-4.4H36.15a35.1,35.1,0,0,0,1.6-6.75A6.88,6.88,0,0,0,31,9a1.47,1.47,0,0,0-1.47,1.47c0,3.54-2,8.88-4.4,10.07a64.26,64.26,0,0,1-9,3.11H1.46A1.47,1.47,0,0,0,0,25.1V45.61a1.47,1.47,0,0,0,1.46,1.46h4.4v1.47A1.47,1.47,0,0,0,7.32,50h6.06a4.4,4.4,0,0,0,4-2.61L27.67,50A1.47,1.47,0,0,0,28,50h8.79a4.4,4.4,0,0,0,4.39-4.39A4.33,4.33,0,0,0,40.9,44a4.4,4.4,0,0,0,3.24-4.24,4.33,4.33,0,0,0-.31-1.62,4.4,4.4,0,0,0,3.24-4.24A4.36,4.36,0,0,0,46,31,4.37,4.37,0,0,0,47.07,28ZM5.86,44.14H2.93V26.56H5.86Zm9,1.47a1.46,1.46,0,0,1-1.46,1.46H8.79V26.56h6.05ZM33.89,32.42h8.79a1.47,1.47,0,0,1,0,2.93H33.89a1.47,1.47,0,1,0,0,2.93h5.86a1.47,1.47,0,0,1,0,2.93H33.89a1.47,1.47,0,1,0,0,2.93h2.93a1.47,1.47,0,0,1,0,2.93H28.21L17.77,44.46V26.21a60.58,60.58,0,0,0,8.63-3.07c3.36-1.69,5.42-7,5.91-11a4,4,0,0,1,1.63,1.13,3.93,3.93,0,0,1,.91,3.17,23.78,23.78,0,0,1-2.27,8,1.46,1.46,0,0,0,.06,1.43,1.47,1.47,0,0,0,1.25.69h8.79a1.47,1.47,0,0,1,0,2.93H33.89a1.47,1.47,0,1,0,0,2.93Z" fill="#333"/><path d="M32.42,0A1.46,1.46,0,0,0,31,1.46V4.59a1.47,1.47,0,0,0,2.93,0V1.46A1.47,1.47,0,0,0,32.42,0Z" fill="#f96969"/><path d="M24.14,7.42,22.06,5.34A1.47,1.47,0,0,0,20,7.42l2.07,2.07a1.47,1.47,0,1,0,2.08-2.07Z" fill="#f96969"/><path d="M19.24,16.31H16.31a1.47,1.47,0,1,0,0,2.93h2.93a1.47,1.47,0,0,0,0-2.93Z" fill="#f96969"/><path d="M48.54,16.31H45.61a1.47,1.47,0,1,0,0,2.93h2.93a1.47,1.47,0,0,0,0-2.93Z" fill="#f96969"/><path d="M44.85,5.34a1.47,1.47,0,0,0-2.07,0L40.71,7.42a1.46,1.46,0,0,0,2.07,2.07l2.07-2.07A1.48,1.48,0,0,0,44.85,5.34Z" fill="#f96969"/></svg>