<svg xmlns="http://www.w3.org/2000/svg" width="50" height="50" viewBox="0 0 50 50"><title>icons</title><polygon points="6.15 22.97 4.82 25.09 5.09 47.5 6.32 49.18 8.18 48.03 8.27 25.53 7.21 22.71 6.15 22.97" fill="#f96969"/><polygon points="38.62 12.73 37.73 10.44 36.94 6.29 38.88 3.12 43.47 2.5 46.56 5.68 46.56 9.03 44.97 11.5 44.97 13 38.62 12.73" fill="#f96969"/><path d="M45.83,12.5v-.92a5.83,5.83,0,1,0-8.33,0v.92H35.83v1.67H47.5V12.5Zm-1.06-2.23a2.57,2.57,0,0,1-.33.33.85.85,0,0,0-.27.62V12.5H42.5V10.34l2.26-2.25L43.58,6.91,41.67,8.82,39.76,6.91,38.58,8.09l2.25,2.25V12.5H39.17V11.22a.82.82,0,0,0-.28-.62,4.16,4.16,0,1,1,5.88-.33Z" fill="#333"/><rect x="6.67" y="6.67" width="1.67" height="1.67" fill="#333"/><rect x="36.67" y="19.17" width="1.67" height="1.67" fill="#333"/><path d="M7.5,3.33A4.17,4.17,0,1,0,11.67,7.5,4.17,4.17,0,0,0,7.5,3.33ZM7.5,10A2.5,2.5,0,1,1,10,7.5,2.5,2.5,0,0,1,7.5,10Z" fill="#333"/><path d="M49.17,29.17H31.67V.83A.84.84,0,0,0,30.83,0H.83A.83.83,0,0,0,0,.83v45a.84.84,0,0,0,.83.84H4.17v.83a2.5,2.5,0,0,0,5,0v-.83h7.5v2.5a.83.83,0,0,0,.83.83H49.17a.83.83,0,0,0,.83-.83V30A.83.83,0,0,0,49.17,29.17Zm-.92,1.66a4.18,4.18,0,0,1-4.08,3.34H22.5a4.18,4.18,0,0,1-4.08-3.34ZM7.5,47.5a.83.83,0,0,1-.83.83.84.84,0,0,1-.84-.83V45H7.5Zm0-4.17H5.83V41.67H7.5ZM7.5,40H5.83V26.67H7.5ZM5.93,25l.74-1.47L7.4,25Zm10.74,5V45H9.17V25a.78.78,0,0,0-.09-.37L7.41,21.29A.87.87,0,0,0,6.22,21a1,1,0,0,0-.3.3L4.25,24.63a.91.91,0,0,0-.08.37V45H1.67V1.67H30v27.5H17.5A.83.83,0,0,0,16.67,30ZM48.33,48.33h-30V34.07a5.81,5.81,0,0,0,4.17,1.76H44.17a5.77,5.77,0,0,0,4.16-1.76Z" fill="#333"/><path d="M49.17,15.83h-15a.85.85,0,0,0-.84.84v10a.84.84,0,0,0,.84.83h15a.83.83,0,0,0,.83-.83v-10A.84.84,0,0,0,49.17,15.83Zm-.84,10H35V17.5H48.33Z" fill="#333"/><rect x="40.83" y="22.5" width="4.17" height="1.67" fill="#333"/><rect x="14.17" y="5" width="14.17" height="1.67" fill="#333"/><rect x="14.17" y="8.33" width="10.83" height="1.67" fill="#333"/><rect x="20" y="41.67" width="1.67" height="1.67" fill="#333"/><rect x="24.17" y="41.67" width="10.83" height="1.67" fill="#333"/><rect x="24.17" y="45" width="7.5" height="1.67" fill="#333"/><rect x="40.83" y="19.17" width="5.83" height="1.67" fill="#333"/></svg>