<svg xmlns="http://www.w3.org/2000/svg" width="50" height="50" viewBox="0 0 50 50"><title>icons</title><path d="M35.48,3.23a11.27,11.27,0,0,0-10.56,7.34,1.92,1.92,0,0,1,2.5,1.87v.12a2,2,0,0,1-1,1.71L24.24,15.5A11.29,11.29,0,1,0,35.48,3.23Z" fill="#f96969"/><path d="M8.06,22.58,9.68,25l1.61-2.42-.81-7.26H8.87Z" fill="#f96969"/><path d="M42.74,33.91V27.07A14.51,14.51,0,1,0,21.31,11.43l-4.65,2.32a7.21,7.21,0,0,1-3,.75,5.64,5.64,0,1,0-7.42.43A8.87,8.87,0,0,0,0,23.39v6.45a4,4,0,0,0,4,4v12.9A3.23,3.23,0,0,0,7.26,50a3.2,3.2,0,0,0,2.42-1.12,3.21,3.21,0,0,0,5.64-2.11V22.85a2.41,2.41,0,0,1,1.24-2.1L21.4,18a14.57,14.57,0,0,0,2.79,5.64v5.41a8.06,8.06,0,1,0,1.62,0V25.35a14.55,14.55,0,0,0,15.32,2.54v6a8.07,8.07,0,1,0,1.61,0Zm-5-6.7a19,19,0,0,0,3.52-5.44h4.88A12.93,12.93,0,0,1,37.74,27.21ZM35.49,1.86a18.17,18.17,0,0,1,4,5.4h-8A17.83,17.83,0,0,1,35.49,1.86Zm4.66,7a16.45,16.45,0,0,1,.94,4.84H29.88a16.45,16.45,0,0,1,.94-4.84Zm8.2,4.84H42.71a18.64,18.64,0,0,0-.85-4.84h5.21A12.9,12.9,0,0,1,48.35,13.71Zm0,1.61a12.9,12.9,0,0,1-1.28,4.84H41.86a18.64,18.64,0,0,0,.85-4.84Zm-7.26,0a16.12,16.12,0,0,1-1,4.84H30.82a16.77,16.77,0,0,1-.95-4.84Zm-1.63,6.45a18,18,0,0,1-4,5.4,18.17,18.17,0,0,1-4-5.4ZM46.14,7.26H41.26a19.21,19.21,0,0,0-3.52-5.44A12.93,12.93,0,0,1,46.14,7.26ZM33.24,1.81A19.35,19.35,0,0,0,29.7,7.26H24.82A12.93,12.93,0,0,1,33.24,1.81ZM5.65,10.48a4,4,0,1,1,4,4A4,4,0,0,1,5.65,10.48Zm10.12,8.86a4,4,0,0,0-2.06,3.51V46.77a1.62,1.62,0,1,1-3.23,0V29H8.87V46.77a1.61,1.61,0,1,1-3.22,0v-25H4V32.26a2.43,2.43,0,0,1-2.42-2.42V23.39a7.27,7.27,0,0,1,7.26-7.26h4.55a9,9,0,0,0,4-.94L25,11.41a1.13,1.13,0,0,1,.51-.12,1.15,1.15,0,0,1,1.15,1.15v.12a1.16,1.16,0,0,1-.58,1ZM26.82,15a2.77,2.77,0,0,0,1.41-2.41v-.12a2.77,2.77,0,0,0-4-2.47l-1,.49a12.27,12.27,0,0,1,.64-1.59h5.23a18.55,18.55,0,0,0,0,11.29H23.88a12.84,12.84,0,0,1-1-3ZM21.14,42.25a4.82,4.82,0,0,1,7.72,0,6.38,6.38,0,0,1-7.72,0Zm1.44-6A2.42,2.42,0,1,1,25,38.71a2.43,2.43,0,0,1-2.42-2.42Zm8.87.81a6.4,6.4,0,0,1-1.42,4,6.55,6.55,0,0,0-2.37-1.84,4,4,0,0,0,1.37-3,4,4,0,0,0-8.06,0,4,4,0,0,0,1.37,3A6.55,6.55,0,0,0,20,41.13a6.45,6.45,0,1,1,11.48-4ZM24.8,21.77h4.91a19.13,19.13,0,0,0,3.53,5.45A12.81,12.81,0,0,1,24.8,21.77ZM38.07,47.09a4.84,4.84,0,0,1,7.73,0,6.4,6.4,0,0,1-7.73,0Zm1.45-6a2.42,2.42,0,1,1,2.42,2.42A2.42,2.42,0,0,1,39.52,41.13ZM47,46a6.61,6.61,0,0,0-2.36-1.84,4,4,0,1,0-5.33,0A6.61,6.61,0,0,0,36.91,46,6.46,6.46,0,1,1,47,46Z" fill="#333"/><path d="M31.45,10.48h1.61V12.1H31.45Z" fill="#333"/><path d="M34.68,10.48h1.61V12.1H34.68Z" fill="#333"/><path d="M37.9,10.48h1.62V12.1H37.9Z" fill="#333"/><path d="M37.9,16.93h1.62v1.62H37.9Z" fill="#333"/><path d="M34.68,16.93h1.61v1.62H34.68Z" fill="#333"/><path d="M31.45,16.93h1.61v1.62H31.45Z" fill="#333"/></svg>