<svg xmlns="http://www.w3.org/2000/svg" width="50" height="50" viewBox="0 0 50 50"><title>icons</title><path d="M7.26,16.94V15.32h0A4,4,0,0,1,5.73,12.9H5.65a2.42,2.42,0,0,1,0-4.84h.13a5.53,5.53,0,0,0,3.9-1.61,5.5,5.5,0,0,0,3.89,1.61h.14a2.42,2.42,0,0,1,0,4.84h-.08a4,4,0,0,1-1.55,2.42h0v1.62l4.3,1.61h.54V7.26a7.26,7.26,0,0,0-14.52,0V18.55H3Z" fill="#f96969"/><path d="M25,19.35a7.27,7.27,0,0,0-7.26,7.26v3.23h.81A2.42,2.42,0,0,1,21,27.42h.14A5.5,5.5,0,0,0,25,25.81a5.5,5.5,0,0,0,3.89,1.61H29a2.42,2.42,0,0,1,2.42,2.42h.81V26.61A7.27,7.27,0,0,0,25,19.35Z" fill="#f96969"/><path d="M40.32,0a7.27,7.27,0,0,0-7.26,7.26v3.22h.81a2.42,2.42,0,0,1,2.42-2.42h.14a5.5,5.5,0,0,0,3.89-1.61,5.54,5.54,0,0,0,3.9,1.61h.13a2.42,2.42,0,0,1,2.42,2.42h.81V7.26A7.27,7.27,0,0,0,40.32,0Z" fill="#f96969"/><path d="M50,24.19v-2.6a4.06,4.06,0,0,0-2.62-3.78l-3.83-1.43v-.69a4.75,4.75,0,0,0,1.35-2,3.22,3.22,0,0,0-.55-6.39h-.13a4.67,4.67,0,0,1-3.33-1.38l-.57-.57-.57.57a4.67,4.67,0,0,1-3.32,1.38h-.14a3.22,3.22,0,0,0-.54,6.39,4.81,4.81,0,0,0,1.35,2v.69l-3.84,1.44a3.68,3.68,0,0,0-.57.26,16,16,0,0,0-6.88-1.91V14.52H24.19v1.65a16,16,0,0,0-6.88,1.91,5,5,0,0,0-.57-.27L12.9,16.38v-.69a4.75,4.75,0,0,0,1.35-2,3.22,3.22,0,0,0-.54-6.39h-.14a4.67,4.67,0,0,1-3.32-1.38l-.57-.57-.57.57A4.67,4.67,0,0,1,5.78,7.26H5.65a3.22,3.22,0,0,0-.55,6.39,4.81,4.81,0,0,0,1.35,2v.69L2.62,17.81A4.06,4.06,0,0,0,0,21.59v2.6H11.05a16,16,0,0,0-2.14,7.26H7.26v1.61H8.91A16.13,16.13,0,0,0,24.19,48.35V50h1.62V48.35A16.13,16.13,0,0,0,41.09,33.06h1.65V31.45H41.09A16,16,0,0,0,39,24.19ZM46,10.48a1.61,1.61,0,0,1-.81,1.39V9.1A1.6,1.6,0,0,1,46,10.48ZM40.32,7.53a6.33,6.33,0,0,0,3.23,1.29V12.1a3.23,3.23,0,0,1-6.45,0V8.82A6.29,6.29,0,0,0,40.32,7.53Zm-5.64,3a1.59,1.59,0,0,1,.8-1.38v2.77A1.6,1.6,0,0,1,34.68,10.48Zm5.64,6.46a4.84,4.84,0,0,0,1.62-.29v.29a1.62,1.62,0,0,1-3.23,0v-.29A4.83,4.83,0,0,0,40.32,16.94ZM37.3,18a3.21,3.21,0,0,0,6.05,0l3.47,1.3a2.45,2.45,0,0,1,1.57,2.27v1H37.9v0a16.14,16.14,0,0,0-3.56-3.49Zm-27.62.8L8.06,16.67v0a4.64,4.64,0,0,0,3.23,0v0Zm5.64-8.34a1.6,1.6,0,0,1-.8,1.39V9.1A1.59,1.59,0,0,1,15.32,10.48ZM9.68,7.53A6.29,6.29,0,0,0,12.9,8.82V12.1a3.23,3.23,0,0,1-6.45,0V8.82A6.33,6.33,0,0,0,9.68,7.53ZM4,10.48A1.6,1.6,0,0,1,4.84,9.1v2.77A1.61,1.61,0,0,1,4,10.48ZM1.61,22.58v-1a2.45,2.45,0,0,1,1.57-2.27L7,17.9l2.7,3.61,2.7-3.61,3.28,1.23a16.14,16.14,0,0,0-3.56,3.49v0ZM24.19,45.16v1.57a14.4,14.4,0,0,1-8.29-3.18H34.1a14.4,14.4,0,0,1-8.29,3.18V45.16Zm-4-13.93a1.6,1.6,0,0,1,0-2.78ZM25,26.88a6.16,6.16,0,0,0,3.23,1.29v3.28a3.23,3.23,0,0,1-6.46,0V28.17A6.16,6.16,0,0,0,25,26.88Zm4.84,1.57a1.6,1.6,0,0,1,0,2.78Zm1.65,10.23A2.43,2.43,0,0,1,33.06,41v1h-4l1.23-3.7Zm-3.62,1.76-1.73-1.73,1.48-1.48,1.18.44Zm-.78,1.5H22.92L25,39.85ZM25,37.57,23.47,36a4.81,4.81,0,0,0,3.06,0Zm-2.62-.34,1.48,1.48-1.73,1.73-.93-2.77Zm-2.69,1,1.23,3.7h-4V41a2.43,2.43,0,0,1,1.57-2.27Zm19.79-5.18a14.5,14.5,0,0,1-4.8,10V41a4,4,0,0,0-2.62-3.78l-3.83-1.44v-.68a4.87,4.87,0,0,0,1.35-2,3.22,3.22,0,0,0-.55-6.4h-.14a4.7,4.7,0,0,1-3.32-1.37L25,24.67l-.57.57a4.7,4.7,0,0,1-3.32,1.37H21a3.22,3.22,0,0,0-.55,6.4,4.87,4.87,0,0,0,1.35,2v.68l-3.83,1.44A4,4,0,0,0,15.32,41v2.1a14.5,14.5,0,0,1-4.8-10H12.1V31.45H10.52A14.52,14.52,0,0,1,24.19,17.78v2.38h1.62V17.78A14.52,14.52,0,0,1,39.48,31.45H37.9v1.61Z" fill="#333"/></svg>