<svg xmlns="http://www.w3.org/2000/svg" width="50" height="50" viewBox="0 0 50 50"><title>icons</title><path d="M33.87,22.58v-4a8.86,8.86,0,0,0-5.66-8.26,5.65,5.65,0,1,0-6.42,0,8.89,8.89,0,0,0-4.85,4.58,8.9,8.9,0,0,0-4.86-4.58,5.65,5.65,0,1,0-6.41,0A8.87,8.87,0,0,0,0,18.55v4H8.06v.81a.8.8,0,0,1-.8.8H5.65a2.42,2.42,0,0,0-2.42,2.42v1.62a2.42,2.42,0,0,0,2.42,2.42H9V29H5.65a.8.8,0,0,1-.81-.8V26.61a.8.8,0,0,1,.81-.8H7.26a2.43,2.43,0,0,0,2.42-2.42v-.81H24.19v.81a2.43,2.43,0,0,0,2.42,2.42h1.62a.8.8,0,0,1,.8.8v1.62a.8.8,0,0,1-.8.8H24.84v1.62h3.39a2.43,2.43,0,0,0,2.42-2.42V26.61a2.43,2.43,0,0,0-2.42-2.42H26.61a.8.8,0,0,1-.8-.8v-.81ZM21,5.65a4,4,0,1,1,4,4A4,4,0,0,1,21,5.65Zm-16.13,0a4,4,0,1,1,4,4A4,4,0,0,1,4.84,5.65ZM16.13,21H13.71V14.52H12.1V21H5.65V14.52H4V21H1.61V18.55a7.26,7.26,0,1,1,14.52,0Zm1.61-2.42a7.26,7.26,0,1,1,14.52,0V21H29.84V14.52H28.23V21H21.77V14.52H20.16V21H17.74Z" fill="#333"/><path d="M29,41V38.71H23.34a6.47,6.47,0,1,1-.82-4H27l-.17-.33a9,9,0,0,0-.36-.85l1.21-2-4.32-4.32-2,1.2c-.26-.12-.53-.23-.8-.33L20,25.81H13.88l-.55,2.25a8,8,0,0,0-.8.34l-2-1.21L6.22,31.51l1.21,2a8,8,0,0,0-.34.8l-2.25.55V41l2.25.56c.1.27.21.53.34.8l-1.21,2,4.32,4.32,2-1.21a8,8,0,0,0,.8.34L13.88,50H20l.55-2.25a8,8,0,0,0,.8-.34l2,1.2,4.32-4.31-1.21-2c.13-.27.24-.53.34-.8Z" fill="#f96969"/><path d="M42.78,34a6.45,6.45,0,1,0-8.32-.16H23A7.24,7.24,0,1,0,24,39.52h6.23a1.21,1.21,0,0,1,1.21,1.21V50H50V42.74A8.89,8.89,0,0,0,42.78,34Zm-8.91-5a4.84,4.84,0,1,1,4.84,4.84A4.84,4.84,0,0,1,33.87,29ZM16.94,43.55a5.65,5.65,0,1,1,3.94-9.68H19.76a2.84,2.84,0,0,0-1.27.31,4.12,4.12,0,0,0-1.55-.31,4,4,0,1,0,3.69,5.65h1.71a5.65,5.65,0,0,1-5.4,4Zm1.92-4.19a2.42,2.42,0,1,1-1.92-3.88c.08,0,.17,0,.26,0a2.71,2.71,0,0,0-.26,1.17A2.83,2.83,0,0,0,18.86,39.36Zm29.53,9H46V39.52H44.35v8.87H33.06V40.73a2.83,2.83,0,0,0-2.82-2.83H19.76a1.21,1.21,0,0,1,0-2.42H41.13a7.27,7.27,0,0,1,7.26,7.26Z" fill="#333"/><path d="M38.71,13.71h8.06v4H38.71Z" fill="#f96969"/><path d="M44.35,21H35.48V15.32a5.65,5.65,0,0,1,5.65-5.64h3.22a5.65,5.65,0,1,1,0,11.29ZM37.1,19.35h7.25a4,4,0,1,0,0-8.06H41.13a4,4,0,0,0-4,4Z" fill="#333"/><path d="M38.71,16.13h1.61v1.61H38.71Z" fill="#333"/><path d="M41.94,16.13h1.61v1.61H41.94Z" fill="#333"/><path d="M45.16,16.13h1.61v1.61H45.16Z" fill="#333"/><path d="M38.71,12.9h8.06v1.62H38.71Z" fill="#333"/></svg>