<svg xmlns="http://www.w3.org/2000/svg" width="50" height="49.15" viewBox="0 0 50 49.15"><title>icons</title><path d="M1.24,21.16l2.55-1,3.5.13,3.32.19s5.86-.76,6.81-2.36,1-1.14,1-1.14l2.68-3.19.19,7.39,2,1.4,1.08,2.17-.45,2.74-1.78,1.21-1,2.42.13,3.57s-4-3.95-6.44-4.27S9.39,30,9.39,30l-1,.57.2,2.94.25,3.18-2.42,1L4.93,33.84l-.38-3.57L2.9,29.76S.41,29.31.73,27.15,1.24,21.16,1.24,21.16Z" fill="#f96969"/><path d="M48.49,39.31a8.33,8.33,0,0,1-8.33,8.32v1.52A9.86,9.86,0,0,0,50,39.31Z" fill="#333"/><path d="M40.16,46.12A6.82,6.82,0,0,0,47,39.31H45.46a5.31,5.31,0,0,1-5.3,5.3Z" fill="#333"/><path d="M20.17,1.51V0a9.86,9.86,0,0,0-9.85,9.84h1.52A8.34,8.34,0,0,1,20.17,1.51Z" fill="#333"/><path d="M14.87,9.84a5.3,5.3,0,0,1,5.3-5.3V3a6.83,6.83,0,0,0-6.82,6.81Z" fill="#333"/><path d="M9.4,29V20.66c0-.77.26-1,1-1a25.89,25.89,0,0,0,2.91-.32,6.94,6.94,0,0,0,3.82-2.22c.18-.19.35-.39.54-.57a.76.76,0,0,1,1.09-.1.8.8,0,0,1,0,1.15c-.15.17-.31.33-.47.5a9.47,9.47,0,0,1-6.38,3l-.83.08-.16,0V29A13.74,13.74,0,0,1,20.35,33V14.52c0-.78.27-1.17.8-1.15s.75.39.75,1.16c0,1.9,0,3.81,0,5.72a.6.6,0,0,0,.39.62A4.45,4.45,0,0,1,25,25.09a4.43,4.43,0,0,1-2.72,4.22.62.62,0,0,0-.4.67c0,1.91,0,3.81,0,5.72,0,.11,0,.23,0,.34a.78.78,0,0,1-.78.78.74.74,0,0,1-.74-.76,1.85,1.85,0,0,0-.57-1.39,11,11,0,0,0-7.07-3.9c-1.18-.18-2.39-.19-3.65-.29.09,1,.16,1.84.24,2.69.11,1.12.23,2.24.33,3.36A1.4,1.4,0,0,1,8.51,38c-.68.15-1.37.27-2.06.39A1.41,1.41,0,0,1,4.9,37.07c-.33-2.09-.65-4.18-1-6.27,0-.06,0-.12,0-.2a12.06,12.06,0,0,1-1.36-.12,3.12,3.12,0,0,1-2.51-3c0-1.58,0-3.17,0-4.75a3.16,3.16,0,0,1,3.06-3.08c1.29,0,2.58,0,3.87,0a.78.78,0,0,1,.87.78c0,.45-.36.75-.9.76H3.29A1.6,1.6,0,0,0,1.55,22.9v4.4A1.61,1.61,0,0,0,3.26,29Zm-3,7.8c.5-.1.93-.2,1.36-.26s.33-.18.3-.43c-.06-.5-.09-1-.14-1.51-.12-1.34-.25-2.68-.38-4H5.45Zm15.53-9a3.08,3.08,0,0,0,1.54-2.94,3,3,0,0,0-1.54-2.47Z" fill="#333"/><path d="M30.68,24.31c.7.35,1.29.62,1.85,1a1.22,1.22,0,0,1,.52.64,6.25,6.25,0,0,0,7.58,4.5c.6-.12,1,.09,1.1.58s-.21.79-.79.93A7.76,7.76,0,0,1,31.81,27a1.1,1.1,0,0,0-.62-.68c-.82-.39-1.65-.78-2.44-1.23a1.21,1.21,0,0,1-.54-.73c-.09-.37.21-.61.54-.77.83-.41,1.67-.81,2.48-1.25a1.28,1.28,0,0,0,.55-.62,7.78,7.78,0,0,1,7.67-5.17A7.6,7.6,0,0,1,44,18.18c.46.36.55.79.26,1.17s-.74.38-1.21,0a6.26,6.26,0,0,0-9.95,3.3,1.39,1.39,0,0,1-.59.7C31.93,23.72,31.35,24,30.68,24.31Z" fill="#333"/><path d="M29.23,16.82c.58-.54,1.14-1.1,1.74-1.61a1.25,1.25,0,0,1,.78-.29,6.21,6.21,0,0,0,4.46-1.53l.18-.16a.77.77,0,0,1,1.1,0,.79.79,0,0,1-.09,1.1,7.58,7.58,0,0,1-3.58,1.89,3.88,3.88,0,0,1-1.16.17,1.88,1.88,0,0,0-1.52.68c-1,1-2,1.93-3.05,2.89-.34.32-.69.53-1.13.23s-.38-.66-.24-1.08c.39-1.11.74-2.23,1.13-3.33a.59.59,0,0,0-.26-.83,7.77,7.77,0,0,1,.63-13.13,3.71,3.71,0,0,1,.53-.26.71.71,0,0,1,.92.32.76.76,0,0,1-.21,1c-.12.08-.26.14-.38.21a6.1,6.1,0,0,0-3.26,5.43A6,6,0,0,0,29,14.09c.77.47.83.59.54,1.45-.13.41-.26.83-.4,1.24Z" fill="#333"/><path d="M29.15,31.86l.45,1.33c.23.69.13.93-.5,1.28A6.14,6.14,0,0,0,26,38.38a6.29,6.29,0,0,0,3,7.06l.3.16a.77.77,0,0,1,.36,1.07.75.75,0,0,1-1.05.29A7.39,7.39,0,0,1,26,44.83,7.72,7.72,0,0,1,27.62,33.6a.56.56,0,0,0,.24-.79c-.39-1.09-.74-2.19-1.11-3.28-.2-.59-.13-1,.24-1.17s.79,0,1.12.27c1.12,1.07,2.26,2.12,3.38,3.19a1.13,1.13,0,0,0,.81.34,7.66,7.66,0,0,1,5,2c.43.39.51.85.22,1.2s-.78.34-1.24-.06a6.29,6.29,0,0,0-4.5-1.58,1.3,1.3,0,0,1-.81-.31c-.6-.49-1.15-1.05-1.72-1.58Z" fill="#333"/><path d="M31.31,5.52V2.12c0-.17,0-.33,0-.49a.78.78,0,0,1,.78-.78.77.77,0,0,1,.76.8c0,1,0,2.05,0,3.08v.81h2.34a.79.79,0,0,1,.79.77.77.77,0,0,1-.79.77H32.91a2.48,2.48,0,0,0,2.62,3.17c.87-.07,1.76,0,2.64,0,.58,0,.94.3.94.76s-.36.78-.93.78a30.92,30.92,0,0,1-3.61-.09,3.78,3.78,0,0,1-3.26-3.86V7.11c-.64-.09-1.59.19-1.53-.86S30.65,5.58,31.31,5.52Z" fill="#333"/><path d="M32.85,41.54H35c.61,0,1,.3,1,.78s-.37.75-.95.76H32.85v3.76c0,.58-.31.94-.78.93s-.76-.36-.76-.94V43.6c0-.16,0-.32,0-.5-.63-.07-1.52.18-1.52-.79s.89-.72,1.49-.79c0-.53,0-1,.14-1.52a3.86,3.86,0,0,1,3.67-3.15c1.06,0,2.12,0,3.17,0a.8.8,0,0,1,.87.79.78.78,0,0,1-.86.75H35.46A2.38,2.38,0,0,0,32.85,41Z" fill="#333"/><path d="M42.08,21.48a10.06,10.06,0,0,1,2.13-.24,3,3,0,0,1,2.72,3.11c0,1.22,0,2.45,0,3.67,0,.61-.3,1-.78,1s-.76-.37-.76-1c0-1.19,0-2.38,0-3.57a1.58,1.58,0,1,0-3.15,0V28c0,.61-.31,1-.79,1s-.75-.37-.75-1V22.22c0-.42.06-.79.5-1A.75.75,0,0,1,42.08,21.48Z" fill="#333"/><path d="M38,21.11c-.48-.4-.59-.84-.24-1.22a.79.79,0,0,1,1.13,0c.36.39.26.82-.32,1.34.48.22.54.63.54,1.1,0,1.87,0,3.74,0,5.61,0,.12,0,.23,0,.34a.78.78,0,0,1-.78.73.76.76,0,0,1-.75-.75c0-2.1,0-4.2,0-6.3C37.59,21.68,37.84,21.42,38,21.11Z" fill="#333"/></svg>