<svg xmlns="http://www.w3.org/2000/svg" width="50" height="49.99" viewBox="0 0 50 49.99"><title>icons</title><ellipse cx="27.06" cy="39.38" rx="1.94" ry="2" fill="#f96969"/><ellipse cx="10.41" cy="39.38" rx="1.94" ry="2" fill="#f96969"/><path d="M16.76,5.85S18.29.67,21.59.91s10.59.23,10.59.23l.82.59-.35,5.18s-1.3,3.53-4.24,3.53H19.12S16.29,8.56,16.76,5.85Z" fill="#f96969"/><ellipse cx="3.41" cy="46.73" rx="1.94" ry="2" fill="#f96969"/><path d="M7.72,34.08A1,1,0,0,0,7,33.8a1,1,0,0,0-.69.28,1,1,0,0,0,0,1.38,1,1,0,0,0,.69.29,1,1,0,0,0,.69-.29A1,1,0,0,0,8,34.77,1,1,0,0,0,7.72,34.08Z" fill="#333"/><path d="M38.15,23.29a13,13,0,0,0-7.28-2.21H30.3a8.23,8.23,0,0,0,2.94-6.31V8.51a5.57,5.57,0,0,0,.66-2.63V1a1,1,0,0,0-1-1H21.56a5.72,5.72,0,0,0-5.72,5.71V7.32a4.15,4.15,0,0,0,.87,2.54v4.91a8.23,8.23,0,0,0,2.94,6.31h-.52A13.08,13.08,0,0,0,6.39,31.19a1,1,0,0,0,.73,1.17l.22,0a1,1,0,0,0,.95-.75A11,11,0,0,1,18,23.1l6.36,6.35a1,1,0,0,0,1.38,0l6.36-6.35a10.92,10.92,0,0,1,5,1.81,1,1,0,1,0,1.09-1.62ZM17.8,7.32V5.71A3.76,3.76,0,0,1,21.56,2H31.94V5.88A3.62,3.62,0,0,1,28.32,9.5H20A2.17,2.17,0,0,1,17.8,7.32ZM25,27.38,20.65,23h8.7Zm0-6.3h-.07a6.31,6.31,0,0,1-6.27-6.31V11.24a4,4,0,0,0,1.3.22h8.35a5.54,5.54,0,0,0,3-.86v4.17A6.31,6.31,0,0,1,25,21.08Z" fill="#333"/><path d="M27,36.15a3.32,3.32,0,0,0-3.17,2.35H13.69a3.32,3.32,0,0,0-6.49,1A3.28,3.28,0,0,0,7.59,41L4.87,43.74a3.24,3.24,0,0,0-1.55-.39,3.32,3.32,0,1,0,3.32,3.32,3.24,3.24,0,0,0-.39-1.55L9,42.41a3.35,3.35,0,0,0,1.55.38,3.31,3.31,0,0,0,3.17-2.34H23.78A3.32,3.32,0,1,0,27,36.15ZM3.32,48a1.37,1.37,0,1,1,1.37-1.37A1.37,1.37,0,0,1,3.32,48Zm7.2-7.2a1.37,1.37,0,1,1,1.37-1.37A1.37,1.37,0,0,1,10.52,40.84Zm16.43,0a1.37,1.37,0,1,1,1.37-1.37A1.36,1.36,0,0,1,27,40.84Z" fill="#333"/><path d="M32,34.78a1,1,0,1,0,.29.69A1,1,0,0,0,32,34.78Z" fill="#333"/><path d="M49,16.8h-3.5a1,1,0,1,0,0,1.95h1.16L33.33,32.11a1,1,0,1,0,1.38,1.38L48.05,20.15v1.13a1,1,0,1,0,2,0v-3.5A1,1,0,0,0,49,16.8Z" fill="#333"/><path d="M23,13.88a1,1,0,1,0,.29.69A1,1,0,0,0,23,13.88Z" fill="#333"/><path d="M28.36,13.88a1,1,0,0,0-.69-.29,1,1,0,0,0-.69.29,1,1,0,0,0,0,1.38,1,1,0,0,0,.69.28,1,1,0,0,0,.69-1.66Z" fill="#333"/></svg>