<svg xmlns="http://www.w3.org/2000/svg" width="50.5" height="49.72" viewBox="0 0 50.5 49.72"><title>icons</title><circle cx="12.23" cy="19.8" r="1.71" fill="#f96969"/><circle cx="18.95" cy="15.99" r="1.71" fill="#f96969"/><circle cx="25.67" cy="19.8" r="1.71" fill="#f96969"/><circle cx="32.4" cy="10.41" r="1.71" fill="#f96969"/><path d="M8.35,39.75V37.4H36.27v2.35a.93.93,0,0,1-.93.93H9.29A.94.94,0,0,1,8.35,39.75Z" fill="#f96969"/><path d="M19,4.51V2.34a1.11,1.11,0,0,1,1.11-1.11h4.45a1.11,1.11,0,0,1,1.11,1.11V4.51Z" fill="#f96969"/><rect x="10.74" y="26.72" width="2.97" height="6.47" fill="#f96969"/><rect x="17.47" y="22.98" width="2.97" height="10.21" fill="#f96969"/><rect x="24.19" y="26.72" width="2.97" height="6.47" fill="#f96969"/><rect x="30.91" y="20.06" width="2.97" height="13.13" fill="#f96969"/><path d="M40.49,30.34l5.45,9.44a2,2,0,0,0,2.8.75h0a2,2,0,0,0,.75-2.8L44,28.28Z" fill="#f96969"/><circle cx="38.93" cy="23.54" r="8.84" fill="#f96969"/><circle cx="38.93" cy="23.54" r="6.22" fill="#fff"/><path d="M32.4,12.85a2.44,2.44,0,1,0-1.95-1l-4,5.6a2.63,2.63,0,0,0-.76-.12A2.42,2.42,0,0,0,24,18L21.34,16.5a2.94,2.94,0,0,0,.05-.51,2.44,2.44,0,0,0-4.88,0,2.22,2.22,0,0,0,.06.51L13.89,18a2.4,2.4,0,0,0-1.66-.66,2.45,2.45,0,1,0,2.44,2.44,2.94,2.94,0,0,0-.05-.51l2.67-1.52a2.42,2.42,0,0,0,3.32,0l2.68,1.52a2.22,2.22,0,0,0-.06.51,2.45,2.45,0,1,0,4.4-1.46l4-5.61A2.37,2.37,0,0,0,32.4,12.85Zm0-3.41a1,1,0,0,1,0,2,1,1,0,1,1,0-2ZM12.23,20.78a1,1,0,1,1,1-1A1,1,0,0,1,12.23,20.78ZM19,17a1,1,0,0,1,0-2,1,1,0,1,1,0,2Zm6.72,3.82a1,1,0,1,1,1-1A1,1,0,0,1,25.67,20.78Z" fill="#333"/><path d="M41.4,36.67H2.57a.61.61,0,0,1-.61-.6V5.85a.61.61,0,0,1,.61-.61H6A.73.73,0,1,0,6,3.78H2.57A2.07,2.07,0,0,0,.5,5.85V36.07a2.07,2.07,0,0,0,2.07,2.07H7.62v1.61a1.66,1.66,0,0,0,1.67,1.66h7.33l-3.45,6.74a.73.73,0,0,0,.32,1,.76.76,0,0,0,.33.08.74.74,0,0,0,.65-.4l3.79-7.41h8.1l3.8,7.41a.73.73,0,0,0,.65.4.8.8,0,0,0,.33-.08.74.74,0,0,0,.32-1L28,41.41h7.33A1.66,1.66,0,0,0,37,39.75V38.14h4.4a.74.74,0,0,0,0-1.47Zm-5.86,3.08a.2.2,0,0,1-.2.2H9.29a.2.2,0,0,1-.2-.2V38.14H35.54Z" fill="#333" stroke="#333" stroke-miterlimit="10"/><path d="M9,5.24h33.1a.61.61,0,0,1,.61.61v7a.74.74,0,1,0,1.47,0v-7a2.08,2.08,0,0,0-2.08-2.07H26.38V2.34A1.84,1.84,0,0,0,24.54.5H20.09a1.84,1.84,0,0,0-1.84,1.84V3.78H9A.73.73,0,1,0,9,5.24Zm10.76-2.9A.38.38,0,0,1,20.09,2h4.45a.37.37,0,0,1,.37.38V3.78h-5.2V2.34Z" fill="#333" stroke="#333" stroke-miterlimit="10"/><path d="M50.13,37.36l-4.21-7.28a9.57,9.57,0,1,0-9.47,2.71,9.51,9.51,0,0,0,4.65.08l4.2,7.28a2.81,2.81,0,0,0,2.42,1.39,2.72,2.72,0,0,0,1.39-.38,2.78,2.78,0,0,0,1.39-2.41A2.86,2.86,0,0,0,50.13,37.36Zm-13.3-6a8.11,8.11,0,0,1,2.09-15.94,8.11,8.11,0,0,1,7,4.06,8.1,8.1,0,0,1-9.12,11.88ZM48.38,39.9a1.34,1.34,0,0,1-1.81-.49l-4-7a9.33,9.33,0,0,0,1.19-.58,9.08,9.08,0,0,0,1.09-.74l4,7a1.39,1.39,0,0,1,.18.66A1.36,1.36,0,0,1,48.38,39.9Z" fill="#333"/><path d="M45.57,25.6a6.92,6.92,0,0,0-.34-5,.75.75,0,0,0-1-.35.73.73,0,0,0-.35,1,5.46,5.46,0,1,1-1.65-2.05.72.72,0,0,0,1-.14.73.73,0,0,0-.14-1,7,7,0,1,0-6,12.27,7,7,0,0,0,1.81.24,7,7,0,0,0,6.63-4.9Z" fill="#333"/></svg>