<svg xmlns="http://www.w3.org/2000/svg" width="50" height="57.15" viewBox="0 0 50 57.15"><title>icons</title><path d="M13.52,33.68a32.12,32.12,0,0,0,5.1,1.18,3.36,3.36,0,0,0,.63-2v-1a14.68,14.68,0,0,1-6.69-12.31V13.39h.83l.15.15a8.08,8.08,0,0,0,5.71,2.36V13.39l.15.15a8.08,8.08,0,0,0,5.71,2.36V13.39l.15.15A8.08,8.08,0,0,0,31,15.9h1.67v3.65A14.68,14.68,0,0,1,26,31.86v1a3.36,3.36,0,0,0,.63,2,32.12,32.12,0,0,0,5.1-1.18,7.47,7.47,0,0,0,5.15-7.15V14.23a14.23,14.23,0,1,0-28.46,0v12.3a7.47,7.47,0,0,0,5.15,7.15Z" fill="#f96969"/><path d="M36.93,38.75l-8.58-3.52a2.5,2.5,0,0,1-1.56-2.32v-.6a15.52,15.52,0,0,0,6.69-12.76V15.07H31a7.2,7.2,0,0,1-5.12-2.13l-1.58-1.56V15A7.2,7.2,0,0,1,20,12.94l-1.58-1.56V15a7.23,7.23,0,0,1-4.28-2.08l-.39-.38h-2v7a15.52,15.52,0,0,0,6.69,12.76v.6a2.5,2.5,0,0,1-1.56,2.32L8.27,38.74A13.27,13.27,0,0,0,0,51.06v.84H45.2v-.84a13.23,13.23,0,0,0-8.27-12.31ZM13.39,19.55v-5a8.85,8.85,0,0,0,5.86,2.19h.84V15.2a8.88,8.88,0,0,0,5,1.54H26V15.2a8.88,8.88,0,0,0,5,1.54h.84v2.81A13.85,13.85,0,0,1,22.6,32.6a13.85,13.85,0,0,1-9.21-13Zm9,14.73.26.08.26-.08a15.46,15.46,0,0,0,2.28-1,4.15,4.15,0,0,0,.71,2,4.18,4.18,0,0,1-6.5,0,4.15,4.15,0,0,0,.71-2,15.46,15.46,0,0,0,2.28,1Zm-4.85,2.5a3.48,3.48,0,0,0,.66-.35,5.82,5.82,0,0,0,8.9,0,3.48,3.48,0,0,0,.66.35L30.62,38a9.18,9.18,0,0,1-4.95,4.18l-.56.2v7.87h-5V42.35l-.56-.2a9.21,9.21,0,0,1-5-4.18ZM8.9,40.3,13,38.61a11,11,0,0,0,5.39,4.91v6.7H10v-5H8.37v5H1.7A11.58,11.58,0,0,1,8.9,40.3Zm27.93,9.92v-5H35.16v5H26.79v-6.7a11,11,0,0,0,5.39-4.91l4.12,1.68a11.6,11.6,0,0,1,7.2,9.93Z" fill="#333"/><circle cx="17.58" cy="19.25" r="0.84" fill="#333"/><circle cx="27.62" cy="19.25" r="0.84" fill="#333"/><path d="M26,26H24.27a1.67,1.67,0,1,1-3.34,0H19.25A3.35,3.35,0,1,0,26,26Z" fill="#333"/><path d="M21.76,46.87h1.68v1.68H21.76Z" fill="#333"/><path d="M21.76,43.53h1.68V45.2H21.76Z" fill="#333"/><path d="M21.76,40.18h1.68v1.67H21.76Z" fill="#333"/><path d="M22.6,5V3.35A10.88,10.88,0,0,0,14.49,7l1.25,1.11A9.2,9.2,0,0,1,22.6,5Z" fill="#333"/><path d="M14.62,9.63l-1.44-.84a9.92,9.92,0,0,0-.84,1.81l1.58.56A8.47,8.47,0,0,1,14.62,9.63Z" fill="#333"/><path d="M49.66,48.88a1.12,1.12,0,0,0,.28-1.16A1.1,1.1,0,0,0,49,47l-3.82-.56a.5.5,0,0,1-.38-.27l-1.71-3.46a1.12,1.12,0,0,0-1-.63,1.14,1.14,0,0,0-1,.63l-1.7,3.46a.5.5,0,0,1-.38.27L35.19,47a1.13,1.13,0,0,0-.63,1.93l2.77,2.69a.53.53,0,0,1,.14.45l-.65,3.8a1.12,1.12,0,0,0,.24.92,1.15,1.15,0,0,0,1.4.27l3.42-1.79a.47.47,0,0,1,.46,0L45.76,57a1.13,1.13,0,0,0,1.64-1.19L46.75,52a.5.5,0,0,1,.14-.45Z" fill="#f96969"/></svg>