<svg xmlns="http://www.w3.org/2000/svg" width="50" height="53.58" viewBox="0 0 50 53.58"><title>icons</title><path d="M23.76,36.13l.51-.07L36,48.13a1.8,1.8,0,0,0,2.53,0l1-1a1.77,1.77,0,0,0,0-2.51,2,2,0,0,0-.28-.23l-5.32-4a5.45,5.45,0,0,1-1.48-1.47L30,35.24h0L42.8,33.39,32.09,14.83,20.19,30Z" fill="#f96969"/><path d="M10.93,4.47h8.5a1.8,1.8,0,0,0,1.6-1L22.33.89H8L9.33,3.47a1.8,1.8,0,0,0,1.6,1Z" fill="#f96969"/><path d="M13.4,22.33V20.54H6.25v7.14H13.4Z" fill="#f96969"/><path d="M13.4,11.61V9.82H6.25V17H13.4Z" fill="#f96969"/><path d="M28.58,49.12a2.67,2.67,0,0,1-2.68,2.67H4.47a2.67,2.67,0,0,1-2.68-2.67V4.47A2.68,2.68,0,0,1,4.47,1.79h3l1,2.09a2.67,2.67,0,0,0,2.4,1.48h8.51a2.67,2.67,0,0,0,2.39-1.48l1.05-2.09h3a2.68,2.68,0,0,1,2.68,2.68V13.4h1.78V4.47A4.47,4.47,0,0,0,25.9,0H4.47A4.47,4.47,0,0,0,0,4.47V49.12a4.47,4.47,0,0,0,4.47,4.46H25.9a4.46,4.46,0,0,0,4.46-4.46V46.44H28.58Zm-8.35-46a.89.89,0,0,1-.79.49H10.93a.89.89,0,0,1-.8-.49L9.48,1.79h11.4Z" fill="#333"/><path d="M13.4,19.65H6.25a.89.89,0,0,0-.89.89v7.14a.89.89,0,0,0,.89.9H13.4a.89.89,0,0,0,.89-.9v-5l4.2-4.21-1.26-1.26-3,3a.88.88,0,0,0-.83-.58Zm-.9,7.14H7.14V21.43H12.5V22l-1.78,1.78L9.56,22.59,8.3,23.85l1.78,1.79a.92.92,0,0,0,1.27,0l1.15-1.16Z" fill="#333"/><path d="M21.43,10.72H25V12.5H21.43Z" fill="#333"/><path d="M21.43,14.29H25v1.78H21.43Z" fill="#333"/><path d="M17.23,6.51l-3,3a.89.89,0,0,0-.83-.59H6.25a.89.89,0,0,0-.89.89V17a.89.89,0,0,0,.89.89H13.4a.89.89,0,0,0,.89-.89V12l4.2-4.2ZM12.5,16.07H7.14V10.72H12.5v.52L10.72,13,9.56,11.87,8.3,13.13l1.78,1.79a.9.9,0,0,0,1.27,0l1.15-1.16Z" fill="#333"/><path d="M42.41,20.21l4.64-2.68.89,1.55L43.3,21.76Z" fill="#333"/><path d="M40.3,17.45,43,12.81l1.55.89-2.68,4.64Z" fill="#333"/><path d="M44.64,23.19H50V25H44.64Z" fill="#333"/><path d="M37.74,15.69a4.47,4.47,0,0,0-6.1-1.63.78.78,0,0,0-.26.22l-11.79,15L16.65,31a4.46,4.46,0,1,0,4.41,7.76l.05,0L24,37,35.39,48.77a2.69,2.69,0,0,0,3.79,0l1-1a2.66,2.66,0,0,0,0-3.77,2.85,2.85,0,0,0-.38-.31l-5.36-4.07a4.24,4.24,0,0,1-1.23-1.23l-1.67-2.48,11.39-1.64a1.21,1.21,0,0,0,.32-.11,4.47,4.47,0,0,0,1.63-6.1h0ZM32,16.42l9.4,16.28L24.23,35.16l-3-5.13ZM20.22,37.15a2.68,2.68,0,1,1-2.68-4.64l2.32-1.34,2.68,4.64Zm11.5,2.24a6,6,0,0,0,1.68,1.7l5.37,4.07a.89.89,0,0,1,.13,1.37l-1,1a.9.9,0,0,1-1.26,0L26.14,36.69l3.45-.49ZM43.6,31a2.55,2.55,0,0,1-.55,1L33.39,15.3a2.67,2.67,0,0,1,2.8,1.29L43.33,29a2.63,2.63,0,0,1,.27,2Z" fill="#333"/></svg>