<svg xmlns="http://www.w3.org/2000/svg" width="50" height="41.07" viewBox="0 0 50 41.07"><title>icons</title><rect x="27.22" y="25.34" width="6.92" height="15" fill="#f96969"/><circle cx="41.89" cy="6.11" r="6.11" fill="#f96969"/><path d="M40.54,8.74l-.25-.11-.11-.07V8.41l.07-.68,0-.25.22.1s.07,0,.1,0,.08,0,.11,0a.78.78,0,0,0,.25.07,2.5,2.5,0,0,1,.26.07c.07,0,.14,0,.21,0a.56.56,0,0,1,.22,0h.28c.08,0,.15,0,.18,0h0c.08,0,.11,0,.18-.08h0a.48.48,0,0,0,.15-.1h0a1.18,1.18,0,0,0,.11-.15h0s0-.11.07-.14V7.19h0a.3.3,0,0,0,0-.18h0s0-.11-.07-.14l-.11-.11a.42.42,0,0,0-.14-.11.26.26,0,0,0-.15-.07s-.1,0-.18-.07h0a1.82,1.82,0,0,1-.32-.15h0c-.11,0-.21-.11-.32-.14A.84.84,0,0,1,41,6c-.07-.07-.18-.11-.25-.22h0l-.22-.21h0c-.07-.08-.11-.18-.18-.26h0L40.25,5a1.16,1.16,0,0,1,0-.32h0a1.8,1.8,0,0,1,0-.4c0-.11.08-.25.11-.36a1.72,1.72,0,0,1,.18-.32,2.15,2.15,0,0,1,.25-.29h0c.11-.07.18-.14.29-.22h0A1.56,1.56,0,0,1,41.41,3h0V2.19h.94v.75h.07c.07,0,.11,0,.18,0a1.72,1.72,0,0,1,.18,0l.14,0h0s.07,0,.15,0l.14,0,0,.15-.07.65,0,.21-.22-.07s-.07,0-.14,0h0a1.3,1.3,0,0,0-.15,0h0c-.07,0-.14,0-.21,0s-.15,0-.22,0h-.29a.51.51,0,0,0-.21,0h0a1.34,1.34,0,0,1-.18.07,1.43,1.43,0,0,1-.15.11.34.34,0,0,0-.07.15h0s0,.1,0,.18v.18c0,.07,0,.1,0,.18s0,.1.07.14h0l.11.11h0l.15.1h0s.1,0,.14.08a1.34,1.34,0,0,1,.18.07h0a1.12,1.12,0,0,1,.32.14c.11,0,.22.11.33.15a.88.88,0,0,1,.28.18A2,2,0,0,1,43.1,6l.21.22h0a1.1,1.1,0,0,1,.15.25,2.39,2.39,0,0,0,.1.29h0a.88.88,0,0,1,0,.32h0a1.39,1.39,0,0,1,0,.4h0c0,.14-.07.25-.1.36a2.11,2.11,0,0,1-.18.32.88.88,0,0,1-.26.25h0l-.32.22a1.34,1.34,0,0,1-.36.14h0v.79h-.93V8.81H41.3c-.11,0-.22,0-.33,0a1.63,1.63,0,0,1-.28-.07h0c0,.07-.08,0-.15,0" fill="#333"/><path d="M8.8,24.53a.71.71,0,0,0,.43-.13l10.21-7.31,9.88,4.11a.84.84,0,0,0,.77-.09L38,14.83a.74.74,0,0,0,.13-1.07.76.76,0,0,0-1.07-.13l-7.6,6-9.83-4.1a.73.73,0,0,0-.73.08L8.38,23.16a.75.75,0,0,0-.17,1.07A.68.68,0,0,0,8.8,24.53Z" fill="#333"/><path d="M49.23,39.53h-3.5V17.74A.77.77,0,0,0,45,17H38a.77.77,0,0,0-.77.77V39.53H34.7V25.26a.76.76,0,0,0-.77-.77H27.05a.76.76,0,0,0-.77.77V39.53H23.72V24.15a.76.76,0,0,0-.77-.77H16a.76.76,0,0,0-.77.77V39.53H12.69v-11a.76.76,0,0,0-.77-.77H5a.77.77,0,0,0-.77.77v11H.77a.77.77,0,0,0,0,1.54H49.23A.76.76,0,0,0,50,40.3.79.79,0,0,0,49.23,39.53ZM38.8,18.46h5.43V39.53H38.8ZM27.78,26h5.43v13.5H27.78Zm-11-1.16h5.43V39.49H16.79Zm-11,4.4h5.43V39.49H5.81Z" fill="#333"/></svg>