<svg xmlns="http://www.w3.org/2000/svg" width="52" height="43.35" viewBox="0 0 52 43.35"><title>icons</title><path d="M28.52,5.36a.54.54,0,0,0,.14-.58.55.55,0,0,0-.45-.38l-1.92-.28A.22.22,0,0,1,26.11,4l-.86-1.73a.56.56,0,0,0-1,0L23.38,4a.22.22,0,0,1-.19.14l-1.91.28a.58.58,0,0,0-.46.38.57.57,0,0,0,.15.58l1.38,1.35a.23.23,0,0,1,.07.22L22.1,8.84a.52.52,0,0,0,.12.45.57.57,0,0,0,.7.14l1.71-.9a.31.31,0,0,1,.23,0l1.71.9a.48.48,0,0,0,.26.07.58.58,0,0,0,.44-.21.52.52,0,0,0,.12-.45l-.32-1.91a.23.23,0,0,1,.07-.22Z" fill="#f96969"/><path d="M24.75,11.43V11a5.2,5.2,0,0,0,1.17-.14l.1.46A6,6,0,0,1,24.75,11.43Zm-1.27-.14a5.59,5.59,0,0,1-1.21-.42l.2-.42a5.42,5.42,0,0,0,1.11.39Zm3.75-.42L27,10.45a5,5,0,0,0,1-.63l.29.36A5.82,5.82,0,0,1,27.23,10.87Zm-6.05-.68a5.53,5.53,0,0,1-.9-.91L20.64,9a5.43,5.43,0,0,0,.83.83Zm8-.91L28.85,9a5.44,5.44,0,0,0,.63-1l.42.21A5.82,5.82,0,0,1,29.21,9.28ZM19.6,8.2A5.62,5.62,0,0,1,19.17,7l.46-.1A4.44,4.44,0,0,0,20,8ZM30.32,7l-.46-.11A5,5,0,0,0,30,5.72v0h.47v0A6,6,0,0,1,30.32,7ZM19,5.72h0a6,6,0,0,1,.14-1.27l.45.1a5.67,5.67,0,0,0-.13,1.17ZM29.86,4.54a5.22,5.22,0,0,0-.39-1.11l.42-.21a6,6,0,0,1,.43,1.21ZM20,3.44l-.42-.2a5.3,5.3,0,0,1,.68-1.08l.37.29A5.18,5.18,0,0,0,20,3.44Zm8.83-1A4.66,4.66,0,0,0,28,1.61l.29-.37a6.45,6.45,0,0,1,.91.9Zm-7.37-.82-.3-.37A5.37,5.37,0,0,1,22.26.57l.2.42A4.88,4.88,0,0,0,21.47,1.62ZM27,1A5.22,5.22,0,0,0,25.9.59L26,.14a6,6,0,0,1,1.21.42ZM23.57.6,23.46.14A6.1,6.1,0,0,1,24.73,0V.47A5.06,5.06,0,0,0,23.57.6Z" fill="#f96969"/><path d="M21,34A4.17,4.17,0,0,0,17.84,30l-3.51-.87v-.4a5.87,5.87,0,0,0,2.5-4.78V22.46a6,6,0,0,0-5.65-6A5.82,5.82,0,0,0,6.7,18.3a6.09,6.09,0,0,0-1.54,4.14v1.48a5.87,5.87,0,0,0,2.5,4.78v.4L4.15,30A4.17,4.17,0,0,0,1,34v5a1.11,1.11,0,0,0,1.11,1.11H19.88A1.1,1.1,0,0,0,21,39V34Z" fill="none" stroke="#333" stroke-miterlimit="10" stroke-width="2"/><path d="M51,34A4.17,4.17,0,0,0,47.84,30l-3.51-.87v-.4a5.85,5.85,0,0,0,2.5-4.78V22.46a6,6,0,0,0-5.65-6,5.8,5.8,0,0,0-4.47,1.88,6.09,6.09,0,0,0-1.54,4.14v1.48a5.87,5.87,0,0,0,2.5,4.78v.4L34.16,30A4.17,4.17,0,0,0,31,34v5a1.1,1.1,0,0,0,1.11,1.11H49.89A1.11,1.11,0,0,0,51,39V34Z" fill="none" stroke="#333" stroke-miterlimit="10" stroke-width="2"/><path d="M38.27,35.56a5.29,5.29,0,0,0-4-5.13l-4.46-1.12v-.5A7.43,7.43,0,0,0,33,22.74V20.89a7.59,7.59,0,0,0-7.17-7.66,7.32,7.32,0,0,0-5.67,2.39,7.69,7.69,0,0,0-2,5.25v1.87a7.44,7.44,0,0,0,3.18,6.07v.5L16.9,30.43a5.29,5.29,0,0,0-4,5.13v6.38a1.41,1.41,0,0,0,1.41,1.41H36.86a1.41,1.41,0,0,0,1.41-1.41V35.56Z" fill="#f96969"/></svg>