<svg xmlns="http://www.w3.org/2000/svg" width="44.35" height="50" viewBox="0 0 44.35 50"><title>icons</title><path d="M14.52,20.16a8.87,8.87,0,1,0,7.09,14.2V23.71A8.78,8.78,0,0,0,14.52,20.16Z" fill="#f96969"/><path d="M40.32,27.42H24.19a.8.8,0,0,1-.8-.81V20.16a.81.81,0,0,1,.8-.81H40.32a.81.81,0,0,1,.81.81v6.45A.81.81,0,0,1,40.32,27.42Z" fill="#f96969"/><path d="M41.94,16.13H23l-2.63-3,2.09-1.79A9.55,9.55,0,0,0,25.81,4a4,4,0,0,0-4-4c-1.46,0-2.05,1.56-2.57,2.94-.25.67-.71,1.9-1.06,1.9s-.81-1.23-1.06-1.9C16.57,1.56,16,0,14.51,0s-2,1.56-2.57,2.94c-.25.67-.71,1.9-1.06,1.9s-.81-1.23-1.05-1.9C9.31,1.56,8.72,0,7.26,0a4,4,0,0,0-4,4A9.54,9.54,0,0,0,6.57,11.3l2.09,1.79-5.16,6A14.31,14.31,0,0,0,14.32,42.74h.4a14.27,14.27,0,0,0,5.44-1.08v5.92A2.43,2.43,0,0,0,22.58,50H41.94a2.42,2.42,0,0,0,2.41-2.42v-29A2.41,2.41,0,0,0,41.94,16.13ZM4.84,4A2.42,2.42,0,0,1,7.26,1.61c.35,0,.81,1.24,1.06,1.9.51,1.38,1.1,2.94,2.56,2.94s2.06-1.56,2.57-2.94c.25-.66.71-1.9,1.06-1.9s.81,1.24,1.06,1.9c.52,1.38,1.11,2.94,2.57,2.94s2.06-1.56,2.57-2.94c.25-.66.71-1.9,1.06-1.9A2.42,2.42,0,0,1,24.19,4a8,8,0,0,1-2.78,6.05l-2.35,2H10l-2.36-2A8,8,0,0,1,4.84,4Zm9.88,37.1h-.4a12.7,12.7,0,0,1-9.6-21l5.54-6.4h8.51l2.46,2.83a2.42,2.42,0,0,0-1.07,2V39.9A12.77,12.77,0,0,1,14.72,41.13Zm28,6.45a.8.8,0,0,1-.8.81H22.58a.81.81,0,0,1-.81-.81v-29a.81.81,0,0,1,.81-.81H41.94a.8.8,0,0,1,.8.81Z" fill="#333"/><path d="M36.29,46.77h4.84V35.48H36.29ZM37.9,37.1h1.62v8.06H37.9Z" fill="#333"/><path d="M29.84,46.77h4.84V41.94H29.84Zm1.61-3.22h1.61v1.61H31.45Z" fill="#333"/><path d="M29.84,40.32h4.84V35.48H29.84Zm1.61-3.22h1.61v1.61H31.45Z" fill="#333"/><path d="M23.39,46.77h4.84V41.94H23.39ZM25,43.55h1.61v1.61H25Z" fill="#333"/><path d="M23.39,40.32h4.84V35.48H23.39ZM25,37.1h1.61v1.61H25Z" fill="#333"/><path d="M29.84,33.87h4.84V29H29.84Zm1.61-3.22h1.61v1.61H31.45Z" fill="#333"/><path d="M36.29,33.87h4.84V29H36.29Zm1.61-3.22h1.62v1.61H37.9Z" fill="#333"/><path d="M23.39,33.87h4.84V29H23.39ZM25,30.65h1.61v1.61H25Z" fill="#333"/><path d="M14.52,26.61a.8.8,0,0,1,.8.81h1.62a2.41,2.41,0,0,0-1.62-2.27V23.39H13.71v1.76a2.41,2.41,0,0,0,.81,4.69.81.81,0,1,1-.81.81H12.1a2.42,2.42,0,0,0,1.61,2.27v1.76h1.61V32.92a2.41,2.41,0,0,0-.8-4.69.81.81,0,1,1,0-1.62Z" fill="#333"/></svg>