<svg xmlns="http://www.w3.org/2000/svg" width="50" height="50" viewBox="0 0 50 50"><title>icons</title><path d="M33.32,13a4.81,4.81,0,0,1,3.94-3.24L38.5,6.82,34.23,2.55,31.71,4.19a13.2,13.2,0,0,0-3-1.25L28.07,0H21.93l-.62,2.94a13.28,13.28,0,0,0-3,1.25L15.77,2.55,11.5,6.82l1.22,2.9a4.9,4.9,0,0,1,3.93,3.33l.29-.62A8.87,8.87,0,0,1,33,12.36Z" fill="#f96969"/><path d="M31.62,22l-3.39-.85v-.38a5.67,5.67,0,0,0,2.42-4.63V14.72a5.8,5.8,0,0,0-5.48-5.85,5.65,5.65,0,0,0-5.82,5.65v1.61a5.67,5.67,0,0,0,2.42,4.63v.38L18.38,22a4,4,0,0,0-3.06,3.92v1.42l2.25-.5a9.39,9.39,0,0,1,2-.22,9,9,0,0,1,2.77.44L26,28.23a4.25,4.25,0,0,1,1.18.16l5.07,1.45h.8L34.68,29V25.91A4,4,0,0,0,31.62,22Z" fill="#f96969"/><path d="M50,21H48.19l-2.7,1.42a4.24,4.24,0,0,0-1-.4l-3.4-.85v-.38a5.67,5.67,0,0,0,2.42-4.63V14.72a5.8,5.8,0,0,0-5.47-5.85,5.64,5.64,0,0,0-5.82,5.65v1.61a5.64,5.64,0,0,0,2.42,4.63v.38L31.45,22l.17,0a4,4,0,0,1,1.9,1.11l2.77-.7V19.85l-.4-.23a4,4,0,0,1-2-3.49V14.52a4,4,0,0,1,1.23-2.9A4,4,0,0,1,38,10.49a4.17,4.17,0,0,1,3.91,4.23v1.41a4.06,4.06,0,0,1-2,3.49l-.41.23V22.4l4,1L32.87,29h-.5l-5-1.41a4.83,4.83,0,0,0-1.19-.18l-3.65-1.16A9.87,9.87,0,0,0,17.4,26l-4.59,1,.06-.23,0-1.49L8.65,22.86l1.83-.46V19.85l-.4-.23a4.06,4.06,0,0,1-2-3.49V14.52a4,4,0,0,1,1.23-2.9,4,4,0,0,1,2.93-1.13,4.16,4.16,0,0,1,3.91,4.23v1.41a4,4,0,0,1-2,3.49l-.4.23V22.4l2.77.7A4,4,0,0,1,18.38,22l.17,0-3.23-.81v-.38a5.67,5.67,0,0,0,2.42-4.63V14.72a5.8,5.8,0,0,0-5.47-5.85,5.65,5.65,0,0,0-5.82,5.65v1.61a5.67,5.67,0,0,0,2.42,4.63v.38l-2.22.56-4-2.35H0V36.07l7.93,2.64H9.48L9.67,38l2.43,1.46a2.52,2.52,0,0,0,2.43,2.44,2.51,2.51,0,0,0,2.41,2.42,2.53,2.53,0,0,0,2.42,2.42,2.51,2.51,0,0,0,2.51,2.42,2.55,2.55,0,0,0,1.42-.43l.71.63a2.47,2.47,0,0,0,1.62.61h.15a2.45,2.45,0,0,0,2.45-2.42,2.45,2.45,0,0,0,2.42-2.42,2.45,2.45,0,0,0,2.42-2.42,2.49,2.49,0,0,0,2.42-2.48,1.93,1.93,0,0,0,0-.24L50,32.76ZM1.61,21H2.2L8,24.35,5.07,36.06,1.61,34.9ZM8.2,37.1l-1.59-.53L9.45,25.2l1.84,1.07v.23l-3,10.6Zm5.51,2.32a.94.94,0,0,1,.26-.64l1.42-1.42a.91.91,0,0,1,1.55.64.91.91,0,0,1-.27.64l-1.42,1.42a.91.91,0,0,1-1.54-.64Zm2.42,2.42a.94.94,0,0,1,.26-.64l1.42-1.42a.91.91,0,0,1,1.28,1.28l-1.42,1.42a.91.91,0,0,1-1.54-.64Zm2.42,2.42a.9.9,0,0,1,.26-.64l1.42-1.42a.91.91,0,0,1,1.28,1.28L20.09,44.9a.91.91,0,0,1-1.54-.64Zm3.32,3.32A.91.91,0,0,1,21.23,46l1.42-1.42a.9.9,0,0,1,1.54.64.9.9,0,0,1-.26.64l-1.42,1.42A.94.94,0,0,1,21.87,47.58Zm3.9.81h-.15a.86.86,0,0,1-.55-.21l-.61-.54.61-.6a2.56,2.56,0,0,0,.51-.75l.73.61a.85.85,0,0,1,.3.65A.84.84,0,0,1,25.77,48.39ZM33,41.13h-.14a.85.85,0,0,1-.55-.2l-4.37-3.65-1,1.24,4.25,3.54a.84.84,0,0,1-.54,1.49h-.18a.81.81,0,0,1-.53-.2L25.52,39.7l-1,1.24,4.25,3.54a.85.85,0,0,1,.3.65.84.84,0,0,1-.84.84,1.33,1.33,0,0,1-.85-.31l-1.8-1.5a2.49,2.49,0,0,0-2.16-1.41A2.53,2.53,0,0,0,21,40.33a2.53,2.53,0,0,0-2.42-2.42,2.51,2.51,0,0,0-4.29-1.69l-1.42,1.42a2.88,2.88,0,0,0-.22.27l-2.48-1.48,2.17-7.6,5.45-1.21a8.34,8.34,0,0,1,4.32.19l1.19.38-4,2a2.68,2.68,0,0,0-1.49,2.41v.16a2.71,2.71,0,0,0,4.09,2.32l3-1.8a1.67,1.67,0,0,1,1.93.18l6.81,6.14a.84.84,0,0,1,.29.64A.87.87,0,0,1,33,41.13Zm15.39-9.37L34.8,38.55l-.14-.13-6.81-6.13A3.24,3.24,0,0,0,24,31.91l-3,1.81a1.1,1.1,0,0,1-1.65-.94v-.16a1.09,1.09,0,0,1,.61-1l4.5-2.25A3.46,3.46,0,0,1,27,29.17L32,30.61l1.22,0,15.13-8Z" fill="#333"/></svg>