<svg xmlns="http://www.w3.org/2000/svg" width="50" height="50" viewBox="0 0 50 50"><title>icons</title><path d="M37.1,4h1.61V16.47H37.1Z" fill="#333"/><path d="M28.05,21H9.68V6.45h21V18.16H29V8.06H11.29V19.35H28.05Z" fill="#333"/><path d="M16.13,18.24V9.18l9.06,4.53Zm1.61-6.45v3.84l3.84-1.92Z" fill="#333"/><path d="M26.75,30.65H5.65a4,4,0,0,1-4-4V4H3.23V26.61A2.42,2.42,0,0,0,5.65,29h21.1Z" fill="#333"/><path d="M35.48,15.32A9.69,9.69,0,0,0,25.81,25v5.65h.8A2.42,2.42,0,0,1,29,28.23h.81v.24a2.77,2.77,0,0,1,2.76-2.66,2.62,2.62,0,0,1,.88.14l2,.66,2-.66a2.6,2.6,0,0,1,.87-.14,2.77,2.77,0,0,1,2.77,2.66v-.24h.81a2.41,2.41,0,0,1,2.41,2.42h.81V25A9.69,9.69,0,0,0,35.48,15.32Z" fill="#f96969"/><path d="M45.92,40l-6.4-1.85V36.48a6.47,6.47,0,0,0,1.94-2.61h.48a3.23,3.23,0,0,0,0-6.45h-.22A3.57,3.57,0,0,0,38.35,25a3.66,3.66,0,0,0-1.13.18l-1.74.58-1.73-.58A3.67,3.67,0,0,0,32.61,25a3.59,3.59,0,0,0-3.37,2.42H29a3.23,3.23,0,0,0,0,6.45h.48a6.38,6.38,0,0,0,1.94,2.61V38.1L25.05,40A5.67,5.67,0,0,0,21,45.37V50H50V45.37A5.67,5.67,0,0,0,45.92,40Zm-2.37-9.3a1.62,1.62,0,0,1-1.61,1.61h-.06a7.36,7.36,0,0,0,.06-.81V29A1.62,1.62,0,0,1,43.55,30.65ZM29,32.26A1.62,1.62,0,0,1,29,29v2.42a5.52,5.52,0,0,0,.06.81Zm11.76,7.89-1.6,3.72-2.5-2,2.25-2.25Zm-10.14-8.7V28.58a2,2,0,0,1,2-2,2.24,2.24,0,0,1,.63.1l2.24.75,2.25-.75a2.17,2.17,0,0,1,.62-.1,2,2,0,0,1,2,2v2.87a4.84,4.84,0,1,1-9.67,0Zm4.83,6.45a6.44,6.44,0,0,0,2.42-.47v1L35.48,40.8l-2.42-2.42v-1A6.52,6.52,0,0,0,35.48,37.9ZM32,39.62l2.26,2.25-2.51,2-1.59-3.72Zm16.37,8.77H45.16V43.55H43.55v4.84H27.42V43.55H25.81v4.84H22.58v-3a4.06,4.06,0,0,1,2.91-3.87l3.13-.9,2.51,5.85L35.48,43l4.36,3.48,2.51-5.85,3.12.9a4.06,4.06,0,0,1,2.92,3.87Z" fill="#333"/><path d="M34.68,45.16h1.61v1.61H34.68Z" fill="#333"/><path d="M24.19,24.19H12.9V22.58H11.29v1.61H6.45v1.62h4.84v1.61H12.9V25.81H24.19Z" fill="#333"/><path d="M38.71,4.84H1.61A1.61,1.61,0,0,1,0,3.23V1.61A1.61,1.61,0,0,1,1.61,0h37.1a1.61,1.61,0,0,1,1.61,1.61V3.23A1.61,1.61,0,0,1,38.71,4.84Z" fill="#f96969"/></svg>